<?xml version="1.0" encoding="UTF-8" standalone="no"?>
<!-- Generator: Adobe Illustrator 14.0.0, SVG Export Plug-In . SVG Version: 6.00 Build 43363)  -->

<svg
   xmlns:dc="http://purl.org/dc/elements/1.1/"
   xmlns:cc="http://creativecommons.org/ns#"
   xmlns:rdf="http://www.w3.org/1999/02/22-rdf-syntax-ns#"
   xmlns:svg="http://www.w3.org/2000/svg"
   xmlns="http://www.w3.org/2000/svg"
   xmlns:sodipodi="http://sodipodi.sourceforge.net/DTD/sodipodi-0.dtd"
   xmlns:inkscape="http://www.inkscape.org/namespaces/inkscape"
   version="1.1"
   id="Calque_2"
   x="0px"
   y="0px"
   width="64"
   height="64"
   viewBox="0 0 64 64"
   enable-background="new 0 0 64 64"
   xml:space="preserve"
   inkscape:version="0.48.1 r9760"
   sodipodi:docname="logo_MB.svgz.2011_06_30_16_15_49.0.svg"><metadata
   id="metadata35"><rdf:RDF><cc:Work
       rdf:about=""><dc:format>image/svg+xml</dc:format><dc:type
         rdf:resource="http://purl.org/dc/dcmitype/StillImage" /><dc:title></dc:title></cc:Work></rdf:RDF></metadata><defs
   id="defs33" /><sodipodi:namedview
   pagecolor="#ffffff"
   bordercolor="#666666"
   borderopacity="1"
   objecttolerance="10"
   gridtolerance="10"
   guidetolerance="10"
   inkscape:pageopacity="0"
   inkscape:pageshadow="2"
   inkscape:window-width="1112"
   inkscape:window-height="580"
   id="namedview31"
   showgrid="false"
   inkscape:showpageshadow="false"
   showborder="true"
   inkscape:zoom="4.109375"
   inkscape:cx="20.352311"
   inkscape:cy="38.973445"
   inkscape:window-x="0"
   inkscape:window-y="0"
   inkscape:window-maximized="0"
   inkscape:current-layer="Calque_2" />

<g
   id="g2998"
   transform="translate(0.99999932,-0.99999887)"><path
     transform="matrix(1.340954,0,0,1.6872931,93.978949,-24.688743)"
     d="m -23.847908,34.190113 c 0,10.14692 -10.350223,18.372624 -23.11787,18.372624 -12.767648,0 -23.117871,-8.225704 -23.117871,-18.372624 0,-10.14692 10.350223,-18.372623 23.117871,-18.372623 12.767647,0 23.11787,8.225703 23.11787,18.372623 z"
     sodipodi:ry="18.372623"
     sodipodi:rx="23.11787"
     sodipodi:cy="34.190113"
     sodipodi:cx="-46.965778"
     id="path3012"
     style="fill:#ffffff;fill-rule:evenodd;stroke:none"
     sodipodi:type="arc" /><g
     transform="translate(-2.0333152e-4,0.6838114)"
     id="g9">
	<path
   inkscape:connector-curvature="0"
   id="path11"
   d="M 54.414,5.039 33.091,26.361 11.41,4.681 c 0,0 -0.326,-0.336 -0.493,-0.498 0.942,0.981 1.565,2.431 1.565,4.346 0,10.482 0,37.093 0,47.576 0,2.188 -0.811,3.765 -1.981,4.734 0.311,-0.26 0.909,-0.808 0.909,-0.808 l 39.68,-39.68 c -2.212,12.045 -5.191,28.124 -6.232,33.11 -1.299,6.225 7.001,7.956 8.3,1.731 L 61.99,7.856 C 62.239,4.343 57.881,1.57 54.414,5.039 z M 12.482,46.968 V 36.595 H 22.855 L 12.482,46.968 z m 0,-18.851 V 17.744 L 22.855,28.117 H 12.482 z" />
	<path
   style="fill:#0000ff"
   inkscape:connector-curvature="0"
   id="path13"
   d="m 2,8.528 c 0,-7.86 10.482,-7.861 10.482,0 0,10.482 0,37.093 0,47.576 C 12.482,63.965 2,63.965 2,56.104 2,45.621 2,8.528 2,8.528 z" />
</g></g>






</svg>