<?xml version="1.0" standalone="no"?>
<!DOCTYPE svg PUBLIC "-//W3C//DTD SVG 1.1//EN" "http://www.w3.org/Graphics/SVG/1.1/DTD/svg11.dtd" >
<svg xmlns="http://www.w3.org/2000/svg">
<metadata>
This is a custom SVG webfont generated by Font Squirrel.
Copyright   : Copyright c 2010 Friedrich Althausen httpfriedrichalthausende All rights reservedThis Font Software is licensed under the SIL Open Font License Version 11This license is available with a FAQ at httpscriptssilorgOFL
Designer    : Friedrich Althausen
Foundry     : Friedrich Althausen
Foundry URL : httpfriedrichalthausende
</metadata>
<defs>
<font id="VollkornRegular" horiz-adv-x="1171" >
<font-face units-per-em="2048" ascent="1536" descent="-512" />
<missing-glyph horiz-adv-x="434" />
<glyph unicode=" "  horiz-adv-x="434" />
<glyph unicode="&#x09;" horiz-adv-x="434" />
<glyph unicode="&#xa0;" horiz-adv-x="434" />
<glyph unicode="!" horiz-adv-x="890" d="M315 1479q20 4 51 12t63 18.5t59.5 20.5t46.5 20q40 -14 39 -55q0 -6 -1 -12l-21 -225q-11 -122 -21.5 -251.5t-18.5 -262t-12 -257.5q-27 0 -52.5 3.5t-46.5 11.5q-8 152 -18 281l-19 248q-9 118 -22 227.5zM326 98q0 49 36.5 86t96.5 37q55 0 87 -38t32 -74 q0 -66 -39 -95.5t-90 -29.5q-57 0 -90 31.5t-33 82.5z" />
<glyph unicode="&#x22;" horiz-adv-x="743" d="M131 1505q29 4 63.5 15.5t57.5 29.5q44 -9 44 -58q0 -6 -1 -13q-2 -6 -2 -14.5t-2 -16.5q-10 -86 -17.5 -185.5l-17.5 -222.5q-23 0 -48.5 4.5t-35.5 14.5q-4 113 -14.5 226.5t-26.5 219.5zM446 1505q31 4 66 16.5t59 28.5q43 -10 43 -59v-12q-10 -94 -19 -197.5 t-20 -243.5q-25 0 -51 4.5t-39 14.5q-4 113 -12.5 227.5t-26.5 220.5z" />
<glyph unicode="#" horiz-adv-x="1308" d="M117 461q0 53 26 110h246l82 390h-63q-90 0 -177 -5q0 25 6.5 54.5t20.5 58.5h236l104 481q29 -4 52.5 -14t39.5 -33l-92 -434h348l103 481q66 -14 94 -43l-94 -438h223q0 -33 -4 -56.5t-23 -49.5h-219l-82 -392h238q0 -33 -5.5 -54t-21.5 -52h-233l-101 -481 q-41 6 -59.5 17t-36.5 30l92 434q-119 0 -209 -2h-139l-100 -479q-68 8 -93 55l89 424q-94 0 -152 -2h-96zM494 571h346l82 392h-347z" />
<glyph unicode="$" horiz-adv-x="1183" d="M147 119q12 84 16.5 166t4.5 143q23 6 55.5 9t61.5 3q4 -82 21.5 -147.5t53 -111.5t95.5 -72q37 -14 84 -23v559q-12 6 -27 10q-86 41 -161 96.5t-125 138.5t-50 216q0 84 28.5 154.5t81 122t124.5 75.5q59 23 129 27v131q33 0 54 -5t46 -20q0 -43 -2 -106q82 -6 145 -29 q86 -29 131 -65q0 -61 2.5 -144.5t12.5 -140.5q-25 -12 -58.5 -16.5t-64.5 -4.5q-16 94 -38 153.5t-51.5 93.5t-66.5 46q-6 2 -14 4v-530l63 -33q88 -43 163 -98t125 -133t50 -197q0 -82 -33.5 -157.5t-92 -132t-140.5 -89.5q-61 -23 -133 -28q2 -102 2 -181 q-25 0 -55.5 6.5t-44.5 16.5v158q-41 2 -78 6q-57 6 -106.5 22.5t-98 42t-109.5 64.5zM362 1174q0 -94 50 -156q51 -61 125 -109l2 -2v482q-74 -8 -119 -54q-58 -57 -58 -161zM635 84q43 4 78 18q45 18 75.5 49t47 71t16.5 87q0 96 -50 157.5t-126 104.5q-20 12 -41 23v-510 z" />
<glyph unicode="%" horiz-adv-x="1810" d="M195 1112q0 70 23.5 134.5t68.5 114.5t112.5 79.5t155.5 29.5q80 0 139.5 -29.5t99.5 -76.5t60 -105.5t20 -115.5q0 -74 -22.5 -139.5t-65.5 -115.5t-106.5 -79t-144.5 -29q-86 0 -149.5 28t-105.5 76t-63.5 106.5t-21.5 121.5zM299 66l1200 1423q31 -6 51.5 -22.5 t40.5 -41.5l-1214 -1439q-29 16 -50.5 36.5t-27.5 43.5zM362 1139q0 -117 50.5 -193t138.5 -76q27 0 55.5 15.5t51 46.5t38 75t15.5 105q0 117 -51.5 191.5t-131.5 74.5q-70 0 -118 -67.5t-48 -171.5zM993 315q0 72 23.5 136.5t68.5 114.5t114 80t161 30q80 0 139.5 -30 t99 -77t60 -106.5t20.5 -116.5q0 -76 -22.5 -141.5t-66.5 -115.5t-108.5 -79.5t-146.5 -29.5q-84 0 -148.5 28.5t-106.5 76.5t-64.5 107.5t-22.5 122.5zM1171 342q0 -117 48.5 -193.5t134.5 -76.5q27 0 53.5 15t48 46t35.5 76t14 106q0 117 -49 193t-127 76 q-33 0 -61.5 -18.5t-50 -51.5t-34 -76t-12.5 -96z" />
<glyph unicode="&#x26;" horiz-adv-x="1609" d="M117 451q0 84 25.5 155.5t67.5 132t101 109.5q41 35 84 65l-18 31q-31 70 -49.5 140.5t-18.5 148.5q0 61 23.5 119.5t68.5 104.5t112 72.5t151 26.5q94 0 160.5 -18t136.5 -57q-10 -57 -14 -123q-1 -28 -1 -56q0 -37 2 -75q-27 -10 -57.5 -14.5t-56.5 -4.5 q-8 139 -51.5 195.5t-131.5 56.5q-76 0 -124 -48t-48 -138q0 -47 9.5 -91t32 -91.5t61.5 -105.5t102 -138l78 -95l107 -125l153 -171q16 -16 29 -31q55 84 84 152q35 76 53 147q7 31 7 55q0 43 -23 67q-36 38 -148 62q-6 23 -10 46.5t-4 45.5q45 -4 106.5 -6t114.5 -2 q55 0 117.5 2t99.5 6q0 -20 -2 -44.5t-6 -45.5q-68 -23 -98.5 -62.5t-51.5 -115.5q-29 -96 -71 -192q-37 -82 -99 -191l121 -129q27 -29 51.5 -47t52 -28.5t62.5 -17.5t84 -9q0 -20 -2 -47t-10 -49q-31 0 -74 -4.5l-89 -9.5t-87 -12t-68 -17q-72 96 -145 184l-27 26 q-86 -106 -178 -155q-100 -57 -229 -58q-131 0 -219.5 43t-142.5 112t-78.5 153t-24.5 166zM299 514q0 -90 25.5 -158.5t67.5 -115.5t98.5 -71t119.5 -24q98 0 176 35q66 31 132 94q-23 29 -50 58l-145 167l-148 167q-63 74 -112 141l-27 35q-49 -53 -88 -121 q-49 -84 -49 -207z" />
<glyph unicode="'" horiz-adv-x="428" d="M131 1505q29 4 63.5 16.5t59.5 28.5q41 -6 45 -53v-18q-12 -96 -20.5 -197.5t-18.5 -245.5q-23 0 -49.5 5.5t-36.5 15.5q-4 115 -15.5 227t-27.5 221z" />
<glyph unicode="(" horiz-adv-x="630" d="M76 520q0 141 21.5 273.5t69.5 263.5t121.5 266t178.5 285q12 3 22 2q13 0 22 -4q15 -8 32 -23q-76 -115 -130.5 -233.5t-88 -247.5t-49 -272.5t-15.5 -309.5q0 -168 17.5 -314.5t53.5 -280.5t91 -258t133 -245q-14 -10 -36 -12q-7 -1 -14 -1q-14 0 -28 3 q-190 254 -295.5 523.5t-105.5 584.5z" />
<glyph unicode=")" horiz-adv-x="630" d="M76 -578q78 121 133 245t91 258t53.5 280.5t17.5 314.5q0 166 -15.5 309.5t-48.5 272.5t-87 247.5t-132 233.5q16 12 34 21q12 5 27 5q8 0 17 -1q102 -150 177 -285t122 -266t68.5 -263t21.5 -274q0 -315 -104.5 -584.5t-296.5 -523.5q-11 -3 -25 -3q-7 0 -14 1 q-23 2 -39 12z" />
<glyph unicode="*" horiz-adv-x="960" d="M131 1229q6 31 23.5 67.5t48.5 57.5q49 -43 114 -93l127 -98q12 78 17.5 149.5t9.5 157.5q11 1 24 2q22 0 49 -5q42 -7 72 -25q-29 -63 -56 -140l-54 -153q78 12 149.5 28.5t153.5 41.5q14 -29 19 -70q2 -19 3 -36q0 -21 -4 -40q-70 4 -152.5 7t-162.5 5q37 -72 75 -133 l85 -133q-27 -25 -58.5 -40t-74.5 -19q-16 66 -39 143l-45 154q-57 -55 -104.5 -109.5t-98.5 -120.5q-29 14 -57.5 44t-40.5 65l126 80q69 45 132 94q-70 35 -137 61z" />
<glyph unicode="+" horiz-adv-x="1253" d="M100 512q0 25 5.5 60.5t15.5 50.5h450v182q0 57 -1 120.5t-1 149.5q23 14 49.5 17.5t59.5 3.5v-473h475q0 -33 -3 -58.5t-20 -50.5q-84 0 -147 1t-117 1h-188v-481q-16 -10 -52 -16.5t-59 -6.5q0 66 1 139.5t1 149.5q2 76 2 150v65h-51q-70 0 -142 -1l-144 -2 q-71 -1 -134 -1z" />
<glyph unicode="," horiz-adv-x="561" d="M131 -369q66 76 101.5 147.5t35.5 127.5q0 96 -100 108q0 23 3 63t13 68q49 10 93.5 25.5t80.5 40.5q74 -29 74 -158q0 -63 -18.5 -125.5t-51 -121t-74.5 -110.5t-87 -97q-45 -1 -70 32z" />
<glyph unicode="-" horiz-adv-x="909" d="M131 500q0 37 9.5 79t25.5 70h614q0 -35 -7 -72.5t-21 -68.5q-59 0 -143 -1l-170 -2l-169 -2q-82 -1 -139 -3z" />
<glyph unicode="." horiz-adv-x="512" d="M131 98q0 49 37 86t94 37t89 -38t32 -74q0 -66 -40 -95.5t-89 -29.5q-59 0 -91 31.5t-32 82.5z" />
<glyph unicode="/" horiz-adv-x="790" d="M72 37l559 1511q25 -6 52.5 -22.5t41.5 -34.5l-559 -1511q-31 12 -57.5 27.5t-36.5 29.5z" />
<glyph unicode="0" horiz-adv-x="1304" d="M86 553q0 131 50 233.5t132 171t183.5 104.5t207.5 36t207 -36t178.5 -104.5t126 -171t48.5 -233.5q0 -129 -46.5 -235.5t-122 -181.5t-178 -115.5t-213.5 -40.5q-113 0 -217 40.5t-183 115.5t-126 181.5t-47 235.5zM285 584q0 -80 28.5 -165t86 -155.5t136 -115 t181.5 -44.5q78 0 134 33t92 88.5t53.5 128t17.5 152.5q0 74 -26.5 159t-80 156.5t-132.5 118.5t-177 47q-78 0 -136.5 -30.5t-97 -86t-59 -129t-20.5 -157.5z" />
<glyph unicode="1" horiz-adv-x="841" d="M164 -6q0 23 2 46t8 46q82 6 116 44t34 146v533q0 53 -6.5 89t-24 57.5t-46 31.5t-73.5 12q-10 43 -10 93q25 -2 58 -3l70 -3q36 -1 68 -1h62q70 0 137.5 1t120.5 6q0 -49 -12 -93q-86 -6 -118 -45t-32 -145v-533q0 -55 8.5 -90.5t25.5 -56t45 -31t71 -12.5 q8 -23 10 -46.5t2 -45.5q-33 2 -70 4l-71 2h-117q-59 0 -130 -1t-128 -5z" />
<glyph unicode="2" horiz-adv-x="1165" d="M141 84l188 173l183 165q61 53 101 99t64.5 88t35 85t10.5 94q0 39 -14.5 73t-40 59.5t-59.5 41t-72 15.5q-92 0 -139.5 -60.5t-69.5 -220.5q-29 0 -63 3t-54 14q2 27 4 64.5t2 75.5t-2 75t-8 65q41 29 81 48.5t88 32.5t103.5 18.5t124.5 5.5q53 0 111.5 -13.5t107.5 -47 t80 -88t31 -132.5q0 -51 -12.5 -92t-40 -83t-73.5 -90t-114 -110l-127 -116l-137 -131h318q45 0 72.5 4t44 17t24.5 40t10 72q63 0 102 -15q0 -84 5.5 -145.5t17.5 -122.5q-10 -18 -26.5 -33.5t-43.5 -15.5q-102 2 -207.5 3t-218.5 1h-90q-47 0 -97 -1t-95 -2t-76 -1 q-18 18 -23.5 37.5t-5.5 50.5z" />
<glyph unicode="3" horiz-adv-x="1112" d="M109 -274q0 18 6 36.5t24 34.5q29 -18 96.5 -38.5t178.5 -20.5q63 0 129.5 21.5t120 63.5t88 106.5t34.5 148.5q0 127 -78.5 211t-236.5 84q-41 0 -70 -15q-16 16 -27.5 39t-11.5 37l219 282l144 195h-264q-49 0 -80 -5t-54.5 -21.5t-40 -46t-30.5 -78.5q-25 0 -48.5 6 t-39.5 22q16 80 19 153t3 149q55 -2 148.5 -3.5t232.5 -1.5q133 0 214 1t141 4q16 -14 21 -38t3 -48l-165 -205l-203 -260q11 1 22 0q68 0 134 -22q77 -26 136.5 -80t95.5 -137t36 -191q0 -96 -40 -182.5t-116 -153t-183.5 -105.5t-240.5 -39q-109 0 -189.5 28t-127.5 69z " />
<glyph unicode="4" horiz-adv-x="1294" d="M98 70l72 94l88 122l99 141l108 151l103 148l102 143l92 127l76 102q27 0 53.5 -5.5t44.5 -15.5v-905h188q43 0 64 -20q-16 -31 -27.5 -76t-11.5 -76h-213v-330q-20 0 -50 -5t-57.5 -12t-49 -14.5t-23.5 -9.5q-25 23 -25 72v299h-14q-168 0 -304 -4l-276 -8 q-14 12 -26.5 34.5t-12.5 47.5zM330 172h401v602z" />
<glyph unicode="5" horiz-adv-x="1042" d="M131 -301q0 37 27 72q29 -12 88 -22.5t125 -10.5t124 23.5t104 69.5t71.5 110.5t25.5 144.5q0 94 -46 163.5t-118.5 119t-161.5 77t-175 35.5q-16 12 -26.5 31.5t-10.5 36.5l133 541q57 -2 105 -3.5t91 -1.5h179q63 0 88.5 31t25.5 74q18 6 46 8t51 2 q-8 -57 -10.5 -125.5t-2.5 -144.5q-10 -18 -32.5 -28.5t-65.5 -10.5h-98q-59 0 -124 -1t-120 -3t-76 -4l-53 -219q139 -29 253 -71t195.5 -103.5t125.5 -145.5t44 -199q0 -125 -51 -222t-129 -161.5t-172 -98.5t-180 -34q-84 0 -149.5 19.5t-100.5 50.5z" />
<glyph unicode="6" horiz-adv-x="1087" d="M76 520q0 244 76.5 407t195.5 263t260.5 144t268.5 50q12 -12 17 -26.5t5 -40.5q-154 -31 -271.5 -85t-195.5 -146.5t-119 -227.5q-16 -53 -26 -115l69 43q43 25 82 40.5t77 23.5t79 8q188 0 297.5 -102.5t109.5 -294.5q0 -109 -36.5 -197t-100 -151.5t-145.5 -98 t-176 -34.5q-233 0 -350 138t-117 402zM274 530q0 -133 30 -220t75 -138t94 -71.5t90 -20.5q63 0 110.5 28.5t77 71.5t43 96.5t13.5 104.5q0 102 -29.5 169.5t-77 107.5t-101.5 55.5t-101 15.5q-55 0 -109 -16q-49 -14 -110 -56q-5 -59 -5 -127z" />
<glyph unicode="7" horiz-adv-x="1052" d="M109 764q20 82 28 158.5t8 167.5q84 -4 170 -5h342q63 0 117.5 1t94.5 2.5t65 1.5q10 -6 19.5 -19.5t13.5 -28.5l-168 -291l-174 -321q-51 -102 -85 -189t-54.5 -168t-28.5 -163t-8 -172l-85 -60q-42 -31 -69 -61q-18 6 -29.5 16.5t-11.5 24.5q0 68 17.5 164t47.5 201 q14 53 52.5 140t93.5 198.5t128 243.5l161 284h-346q-45 0 -79 -5t-57.5 -21.5t-41 -45.5t-33.5 -80q-20 0 -46 7.5t-42 19.5z" />
<glyph unicode="8" horiz-adv-x="1101" d="M119 305q0 78 20.5 138.5t61.5 111.5t98 94q51 39 113 78q-115 78 -179 150q-74 84 -73 192q0 59 24.5 115.5t70.5 100.5t116.5 70.5t163.5 26.5q184 0 289.5 -72.5t105.5 -215.5q0 -68 -25.5 -118t-64.5 -91t-88 -74l-72 -41q35 -23 68 -47q76 -57 129 -115.5t79.5 -124 t26.5 -145.5q0 -82 -34 -148.5t-92 -112.5t-139 -71.5t-177 -25.5t-173 26.5t-132.5 70.5t-86 104.5t-30.5 123.5zM305 324q0 -72 24.5 -122t63.5 -79t87 -42t98 -13q31 0 67.5 12t69.5 37.5t54.5 68.5t21.5 109q0 119 -89 211q-74 78 -208 170q-49 -35 -84 -70 q-37 -37 -60.5 -79t-34 -89.5t-10.5 -113.5zM364 1105q0 -81 47 -138q48 -59 162 -129q12 -8 29 -17q63 43 94 92q37 59 37 152q0 115 -56 173t-132 58q-80 0 -129 -46q-52 -48 -52 -145z" />
<glyph unicode="9" horiz-adv-x="1126" d="M86 614q0 117 39 207t103.5 152.5t152.5 93.5t190 31q250 0 365 -145.5t115 -426.5q0 -143 -41 -262t-108.5 -214t-156 -169t-183.5 -126t-190.5 -82.5t-176.5 -41.5q-14 18 -17.5 36t-3.5 42q172 66 299 143.5t211 175t125 218.5q12 33 20 67q-68 -55 -131 -82 q-76 -29 -166 -28q-92 0 -172.5 28.5t-141 83t-96.5 130t-36 169.5zM289 690q0 -115 33.5 -183.5t86 -106.5t113 -50t115.5 -12q63 0 125 24q47 18 84 52q6 49 6 96q0 131 -23.5 224t-63.5 152.5t-97.5 88.5t-126.5 29q-57 0 -102.5 -26t-79 -68t-52 -99.5t-18.5 -120.5z " />
<glyph unicode=":" horiz-adv-x="520" d="M131 817q0 49 37 86t94 37t89 -38t32 -75q0 -66 -40 -96.5t-89 -30.5q-59 0 -91 33t-32 84zM139 170q0 49 37 86t94 37t89 -38t32 -75q0 -66 -39 -96.5t-90 -30.5q-57 0 -90 33t-33 84z" />
<glyph unicode=";" horiz-adv-x="561" d="M131 -369q66 76 101.5 147.5t35.5 127.5q0 96 -100 108q0 23 3 63t13 68q49 10 93.5 25.5t80.5 40.5q74 -29 74 -158q0 -63 -18.5 -125.5t-51 -121t-74.5 -110.5t-87 -97q-45 -1 -70 32zM178 791q0 49 37 85.5t96 36.5q55 0 87 -37.5t32 -74.5q0 -66 -39 -95.5t-90 -29.5 q-57 0 -90 32t-33 83z" />
<glyph unicode="&#x3c;" horiz-adv-x="1079" d="M104 563q2 31 21 60l749 602q35 -8 57.5 -21.5t45.5 -38.5l-764 -606l729 -518q3 -17 3 -35q0 -15 -2 -32q-5 -36 -23 -54l-208 156l-193 140l-195 139l-218 149q-3 19 -2 39q-1 10 0 20z" />
<glyph unicode="=" d="M96 319q0 23 6.5 57t16.5 50h956q0 -33 -5 -56.5t-19 -47.5q-66 0 -118 1t-102 1h-362q-59 0 -118 -1l-120 -2q-61 -2 -135 -2zM102 678q0 23 6.5 56.5t16.5 49.5h952q0 -33 -4 -57.5t-20 -46.5q-66 0 -117 1t-100 1h-363q-59 0 -118 -1l-118 -2q-61 -1 -135 -1z" />
<glyph unicode="&#x3e;" horiz-adv-x="1067" d="M98 1165q20 25 44 38.5t59 21.5l747 -602q20 -29 23 -60q1 -10 0 -20q0 -20 -2 -39l-217 -149l-196 -139l-194 -140l-208 -156q-16 18 -23 54q-3 15 -3 30q0 19 5 37l729 518z" />
<glyph unicode="?" horiz-adv-x="1165" d="M260 1202q2 39 4 71t2 61.5t-1 58t-5 63.5q55 35 133 64.5t201 29.5q78 0 141.5 -18.5t110.5 -53t72.5 -87t25.5 -119.5q0 -106 -49 -184t-108.5 -152t-108.5 -157t-49 -195q0 -27 7 -72t17 -76q-18 -10 -36.5 -13t-41.5 -3q-37 23 -68.5 96.5t-31.5 167.5q0 72 20.5 127 t51.5 100t66.5 85t66.5 79t51.5 81t20.5 97q0 92 -53.5 149.5t-123.5 57.5q-82 0 -128 -64.5t-62 -213.5q-31 0 -66.5 5t-58.5 15zM461 100q0 53 38 91t101 38q57 0 91 -38.5t34 -79.5q0 -70 -41 -100.5t-94 -30.5q-61 0 -95 33.5t-34 86.5z" />
<glyph unicode="@" horiz-adv-x="2170" d="M274 496q0 195 59.5 365.5t173.5 297.5t279.5 201t378.5 74q182 0 319.5 -52.5t228.5 -141.5t136 -208t45 -252q0 -176 -45 -322.5t-115.5 -252t-157.5 -165.5t-167 -60q-84 0 -115.5 57t-31.5 156v161q-20 -72 -45 -131q-49 -111 -115 -177t-148 -66q-121 0 -194.5 102 t-73.5 348q0 127 29.5 234.5t84 185.5t128 121t164.5 43q63 0 114 -6q37 -4 84 -15q20 0 45 6q33 4 64 15q14 -4 23.5 -15.5t14.5 -34t7 -60.5t2 -99v-414q0 -80 2 -128t10 -72.5t23.5 -32.5t42.5 -8q33 0 79 38.5t87 117.5t69.5 192.5t28.5 263.5q0 117 -40 222.5t-121 186 t-201.5 126.5t-280.5 46q-184 0 -322.5 -62t-230.5 -173t-138 -263.5t-46 -330.5q0 -168 47 -323.5t142 -274.5t238.5 -187.5t338.5 -68.5q180 0 338.5 58.5t273.5 187.5q55 -8 67 -53q-49 -70 -123.5 -124.5t-167 -91t-199 -56t-218.5 -19.5q-223 0 -387 69.5t-270.5 194.5 t-160 296t-53.5 374zM881 496q0 -190 40 -264t91 -74q27 0 65.5 35.5t76.5 108.5t71 181q31 102 43 238q2 39 2 78q2 29 2 53q-41 29 -88 45q-55 18 -105 18q-104 0 -151 -98t-47 -321z" />
<glyph unicode="A" horiz-adv-x="1527" d="M53 -6q0 20 4 46t13 44q29 8 50 20.5t40.5 39t38.5 68.5l45 107l448 1154q37 8 84 8l518 -1186q25 -61 46.5 -100t40 -61.5t37 -32t42.5 -15.5q10 -27 12.5 -46.5t2.5 -45.5q-18 0 -48 1t-67 3l-72 2h-61q-27 0 -63 -1l-70 -2q-35 -1 -66 -2t-47 -1q0 27 2 50.5t14 41.5 q45 6 70 14.5t34 26.5t2 49t-28 80l-96 221q-141 0 -297 -2q-150 -2 -279 -6l-55 -150q-37 -93 -37 -144q0 -19 5 -33q19 -48 110 -56q14 -37 14 -92q-37 4 -94 5t-113 1q-53 0 -101 -2t-79 -4zM444 575h494l-166 388l-27 59q-12 29 -23 58.5t-26 58.5q-8 27 -20 57 q-23 -72 -41 -123q-20 -57 -41 -108z" />
<glyph unicode="B" horiz-adv-x="1370" d="M123 -6q0 63 12 92q43 2 73 12.5t46 34t24.5 64.5t8.5 102v893q0 109 -32 146.5t-118 41.5q-6 18 -9 43t-3 52q45 -4 106.5 -5.5t120.5 -1.5q78 0 156 2.5t154 2.5q94 0 177 -14.5t147.5 -50.5t101 -96.5t36.5 -156.5q0 -141 -85 -238.5t-230 -119.5q86 -4 163 -24.5 t135 -63.5t93 -112t35 -169q0 -90 -28.5 -168t-92 -135t-162 -91t-237.5 -34h-146q-86 0 -170 -1t-158.5 -2t-117.5 -3zM492 299q0 -68 8 -107.5t30.5 -61t61.5 -29t100 -7.5q162 0 237 80t75 223q0 100 -43 163t-110 98.5t-148.5 48t-161.5 12.5h-49v-420zM492 817h65 q104 0 172 22.5t106.5 61.5t53 88t14.5 101q0 84 -30.5 141t-77.5 90t-103.5 46t-111.5 13q-31 0 -58 -4q-14 -2 -30 -6v-553z" />
<glyph unicode="C" horiz-adv-x="1417" d="M76 745q0 186 62.5 324.5t162.5 233t230.5 139.5t269.5 45q137 0 248.5 -27.5t232.5 -85.5q-16 -76 -19 -161t-3 -175q-29 -12 -54.5 -16t-60.5 -4q-6 115 -29.5 188.5t-65.5 116.5t-100.5 59.5t-130.5 16.5q-137 0 -235.5 -50.5t-160 -134.5t-91 -191.5t-29.5 -219.5 q0 -145 39 -271t108.5 -219.5t173 -146.5t234.5 -53q104 0 213 34.5t199 94.5q12 -12 24.5 -33t14.5 -35q-66 -51 -127.5 -87t-127 -59.5t-136 -35.5t-152.5 -12q-152 0 -279 56t-218 156.5t-142 241.5t-51 311z" />
<glyph unicode="D" horiz-adv-x="1585" d="M123 -6q0 63 12 92q43 2 73 12.5t46 34t24.5 64.5t8.5 102v893q0 109 -32 146.5t-118 41.5q-6 18 -9 43t-3 52q23 -2 56 -4l71 -2q37 -1 76 -1h73q72 0 143.5 2.5t141.5 2.5q143 0 290.5 -27t266.5 -101.5t193.5 -213t74.5 -361.5q0 -176 -45 -302t-115.5 -210 t-160.5 -136t-181 -79t-176 -35t-147 -8h-141q-80 0 -160 -1t-149.5 -2t-112.5 -3zM492 299q0 -59 7 -99t28.5 -62.5t59.5 -31t99 -8.5q131 0 240.5 31t189.5 105.5t126 196.5t46 306q0 176 -53 300t-142 202t-205 114t-237 36q-39 0 -86 -5.5t-73 -13.5v-1071z" />
<glyph unicode="E" horiz-adv-x="1267" d="M123 -6q0 63 12 92q43 2 73 12.5t46 34t24.5 64.5t8.5 102v893q0 109 -32 146.5t-118 41.5q-6 18 -9 43t-3 52q33 -2 83 -4l103 -2q53 -1 101 -1h80q223 0 366 2.5t197 4.5q2 -37 8 -82t11 -91.5t11.5 -91.5t14.5 -80q-16 -14 -41 -19t-55 -5q-4 49 -20.5 99t-57.5 89 t-107.5 62.5t-171.5 23.5h-155v-594h90q68 0 112.5 7.5t73.5 27t42 54t13 88.5q29 8 51.5 11t53.5 3q-6 -57 -6 -119v-244q0 -70 6 -127q-31 0 -53.5 3.5t-47.5 9.5q-4 55 -18 92t-43 60.5t-73 31.5t-111 8h-90v-393q0 -59 7 -99t28.5 -62.5t59.5 -31t99 -8.5h12 q100 0 164 17.5t104 52.5t64.5 85t48.5 118q33 -10 54.5 -21.5t40.5 -30.5q-23 -76 -39.5 -161.5t-26.5 -161.5q-33 0 -80 1t-103.5 2t-117.5 1h-262q-80 0 -160 -1t-149.5 -2t-112.5 -3z" />
<glyph unicode="F" horiz-adv-x="1175" d="M123 -6q0 63 12 92q86 6 118 44t32 146v916q0 109 -32 146.5t-118 41.5q-12 31 -12 95q35 -2 83 -4l97 -2q49 -1 96 -1h88q223 0 363.5 2.5t196.5 4.5q2 -37 7 -82t11 -91l12 -92q6 -45 15 -80q-16 -14 -42 -19t-57 -5q-4 49 -20.5 99t-56 89t-106.5 62.5t-171 23.5h-152 v-637h107q68 0 114 7.5t73.5 27t41 54t13.5 86.5q29 10 51 13t53 3q-4 -57 -4 -119v-244q0 -70 4 -127q-31 0 -53.5 2.5t-46.5 10.5q-4 55 -18.5 92t-42 59.5t-72.5 31.5t-113 9h-107v-330q0 -72 11.5 -115.5t35 -69t59.5 -36t89 -12.5q10 -29 10 -92q-49 4 -122.5 5 t-149.5 1h-84q-41 0 -82 -1t-74.5 -2t-56.5 -3z" />
<glyph unicode="G" horiz-adv-x="1585" d="M76 754q0 182 64.5 319t171 229.5t240.5 138.5t277 46q156 0 290 -27.5t231 -75.5q-14 -76 -18.5 -156.5t-4.5 -178.5q-53 -20 -117 -21q-4 115 -32.5 187.5t-77.5 112.5t-114.5 55.5t-139.5 15.5q-137 0 -239.5 -50.5t-169 -133t-99.5 -190t-33 -224.5q0 -147 33 -277.5 t99.5 -226.5t164.5 -153.5t232 -57.5q66 0 116.5 7t102.5 28q37 16 55 49t18 115v108q0 74 -6 116t-25.5 63.5t-56.5 28.5t-98 9q-6 16 -9 45t-3 56q41 -6 118.5 -7.5t145.5 -1.5t143.5 1.5t110.5 5.5q0 -20 -2 -49t-10 -50q-33 -2 -52.5 -9t-32 -28.5t-15.5 -63.5t-3 -116 v-98q0 -45 5 -82t24 -70q-94 -70 -239.5 -116.5t-329.5 -46.5q-162 0 -293 56t-225.5 156.5t-145.5 243t-51 318.5z" />
<glyph unicode="H" horiz-adv-x="1636" d="M123 -6q0 63 12 92q86 6 118 44t32 146v916q0 109 -32 146.5t-118 41.5q-12 31 -12 95q121 -6 264 -7q70 0 133.5 1t128.5 6q0 -63 -10 -95q-88 -4 -120 -42t-32 -146v-393h664v393q0 109 -32 146.5t-118 41.5q-12 31 -12 95q121 -6 264 -7q70 0 133.5 1t129.5 6 q0 -63 -11 -95q-88 -4 -119.5 -42t-31.5 -146v-916q0 -109 31.5 -146.5t119.5 -43.5q10 -29 11 -92q-131 6 -263 6q-63 0 -134.5 -1t-129.5 -5q0 63 12 92q86 6 118 44t32 146v429h-129q-96 0 -199.5 -1.5t-201.5 -5.5q-76 -2 -134 -6v-416q0 -109 32 -146.5t120 -43.5 q10 -29 10 -92q-131 6 -262 6q-63 0 -135 -1t-129 -5z" />
<glyph unicode="I" horiz-adv-x="770" d="M123 -6q0 63 12 92q86 6 118 44t32 146v916q0 109 -32 146.5t-118 41.5q-12 31 -12 95q121 -6 264 -7q70 0 133.5 1t128.5 6q0 -63 -10 -95q-88 -4 -120 -42t-32 -146v-916q0 -109 32 -146.5t120 -43.5q10 -29 10 -92q-131 6 -262 6q-63 0 -135 -1t-129 -5z" />
<glyph unicode="J" horiz-adv-x="733" d="M39 -483q61 51 108.5 105t80 121t49 146.5t16.5 184.5v1118q0 109 -32 146.5t-118 41.5q-10 31 -10 95q47 -4 119 -5.5t143 -1.5q72 0 147.5 1t114.5 6q0 -63 -10 -95q-82 -4 -115.5 -42t-33.5 -146v-922q0 -152 -14.5 -268.5t-57.5 -211.5t-127 -175t-223 -156 q-31 19 -37 58z" />
<glyph unicode="K" horiz-adv-x="1470" d="M123 -6q0 63 12 92q86 6 118 44t32 146v916q0 109 -32 146.5t-118 41.5q-12 31 -12 95q121 -6 264 -7q70 0 133.5 1t128.5 6q0 -63 -10 -95q-88 -4 -120 -42t-32 -146v-422l390 410q57 57 81 95q24 36 24 59q0 25 -21 35q-20 9 -56 11q-6 23 -8 46.5t-2 48.5 q37 -4 97.5 -5.5t125.5 -1.5q135 0 223 7q0 -23 -2 -48.5t-10 -46.5q-37 -2 -70.5 -10t-69.5 -29.5t-77 -56.5t-94 -90l-352 -377q74 -63 141 -155l170 -220q51 -70 108.5 -133t113.5 -112.5t112.5 -79t111.5 -31.5q0 -16 -2 -39.5t-8 -46.5q-82 0 -173 -2t-171 -10 l-111 162q-70 100 -155.5 208.5t-179.5 208.5q-72 80 -136 138v-429q0 -109 32 -146.5t120 -43.5q10 -29 10 -92q-131 6 -262 6q-63 0 -135 -1t-129 -5z" />
<glyph unicode="L" horiz-adv-x="1216" d="M123 -6q0 63 12 92q43 2 73 12.5t46 34t24.5 64.5t8.5 102v893q0 109 -32 146.5t-118 41.5q-6 18 -9 43t-3 52l68 -5l71 -2h125q70 0 133.5 1t128.5 6q0 -63 -10 -95q-43 -2 -71.5 -11t-46 -31.5t-24.5 -59.5t-7 -92v-887q0 -59 7 -99t28.5 -62.5t59.5 -31t99 -8.5h12 q92 0 151.5 13.5t101.5 46t72 85t56 128.5q33 -10 54.5 -21.5t40.5 -30.5q-23 -76 -39.5 -161.5t-26.5 -161.5q-33 0 -80 1t-103.5 2t-117.5 1h-262q-80 0 -160 -1t-149.5 -2t-112.5 -3z" />
<glyph unicode="M" horiz-adv-x="2029" d="M86 -6q0 14 3 41.5t9 50.5q43 6 73 18.5t49.5 45t31.5 93t22 158.5l68 773q3 32 3 59q0 72 -23 103q-33 44 -125 44q-6 23 -8.5 48.5t-2.5 46.5q33 -4 79 -5.5t87 -1.5q80 0 164 7l543 -1201l473 1201q37 -4 82 -5.5t88 -1.5t82 1t84 6q0 -25 -3 -47.5t-10 -47.5 q-39 0 -68.5 -9t-50 -34.5t-27.5 -67.5q-4 -23 -4 -52q0 -25 3 -56l78 -796q10 -80 20.5 -132.5t28.5 -83t45 -44t66 -17.5q6 -23 8 -48.5t2 -45.5q-27 2 -59 3l-66 2q-35 1 -72 1h-63q-59 0 -134 -1t-130 -5q0 18 3 45t9 47q51 6 81.5 18.5t44 40t13.5 73.5t-6 118l-80 745 l-448 -1085q-37 -16 -88 -16l-506 1099l-70 -696q-7 -63 -7 -109q0 -18 1 -34q4 -55 19.5 -88t47 -46.5t80.5 -19.5q6 -23 8.5 -50.5t2.5 -41.5q-53 4 -119 5t-115 1q-47 0 -109.5 -1t-107.5 -5z" />
<glyph unicode="N" horiz-adv-x="1644" d="M123 -6q0 29 3 51.5t9 40.5q43 0 73 15.5t46 52t23.5 99t7.5 153.5v897l-9 10q-31 39 -59.5 51t-81.5 16q-6 25 -9 50.5t-3 44.5q33 -4 77 -5.5t85 -1.5q86 0 145 7l844 -1121v719q0 88 -6 146.5t-23.5 94.5t-47.5 51t-73 15q-6 37 -8 55.5t-2 39.5q47 -4 102.5 -5.5 t100.5 -1.5q47 0 105.5 1t101.5 6q0 -23 -2 -46.5t-9 -48.5q-37 0 -61.5 -15t-38.5 -51t-21.5 -94.5t-7.5 -146.5v-1081q-16 -6 -40.5 -9t-47.5 -3l-901 1177v-751q0 -90 6.5 -153t23.5 -99.5t47 -52t73 -15.5q6 -18 8 -39.5t2 -52.5q-49 4 -107.5 5t-107.5 1 q-47 0 -110.5 -1t-106.5 -5z" />
<glyph unicode="O" horiz-adv-x="1585" d="M76 737q0 166 55 304.5t152.5 237.5t228.5 153.5t281 54.5q156 0 286.5 -54.5t227 -152.5t150.5 -236.5t54 -306.5q0 -160 -53 -298t-148.5 -239.5t-227.5 -160.5t-289 -59q-162 0 -294 58t-226.5 159.5t-145.5 239.5t-51 300zM299 797q0 -137 35 -265.5t103.5 -226.5 t168 -158.5t230.5 -60.5q106 0 190 47t142.5 127t89 188.5t30.5 233.5q0 145 -42 273t-113.5 223.5t-170 149.5t-214.5 54q-96 0 -179.5 -42t-142.5 -118.5t-93 -184t-34 -240.5z" />
<glyph unicode="P" horiz-adv-x="1263" d="M123 -6q0 63 12 92q86 6 118 44t32 146v916q0 109 -32 146.5t-118 41.5q-12 31 -12 95q86 -4 165 -5.5t132 -1.5q55 0 135 2.5t172 2.5q119 0 206 -35t143.5 -95.5t84 -140.5t27.5 -170q0 -84 -31 -170t-92 -154.5t-153.5 -113.5t-217.5 -45q-45 0 -83 7t-68 17 q-4 16 -3 36t5 36q55 -14 119 -14q61 0 117.5 15.5t101.5 54t71.5 106t26.5 172.5q0 92 -21.5 167t-67.5 129t-114.5 84t-167.5 30q-37 0 -67 -5q-23 -2 -56 -8v-1057q0 -72 11.5 -115.5t35 -69t59.5 -36t89 -12.5q10 -29 10 -92q-49 4 -122.5 5t-149.5 1h-84q-41 0 -82 -1 t-74.5 -2t-56.5 -3z" />
<glyph unicode="Q" horiz-adv-x="1630" d="M76 737q0 166 55 304.5t152.5 237.5t228.5 153.5t281 54.5q156 0 286.5 -54.5t227 -152.5t150.5 -236.5t54 -306.5q0 -160 -53 -298t-148.5 -239.5t-228.5 -160.5q-16 -8 -32 -14q74 -23 131 -56q78 -45 147.5 -90t147.5 -74q57 -21 132 -21q27 0 56 3q0 -18 -3 -42 t-9 -44l-126 -42q-62 -22 -145 -58q-72 16 -119 49t-85.5 72.5t-72.5 81.5t-76 79t-98.5 62.5t-131.5 34.5h-4q-162 0 -294 58t-226.5 159.5t-145.5 239.5t-51 300zM299 797q0 -137 35 -265.5t103.5 -226.5t168 -158.5t230.5 -60.5q106 0 190 47t142.5 127t89 188.5 t30.5 233.5q0 145 -42 273t-113.5 223.5t-170 149.5t-214.5 54q-96 0 -179.5 -42t-142.5 -118.5t-93 -184t-34 -240.5z" />
<glyph unicode="R" horiz-adv-x="1486" d="M123 -6q0 23 3 47.5t9 44.5q86 6 118 44t32 146v916q0 109 -32 148.5t-118 39.5q-6 23 -9 44.5t-3 48.5q33 -2 109.5 -3.5t152.5 -1.5q90 0 180 2.5t183 2.5q123 0 212 -29t146 -78t86 -114.5t29 -143.5q0 -154 -105 -256q-96 -96 -258 -139l51 -54q31 -33 59.5 -72.5 t58.5 -91.5l71 -128q76 -137 150.5 -206t183.5 -75q0 -25 -2.5 -47.5t-8.5 -44.5q-82 0 -171 -2t-169 -12q-35 55 -85 144t-101 193q-51 100 -123 195q-55 78 -125 150q-45 -2 -85 -2.5t-75 2.5v-386q0 -109 31 -146.5t113 -43.5q8 -18 10 -44t2 -48q-70 4 -143.5 5 t-114.5 1h-63q-35 0 -71 -1l-70 -2q-33 -1 -58 -3zM487 768q23 -4 43 -4q25 -2 54 -2q90 0 166.5 18.5t134 58.5t90.5 101t33 145q0 137 -82 223.5t-277 86.5q-49 0 -90 -6q-33 -4 -72 -13v-608z" />
<glyph unicode="S" horiz-adv-x="1161" d="M147 119q12 84 16.5 166t4.5 143q23 6 55.5 9t61.5 3q4 -82 21.5 -147.5t53 -111.5t95 -71.5t151.5 -25.5q59 0 105.5 18.5t77 49t47 70.5t16.5 87q0 96 -50 157.5t-125 105.5t-163 84t-163 95.5t-125 138.5t-50 216q0 84 28.5 154.5t81 122t125 78t162.5 26.5 q121 0 208 -30t132 -66q0 -61 2.5 -144.5t12.5 -140.5q-25 -12 -58.5 -16.5t-64.5 -4.5q-16 94 -38 153.5t-51.5 93.5t-65.5 46.5t-77 12.5q-98 0 -154.5 -56.5t-56.5 -160.5q0 -94 50.5 -156t125 -109t161.5 -90t162 -98t125 -133t50 -197q0 -82 -33.5 -157.5t-92 -132 t-139.5 -89t-177 -32.5q-76 0 -133.5 8t-106.5 24.5t-97.5 42t-109.5 64.5z" />
<glyph unicode="T" horiz-adv-x="1269" d="M53 1149q18 76 26.5 163t8.5 163q92 -4 240.5 -5.5t314.5 -1.5h162q80 0 153.5 1t135 2.5t106.5 3.5q0 -147 14 -326q-25 -12 -52 -16.5t-52 -4.5q-4 117 -64.5 185.5t-197.5 68.5h-103v-1106q0 -55 6.5 -90.5t25 -56t52 -31t84.5 -12.5q12 -29 13 -92q-70 4 -142.5 5 t-142.5 1t-146.5 -1t-138.5 -5q0 63 11 92q53 2 85.5 12.5t53 31t28 56t7.5 90.5v1106h-111q-84 0 -133 -19.5t-78 -54t-41 -79.5t-24 -101q-23 0 -52 4.5t-49 16.5z" />
<glyph unicode="U" horiz-adv-x="1529" d="M123 1475q45 -4 115.5 -5.5t136.5 -1.5q68 0 135.5 1t116.5 6q0 -23 -2 -46.5t-9 -48.5q-47 -4 -76.5 -11t-46 -26.5t-21.5 -55.5t-5 -95v-660q0 -92 17.5 -171.5t59.5 -138t112.5 -92.5t179.5 -34q55 0 119.5 18.5t109.5 63.5q27 27 44 56.5t28.5 75.5t16.5 107.5 t5 149.5v539q0 78 -5 129t-21.5 82t-46 45t-76.5 18q-6 33 -8.5 51.5t-2.5 43.5q37 -4 95.5 -5.5t107.5 -1.5q51 0 107.5 1t99.5 6q0 -16 -2 -37t-8 -58q-37 -4 -62.5 -18t-41 -44t-20.5 -82t-5 -130v-522q0 -92 -5 -165t-19.5 -131.5t-38 -102.5t-60.5 -81 q-63 -63 -152.5 -93.5t-199.5 -30.5q-152 0 -254.5 33.5t-164 100t-88 164t-26.5 224.5v690q0 59 -5 93t-19.5 54.5t-39 28.5t-63.5 12q-6 25 -9 48.5t-3 46.5z" />
<glyph unicode="V" horiz-adv-x="1488" d="M53 1475q45 -4 120 -5.5t144 -1.5q139 0 263 7q0 -43 -11 -95q-53 -4 -83.5 -14t-41.5 -35q-5 -12 -4 -28q0 -18 5 -40q11 -44 42 -118l185 -428l166 -412l145 381q78 209 152 430q31 85 30 143q0 24 -5 44q-17 68 -120 77q-6 25 -9 50.5t-3 44.5q49 -4 92 -5.5t94 -1.5 q49 0 110.5 1t111.5 6q0 -25 -2 -47.5t-11 -47.5q-68 -16 -105.5 -81.5t-76.5 -174.5l-205 -563l-213 -565q-37 -8 -86 -8l-126 314l-126 303l-118 280l-111 245l-59 128q-23 48 -42.5 75t-39 35t-49.5 12q-6 27 -9.5 52t-3.5 43z" />
<glyph unicode="W" horiz-adv-x="2177" d="M53 1475q53 -4 125 -5.5t121 -1.5h59q33 0 69 1l71 2q35 1 65 4q0 -18 -3 -43t-9 -52q-55 -4 -88 -11t-45 -31q-7 -13 -7 -33q0 -15 4 -33q9 -43 34 -115l74 -213l79 -228l76 -233q20 -70 43 -133l371 1125q18 6 39.5 8t56.5 2l114 -294l118 -309l114 -311l82 -219 l209 721q25 82 30 137q2 20 3 37q0 31 -8 55q-11 36 -43.5 54t-84.5 24q-10 23 -13 49.5t-3 45.5q92 -6 211 -7q49 0 105.5 1t101.5 6q0 -23 -3 -46.5t-14 -48.5q-29 -6 -50 -22.5t-41.5 -51t-42 -92t-48.5 -149.5l-317 -1071q-37 -14 -86 -14l-106 289l-114 302l-116 301 l-101 254l-368 -1132q-18 -6 -44 -10t-50 -4l-190 577l-195 573q-31 88 -50.5 136.5t-37 73t-37 30.5t-47.5 10q-6 23 -9.5 46.5t-3.5 48.5z" />
<glyph unicode="X" horiz-adv-x="1384" d="M61 -6q0 16 2.5 45t10.5 53q51 12 114.5 61.5t143.5 159.5l278 398l-4 6l-260 403l-93 136q-34 50 -57.5 75t-42 34t-44.5 13q-8 27 -10.5 49.5t-2.5 47.5q55 -4 128 -5.5t136 -1.5q61 0 137 1t126 4q0 -20 -2.5 -44t-6.5 -49q-45 -8 -71.5 -22.5t-31.5 -39.5 q-1 -6 -1 -13q0 -23 13 -55q17 -42 57 -101l176 -275l159 250q45 70 65 117q15 36 15 61q0 8 -2 15q-6 29 -32.5 43t-77.5 20q-6 25 -8.5 50.5t-2.5 44.5q55 -4 113.5 -5.5t108.5 -1.5q51 0 112.5 1t102.5 6q0 -23 -1 -46.5t-8 -48.5q-27 -6 -50 -18t-52 -39t-64.5 -73 t-82.5 -120l-232 -354q8 -16 19 -31l247 -405q45 -76 78 -123t60.5 -74.5t50 -39t49.5 -17.5q12 -39 12 -92q-47 4 -122.5 5t-141.5 1q-68 0 -140.5 -1t-123.5 -3q0 18 2 42.5t8 47.5q41 6 66.5 15.5t31.5 32.5q2 7 2 16q0 21 -10 51q-14 43 -55 112l-186 303l-189 -280 q-77 -114 -77 -169q0 -60 114 -81q6 -23 9 -47.5t3 -44.5q-57 4 -117.5 5t-121.5 1t-122 -1t-104 -5z" />
<glyph unicode="Y" horiz-adv-x="1366" d="M53 1473q47 -2 105.5 -3.5t122.5 -1.5h149q41 0 78 1t63 4q0 -25 -2 -43.5t-10 -43.5q-84 -8 -96 -43q-2 -7 -3 -15q0 -36 42 -103l139 -246l117 -221q51 102 108 205l121 219q49 84 49 127q0 12 -4 20q-16 41 -102 53q-8 25 -12.5 45.5t-4.5 45.5q39 -4 101 -5h112 q51 0 100.5 1t86.5 4q0 -45 -8 -87q-31 -8 -54.5 -22t-50 -40t-54.5 -66.5t-63 -104.5l-288 -512v-287q0 -88 5 -137t22.5 -75.5t50 -37t90.5 -18.5q12 -39 12 -92l-144 4q-72 2 -133 2h-77q-41 0 -82 -1t-77 -2t-59 -1q0 25 3.5 48.5t11.5 41.5q57 6 91 15.5t52.5 33 t23.5 69.5t5 122v313l-363 616q-20 35 -36.5 58.5t-34 39t-38 21.5t-50.5 8q-8 25 -11.5 45.5t-3.5 45.5z" />
<glyph unicode="Z" horiz-adv-x="1368" d="M125 63l412 666l385 651h-308q-72 0 -123 -9t-86.5 -40t-59 -85t-42.5 -144q-27 0 -63.5 5t-59.5 17q20 70 30.5 164t10.5 185q33 0 100.5 -1.5t144.5 -2.5t152 -1h336q96 0 213 5q12 -12 18.5 -32t6.5 -40l-404 -686l-387 -623h334q100 0 167 9.5t109 39t66.5 84 t42.5 142.5q72 -6 113 -37q-16 -72 -26.5 -161t-12.5 -175q-80 2 -151 3l-138 2q-68 1 -137 1h-289q-72 0 -135 -1t-115.5 -2t-85.5 -3q-8 16 -13 31t-5 38z" />
<glyph unicode="[" horiz-adv-x="671" d="M152 -584v2196q57 -6 108 -6h199q45 0 108 6q14 -14 18.5 -37t4.5 -47q-86 -6 -141.5 -15.5t-88 -31t-45 -58.5t-12.5 -98v-1665q0 -53 16.5 -82t49 -45t83 -22.5t115.5 -8.5q14 -16 18.5 -35.5t4.5 -50.5q-45 4 -107 4h-217q-57 0 -114 -4z" />
<glyph unicode="\" horiz-adv-x="788" d="M53 1540q12 4 26.5 6t31.5 2q41 0 59 -8l569 -1540q-16 -6 -56 -8q-13 -1 -24 -1q-21 0 -32 3z" />
<glyph unicode="]" horiz-adv-x="669" d="M96 -584q0 31 4 50.5t19 35.5q66 2 116 8.5t82.5 22.5t49 45t16.5 82v1665q0 61 -12.5 98t-45 58.5t-88 31t-141.5 15.5q0 25 4 47t19 37q63 -6 106 -6h199q53 0 111 6v-2196q-57 4 -117 4h-217q-60 0 -105 -4z" />
<glyph unicode="^" horiz-adv-x="1206" d="M94 934l447 553q25 16 57 20q16 2 31.5 2t29.5 -2q43 -68 101 -149l116 -166l117 -166l109 -149q-18 -16 -54 -23q-15 -3 -30 -3q-19 0 -37 5l-379 543l-240 -290q-117 -146 -210 -278q-23 23 -36.5 45.5t-21.5 57.5z" />
<glyph unicode="_" horiz-adv-x="1226" d="M131 -311q0 72 23 110h944q0 -23 -6.5 -56.5t-16.5 -51.5q-84 0 -145.5 2t-118.5 2h-330q-49 0 -102 -2t-113.5 -3t-134.5 -1z" />
<glyph unicode="`" horiz-adv-x="575" d="M-25 1528q45 23 101 24q11 0 22 1q44 0 86 -7q29 -94 66 -188t88 -193q-17 -9 -37 -9h-4q-23 1 -45 5q-76 117 -141.5 205t-135.5 162z" />
<glyph unicode="a" horiz-adv-x="1046" d="M109 215q0 106 61 173t149.5 107t183.5 58t161 29q0 68 -2.5 110.5t-6.5 72.5t-14 49.5t-23 37.5q-51 63 -139 63q-49 0 -84 -25.5t-57.5 -63.5t-32.5 -82t-12 -80q-25 0 -60.5 4t-52.5 12q3 35 3 77q0 21 -1 43q-2 67 -12 115q86 45 181 72t198 27q74 0 126 -22.5 t93 -61.5q29 -29 46 -61.5t27.5 -76.5t14.5 -100.5t4 -136.5v-231q0 -104 22.5 -139t100.5 -35q0 -25 -3 -53.5t-11 -49.5q-57 -8 -121 -26.5t-111 -40.5q-20 10 -36.5 33.5t-16.5 72.5q0 33 2 55.5t2 36.5q-8 -29 -24.5 -56.5t-55.5 -62.5q-37 -33 -90 -53t-127 -20 q-141 0 -211.5 60t-70.5 169zM319 258q0 -80 39 -117t88 -37q35 0 73 17.5t71 54.5t53.5 94.5t20.5 139.5v84q-55 -8 -117 -19.5t-111 -36t-83 -66.5t-34 -114z" />
<glyph unicode="b" horiz-adv-x="1185" d="M23 1403q0 23 4 43t14 37q25 0 65.5 6t83.5 16.5t83 24.5t59 26q20 -6 34.5 -25.5t14.5 -60.5v-567q0 -39 -8 -76q-2 -8 -4 -22q18 33 28 49q14 23 42 51.5t67 52t87 40t101 16.5q190 0 298 -115t108 -367q0 -115 -39 -215t-109.5 -174.5t-170 -118.5t-222.5 -44 q-150 0 -253 43t-169 106q20 27 33.5 87t13.5 187v846q0 39 -4 66.5t-21.5 47t-50 30t-85.5 10.5zM381 156q29 -25 61 -45q53 -31 129 -31q45 0 99.5 17.5t102.5 65.5t80 129t32 212q0 104 -24.5 176t-60.5 115t-79 62.5t-78 19.5q-49 0 -95 -21.5t-84 -72t-60.5 -129.5 t-22.5 -191v-307z" />
<glyph unicode="c" horiz-adv-x="968" d="M86 494q0 96 29.5 189t87 168t141.5 119t195 44q205 0 327 -99q-10 -61 -12 -122.5t-2 -124.5q-18 -10 -48 -13.5t-52 -3.5q-14 125 -75 192.5t-157 67.5q-109 0 -170 -99t-61 -286q0 -84 20.5 -159.5t59.5 -134t96 -93.5t135 -35q145 0 240 125q18 -8 33.5 -24.5 t21.5 -34.5q-59 -94 -146 -142t-210 -48q-82 0 -164 32.5t-145.5 97t-103.5 160t-40 224.5z" />
<glyph unicode="d" horiz-adv-x="1218" d="M86 463q0 113 40 213t109.5 176t170 119t221.5 43q63 0 108 -10l72 -21v266q0 39 -4 66.5t-21.5 47t-50.5 30t-86 10.5q0 23 4 43t15 37q25 0 65.5 6t84.5 16.5t83 24.5t57 26q20 -6 35 -25.5t15 -60.5v-1194q2 -68 27.5 -99.5t117.5 -35.5q0 -25 -2 -47t-12 -47 q-23 0 -59 -5t-71.5 -13.5t-68.5 -21.5t-53 -27q-18 8 -36 29.5t-18 76.5q0 39 2 80q2 27 9 67q-8 -20 -19 -38q-20 -37 -30 -54q-16 -25 -43 -52.5t-66 -52t-87 -40.5t-101 -16q-193 0 -300.5 115.5t-107.5 367.5zM301 492q0 -104 25.5 -176t61.5 -116t78 -63.5t79 -19.5 q47 0 94 21.5t85 71.5t60 128q18 66 23 160v338q-31 27 -64 47q-51 31 -127 30q-45 0 -99 -17t-102 -64.5t-81 -129t-33 -210.5z" />
<glyph unicode="e" horiz-adv-x="1028" d="M86 498q0 104 32 197t89 165t141 113t189 41q106 0 180 -36t121 -96.5t72.5 -142.5t31.5 -174q-8 -45 -33 -73h-110q-74 0 -166 -2.5t-193 -6.5q-72 -2 -139 -6q2 -47 12 -92q14 -80 50 -142.5t96.5 -101.5t156.5 -39q72 0 141.5 32t123.5 93q18 -10 33.5 -29.5 t19.5 -37.5q-76 -96 -172 -138t-215 -42q-115 0 -202 41.5t-144.5 111.5t-86 164.5t-28.5 200.5zM299 588h418q0 143 -52.5 232t-148.5 89q-39 0 -78 -16t-70.5 -58t-50.5 -114q-14 -55 -18 -133z" />
<glyph unicode="f" horiz-adv-x="741" d="M78 874q0 59 31 99h143v86q0 123 39 215t103.5 153.5t145.5 92t165 30.5q86 0 127.5 -16t78.5 -39q-4 -70 -6 -132.5t-2 -121.5q-29 -8 -61.5 -12t-61.5 -4q0 88 -40 147.5t-130 59.5t-127 -80t-37 -226v-153h222q0 -23 -4.5 -49.5t-16.5 -49.5q-115 0 -201 -26v-529 q0 -72 11.5 -115.5t35 -69t59.5 -36t89 -12.5q10 -29 10 -92q-49 4 -122.5 5t-151.5 1h-80q-41 0 -80 -1t-71.5 -2t-53.5 -3q0 63 10 92q86 6 118 44t32 146v580q-47 10 -94 14t-80 4z" />
<glyph unicode="g" horiz-adv-x="1107" d="M88 -248q0 82 45 144q39 55 115 92q-23 8 -39 16q-35 25 -49.5 59.5t-14.5 83.5q0 72 41 140q31 49 74 90l-16 14q-55 43 -88 109.5t-33 152.5q0 74 25.5 140.5t73.5 114.5t122 77t170 29q76 0 137 -21h357q8 -27 11 -62.5t3 -70.5q-25 6 -59 12l-71 13q-36 6 -71 10h-10 l10 -10q47 -51 68.5 -111.5t21.5 -107.5q0 -76 -24.5 -141.5t-74.5 -116t-124 -79t-170 -28.5q-78 0 -149 23q-8 4 -17 6q-25 -25 -37 -45q-18 -33 -18 -58q0 -31 10 -47t44 -26.5t95.5 -13.5t165.5 -3q109 0 183.5 -13t122 -42t68 -75t20.5 -111q0 -74 -40 -151 t-112 -141.5t-171 -104.5t-216 -40q-203 0 -291 75t-88 218zM276 -203q0 -111 54.5 -167t187.5 -56q72 0 128 19.5t97 52t61.5 77t20.5 89.5q0 41 -14 70.5t-53 47t-109.5 25.5t-181.5 8q-70 0 -119 4q-37 -33 -53 -67q-19 -44 -19 -103zM324 682q0 -137 58 -209t163 -72 q72 0 118 58.5t46 175.5q0 57 -14.5 108.5t-43 89t-67.5 60t-90 22.5q-45 0 -76 -19t-53.5 -52t-31.5 -75t-9 -87z" />
<glyph unicode="h" horiz-adv-x="1290" d="M76 1403q0 23 4 43t16 37q23 0 65 6t85 16.5t82 24.5t59 26q18 -6 32.5 -25.5t14.5 -60.5v-552q0 -25 -2 -58t-12 -69q6 10 12 24t19 31q18 27 48.5 54.5t70.5 50t89.5 38t106.5 15.5q61 0 117.5 -18.5t99.5 -60.5t68.5 -108.5t25.5 -167.5v-373q0 -113 31 -151.5 t96 -38.5q6 -18 9.5 -39.5t3.5 -52.5q-49 4 -109.5 5t-128.5 1t-138.5 -2t-119.5 -4q0 63 10 92q78 0 114 41t36 149v330q0 76 -14.5 127t-42 81t-64.5 43t-80 13t-87 -19.5t-79 -62.5t-57.5 -111.5t-22.5 -168.5v-232q0 -109 33 -149.5t117 -40.5q6 -18 8 -39.5t2 -52.5 q-45 2 -118 4t-140 2q-68 0 -139.5 -1t-118.5 -5q0 63 10 92q86 0 119 41t33 149v973q0 39 -5.5 66.5t-22.5 47t-49 30t-87 10.5z" />
<glyph unicode="i" horiz-adv-x="655" d="M78 860q0 23 4 42.5t16 37.5q23 0 65 6t85 16.5t82 24.5t59 27q18 -6 32.5 -25.5t14.5 -60.5v-652q0 -109 30 -149.5t99 -40.5q6 -23 8 -50.5t2 -41.5q-57 4 -119.5 5t-125.5 1t-129 -1t-121 -5q0 20 2 46t10 46q86 0 118 41t32 149v429q0 41 -5.5 68.5t-22.5 47 t-49 29.5t-87 10zM193 1384q0 59 38.5 96.5t90.5 37.5q59 0 94 -37t35 -97q0 -49 -38 -86.5t-91 -37.5q-57 0 -93 36.5t-36 87.5z" />
<glyph unicode="j" horiz-adv-x="612" d="M29 -479q66 74 106.5 136t64 123.5t33 127t9.5 149.5v648q0 41 -5.5 68.5t-22.5 47t-49 29.5t-87 10q0 23 4 42.5t16 37.5q23 0 65 6t85 16.5t82 24.5t59 27q18 -6 32.5 -25.5t14.5 -60.5v-879q0 -111 -33.5 -204t-86 -167.5t-116 -130t-124.5 -88.5q-16 8 -29.5 23.5 t-17.5 38.5zM193 1384q0 59 38.5 96.5t90.5 37.5q59 0 94 -37t35 -97q0 -49 -38 -86.5t-91 -37.5q-57 0 -93 36.5t-36 87.5z" />
<glyph unicode="k" horiz-adv-x="1181" d="M76 1403q0 23 4 43t16 37q23 0 65 6t85 16.5t82 24.5t59 26q18 -6 32.5 -25.5t14.5 -60.5v-903l146 133q74 68 106.5 110t32.5 64q0 35 -64 35q-12 41 -12 90q70 -6 125 -6h193q53 0 112 6q0 -23 -4 -47t-12 -45q-63 -2 -124 -30.5t-140 -102.5l-189 -170q16 -23 37 -45 q39 -41 80 -90l89 -109l103 -131q37 -45 64 -71.5t50.5 -40t49 -17.5t62.5 -6q0 -63 -11 -94q-78 0 -142 -4t-134 -16q-29 47 -82 118l-118 152l-132 156q-45 55 -86 98v-228q0 -109 30 -149.5t99 -40.5q6 -23 8 -50.5t2 -41.5q-57 4 -119.5 5t-125.5 1t-129 -1t-121 -5 q0 20 2 46t8 46q88 0 120 41t32 149v973q0 39 -5.5 66.5t-22.5 47t-49 30t-87 10.5z" />
<glyph unicode="l" horiz-adv-x="651" d="M76 1403q0 23 4 43t16 37q23 0 65 6t85 16.5t82 24.5t59 26q18 -6 32.5 -25.5t14.5 -60.5v-1194q0 -109 30 -149.5t99 -40.5q6 -23 8 -50.5t2 -41.5q-57 4 -119.5 5t-125.5 1t-129 -1t-121 -5q0 20 2 46t8 46q88 0 120 41t32 149v973q0 39 -5.5 66.5t-22.5 47t-49 30 t-87 10.5z" />
<glyph unicode="m" horiz-adv-x="1918" d="M78 860q0 23 4 42.5t16 37.5q27 2 67 8t80 17.5t75.5 23.5t56.5 25q20 -6 34.5 -25.5t14.5 -60.5q0 -37 -4 -84q0 -20 -4 -53q8 18 12 30q14 27 21 37q18 25 47.5 52.5t68.5 50t88.5 38t106.5 15.5q92 0 168 -41t110 -142q6 -23 9 -55q6 20 12 33q12 20 24 37 q16 27 46 54.5t70 50t89 38t107 15.5q59 0 114.5 -18.5t98.5 -60.5t67.5 -108.5t24.5 -167.5v-373q0 -57 7 -93t23.5 -56.5t42 -29.5t58.5 -11q6 -18 8 -39.5t2 -52.5q-49 4 -110.5 5t-126.5 1q-63 0 -133 -1t-125 -5q0 63 12 92q86 6 117.5 44t31.5 146v330q0 76 -15 127 t-42 81t-63.5 43t-79.5 13q-41 0 -84 -19.5t-78 -62.5t-56.5 -111.5t-21.5 -168.5v-232q0 -57 8 -93t25.5 -56.5t47.5 -29.5t71 -11q6 -18 8 -39.5t2 -52.5q-57 4 -126 5t-132 1t-132 -1t-126 -5q0 63 10 92q86 6 117.5 44t31.5 146v340q0 76 -15 127.5t-40.5 82t-62.5 43 t-80 12.5q-41 0 -85 -19.5t-79 -62.5t-56.5 -112t-21.5 -169v-242q0 -109 33 -146.5t119 -43.5q6 -18 9 -39.5t3 -52.5q-57 4 -130 5t-130 1q-55 0 -130 -1t-128 -5q0 63 12 92q86 6 118 44t32 146v429q0 41 -6.5 68.5t-23.5 46t-48 28.5t-86 12z" />
<glyph unicode="n" horiz-adv-x="1292" d="M78 860q0 23 4 42.5t16 37.5q33 2 73 9t80 17.5t75.5 22.5t62.5 25q18 -6 32.5 -26.5t14.5 -69.5q0 -25 -2 -58t-12 -69q6 10 12 24t21 31q16 27 46.5 54.5t70.5 50t89.5 38t106.5 15.5q61 0 117.5 -18.5t99.5 -60.5t68.5 -108.5t25.5 -167.5v-373q0 -113 32 -151.5 t95 -38.5q8 -18 10.5 -39.5t2.5 -52.5q-49 4 -109.5 5t-128.5 1t-138.5 -2t-119.5 -4q0 63 10 92q78 0 114 41t36 149v330q0 76 -14.5 127t-42 81t-64.5 43t-80 13t-87 -19.5t-79 -62.5t-57.5 -111.5t-22.5 -168.5v-232q0 -109 33 -149.5t117 -40.5q6 -18 9 -39.5t3 -52.5 q-47 2 -119.5 4t-140.5 2t-138.5 -1t-119.5 -5q0 63 12 92q84 0 117 41t33 149v429q0 41 -6.5 68.5t-23.5 46t-48 28.5t-86 12z" />
<glyph unicode="o" horiz-adv-x="1153" d="M86 498q0 111 36 205t101.5 163.5t155.5 108.5t199 39q115 0 205.5 -37t154 -105.5t97.5 -164t34 -209.5q0 -111 -36 -207t-100.5 -164t-154.5 -107.5t-200 -39.5q-111 0 -202 36.5t-155.5 104t-99.5 164t-35 213.5zM305 543q0 -221 79 -340t210 -119t194.5 107.5 t63.5 279.5q0 100 -24.5 181t-64.5 138.5t-93.5 88t-114.5 30.5q-125 0 -187.5 -102t-62.5 -264z" />
<glyph unicode="p" horiz-adv-x="1241" d="M76 860q0 23 4 42.5t16 37.5q33 2 73 9t80 17.5t75.5 22.5t62.5 25q18 -6 32.5 -26.5t14.5 -69.5t-14 -95l-23 -67l23 43l31 55q16 23 42.5 51.5t66.5 52t87 40t103 16.5q190 0 297.5 -113t107.5 -350q0 -121 -39 -225.5t-109.5 -181t-171 -120.5t-221.5 -44 q-63 0 -108 12q-33 8 -72 16v-239q2 -63 14.5 -101.5t36 -62t58.5 -32.5t84 -11q12 -31 12 -94q-51 4 -125 5t-149 1h-80q-41 0 -80 -1t-72 -2t-55 -3q0 63 10 94q88 4 120 42t32 146v955q0 41 -6.5 68.5t-23.5 46t-48 28.5t-86 12zM434 156q31 -25 64 -45q51 -31 127 -31 q47 0 101 17.5t101 65.5t80 129t33 212q0 172 -69.5 272.5t-174.5 100.5q-47 0 -94 -21.5t-85 -72t-60 -130.5q-20 -68 -23 -157v-340z" />
<glyph unicode="q" horiz-adv-x="1183" d="M86 465q0 111 39 210t107.5 175t167 120t216.5 44q150 0 255.5 -39t175.5 -107q-23 -33 -33 -86t-10 -151v-881q0 -109 30.5 -146.5t118.5 -41.5q6 -20 8 -42t2 -52q-18 2 -50 3t-68.5 2t-75.5 1h-74q-70 0 -141.5 -1t-128.5 -5q0 63 12 94q51 2 84 11t52.5 30.5 t26.5 57.5t7 89v293q0 55 10 109q6 41 17 100l-17 -43q-20 -45 -41 -72q-20 -29 -53 -53.5t-71 -44t-80 -30.5t-87 -11q-78 0 -150.5 29.5t-127.5 88t-88 145.5t-33 204zM301 494q0 -102 24.5 -172t62.5 -112t85 -60.5t94 -18.5q37 0 79 18.5t78 62.5t60 116q18 63 23 151 v359q-23 27 -75 51t-107 24q-143 0 -233.5 -108t-90.5 -311z" />
<glyph unicode="r" horiz-adv-x="909" d="M78 860q0 23 4 42.5t16 37.5q33 2 73 9t80 17.5t75.5 22.5t62.5 25q18 -6 32.5 -26.5t14.5 -69.5q0 -76 -12 -134l-21 -90q14 33 21 60q12 39 31 65q47 76 111.5 125t150.5 49q43 0 78.5 -12t70.5 -39q-8 -53 -11 -126t-3 -130q-20 -6 -54 -13t-71 -7q-4 104 -33.5 137 t-72.5 33q-29 0 -61 -24t-59.5 -67t-45.5 -98q-16 -47 -19 -98v-230q0 -72 11.5 -115.5t35 -69t59.5 -36t87 -12.5q12 -29 12 -92q-51 4 -125 5t-149 1h-80q-41 0 -80 -1t-72 -2t-55 -3q0 63 12 92q86 6 118 44t32 146v429q0 41 -6.5 68.5t-23.5 46t-48 28.5t-86 12z" />
<glyph unicode="s" horiz-adv-x="927" d="M86 61l5 60q3 35 3 72.5t-1 73.5t-5 63q18 12 50 18t65 6q16 -137 83.5 -204.5t180.5 -67.5q88 0 137 39t49 100q0 29 -9 51.5t-35.5 43t-71.5 44t-117 52.5q-90 35 -150.5 66.5t-98.5 68.5t-55.5 84t-17.5 112q0 68 36 119t90.5 85t116.5 50.5t118 16.5 q96 0 169.5 -19.5t141.5 -56.5q-4 -53 -4 -111.5t8 -113.5q-43 -27 -108 -27q-4 45 -22.5 88t-49.5 76t-75 54.5t-95 21.5q-68 0 -108 -33t-40 -88q0 -29 7.5 -50.5t35 -44t77.5 -47t139 -59.5q86 -33 145 -65.5t95 -69.5t51.5 -80t15.5 -102q0 -70 -30 -126.5t-83 -96 t-126 -62t-159 -22.5q-63 0 -113 6t-93 15t-79 24.5t-73 35.5z" />
<glyph unicode="t" horiz-adv-x="761" d="M43 877q0 29 4 49t16 47h138v287q43 10 86 33.5t75 52.5q10 -4 17.5 -9.5t11.5 -17.5t5 -31.5t1 -54.5v-260h281q0 -47 -21 -96q-158 -6 -260 -29v-543q0 -111 33 -159t90 -48q47 0 81 12.5t63 39.5q29 -33 32 -72q-37 -41 -106.5 -69.5t-138.5 -28.5q-129 0 -189.5 65.5 t-60.5 214.5v588q-33 12 -68 18.5t-90 10.5z" />
<glyph unicode="u" horiz-adv-x="1220" d="M33 860q0 23 2 41.5t12 38.5q33 2 71 9t74.5 17.5t70.5 22.5t61 25q18 -6 32.5 -26.5t14.5 -69.5v-492q0 -166 44 -234.5t152 -68.5q43 0 86 22.5t77 67.5t54.5 115.5t20.5 167.5v221q0 39 -5 66.5t-22.5 46t-49.5 28.5t-85 12q0 25 2 43.5t12 36.5q86 4 166 21.5 t129 42.5q20 -6 34.5 -26.5t14.5 -69.5v-623q0 -39 4.5 -66.5t19.5 -46t43 -29t79 -12.5q0 -25 -2 -47t-12 -47q-23 0 -60 -5t-74.5 -13.5t-71.5 -21.5t-55 -27q-18 8 -35.5 29.5t-17.5 76.5q0 45 4 88v19q-23 -47 -65 -91q-111 -111 -262 -110q-76 0 -136.5 19.5 t-101.5 63.5t-61.5 117.5t-20.5 184.5v328q0 41 -3 68.5t-18.5 46t-44 28.5t-77.5 12z" />
<glyph unicode="v" horiz-adv-x="1179" d="M49 1001q92 -8 230 -8q70 0 142.5 2t123.5 6q0 -25 -4 -47t-11 -43q-55 -4 -86.5 -11t-42 -23.5t-4.5 -44t27 -70.5l44 -100l66 -150l72 -170l51 -125l86 223l80 211q38 101 38 158q0 23 -6 39q-22 55 -103 61q-25 43 -25 92q43 -4 97.5 -6t105.5 -2q49 0 105.5 2t94.5 6 q0 -55 -18 -94q-27 -6 -47.5 -19.5t-39.5 -40t-39.5 -69.5t-47.5 -106l-291 -692q-27 0 -53.5 5t-46.5 15q-12 31 -40 93l-63 141l-73 163l-74 159l-61 133q-27 58 -39 81q-20 45 -36 70.5t-30 40t-30.5 19.5t-37.5 7q-10 29 -12 46t-2 48z" />
<glyph unicode="w" horiz-adv-x="1679" d="M33 999q43 -2 92 -4t121 -2t127 2t110 6q0 -23 -2 -51t-8 -45q-90 -10 -103 -40q-5 -10 -5 -25q0 -26 16 -66q51 -127 104 -276l90 -240l281 746q20 0 45 -2.5t41 -8.5l75 -171l83 -193l86 -205l67 -168l117 369q27 78 31 130q1 12 1 23q0 36 -10 61q-13 32 -41 47 t-69 19q-18 45 -18 96q41 -4 93 -6t99 -2q115 0 193 8q0 -55 -19 -96q-25 -6 -43 -20.5t-35.5 -44t-37 -78.5t-44.5 -131l-219 -651q-31 0 -56.5 5t-43.5 15l-78 190l-85 198l-87 198l-55 127l-283 -733q-37 0 -58.5 5t-37.5 15l-143 388l-156 388q-25 61 -49.5 88t-73.5 41 q-8 23 -10 48.5t-2 45.5z" />
<glyph unicode="x" horiz-adv-x="1130" d="M66 -4q0 25 2 49.5t10 40.5q29 2 55.5 11t55 31t60.5 58.5t73 94.5l149 211l-80 112l-82 115l-77 99q-30 38 -52 57.5t-40.5 26.5t-43.5 9q-16 33 -16 88q49 -2 107.5 -4t121.5 -2h127q66 0 121 6q0 -23 -3 -46t-7 -42q-76 -4 -89 -35q-2 -5 -2 -12q0 -35 58 -112l49 -66 l49 -70l86 136q54 80 54 116q0 39 -76 43q-10 20 -12 42t-2 46l84 -4q44 -2 110 -2q63 0 105.5 2t76.5 4q0 -25 -5 -47l-9 -41q-23 -2 -43 -7t-41.5 -21.5t-46.5 -45t-57 -75.5l-160 -227l92 -127q59 -80 102 -144q35 -51 60.5 -85t47 -54.5t40 -29.5t39.5 -9 q8 -20 10 -40.5t2 -49.5q-68 4 -121 4h-229q-66 0 -129 -4q0 29 1 50.5t9 39.5q76 2 90 31q3 6 3 15q0 30 -38 89l-65 96q-27 45 -60 89l-90 -132q-58 -84 -58 -128q0 -9 2 -16q13 -44 77 -44q6 -16 9 -41t3 -49q-61 4 -127 4h-170q-42 0 -110 -4z" />
<glyph unicode="y" horiz-adv-x="1196" d="M43 999l126 -4q62 -2 120 -2h139l78 4q39 2 72 2q0 -57 -15 -94q-59 -10 -92 -25.5t-43 -42.5q-5 -14 -5 -31.5t5 -37.5q10 -41 41 -102l50 -109l58 -128q30 -67 54 -132q18 -41 31 -78q12 25 22 49l150 379q29 70 33 115q1 13 2 24q0 29 -10 51q-13 30 -44 45t-80 23 q-14 43 -14 94q49 -6 102 -6h226q53 0 104 6q0 -23 -1 -46t-13 -48q-29 -6 -51.5 -19.5t-41 -38t-38 -66.5t-43.5 -101l-320 -760q-63 -147 -111.5 -238.5t-90.5 -140.5t-84 -65.5t-93 -16.5q-63 0 -102 16.5t-60 32.5q-7 26 -6 63v19q2 49 8 78q74 -14 140 -14 q63 0 119.5 29.5t99.5 99.5q14 23 37.5 69t50.5 111q6 10 12 23l-67 149l-83 186l-80 174l-67 144l-65.5 130t-50 77.5t-46 40t-49.5 18.5q-14 39 -14 94z" />
<glyph unicode="z" horiz-adv-x="1087" d="M111 82l89 126l109 152l117 165l113 161l96 139l49 74h-201q-57 0 -96 -9t-66.5 -35t-45 -71t-31.5 -116q-27 0 -58.5 4t-54.5 14q6 72 10 152t4 163q33 -2 81 -3t102.5 -3t107.5 -2h209q53 0 105.5 2t98.5 3t79 3q14 -18 20 -43.5t6 -50.5l-86 -123l-103 -145l-114 -157 l-113 -155l-104 -143l-65 -86h276q57 0 96 8.5t62.5 34t36 72.5t18.5 125q25 0 53.5 -2t61.5 -10q0 -27 1 -65t3 -78t5 -78.5t7 -67.5q-8 -16 -25.5 -28.5t-43.5 -12.5q-41 0 -80 1t-84 2t-101 1h-123q-143 0 -235 -1t-152 -3q-14 14 -24 37.5t-10 48.5z" />
<glyph unicode="{" horiz-adv-x="763" d="M76 496q0 18 1 33.5t9 35.5q63 20 103 50t63.5 68t32 81t8.5 92q0 78 -13.5 165t-13.5 171q0 63 13.5 122.5t50.5 114t102.5 99.5t169.5 80q18 -29 19 -58q-111 -37 -149 -107.5t-38 -160.5q0 -49 7.5 -101.5t17.5 -105.5l16 -106q8 -53 8 -103q0 -57 -10 -107t-41 -94 t-85 -78t-138 -52q84 -23 137 -58t85 -80t43 -98t11 -113q0 -106 -21.5 -217.5t-21.5 -214.5q0 -47 9.5 -89t31 -79t58.5 -65.5t94 -46.5q0 -20 -2 -34.5t-12 -27.5q-111 35 -179.5 83t-107.5 107.5t-52.5 125t-13.5 135.5q0 84 10.5 163.5t10.5 155.5q0 51 -9.5 99.5 t-32 88.5t-64 71.5t-107.5 54.5z" />
<glyph unicode="|" horiz-adv-x="378" d="M135 -500v2046q33 0 58.5 -5t50.5 -19v-207q0 -115 -1 -246t-1 -274v-576q0 -143 1 -276t1 -252v-213q-25 0 -60 6t-49 16z" />
<glyph unicode="}" horiz-adv-x="716" d="M72 -526q113 35 151.5 110.5t38.5 169.5q0 102 -21.5 214t-21.5 218q0 59 12.5 112.5t43 98.5t84 80t139.5 58q-86 18 -140.5 52t-84 78t-41 94t-11.5 107q0 49 8 103l19 106q8 53 15 105.5t7 101.5q0 90 -37.5 160.5t-148.5 107.5q0 29 20 58q104 -35 169 -80t102 -99.5 t50 -114t13 -122.5q0 -84 -13 -171t-13 -165q0 -49 9 -92t31.5 -81t62.5 -67.5t103 -50.5q8 -20 9.5 -35.5t1.5 -33.5q-63 -23 -106.5 -54.5t-66 -71.5t-30.5 -88.5t-8 -99.5q0 -76 9 -155.5t9 -163.5q0 -70 -13 -135.5t-52 -125t-107.5 -107.5t-179.5 -83q-10 12 -11 27 t-1 35z" />
<glyph unicode="~" horiz-adv-x="1269" d="M92 518q88 121 168 165t158 44q59 0 117.5 -19.5t117 -42t116.5 -42t116 -19.5q55 0 110.5 21.5t114.5 74.5q23 -2 37 -7t33 -19q-92 -119 -170 -162t-148 -43q-59 0 -114.5 20.5t-110.5 47t-111.5 47t-117.5 20.5t-128 -30.5t-143 -110.5q-39 16 -45 55z" />
<glyph unicode="&#xa1;" horiz-adv-x="890" d="M270 889q0 63 40 94t89 31q59 0 91 -33t32 -82q0 -51 -36.5 -88t-94.5 -37q-57 0 -89 39t-32 76zM276 -459l22 220q11 120 20 247l19 256q9 129 13 250q25 0 51.5 -1t44.5 -9l20 -278q9 -128 19.5 -243.5t21.5 -222t28 -215.5q-23 -4 -53.5 -12t-61.5 -18l-60 -21 q-29 -10 -45 -20q-40 14 -40 53q0 6 1 14z" />
<glyph unicode="&#xa2;" horiz-adv-x="983" d="M86 494q0 96 29.5 189t87 168t139.5 118q68 35 152 43v317q33 0 58.5 -5t49.5 -19v-175q0 -55 -2 -118q162 -12 266 -97q-10 -61 -12 -122.5t-2 -124.5q-18 -10 -48 -13.5t-52 -3.5q-14 125 -74 193q-35 37 -78 55v-795q145 0 240 125q18 -8 33.5 -24.5t21.5 -34.5 q-59 -94 -145 -141q-66 -35 -150 -43v-103q2 -90 2 -188q-25 0 -59.5 6t-48.5 16v267q-61 6 -121 28q-80 33 -143.5 97.5t-103.5 160t-40 224.5zM289 526q0 -84 20.5 -159.5t59.5 -134t96 -93.5q12 -8 29 -16v786q-90 -10 -144 -98q-61 -99 -61 -285z" />
<glyph unicode="&#xa3;" horiz-adv-x="1302" d="M166 47l108 113q49 53 83 108.5t51.5 115.5t17.5 132q0 61 -16 111h-80q-84 0 -148 -2q0 35 5.5 54t19.5 46h168l-21 51q-27 61 -49 131t-22 166q0 78 25.5 152.5t76.5 133t127 93.5t174 35q117 0 189.5 -18.5t144.5 -57.5q-5 -51 -5 -102q0 -17 1 -34q2 -69 6 -151 q-31 -14 -59.5 -18t-57.5 0q-10 150 -69.5 214t-176.5 64q-82 0 -138 -64.5t-56 -168.5q0 -78 22.5 -134t51 -108.5t49.5 -109.5q16 -35 20 -74h256q0 -33 -5 -53.5t-17 -44.5q-72 2 -137 2h-95q-6 -109 -50 -207t-132 -211q18 12 37 22q37 25 70.5 38.5t64.5 17.5t66 4 q59 0 107 -17.5t88 -38.5l74 -39q34 -17 64 -18q16 0 38 8.5t44 28.5q45 -6 82 -43q-53 -41 -109.5 -96t-84.5 -98q-72 0 -123 24q-37 16 -63.5 36.5t-59.5 39t-74 31t-106 12.5q-84 0 -157 -33t-146 -106q-47 16 -74 63z" />
<glyph unicode="&#xa4;" d="M145 903q14 14 35 26.5t49 14.5l99 -98q47 39 108 61q72 29 150 29t147 -29q53 -23 96 -53l99 98q27 -6 44 -15t36 -30l-115 -114q29 -37 49 -82q31 -70 31 -154q0 -100 -39 -174q-23 -43 -49 -78l143 -137q-12 -18 -32.5 -30.5t-53.5 -14.5l-123 121q-49 -37 -104 -58 q-68 -23 -129 -22q-88 0 -162 31q-37 18 -72 38l-106 -108q-33 4 -50.5 11t-37.5 30l127 131q-41 51 -68 111q-29 72 -29 149q0 86 33 156q18 39 41 71zM311 573q0 -57 21.5 -113.5t60.5 -101.5t92.5 -73.5t114.5 -28.5q115 0 184.5 77t69.5 208q0 57 -22.5 112.5 t-60.5 98.5t-91 69.5t-113 26.5q-117 0 -186.5 -76t-69.5 -199z" />
<glyph unicode="&#xa5;" horiz-adv-x="1366" d="M53 1473q47 -2 105.5 -3.5t122.5 -1.5h149q41 0 78 1t63 4q0 -25 -2 -43.5t-10 -43.5q-84 -8 -96 -43q-2 -7 -3 -15q0 -36 42 -103l139 -246l117 -221q51 102 108 205l121 219q49 84 49 127q0 12 -4 20q-16 41 -102 53q-8 25 -12.5 45.5t-4.5 45.5q39 -4 101 -5h112 q51 0 100.5 1t86.5 4q0 -45 -8 -87q-31 -8 -54.5 -22t-50 -40t-54.5 -66.5t-63 -104.5l-186 -332h264q0 -33 -6 -55.5t-18 -46.5h-299l-43 -78v-92h362q0 -61 -27 -103h-335v-92q0 -88 5 -137t22.5 -75.5t50 -37t90.5 -18.5q12 -39 12 -92l-144 4q-72 2 -133 2h-77 q-41 0 -82 -1t-77 -2t-59 -1q0 25 3.5 48.5t11.5 41.5q57 6 91 15.5t52.5 33t23.5 69.5t5 122v120h-363q0 25 7.5 53.5t17.5 49.5l338 2v88l-47 80h-295q0 53 20 102h215l-256 434q-20 35 -36.5 58.5t-34 39t-38 21.5t-50.5 8q-8 25 -11.5 45.5t-3.5 45.5z" />
<glyph unicode="&#xa6;" horiz-adv-x="391" d="M135 375q33 0 58.5 -4t50.5 -19q0 -35 -1 -87t-1 -110.5t-1 -119t-1 -107.5q0 -41 1 -97t1 -118.5t1 -123t1 -111.5q-25 0 -59.5 6t-49.5 16v875zM135 737v809q33 0 58.5 -5t50.5 -19q0 -70 -2 -174.5t-2 -214.5q0 -47 1 -106.5t1 -119t1 -111t1 -81.5q-25 0 -60 6 t-49 16z" />
<glyph unicode="&#xa7;" horiz-adv-x="1144" d="M133 522q0 66 18.5 124.5t53.5 108.5t84 85q39 29 88 49q-4 4 -8 6q-59 49 -93 102.5t-45.5 108.5t-11.5 113q0 63 23.5 123.5t68.5 105.5t106.5 73.5t139.5 28.5q109 0 177.5 -28.5t111.5 -63.5q-4 -55 -4 -122.5t6 -131.5q-27 -8 -52.5 -12t-58.5 -4q-12 80 -30.5 131 t-41 79.5t-51 40t-61.5 11.5q-43 0 -78 -15.5t-59.5 -41t-37.5 -58t-13 -65.5q0 -39 8 -72t33.5 -64.5t75.5 -63.5t132 -69q111 -51 185.5 -97t123 -99t69 -118.5t20.5 -151.5q0 -70 -21.5 -134.5t-64.5 -118t-103 -92.5q-43 -25 -94 -43q63 -47 102 -98t55.5 -107.5 t16.5 -123.5q0 -70 -19.5 -131.5t-61.5 -109.5t-108.5 -75.5t-160.5 -27.5q-68 0 -117 10t-86 26.5t-65.5 36t-51.5 39.5q6 76 6.5 148.5t-8.5 144.5q25 6 55.5 9t55.5 3q10 -100 30.5 -161.5t49.5 -96t66.5 -47t78.5 -12.5q88 0 138.5 47t50.5 129q0 45 -10.5 80t-39 68.5 t-85 69.5t-150.5 83q-96 49 -159.5 99.5t-103.5 105.5t-57.5 119.5t-17.5 146.5zM276 578q0 -45 11.5 -87t43 -82t86 -80t140.5 -81l47 -25q61 8 109 27q55 25 89 57.5t48 74.5t14 83q0 43 -12 83t-48 80t-101.5 83t-172.5 90q-23 8 -38 18q-102 -20 -158 -80 q-58 -63 -58 -161z" />
<glyph unicode="&#xa8;" d="M315 1266q0 47 28 85t91 38q66 0 94.5 -35t28.5 -84t-35 -82t-84 -33q-55 0 -89 32t-34 79zM735 1278q0 53 34 82t89 29q53 0 88 -30t35 -81q0 -45 -25.5 -83t-91.5 -38q-63 0 -96 34t-33 87z" />
<glyph unicode="&#xa9;" horiz-adv-x="1632" d="M76 500q0 156 57 291t157.5 234t234.5 156.5t292 57.5q154 0 289 -57.5t235.5 -156.5t157.5 -234.5t57 -290.5q0 -154 -57 -290t-157.5 -235.5t-235.5 -158t-289 -58.5q-158 0 -293 58.5t-235.5 157t-156.5 233.5t-56 293zM170 500q0 -137 49 -256t136 -205t206 -135 t256 -49q135 0 254 50t206 137t136 203.5t49 254.5q0 137 -49 254.5t-136 205t-206 137.5t-254 50q-137 0 -255 -50t-206 -137.5t-137 -205t-49 -254.5zM373 496q0 111 33.5 200.5t96 153t146.5 98.5t187 35q100 0 168.5 -22.5t144.5 -69.5q-12 -59 -14 -116.5t-2 -117.5 q-14 -8 -43 -11t-50 -3q-4 43 -16 86t-41 78t-73 56.5t-113 21.5q-63 0 -105.5 -29t-68 -79t-38 -117.5t-12.5 -141.5q0 -76 15.5 -146.5t50.5 -126t88 -89t129 -33.5q61 0 130 23.5t130 86.5q23 -20 37 -51q-57 -82 -142 -127t-212 -45q-78 0 -155 31t-137.5 91.5 t-97 150.5t-36.5 213z" />
<glyph unicode="&#xaa;" horiz-adv-x="901" d="M109 965q0 68 34.5 114.5t95 79.5t142.5 53.5t172 32.5q0 88 -7 122t-30 56q-37 49 -98 50q-35 0 -59.5 -17.5t-40 -46.5t-22.5 -61.5t-9 -65.5q-29 0 -63 4t-54 12q3 29 3 61q0 16 -1 32q-2 49 -12 86q68 37 146.5 58t162.5 21q78 0 127 -17t82 -52q18 -18 32.5 -42 t21.5 -54.5t12.5 -72.5t5.5 -99v-160q0 -82 17 -107.5t71 -25.5q0 -25 -2 -49.5t-11 -47.5q-57 -4 -112.5 -18t-96.5 -31q-23 6 -36 24.5t-13 55.5q0 23 3 41.5t5 34.5q-8 -25 -23 -49.5t-42 -48.5q-31 -23 -73 -39.5t-101 -16.5q-115 0 -171 46.5t-56 136.5zM311 1001 q0 -57 25.5 -79.5t60.5 -22.5q27 0 53.5 11.5t49 38t38 67.5t15.5 100v49q-45 -6 -88 -16t-78 -26.5t-55.5 -46.5t-20.5 -75z" />
<glyph unicode="&#xab;" horiz-adv-x="1093" d="M117 520q0 35 14 74l167 156l157 155q47 -6 75 -35l-60 -74l-62 -80l-58 -77l-47 -66q49 -86 102.5 -165.5t108.5 -153.5q-6 -49 -43 -74l-182 179zM506 520q0 25 4 43.5t8 28.5l139 156l129 149q45 -4 74 -33q-104 -147 -186 -284l87 -167l91 -161q-14 -43 -51 -62 l-80 96l-72 81l-69 75z" />
<glyph unicode="&#xac;" horiz-adv-x="1165" d="M57 643q0 23 5.5 58.5t15.5 52.5h987v-502q-49 -31 -113 -31v424h-397q-79 1 -160 1q-163 0 -338 -3z" />
<glyph unicode="&#xad;" horiz-adv-x="909" d="M131 500q0 37 9.5 79t25.5 70h614q0 -35 -7 -72.5t-21 -68.5q-59 0 -143 -1l-170 -2l-169 -2q-82 -1 -139 -3z" />
<glyph unicode="&#xae;" horiz-adv-x="1073" d="M131 1079q0 84 31 159t86 130t129 87t160 32t160.5 -32t129 -87t86 -130t31.5 -159q0 -88 -31.5 -161.5t-86 -128t-129 -85t-160.5 -30.5t-160 30.5t-129 85t-86 128t-31 161.5zM203 1079q0 -72 25.5 -133t69.5 -105t105.5 -70t133.5 -26q74 0 135 26t106 70t69.5 105.5 t24.5 132.5q0 72 -24.5 133.5t-69.5 106.5t-106.5 70.5t-134.5 25.5q-72 0 -133.5 -25.5t-105.5 -70.5t-69.5 -106.5t-25.5 -133.5zM356 1288v19h201q86 0 123 -32t37 -81q0 -31 -16.5 -54.5t-39 -41t-49.5 -25.5q-8 -4 -18 -8q23 -25 35 -43q16 -18 39 -53q31 -43 47 -55.5 t47 -12.5v-22q0 -8 -4 -17q-25 0 -54.5 -1t-52.5 -5q-33 57 -63.5 103.5t-71.5 93.5q-6 2 -16 2v-78q0 -43 8 -58.5t35 -19.5q4 -10 5 -19.5t1 -19.5q-23 2 -49 2h-82q-20 0 -58 -2v17q0 12 5 22q33 4 43 18.5t10 59.5v217q0 49 -10.5 62.5t-47.5 13.5q-4 8 -4 18zM500 1090 q68 2 101.5 18t33.5 63q0 43 -23.5 71t-81.5 28h-16q-4 0 -14 -4v-176z" />
<glyph unicode="&#xaf;" d="M188 1270q0 12 4.5 46t16.5 54h770q0 -45 -18 -94h-99q-72 0 -175 -1t-231.5 -2t-267.5 -3z" />
<glyph unicode="&#xb0;" horiz-adv-x="833" d="M131 1255q0 55 20.5 103.5t58.5 84.5t89 56.5t113 20.5q141 0 215.5 -75t74.5 -188q0 -57 -20 -107t-58 -87t-92.5 -57.5t-119.5 -20.5q-133 0 -207 75.5t-74 194.5zM283 1296q0 -102 49 -162.5t110 -60.5q45 0 77 39t32 121q0 96 -41 150.5t-111 54.5q-49 0 -82.5 -43.5 t-33.5 -98.5z" />
<glyph unicode="&#xb1;" d="M78 176q0 25 5 57.5t17 49.5h987q0 -33 -3 -56.5t-19 -48.5q-90 0 -146.5 1t-101.5 1h-348q-63 0 -125 -1l-127 -2q-65 -1 -139 -1zM182 680q0 23 5.5 56.5t17.5 49.5h340v97q0 45 -1 99t-1 130q25 14 49 17.5t57 3.5v-347h369q0 -33 -3 -57t-18 -47q-57 0 -98 1t-83 1 t-91 -2h-76v-307q-14 -10 -49 -15.5t-59 -5.5q0 66 1 114t2 91t1 82v41h-115q-103 0 -248 -2z" />
<glyph unicode="&#xb2;" horiz-adv-x="802" d="M86 848q70 68 133 123l103 90q76 70 110.5 129t34.5 139q0 59 -33 96t-78 37q-55 0 -77.5 -47t-36.5 -166q-25 0 -55.5 2t-51.5 11q4 51 4 112.5t-6 110.5q68 39 128.5 55t148.5 16q39 0 80.5 -10t75.5 -33.5t55.5 -61.5t21.5 -91q0 -86 -34 -142.5t-103 -119.5 q-39 -37 -88 -79l-103 -89h172q53 0 85 25.5t36 95.5q23 0 43.5 -2t36.5 -7q0 -57 3 -110t14 -111q-8 -18 -24.5 -31.5t-43.5 -13.5q-51 0 -126 3t-153 3q-80 0 -147.5 -3t-104.5 -3q-10 18 -15 37t-5 35z" />
<glyph unicode="&#x2072;" horiz-adv-x="802" d="M86 848q70 68 133 123l103 90q76 70 110.5 129t34.5 139q0 59 -33 96t-78 37q-55 0 -77.5 -47t-36.5 -166q-25 0 -55.5 2t-51.5 11q4 51 4 112.5t-6 110.5q68 39 128.5 55t148.5 16q39 0 80.5 -10t75.5 -33.5t55.5 -61.5t21.5 -91q0 -86 -34 -142.5t-103 -119.5 q-39 -37 -88 -79l-103 -89h172q53 0 85 25.5t36 95.5q23 0 43.5 -2t36.5 -7q0 -57 3 -110t14 -111q-8 -18 -24.5 -31.5t-43.5 -13.5q-51 0 -126 3t-153 3q-80 0 -147.5 -3t-104.5 -3q-10 18 -15 37t-5 35z" />
<glyph unicode="&#xb3;" horiz-adv-x="800" d="M76 602q10 20 21.5 33.5t27.5 23.5q16 -12 56 -26.5t104 -14.5q39 0 80 15.5t75.5 46.5t56 75t21.5 103q0 82 -47 139.5t-145 57.5q-16 0 -26.5 -1t-20.5 -5q-14 10 -23.5 22t-13.5 35l147 186l103 129h-136q-37 0 -59.5 -5t-38.5 -19.5t-30.5 -40t-30.5 -64.5 q-18 0 -41 4t-39 15q8 68 12 128t4 115q37 -2 100 -2h322q61 0 92 2q10 -20 13.5 -35.5t3.5 -39.5l-121 -142l-137 -174q11 1 22 1q45 0 88 -13q53 -16 95 -53t66.5 -92.5t24.5 -126.5q0 -72 -27.5 -134.5t-79.5 -109.5t-128 -75t-170 -28q-96 0 -149.5 27t-71.5 43z" />
<glyph unicode="&#x2073;" horiz-adv-x="800" d="M76 602q10 20 21.5 33.5t27.5 23.5q16 -12 56 -26.5t104 -14.5q39 0 80 15.5t75.5 46.5t56 75t21.5 103q0 82 -47 139.5t-145 57.5q-16 0 -26.5 -1t-20.5 -5q-14 10 -23.5 22t-13.5 35l147 186l103 129h-136q-37 0 -59.5 -5t-38.5 -19.5t-30.5 -40t-30.5 -64.5 q-18 0 -41 4t-39 15q8 68 12 128t4 115q37 -2 100 -2h322q61 0 92 2q10 -20 13.5 -35.5t3.5 -39.5l-121 -142l-137 -174q11 1 22 1q45 0 88 -13q53 -16 95 -53t66.5 -92.5t24.5 -126.5q0 -72 -27.5 -134.5t-79.5 -109.5t-128 -75t-170 -28q-96 0 -149.5 27t-71.5 43z" />
<glyph unicode="&#xb4;" d="M485 1165q53 109 87 200t55 175q49 16 89 22q29 4 53 3h19q18 -2 35 -6.5t29 -8.5q-72 -82 -148.5 -189.5t-138.5 -207.5q-8 -1 -16 -1l-25 2q-21 3 -39 11z" />
<glyph unicode="&#xb5;" horiz-adv-x="1220" d="M76 860q0 23 2 41.5t14 38.5q31 2 70 9t75.5 17.5t69.5 22.5t60 25q20 -6 33.5 -26.5t13.5 -69.5v-492q0 -166 44 -234.5t152 -68.5q43 0 86 22.5t77 67.5t54.5 115.5t20.5 167.5v221q0 39 -5 66.5t-22.5 46t-49.5 28.5t-85 12q0 25 2 43.5t12 36.5q86 4 166 21.5 t131 42.5q18 -6 32.5 -26.5t14.5 -69.5v-629q0 -35 5 -62q4 -27 19 -45t43 -28.5t79 -12.5q0 -25 -2 -47t-10 -47q-25 0 -62 -5t-74.5 -13.5t-71.5 -21.5t-55 -27q-18 8 -35.5 29.5t-17.5 76.5q0 45 4 88v19q-23 -47 -65 -91q-111 -111 -262 -110q-76 0 -138 18l-34 15v-111 q0 -98 8 -162.5t22 -113.5q-27 -20 -46 -38t-36 -36l-33 -40l-38 -50q-18 8 -28.5 21t-14.5 28q4 47 11 109.5t7 183.5v889q0 41 -3 68.5t-18.5 46t-44 28.5t-77.5 12z" />
<glyph unicode="&#xb6;" d="M78 1071q0 84 30.5 158t96 128t169 85t249.5 31q102 0 176.5 -2.5t152.5 -2.5h86q47 0 92 5q0 -25 -2 -46.5t-10 -46.5q-47 -2 -76.5 -13t-45 -33.5t-19.5 -57.5t-4 -82v-1735q-57 0 -109 23v1898q-53 6 -94 9h-39v-1930q-31 0 -56.5 3t-51.5 18v1210q-10 -2 -21 -2 q-23 -2 -51 -2q-111 0 -198 19.5t-148.5 64.5t-94 118.5t-32.5 182.5zM276 1077q0 -80 25 -138t67 -96t97 -55.5t117 -17.5h41v621q-84 -2 -146 -15q-72 -14 -117 -50t-64.5 -97.5t-19.5 -151.5z" />
<glyph unicode="&#xb7;" horiz-adv-x="507" d="M131 590q0 59 35 93t82 34q51 0 90 -33t39 -82q0 -43 -26.5 -84t-94.5 -41q-63 0 -94 32t-31 81z" />
<glyph unicode="&#xb8;" d="M485 -137l109 172h108l-102 -144q86 -14 137 -66t51 -130q0 -55 -27.5 -96t-69.5 -69t-91 -42t-90 -14q-8 16 -11 34.5t-3 34.5q63 0 116.5 32t53.5 89q0 53 -40 85t-100 32q-18 12 -29.5 32.5t-11.5 49.5z" />
<glyph unicode="&#xb9;" horiz-adv-x="663" d="M115 774q0 25 2 46.5t6 43.5q66 0 93.5 32t27.5 101v332q0 66 -28 97.5t-93 31.5q-8 37 -8 92q18 -2 45.5 -3t59.5 -2t63 -1h51q41 0 106.5 1t108.5 5q0 -55 -8 -92q-66 0 -92.5 -31.5t-26.5 -97.5v-332q0 -70 26.5 -101.5t92.5 -31.5q8 -41 8 -90q-49 6 -106.5 7 t-108.5 1q-49 0 -107.5 -1t-111.5 -7z" />
<glyph unicode="&#x2071;" horiz-adv-x="663" d="M115 774q0 25 2 46.5t6 43.5q66 0 93.5 32t27.5 101v332q0 66 -28 97.5t-93 31.5q-8 37 -8 92q18 -2 45.5 -3t59.5 -2t63 -1h51q41 0 106.5 1t108.5 5q0 -55 -8 -92q-66 0 -92.5 -31.5t-26.5 -97.5v-332q0 -70 26.5 -101.5t92.5 -31.5q8 -41 8 -90q-49 6 -106.5 7 t-108.5 1q-49 0 -107.5 -1t-111.5 -7z" />
<glyph unicode="&#xba;" horiz-adv-x="907" d="M86 1161q0 90 28.5 163t78 124t117 79.5t147.5 28.5q180 0 273 -107.5t93 -279.5q0 -88 -26.5 -160.5t-74.5 -125t-116.5 -81t-154.5 -28.5q-170 0 -267.5 105.5t-97.5 281.5zM287 1202q0 -158 49 -248t135 -90q76 0 116 76t40 199q0 158 -55.5 244.5t-133.5 86.5 q-76 0 -113.5 -75.5t-37.5 -192.5z" />
<glyph unicode="&#xbb;" horiz-adv-x="1128" d="M164 868q33 31 84 31l132 -143l140 -140q12 -29 12 -67l-144 -173l-140 -179q-20 12 -34 28l-26 33l85 137l85 146l-42 73l-49 85l-53 88zM504 877q37 31 80 30q78 -76 158 -146l167 -143q8 -16 10.5 -32.5t2.5 -36.5l-172 -178l-166 -183q-35 23 -49 64l103 140 q50 71 99 149l-49 73l-59 89l-64 91z" />
<glyph unicode="&#xbc;" horiz-adv-x="1687" d="M57 1417q0 20 3 46t14 48q80 10 153.5 29t132.5 43q25 -10 34 -28.5t9 -67.5v-561q0 -70 8.5 -115t24 -69.5t41 -35t58.5 -12.5q4 -16 6 -40.5t2 -49.5q-25 2 -92.5 4t-145.5 2q-82 0 -141.5 -2t-93.5 -4q0 55 8 90q35 2 62.5 11.5t46 32t26.5 63.5t8 108v357 q0 88 -33 119.5t-131 31.5zM267 39l1112 1511q23 -6 47 -22.5t39 -34.5l-1112 -1509q-29 10 -52.5 25.5t-33.5 29.5zM856 348l117 145l126 161l126 169l118 168q55 0 105 -22v-555h100q51 0 70 -21q-14 -31 -24.5 -61.5t-14.5 -73.5h-131v-16q0 -51 5 -80t18.5 -44.5 t34 -19.5t50.5 -6q4 -14 7.5 -45t3.5 -53q-20 0 -47 1t-58 3l-61 2h-115l-66 -2q-33 -2 -59.5 -3t-40.5 -1q0 23 2 54.5t6 43.5q37 2 63.5 7t44 21.5t26 44.5t8.5 77v14q-70 -2 -127 -2q-80 -2 -139.5 -5t-108.5 -7q-39 43 -39 106zM1034 414h236v319z" />
<glyph unicode="&#xbd;" horiz-adv-x="1902" d="M57 1417q0 20 3 46t14 48q80 10 153.5 29t132.5 43q25 -10 34 -28.5t9 -67.5v-561q0 -70 8.5 -115t24 -69.5t41 -35t58.5 -12.5q4 -16 6 -40.5t2 -49.5q-25 2 -92.5 4t-145.5 2q-82 0 -141.5 -2t-93.5 -4q0 55 8 90q35 2 62.5 11.5t46 32t26.5 63.5t8 108v357 q0 88 -33 119.5t-131 31.5zM246 39l1112 1511q23 -6 47 -22.5t39 -34.5l-1112 -1509q-29 10 -52.5 25.5t-33.5 29.5zM1104 61q31 37 73 82l73 78l196 205q59 61 86 126.5t27 158.5q0 76 -38 129t-120 53q-76 0 -108.5 -48t-49.5 -151q-61 0 -106 17q8 43 8 89t-10 105 q133 70 305 70q63 0 118.5 -13.5t97.5 -41t66.5 -71.5t24.5 -104q0 -92 -49 -165.5t-133 -149.5q-70 -66 -126 -124l-126 -136h268q51 0 83 20.5t32 77.5q27 2 51.5 0t44.5 -10q-2 -31 -2 -61t2 -60q4 -59 15 -104q-10 -20 -35 -27.5t-74 -7.5q-25 0 -85 1t-118 1 q-96 0 -186 -1t-186 -1q-10 10 -14.5 27.5t-4.5 35.5z" />
<glyph unicode="&#xbe;" horiz-adv-x="1798" d="M80 666q-2 23 7 45t24 41q27 -18 78 -36t126 -18q102 0 168 46.5t66 144.5q0 39 -16.5 68.5t-44 50t-62.5 32t-72 11.5q-20 0 -37.5 -2t-33.5 -9q-16 12 -27.5 37t-13.5 41l142 158q73 80 124 143h-162q-55 0 -87 -28.5t-62 -110.5q-23 0 -49.5 8t-43.5 19q12 57 17 135 q3 52 3 94q0 21 -1 41q45 -4 120.5 -5t178.5 -1q104 0 168.5 3t95.5 3q29 -33 29 -80q-63 -63 -132 -139l-145 -158q57 0 113.5 -15.5t101.5 -47t74 -82.5t29 -121q0 -78 -32 -142.5t-87 -107.5t-133 -67.5t-172 -24.5q-104 0 -165.5 27t-86.5 47zM332 39l1112 1511 q23 -6 47 -22.5t39 -34.5l-1112 -1509q-29 10 -52.5 25.5t-33.5 29.5zM961 348l117 145l126 161l126 169l118 168q55 0 105 -22v-555h100q51 0 70 -21q-14 -31 -24.5 -61.5t-14.5 -73.5h-131v-16q0 -51 5 -80t18.5 -44.5t34 -19.5t50.5 -6q4 -14 7.5 -45t3.5 -53 q-20 0 -47 1t-58 3l-61 2h-115l-66 -2q-33 -2 -59.5 -3t-40.5 -1q0 23 2 54.5t6 43.5q37 2 63.5 7t44 21.5t26 44.5t8.5 77v14q-70 -2 -127 -2q-80 -2 -139.5 -5t-108.5 -7q-39 43 -39 106zM1139 414h236v319z" />
<glyph unicode="&#xbf;" horiz-adv-x="1165" d="M195 -252q0 104 49 180t108.5 149t108.5 153.5t49 191.5q0 25 -6 70t-19 75q20 10 39 13.5t41 3.5q37 -25 68 -97.5t31 -162.5q0 -106 -43 -177t-94.5 -128.5t-94.5 -115t-43 -134.5q0 -47 14.5 -85t39 -65t56 -42t66.5 -15q82 0 127 63.5t64 210.5q31 0 66.5 -5 t56.5 -15q-6 -76 -8 -128v-12q0 -48 8 -110q-53 -33 -132 -62.5t-202 -29.5q-154 0 -252 69.5t-98 204.5zM420 881q0 70 41 101.5t92 31.5q63 0 97 -34t34 -85q0 -55 -38 -93t-101 -38q-59 0 -92 39t-33 78z" />
<glyph unicode="&#xc0;" horiz-adv-x="1527" d="M53 -6q0 20 4 46t13 44q29 8 50 20.5t40.5 39t38.5 68.5l45 107l448 1154q37 8 84 8l518 -1186q25 -61 46.5 -100t40 -61.5t37 -32t42.5 -15.5q10 -27 12.5 -46.5t2.5 -45.5q-18 0 -48 1t-67 3l-72 2h-61q-27 0 -63 -1l-70 -2q-35 -1 -66 -2t-47 -1q0 27 2 50.5t14 41.5 q45 6 70 14.5t34 26.5t2 49t-28 80l-96 221q-141 0 -297 -2q-150 -2 -279 -6l-55 -150q-37 -93 -37 -144q0 -19 5 -33q19 -48 110 -56q14 -37 14 -92q-37 4 -94 5t-113 1q-53 0 -101 -2t-79 -4zM444 575h494l-166 388l-27 59q-12 29 -23 58.5t-26 58.5q-8 27 -20 57 q-23 -72 -41 -123q-20 -57 -41 -108zM440 1995q45 23 101 24q11 0 22 1q44 0 86 -7q29 -94 66 -188t88 -193q-17 -9 -37 -9h-4q-23 1 -45 5q-76 117 -141.5 205t-135.5 162z" />
<glyph unicode="&#xc1;" horiz-adv-x="1527" d="M53 -6q0 20 4 46t13 44q29 8 50 20.5t40.5 39t38.5 68.5l45 107l448 1154q37 8 84 8l518 -1186q25 -61 46.5 -100t40 -61.5t37 -32t42.5 -15.5q10 -27 12.5 -46.5t2.5 -45.5q-18 0 -48 1t-67 3l-72 2h-61q-27 0 -63 -1l-70 -2q-35 -1 -66 -2t-47 -1q0 27 2 50.5t14 41.5 q45 6 70 14.5t34 26.5t2 49t-28 80l-96 221q-141 0 -297 -2q-150 -2 -279 -6l-55 -150q-37 -93 -37 -144q0 -19 5 -33q19 -48 110 -56q14 -37 14 -92q-37 4 -94 5t-113 1q-53 0 -101 -2t-79 -4zM444 575h494l-166 388l-27 59q-12 29 -23 58.5t-26 58.5q-8 27 -20 57 q-23 -72 -41 -123q-20 -57 -41 -108zM645 1632q53 109 87 200t55 175q49 16 89 22q29 4 53 3h19q18 -2 35 -6.5t29 -8.5q-72 -82 -148.5 -189.5t-138.5 -207.5q-8 -1 -16 -1l-25 2q-21 3 -39 11z" />
<glyph unicode="&#xc2;" horiz-adv-x="1527" d="M53 -6q0 20 4 46t13 44q29 8 50 20.5t40.5 39t38.5 68.5l45 107l448 1154q37 8 84 8l518 -1186q25 -61 46.5 -100t40 -61.5t37 -32t42.5 -15.5q10 -27 12.5 -46.5t2.5 -45.5q-18 0 -48 1t-67 3l-72 2h-61q-27 0 -63 -1l-70 -2q-35 -1 -66 -2t-47 -1q0 27 2 50.5t14 41.5 q45 6 70 14.5t34 26.5t2 49t-28 80l-96 221q-141 0 -297 -2q-150 -2 -279 -6l-55 -150q-37 -93 -37 -144q0 -19 5 -33q19 -48 110 -56q14 -37 14 -92q-37 4 -94 5t-113 1q-53 0 -101 -2t-79 -4zM444 575h494l-166 388l-27 59q-12 29 -23 58.5t-26 58.5q-8 27 -20 57 q-23 -72 -41 -123q-20 -57 -41 -108zM371 1671q82 63 174 150.5t166 175.5q16 4 35.5 7t33.5 3q57 -82 138.5 -175t179.5 -191q-23 -27 -66 -39l-73 53l-78 55q-39 29 -79 54.5t-75 43.5q-25 -12 -69 -41l-96 -61l-96 -64q-46 -32 -73 -53q-14 14 -18 41t-4 41z" />
<glyph unicode="&#xc3;" horiz-adv-x="1527" d="M53 -6q0 20 4 46t13 44q29 8 50 20.5t40.5 39t38.5 68.5l45 107l448 1154q37 8 84 8l518 -1186q25 -61 46.5 -100t40 -61.5t37 -32t42.5 -15.5q10 -27 12.5 -46.5t2.5 -45.5q-18 0 -48 1t-67 3l-72 2h-61q-27 0 -63 -1l-70 -2q-35 -1 -66 -2t-47 -1q0 27 2 50.5t14 41.5 q45 6 70 14.5t34 26.5t2 49t-28 80l-96 221q-141 0 -297 -2q-150 -2 -279 -6l-55 -150q-37 -93 -37 -144q0 -19 5 -33q19 -48 110 -56q14 -37 14 -92q-37 4 -94 5t-113 1q-53 0 -101 -2t-79 -4zM444 575h494l-166 388l-27 59q-12 29 -23 58.5t-26 58.5q-8 27 -20 57 q-23 -72 -41 -123q-20 -57 -41 -108zM413 1630q66 115 124.5 157t113.5 42q39 0 74.5 -14.5t71.5 -31t71 -30.5t72 -14q33 0 64.5 15.5t66.5 51.5q10 0 21 -3t22 -13q-57 -123 -109.5 -166t-101.5 -43q-37 0 -73 14.5t-73 33t-74.5 31.5t-80.5 13q-39 0 -80 -18.5t-86 -65.5 q-23 12 -23 41z" />
<glyph unicode="&#xc4;" horiz-adv-x="1527" d="M53 -6q0 20 4 46t13 44q29 8 50 20.5t40.5 39t38.5 68.5l45 107l448 1154q37 8 84 8l518 -1186q25 -61 46.5 -100t40 -61.5t37 -32t42.5 -15.5q10 -27 12.5 -46.5t2.5 -45.5q-18 0 -48 1t-67 3l-72 2h-61q-27 0 -63 -1l-70 -2q-35 -1 -66 -2t-47 -1q0 27 2 50.5t14 41.5 q45 6 70 14.5t34 26.5t2 49t-28 80l-96 221q-141 0 -297 -2q-150 -2 -279 -6l-55 -150q-37 -93 -37 -144q0 -19 5 -33q19 -48 110 -56q14 -37 14 -92q-37 4 -94 5t-113 1q-53 0 -101 -2t-79 -4zM444 575h494l-166 388l-27 59q-12 29 -23 58.5t-26 58.5q-8 27 -20 57 q-23 -72 -41 -123q-20 -57 -41 -108zM411 1733q0 47 28 85t91 38q66 0 94.5 -35t28.5 -84t-35 -82t-84 -33q-55 0 -89 32t-34 79zM831 1745q0 53 34 82t89 29q53 0 88 -30t35 -81q0 -45 -25.5 -83t-91.5 -38q-63 0 -96 34t-33 87z" />
<glyph unicode="&#xc5;" horiz-adv-x="1527" d="M53 -6q0 20 4 46t13 44q29 8 50 20.5t40.5 39t38.5 68.5l45 107l448 1154q37 8 84 8l518 -1186q25 -61 46.5 -100t40 -61.5t37 -32t42.5 -15.5q10 -27 12.5 -46.5t2.5 -45.5q-18 0 -48 1t-67 3l-72 2h-61q-27 0 -63 -1l-70 -2q-35 -1 -66 -2t-47 -1q0 27 2 50.5t14 41.5 q45 6 70 14.5t34 26.5t2 49t-28 80l-96 221q-141 0 -297 -2q-150 -2 -279 -6l-55 -150q-37 -93 -37 -144q0 -19 5 -33q19 -48 110 -56q14 -37 14 -92q-37 4 -94 5t-113 1q-53 0 -101 -2t-79 -4zM444 575h494l-166 388l-27 59q-12 29 -23 58.5t-26 58.5q-8 27 -20 57 q-23 -72 -41 -123q-20 -57 -41 -108zM509 1800q0 86 66 144.5t162 58.5q39 0 78 -10t67.5 -34t47 -59.5t18.5 -84.5q0 -88 -64.5 -146.5t-163.5 -58.5q-41 0 -78.5 12t-67.5 38t-47.5 61.5t-17.5 78.5zM630 1808q0 -49 29 -83.5t84 -34.5q35 0 61.5 26.5t26.5 77.5 q0 45 -26.5 90t-84.5 45q-41 0 -65.5 -32t-24.5 -89z" />
<glyph unicode="&#xc6;" horiz-adv-x="2074" d="M135 -6q0 20 3 46t12 44q27 2 50 13.5t49.5 37t58.5 72.5t77 123l508 876q35 61 35 98q0 15 -6 26q-20 38 -125 48q-8 20 -10.5 45t-2.5 50q41 0 89 -2l97 -2q48 -1 89 -1h522q168 2 268 5q2 -37 7.5 -82l11.5 -91l12 -90q6 -45 14 -80q-16 -14 -40.5 -19t-55.5 -5 q-4 49 -20.5 99t-57.5 89t-107.5 62.5t-170.5 23.5h-156v-641h111q129 0 174 46t45 128q33 8 54.5 12.5t51.5 4.5q0 -18 -1 -46t-3 -62t-2 -70v-129q0 -35 2 -70t3 -64.5t1 -48.5q-31 0 -54 1t-46 10q-4 43 -14.5 78.5t-35 61t-70.5 41t-124 15.5h-92v-348 q0 -70 10.5 -109.5t30 -60t47.5 -27.5q16 -2 37 -4h82q102 0 165.5 17.5t103.5 52.5t63.5 85t48.5 118q33 -10 54.5 -21.5t39.5 -30.5q-23 -76 -39 -161.5t-26 -161.5q-68 0 -149 1t-163 3h-434q-123 -2 -229 -4q0 25 2 49.5t12 40.5q41 8 68.5 17.5t43 32t21.5 62.5t6 101 v348q-90 0 -159 -2q-86 -2 -152 -4l-90 -4l-78 -141l-90 -160q-39 -72 -52 -118q-9 -30 -9 -52q0 -12 3 -22q7 -28 31.5 -42t63.5 -20q16 -37 16 -88q-51 4 -112.5 5t-116.5 1q-53 0 -110.5 -1t-90.5 -5zM739 739h342v500q0 31 2 64l4 61l-16 -39q-14 -29 -32 -60l-42 -79 l-133 -230z" />
<glyph unicode="&#xc7;" horiz-adv-x="1417" d="M76 745q0 186 62.5 324.5t162.5 233t230.5 139.5t269.5 45q137 0 248.5 -27.5t232.5 -85.5q-16 -76 -19 -161t-3 -175q-29 -12 -54.5 -16t-60.5 -4q-6 115 -29.5 188.5t-65.5 116.5t-100.5 59.5t-130.5 16.5q-137 0 -235.5 -50.5t-160 -134.5t-91 -191.5t-29.5 -219.5 q0 -145 39 -271t108.5 -219.5t173 -146.5t234.5 -53q104 0 213 34.5t199 94.5q12 -12 24.5 -33t14.5 -35q-66 -51 -127.5 -87t-127 -59.5t-136.5 -33.5q-59 -10 -132 -14l-65 -89q86 -14 137 -66t51 -130q0 -55 -26.5 -96t-69.5 -69t-91 -42t-91 -14q-8 16 -11.5 34.5 t-3.5 34.5q66 0 119 32t53 89q0 53 -39.5 85t-101.5 32q-18 12 -28.5 32.5t-10.5 49.5l76 123q-104 10 -199 49q-125 57 -216 157.5t-142 241.5t-51 311z" />
<glyph unicode="&#xc8;" horiz-adv-x="1267" d="M303 1995q45 23 101 24q11 0 22 1q44 0 86 -7q29 -94 66 -188t88 -193q-17 -9 -37 -9h-4q-23 1 -45 5q-76 117 -141.5 205t-135.5 162zM123 -6q0 63 12 92q43 2 73 12.5t46 34t24.5 64.5t8.5 102v893q0 109 -32 146.5t-118 41.5q-6 18 -9 43t-3 52q33 -2 83 -4l103 -2 q53 -1 101 -1h80q223 0 366 2.5t197 4.5q2 -37 8 -82t11 -91.5t11.5 -91.5t14.5 -80q-16 -14 -41 -19t-55 -5q-4 49 -20.5 99t-57.5 89t-107.5 62.5t-171.5 23.5h-155v-594h90q68 0 112.5 7.5t73.5 27t42 54t13 88.5q29 8 51.5 11t53.5 3q-6 -57 -6 -119v-244q0 -70 6 -127 q-31 0 -53.5 3.5t-47.5 9.5q-4 55 -18 92t-43 60.5t-73 31.5t-111 8h-90v-393q0 -59 7 -99t28.5 -62.5t59.5 -31t99 -8.5h12q100 0 164 17.5t104 52.5t64.5 85t48.5 118q33 -10 54.5 -21.5t40.5 -30.5q-23 -76 -39.5 -161.5t-26.5 -161.5q-33 0 -80 1t-103.5 2t-117.5 1 h-262q-80 0 -160 -1t-149.5 -2t-112.5 -3z" />
<glyph unicode="&#xc9;" horiz-adv-x="1267" d="M596 1632q53 109 87 200t55 175q49 16 89 22q29 4 53 3h19q18 -2 35 -6.5t29 -8.5q-72 -82 -148.5 -189.5t-138.5 -207.5q-8 -1 -16 -1l-25 2q-21 3 -39 11zM123 -6q0 63 12 92q43 2 73 12.5t46 34t24.5 64.5t8.5 102v893q0 109 -32 146.5t-118 41.5q-6 18 -9 43t-3 52 q33 -2 83 -4l103 -2q53 -1 101 -1h80q223 0 366 2.5t197 4.5q2 -37 8 -82t11 -91.5t11.5 -91.5t14.5 -80q-16 -14 -41 -19t-55 -5q-4 49 -20.5 99t-57.5 89t-107.5 62.5t-171.5 23.5h-155v-594h90q68 0 112.5 7.5t73.5 27t42 54t13 88.5q29 8 51.5 11t53.5 3q-6 -57 -6 -119 v-244q0 -70 6 -127q-31 0 -53.5 3.5t-47.5 9.5q-4 55 -18 92t-43 60.5t-73 31.5t-111 8h-90v-393q0 -59 7 -99t28.5 -62.5t59.5 -31t99 -8.5h12q100 0 164 17.5t104 52.5t64.5 85t48.5 118q33 -10 54.5 -21.5t40.5 -30.5q-23 -76 -39.5 -161.5t-26.5 -161.5q-33 0 -80 1 t-103.5 2t-117.5 1h-262q-80 0 -160 -1t-149.5 -2t-112.5 -3z" />
<glyph unicode="&#xca;" horiz-adv-x="1267" d="M270 1671q82 63 174 150.5t166 175.5q16 4 35.5 7t33.5 3q57 -82 138.5 -175t179.5 -191q-23 -27 -66 -39l-73 53l-78 55q-39 29 -79 54.5t-75 43.5q-25 -12 -69 -41l-96 -61l-96 -64q-46 -32 -73 -53q-14 14 -18 41t-4 41zM123 -6q0 63 12 92q43 2 73 12.5t46 34 t24.5 64.5t8.5 102v893q0 109 -32 146.5t-118 41.5q-6 18 -9 43t-3 52q33 -2 83 -4l103 -2q53 -1 101 -1h80q223 0 366 2.5t197 4.5q2 -37 8 -82t11 -91.5t11.5 -91.5t14.5 -80q-16 -14 -41 -19t-55 -5q-4 49 -20.5 99t-57.5 89t-107.5 62.5t-171.5 23.5h-155v-594h90 q68 0 112.5 7.5t73.5 27t42 54t13 88.5q29 8 51.5 11t53.5 3q-6 -57 -6 -119v-244q0 -70 6 -127q-31 0 -53.5 3.5t-47.5 9.5q-4 55 -18 92t-43 60.5t-73 31.5t-111 8h-90v-393q0 -59 7 -99t28.5 -62.5t59.5 -31t99 -8.5h12q100 0 164 17.5t104 52.5t64.5 85t48.5 118 q33 -10 54.5 -21.5t40.5 -30.5q-23 -76 -39.5 -161.5t-26.5 -161.5q-33 0 -80 1t-103.5 2t-117.5 1h-262q-80 0 -160 -1t-149.5 -2t-112.5 -3z" />
<glyph unicode="&#xcb;" horiz-adv-x="1267" d="M276 1733q0 47 28 85t91 38q66 0 94.5 -35t28.5 -84t-35 -82t-84 -33q-55 0 -89 32t-34 79zM696 1745q0 53 34 82t89 29q53 0 88 -30t35 -81q0 -45 -25.5 -83t-91.5 -38q-63 0 -96 34t-33 87zM123 -6q0 63 12 92q43 2 73 12.5t46 34t24.5 64.5t8.5 102v893 q0 109 -32 146.5t-118 41.5q-6 18 -9 43t-3 52q33 -2 83 -4l103 -2q53 -1 101 -1h80q223 0 366 2.5t197 4.5q2 -37 8 -82t11 -91.5t11.5 -91.5t14.5 -80q-16 -14 -41 -19t-55 -5q-4 49 -20.5 99t-57.5 89t-107.5 62.5t-171.5 23.5h-155v-594h90q68 0 112.5 7.5t73.5 27 t42 54t13 88.5q29 8 51.5 11t53.5 3q-6 -57 -6 -119v-244q0 -70 6 -127q-31 0 -53.5 3.5t-47.5 9.5q-4 55 -18 92t-43 60.5t-73 31.5t-111 8h-90v-393q0 -59 7 -99t28.5 -62.5t59.5 -31t99 -8.5h12q100 0 164 17.5t104 52.5t64.5 85t48.5 118q33 -10 54.5 -21.5t40.5 -30.5 q-23 -76 -39.5 -161.5t-26.5 -161.5q-33 0 -80 1t-103.5 2t-117.5 1h-262q-80 0 -160 -1t-149.5 -2t-112.5 -3z" />
<glyph unicode="&#xcc;" horiz-adv-x="815" d="M168 -6q0 63 12 92q86 6 118 44t32 146v916q0 109 -32 146.5t-118 41.5q-12 31 -12 95q121 -6 264 -7q70 0 133.5 1t128.5 6q0 -63 -10 -95q-88 -4 -120 -42t-32 -146v-916q0 -109 32 -146.5t120 -43.5q10 -29 10 -92q-131 6 -262 6q-63 0 -135 -1t-129 -5zM122 1995 q45 23 101 24q11 0 22 1q44 0 86 -7q29 -94 66 -188t88 -193q-17 -9 -37 -9h-4q-23 1 -45 5q-76 117 -141.5 205t-135.5 162z" />
<glyph unicode="&#xcd;" horiz-adv-x="823" d="M123 -6q0 63 12 92q86 6 118 44t32 146v916q0 109 -32 146.5t-118 41.5q-12 31 -12 95q121 -6 264 -7q70 0 133.5 1t128.5 6q0 -63 -10 -95q-88 -4 -120 -42t-32 -146v-916q0 -109 32 -146.5t120 -43.5q10 -29 10 -92q-131 6 -262 6q-63 0 -135 -1t-129 -5zM340 1632 q53 109 87 200t55 175q49 16 89 22q29 4 53 3h19q18 -2 35 -6.5t29 -8.5q-72 -82 -148.5 -189.5t-138.5 -207.5q-8 -1 -16 -1l-25 2q-21 3 -39 11z" />
<glyph unicode="&#xce;" horiz-adv-x="970" d="M203 -6q0 63 12 92q86 6 118 44t32 146v916q0 109 -32 146.5t-118 41.5q-12 31 -12 95q121 -6 264 -7q70 0 133.5 1t128.5 6q0 -63 -10 -95q-88 -4 -120 -42t-32 -146v-916q0 -109 32 -146.5t120 -43.5q10 -29 10 -92q-131 6 -262 6q-63 0 -135 -1t-129 -5zM117 1671 q82 63 174 150.5t166 175.5q16 4 35.5 7t33.5 3q57 -82 138.5 -175t179.5 -191q-23 -27 -66 -39l-73 53l-78 55q-39 29 -79 54.5t-75 43.5q-25 -12 -69 -41l-96 -61l-96 -64q-46 -32 -73 -53q-14 14 -18 41t-4 41z" />
<glyph unicode="&#xcf;" horiz-adv-x="911" d="M199 -6q0 63 12 92q86 6 118 44t32 146v916q0 109 -32 146.5t-118 41.5q-12 31 -12 95q121 -6 264 -7q70 0 133.5 1t128.5 6q0 -63 -10 -95q-88 -4 -120 -42t-32 -146v-916q0 -109 32 -146.5t120 -43.5q10 -29 10 -92q-131 6 -262 6q-63 0 -135 -1t-129 -5zM127 1733 q0 47 28 85t91 38q66 0 94.5 -35t28.5 -84t-35 -82t-84 -33q-55 0 -89 32t-34 79zM547 1745q0 53 34 82t89 29q53 0 88 -30t35 -81q0 -45 -25.5 -83t-91.5 -38q-63 0 -96 34t-33 87z" />
<glyph unicode="&#xd0;" horiz-adv-x="1576" d="M76 535q0 23 6 58.5t18 51.5h179v547q0 109 -32 146.5t-118 41.5q-8 18 -10 43t-2 52q23 -2 56 -4l71 -2q37 -1 75 -1h74q72 0 143.5 2.5t141.5 2.5q143 0 290.5 -27t265.5 -101.5t193.5 -213t75.5 -361.5q0 -176 -45 -302t-115.5 -210t-160.5 -136t-181.5 -79 t-177.5 -35t-145 -8h-141q-80 0 -160 -1t-150.5 -2t-111.5 -3q0 63 10 92q45 2 73.5 12.5t46 34t26 64.5t8.5 102v240h-78q-49 0 -125 -4zM481 299q0 -59 8.5 -99t30 -62.5t59 -31t99.5 -8.5q129 0 238.5 31t190.5 105.5t126 196.5t45 306q0 176 -53.5 300t-142.5 202 t-203.5 114t-235.5 36q-39 0 -86 -5.5t-76 -13.5v-725h389q0 -33 -4 -59.5t-20 -48.5q-55 0 -102.5 1t-92.5 1h-170v-240z" />
<glyph unicode="&#xd1;" horiz-adv-x="1644" d="M123 -6q0 29 3 51.5t9 40.5q43 0 73 15.5t46 52t23.5 99t7.5 153.5v897l-9 10q-31 39 -59.5 51t-81.5 16q-6 25 -9 50.5t-3 44.5q33 -4 77 -5.5t85 -1.5q86 0 145 7l844 -1121v719q0 88 -6 146.5t-23.5 94.5t-47.5 51t-73 15q-6 37 -8 55.5t-2 39.5q47 -4 102.5 -5.5 t100.5 -1.5q47 0 105.5 1t101.5 6q0 -23 -2 -46.5t-9 -48.5q-37 0 -61.5 -15t-38.5 -51t-21.5 -94.5t-7.5 -146.5v-1081q-16 -6 -40.5 -9t-47.5 -3l-901 1177v-751q0 -90 6.5 -153t23.5 -99.5t47 -52t73 -15.5q6 -18 8 -39.5t2 -52.5q-49 4 -107.5 5t-107.5 1 q-47 0 -110.5 -1t-106.5 -5zM489 1630q66 115 124.5 157t113.5 42q39 0 74.5 -14.5t71.5 -31t71 -30.5t72 -14q33 0 64.5 15.5t66.5 51.5q10 0 21 -3t22 -13q-57 -123 -109.5 -166t-101.5 -43q-37 0 -73 14.5t-73 33t-74.5 31.5t-80.5 13q-39 0 -80 -18.5t-86 -65.5 q-23 12 -23 41z" />
<glyph unicode="&#xd2;" horiz-adv-x="1585" d="M76 737q0 166 55 304.5t152.5 237.5t228.5 153.5t281 54.5q156 0 286.5 -54.5t227 -152.5t150.5 -236.5t54 -306.5q0 -160 -53 -298t-148.5 -239.5t-227.5 -160.5t-289 -59q-162 0 -294 58t-226.5 159.5t-145.5 239.5t-51 300zM299 797q0 -137 35 -265.5t103.5 -226.5 t168 -158.5t230.5 -60.5q106 0 190 47t142.5 127t89 188.5t30.5 233.5q0 145 -42 273t-113.5 223.5t-170 149.5t-214.5 54q-96 0 -179.5 -42t-142.5 -118.5t-93 -184t-34 -240.5zM489 1995q45 23 101 24q11 0 22 1q44 0 86 -7q29 -94 66 -188t88 -193q-17 -9 -37 -9h-4 q-23 1 -45 5q-76 117 -141.5 205t-135.5 162z" />
<glyph unicode="&#xd3;" horiz-adv-x="1585" d="M76 737q0 166 55 304.5t152.5 237.5t228.5 153.5t281 54.5q156 0 286.5 -54.5t227 -152.5t150.5 -236.5t54 -306.5q0 -160 -53 -298t-148.5 -239.5t-227.5 -160.5t-289 -59q-162 0 -294 58t-226.5 159.5t-145.5 239.5t-51 300zM299 797q0 -137 35 -265.5t103.5 -226.5 t168 -158.5t230.5 -60.5q106 0 190 47t142.5 127t89 188.5t30.5 233.5q0 145 -42 273t-113.5 223.5t-170 149.5t-214.5 54q-96 0 -179.5 -42t-142.5 -118.5t-93 -184t-34 -240.5zM737 1632q53 109 87 200t55 175q49 16 89 22q29 4 53 3h19q18 -2 35 -6.5t29 -8.5 q-72 -82 -148.5 -189.5t-138.5 -207.5q-8 -1 -16 -1l-25 2q-21 3 -39 11z" />
<glyph unicode="&#xd4;" horiz-adv-x="1585" d="M76 737q0 166 55 304.5t152.5 237.5t228.5 153.5t281 54.5q156 0 286.5 -54.5t227 -152.5t150.5 -236.5t54 -306.5q0 -160 -53 -298t-148.5 -239.5t-227.5 -160.5t-289 -59q-162 0 -294 58t-226.5 159.5t-145.5 239.5t-51 300zM299 797q0 -137 35 -265.5t103.5 -226.5 t168 -158.5t230.5 -60.5q106 0 190 47t142.5 127t89 188.5t30.5 233.5q0 145 -42 273t-113.5 223.5t-170 149.5t-214.5 54q-96 0 -179.5 -42t-142.5 -118.5t-93 -184t-34 -240.5zM434 1671q82 63 174 150.5t166 175.5q16 4 35.5 7t33.5 3q57 -82 138.5 -175t179.5 -191 q-23 -27 -66 -39l-73 53l-78 55q-39 29 -79 54.5t-75 43.5q-25 -12 -69 -41l-96 -61l-96 -64q-46 -32 -73 -53q-14 14 -18 41t-4 41z" />
<glyph unicode="&#xd5;" horiz-adv-x="1585" d="M76 737q0 166 55 304.5t152.5 237.5t228.5 153.5t281 54.5q156 0 286.5 -54.5t227 -152.5t150.5 -236.5t54 -306.5q0 -160 -53 -298t-148.5 -239.5t-227.5 -160.5t-289 -59q-162 0 -294 58t-226.5 159.5t-145.5 239.5t-51 300zM299 797q0 -137 35 -265.5t103.5 -226.5 t168 -158.5t230.5 -60.5q106 0 190 47t142.5 127t89 188.5t30.5 233.5q0 145 -42 273t-113.5 223.5t-170 149.5t-214.5 54q-96 0 -179.5 -42t-142.5 -118.5t-93 -184t-34 -240.5zM456 1630q66 115 124.5 157t113.5 42q39 0 74.5 -14.5t71.5 -31t71 -30.5t72 -14 q33 0 64.5 15.5t66.5 51.5q10 0 21 -3t22 -13q-57 -123 -109.5 -166t-101.5 -43q-37 0 -73 14.5t-73 33t-74.5 31.5t-80.5 13q-39 0 -80 -18.5t-86 -65.5q-23 12 -23 41z" />
<glyph unicode="&#xd6;" horiz-adv-x="1585" d="M76 737q0 166 55 304.5t152.5 237.5t228.5 153.5t281 54.5q156 0 286.5 -54.5t227 -152.5t150.5 -236.5t54 -306.5q0 -160 -53 -298t-148.5 -239.5t-227.5 -160.5t-289 -59q-162 0 -294 58t-226.5 159.5t-145.5 239.5t-51 300zM299 797q0 -137 35 -265.5t103.5 -226.5 t168 -158.5t230.5 -60.5q106 0 190 47t142.5 127t89 188.5t30.5 233.5q0 145 -42 273t-113.5 223.5t-170 149.5t-214.5 54q-96 0 -179.5 -42t-142.5 -118.5t-93 -184t-34 -240.5zM460 1733q0 47 28 85t91 38q66 0 94.5 -35t28.5 -84t-35 -82t-84 -33q-55 0 -89 32t-34 79z M880 1745q0 53 34 82t89 29q53 0 88 -30t35 -81q0 -45 -25.5 -83t-91.5 -38q-63 0 -96 34t-33 87z" />
<glyph unicode="&#xd7;" horiz-adv-x="1343" d="M86 969q20 23 49 37t66 14l461 -436l436 463q35 -8 58.5 -21.5t43.5 -38.5l-207 -214l-250 -265l510 -475q-39 -53 -120 -53l-467 446l-185 -197l-229 -249q-35 0 -67.5 9t-51.5 34l451 479z" />
<glyph unicode="&#xd8;" horiz-adv-x="1585" d="M76 737q0 166 55 304.5t152.5 237.5t228.5 153.5t281 54.5q156 0 286 -53q66 -27 119 -64l113 152q33 0 61.5 -6.5t48.5 -28.5l-139 -184l25 -25q96 -96 150 -234.5t54 -306.5q0 -160 -53 -298t-148.5 -239.5t-227.5 -160.5t-289 -59q-162 0 -293 57q-78 35 -144 82 l-143 -182q-31 0 -57.5 14t-38.5 35l164 202l-11 9q-92 102 -143 240t-51 300zM299 797q0 -137 35 -265q29 -102 76 -186l677 885q-55 59 -124 98q-98 53 -215 53q-96 0 -179.5 -42t-142.5 -118.5t-93 -184t-34 -240.5zM473 258q57 -68 133 -113q98 -59 230 -59 q106 0 190 47t142.5 127t89 188.5t30.5 233.5q0 145 -43 272q-35 109 -90 195z" />
<glyph unicode="&#xd9;" horiz-adv-x="1529" d="M123 1475q45 -4 115.5 -5.5t136.5 -1.5q68 0 135.5 1t116.5 6q0 -23 -2 -46.5t-9 -48.5q-47 -4 -76.5 -11t-46 -26.5t-21.5 -55.5t-5 -95v-660q0 -92 17.5 -171.5t59.5 -138t112.5 -92.5t179.5 -34q55 0 119.5 18.5t109.5 63.5q27 27 44 56.5t28.5 75.5t16.5 107.5 t5 149.5v539q0 78 -5 129t-21.5 82t-46 45t-76.5 18q-6 33 -8.5 51.5t-2.5 43.5q37 -4 95.5 -5.5t107.5 -1.5q51 0 107.5 1t99.5 6q0 -16 -2 -37t-8 -58q-37 -4 -62.5 -18t-41 -44t-20.5 -82t-5 -130v-522q0 -92 -5 -165t-19.5 -131.5t-38 -102.5t-60.5 -81 q-63 -63 -152.5 -93.5t-199.5 -30.5q-152 0 -254.5 33.5t-164 100t-88 164t-26.5 224.5v690q0 59 -5 93t-19.5 54.5t-39 28.5t-63.5 12q-6 25 -9 48.5t-3 46.5zM493 1995q45 23 101 24q11 0 22 1q44 0 86 -7q29 -94 66 -188t88 -193q-17 -9 -37 -9h-4q-23 1 -45 5 q-76 117 -141.5 205t-135.5 162z" />
<glyph unicode="&#xda;" horiz-adv-x="1529" d="M123 1475q45 -4 115.5 -5.5t136.5 -1.5q68 0 135.5 1t116.5 6q0 -23 -2 -46.5t-9 -48.5q-47 -4 -76.5 -11t-46 -26.5t-21.5 -55.5t-5 -95v-660q0 -92 17.5 -171.5t59.5 -138t112.5 -92.5t179.5 -34q55 0 119.5 18.5t109.5 63.5q27 27 44 56.5t28.5 75.5t16.5 107.5 t5 149.5v539q0 78 -5 129t-21.5 82t-46 45t-76.5 18q-6 33 -8.5 51.5t-2.5 43.5q37 -4 95.5 -5.5t107.5 -1.5q51 0 107.5 1t99.5 6q0 -16 -2 -37t-8 -58q-37 -4 -62.5 -18t-41 -44t-20.5 -82t-5 -130v-522q0 -92 -5 -165t-19.5 -131.5t-38 -102.5t-60.5 -81 q-63 -63 -152.5 -93.5t-199.5 -30.5q-152 0 -254.5 33.5t-164 100t-88 164t-26.5 224.5v690q0 59 -5 93t-19.5 54.5t-39 28.5t-63.5 12q-6 25 -9 48.5t-3 46.5zM798 1632q53 109 87 200t55 175q49 16 89 22q29 4 53 3h19q18 -2 35 -6.5t29 -8.5q-72 -82 -148.5 -189.5 t-138.5 -207.5q-8 -1 -16 -1l-25 2q-21 3 -39 11z" />
<glyph unicode="&#xdb;" horiz-adv-x="1529" d="M123 1475q45 -4 115.5 -5.5t136.5 -1.5q68 0 135.5 1t116.5 6q0 -23 -2 -46.5t-9 -48.5q-47 -4 -76.5 -11t-46 -26.5t-21.5 -55.5t-5 -95v-660q0 -92 17.5 -171.5t59.5 -138t112.5 -92.5t179.5 -34q55 0 119.5 18.5t109.5 63.5q27 27 44 56.5t28.5 75.5t16.5 107.5 t5 149.5v539q0 78 -5 129t-21.5 82t-46 45t-76.5 18q-6 33 -8.5 51.5t-2.5 43.5q37 -4 95.5 -5.5t107.5 -1.5q51 0 107.5 1t99.5 6q0 -16 -2 -37t-8 -58q-37 -4 -62.5 -18t-41 -44t-20.5 -82t-5 -130v-522q0 -92 -5 -165t-19.5 -131.5t-38 -102.5t-60.5 -81 q-63 -63 -152.5 -93.5t-199.5 -30.5q-152 0 -254.5 33.5t-164 100t-88 164t-26.5 224.5v690q0 59 -5 93t-19.5 54.5t-39 28.5t-63.5 12q-6 25 -9 48.5t-3 46.5zM451 1671q82 63 174 150.5t166 175.5q16 4 35.5 7t33.5 3q57 -82 138.5 -175t179.5 -191q-23 -27 -66 -39 l-73 53l-78 55q-39 29 -79 54.5t-75 43.5q-25 -12 -69 -41l-96 -61l-96 -64q-46 -32 -73 -53q-14 14 -18 41t-4 41z" />
<glyph unicode="&#xdc;" horiz-adv-x="1529" d="M123 1475q45 -4 115.5 -5.5t136.5 -1.5q68 0 135.5 1t116.5 6q0 -23 -2 -46.5t-9 -48.5q-47 -4 -76.5 -11t-46 -26.5t-21.5 -55.5t-5 -95v-660q0 -92 17.5 -171.5t59.5 -138t112.5 -92.5t179.5 -34q55 0 119.5 18.5t109.5 63.5q27 27 44 56.5t28.5 75.5t16.5 107.5 t5 149.5v539q0 78 -5 129t-21.5 82t-46 45t-76.5 18q-6 33 -8.5 51.5t-2.5 43.5q37 -4 95.5 -5.5t107.5 -1.5q51 0 107.5 1t99.5 6q0 -16 -2 -37t-8 -58q-37 -4 -62.5 -18t-41 -44t-20.5 -82t-5 -130v-522q0 -92 -5 -165t-19.5 -131.5t-38 -102.5t-60.5 -81 q-63 -63 -152.5 -93.5t-199.5 -30.5q-152 0 -254.5 33.5t-164 100t-88 164t-26.5 224.5v690q0 59 -5 93t-19.5 54.5t-39 28.5t-63.5 12q-6 25 -9 48.5t-3 46.5zM489 1733q0 47 28 85t91 38q66 0 94.5 -35t28.5 -84t-35 -82t-84 -33q-55 0 -89 32t-34 79zM909 1745 q0 53 34 82t89 29q53 0 88 -30t35 -81q0 -45 -25.5 -83t-91.5 -38q-63 0 -96 34t-33 87z" />
<glyph unicode="&#xdd;" horiz-adv-x="1366" d="M53 1473q47 -2 105.5 -3.5t122.5 -1.5h149q41 0 78 1t63 4q0 -25 -2 -43.5t-10 -43.5q-84 -8 -96 -43q-2 -7 -3 -15q0 -36 42 -103l139 -246l117 -221q51 102 108 205l121 219q49 84 49 127q0 12 -4 20q-16 41 -102 53q-8 25 -12.5 45.5t-4.5 45.5q39 -4 101 -5h112 q51 0 100.5 1t86.5 4q0 -45 -8 -87q-31 -8 -54.5 -22t-50 -40t-54.5 -66.5t-63 -104.5l-288 -512v-287q0 -88 5 -137t22.5 -75.5t50 -37t90.5 -18.5q12 -39 12 -92l-144 4q-72 2 -133 2h-77q-41 0 -82 -1t-77 -2t-59 -1q0 25 3.5 48.5t11.5 41.5q57 6 91 15.5t52.5 33 t23.5 69.5t5 122v313l-363 616q-20 35 -36.5 58.5t-34 39t-38 21.5t-50.5 8q-8 25 -11.5 45.5t-3.5 45.5zM692 1632q53 109 87 200t55 175q49 16 89 22q29 4 53 3h19q18 -2 35 -6.5t29 -8.5q-72 -82 -148.5 -189.5t-138.5 -207.5q-8 -1 -16 -1l-25 2q-21 3 -39 11z" />
<glyph unicode="&#xde;" horiz-adv-x="1314" d="M121 -6q0 63 12 92q86 6 118 44t32 146v916q0 109 -32 146.5t-118 41.5q-12 31 -12 95q121 -6 264 -7q70 0 133.5 1t128.5 6q0 -63 -10 -95q-88 -4 -120 -42t-32 -146v-25q25 2 52 2q49 0 101 1t97 1q121 0 207 -30.5t143.5 -86t84 -129t26.5 -157.5q0 -78 -30.5 -155.5 t-92 -141t-154 -103.5t-217.5 -40q-45 0 -82.5 5t-68.5 17q-4 16 -3 36t5 36q29 -8 57.5 -10t63.5 -2q59 0 115.5 13t101.5 49t71.5 95.5t26.5 155.5q0 80 -21.5 147.5t-66.5 116.5t-114.5 76t-168.5 27q-37 0 -67 -5q-23 -2 -66 -10v-799q0 -109 32 -146.5t120 -43.5 q10 -29 10 -92q-131 6 -262 6q-63 0 -135 -1t-129 -5z" />
<glyph unicode="&#xdf;" horiz-adv-x="1282" d="M78 877q0 20 7 46.5t24 49.5h143v86q0 127 43 220t111.5 153.5t151.5 90t159 29.5q78 0 137 -23.5t99 -65.5t60.5 -94t20.5 -109q0 -68 -18.5 -115t-46 -83t-60 -62.5t-59.5 -53t-45.5 -54.5t-18.5 -65q0 -57 31 -94t79 -66.5t102.5 -59t102.5 -70.5t78.5 -100.5 t30.5 -147.5q0 -61 -25.5 -115.5t-69.5 -96.5t-103.5 -66.5t-120.5 -24.5q-51 0 -89 4t-71 13t-60.5 25.5t-58.5 39.5q4 49 5 112q0 13 1 25q0 49 -4 94q14 12 45 18.5t58 6.5q12 -141 51 -202t135 -61q57 0 99 51.5t42 133.5q0 57 -31.5 98t-80.5 70.5t-104.5 58.5 t-103.5 64.5t-80 86t-32 126.5q0 59 21.5 102t54.5 77t70 59.5t69.5 55t54 65.5t21.5 85q0 47 -19.5 91t-54 77t-83 52.5t-101.5 19.5q-51 0 -88 -14.5t-61.5 -49.5t-37 -94t-12.5 -150v-1130q-27 2 -67.5 3t-95.5 1q-57 0 -107.5 -1t-83.5 -5q0 63 10 92q86 6 118 44 t32 146v576q-27 10 -81 17.5t-93 7.5z" />
<glyph unicode="&#xe0;" horiz-adv-x="1046" d="M109 215q0 106 61 173t149.5 107t183.5 58t161 29q0 68 -2.5 110.5t-6.5 72.5t-14 49.5t-23 37.5q-51 63 -139 63q-49 0 -84 -25.5t-57.5 -63.5t-32.5 -82t-12 -80q-25 0 -60.5 4t-52.5 12q3 35 3 77q0 21 -1 43q-2 67 -12 115q86 45 181 72t198 27q74 0 126 -22.5 t93 -61.5q29 -29 46 -61.5t27.5 -76.5t14.5 -100.5t4 -136.5v-231q0 -104 22.5 -139t100.5 -35q0 -25 -3 -53.5t-11 -49.5q-57 -8 -121 -26.5t-111 -40.5q-20 10 -36.5 33.5t-16.5 72.5q0 33 2 55.5t2 36.5q-8 -29 -24.5 -56.5t-55.5 -62.5q-37 -33 -90 -53t-127 -20 q-141 0 -211.5 60t-70.5 169zM319 258q0 -80 39 -117t88 -37q35 0 73 17.5t71 54.5t53.5 94.5t20.5 139.5v84q-55 -8 -117 -19.5t-111 -36t-83 -66.5t-34 -114zM249 1528q45 23 101 24q11 0 22 1q44 0 86 -7q29 -94 66 -188t88 -193q-17 -9 -37 -9h-4q-23 1 -45 5 q-76 117 -141.5 205t-135.5 162z" />
<glyph unicode="&#xe1;" horiz-adv-x="1046" d="M109 215q0 106 61 173t149.5 107t183.5 58t161 29q0 68 -2.5 110.5t-6.5 72.5t-14 49.5t-23 37.5q-51 63 -139 63q-49 0 -84 -25.5t-57.5 -63.5t-32.5 -82t-12 -80q-25 0 -60.5 4t-52.5 12q3 35 3 77q0 21 -1 43q-2 67 -12 115q86 45 181 72t198 27q74 0 126 -22.5 t93 -61.5q29 -29 46 -61.5t27.5 -76.5t14.5 -100.5t4 -136.5v-231q0 -104 22.5 -139t100.5 -35q0 -25 -3 -53.5t-11 -49.5q-57 -8 -121 -26.5t-111 -40.5q-20 10 -36.5 33.5t-16.5 72.5q0 33 2 55.5t2 36.5q-8 -29 -24.5 -56.5t-55.5 -62.5q-37 -33 -90 -53t-127 -20 q-141 0 -211.5 60t-70.5 169zM319 258q0 -80 39 -117t88 -37q35 0 73 17.5t71 54.5t53.5 94.5t20.5 139.5v84q-55 -8 -117 -19.5t-111 -36t-83 -66.5t-34 -114zM456 1165q53 109 87 200t55 175q49 16 89 22q29 4 53 3h19q18 -2 35 -6.5t29 -8.5q-72 -82 -148.5 -189.5 t-138.5 -207.5q-8 -1 -16 -1l-25 2q-21 3 -39 11z" />
<glyph unicode="&#xe2;" horiz-adv-x="1046" d="M109 215q0 106 61 173t149.5 107t183.5 58t161 29q0 68 -2.5 110.5t-6.5 72.5t-14 49.5t-23 37.5q-51 63 -139 63q-49 0 -84 -25.5t-57.5 -63.5t-32.5 -82t-12 -80q-25 0 -60.5 4t-52.5 12q3 35 3 77q0 21 -1 43q-2 67 -12 115q86 45 181 72t198 27q74 0 126 -22.5 t93 -61.5q29 -29 46 -61.5t27.5 -76.5t14.5 -100.5t4 -136.5v-231q0 -104 22.5 -139t100.5 -35q0 -25 -3 -53.5t-11 -49.5q-57 -8 -121 -26.5t-111 -40.5q-20 10 -36.5 33.5t-16.5 72.5q0 33 2 55.5t2 36.5q-8 -29 -24.5 -56.5t-55.5 -62.5q-37 -33 -90 -53t-127 -20 q-141 0 -211.5 60t-70.5 169zM319 258q0 -80 39 -117t88 -37q35 0 73 17.5t71 54.5t53.5 94.5t20.5 139.5v84q-55 -8 -117 -19.5t-111 -36t-83 -66.5t-34 -114zM133 1204q82 63 174 150.5t166 175.5q16 4 35.5 7t33.5 3q57 -82 138.5 -175t179.5 -191q-23 -27 -66 -39 l-73 53l-78 55q-39 29 -79 54.5t-75 43.5q-25 -12 -69 -41l-96 -61l-96 -64q-46 -32 -73 -53q-14 14 -18 41t-4 41z" />
<glyph unicode="&#xe3;" horiz-adv-x="1046" d="M109 215q0 106 61 173t149.5 107t183.5 58t161 29q0 68 -2.5 110.5t-6.5 72.5t-14 49.5t-23 37.5q-51 63 -139 63q-49 0 -84 -25.5t-57.5 -63.5t-32.5 -82t-12 -80q-25 0 -60.5 4t-52.5 12q3 35 3 77q0 21 -1 43q-2 67 -12 115q86 45 181 72t198 27q74 0 126 -22.5 t93 -61.5q29 -29 46 -61.5t27.5 -76.5t14.5 -100.5t4 -136.5v-231q0 -104 22.5 -139t100.5 -35q0 -25 -3 -53.5t-11 -49.5q-57 -8 -121 -26.5t-111 -40.5q-20 10 -36.5 33.5t-16.5 72.5q0 33 2 55.5t2 36.5q-8 -29 -24.5 -56.5t-55.5 -62.5q-37 -33 -90 -53t-127 -20 q-141 0 -211.5 60t-70.5 169zM319 258q0 -80 39 -117t88 -37q35 0 73 17.5t71 54.5t53.5 94.5t20.5 139.5v84q-55 -8 -117 -19.5t-111 -36t-83 -66.5t-34 -114zM178 1163q66 115 124.5 157t113.5 42q39 0 74.5 -14.5t71.5 -31t71 -30.5t72 -14q33 0 64.5 15.5t66.5 51.5 q10 0 21 -3t22 -13q-57 -123 -109.5 -166t-101.5 -43q-37 0 -73 14.5t-73 33t-74.5 31.5t-80.5 13q-39 0 -80 -18.5t-86 -65.5q-23 12 -23 41z" />
<glyph unicode="&#xe4;" horiz-adv-x="1046" d="M109 215q0 106 61 173t149.5 107t183.5 58t161 29q0 68 -2.5 110.5t-6.5 72.5t-14 49.5t-23 37.5q-51 63 -139 63q-49 0 -84 -25.5t-57.5 -63.5t-32.5 -82t-12 -80q-25 0 -60.5 4t-52.5 12q3 35 3 77q0 21 -1 43q-2 67 -12 115q86 45 181 72t198 27q74 0 126 -22.5 t93 -61.5q29 -29 46 -61.5t27.5 -76.5t14.5 -100.5t4 -136.5v-231q0 -104 22.5 -139t100.5 -35q0 -25 -3 -53.5t-11 -49.5q-57 -8 -121 -26.5t-111 -40.5q-20 10 -36.5 33.5t-16.5 72.5q0 33 2 55.5t2 36.5q-8 -29 -24.5 -56.5t-55.5 -62.5q-37 -33 -90 -53t-127 -20 q-141 0 -211.5 60t-70.5 169zM319 258q0 -80 39 -117t88 -37q35 0 73 17.5t71 54.5t53.5 94.5t20.5 139.5v84q-55 -8 -117 -19.5t-111 -36t-83 -66.5t-34 -114zM202 1266q0 47 28 85t91 38q66 0 94.5 -35t28.5 -84t-35 -82t-84 -33q-55 0 -89 32t-34 79zM622 1278 q0 53 34 82t89 29q53 0 88 -30t35 -81q0 -45 -25.5 -83t-91.5 -38q-63 0 -96 34t-33 87z" />
<glyph unicode="&#xe5;" horiz-adv-x="1046" d="M109 215q0 106 61 173t149.5 107t183.5 58t161 29q0 68 -2.5 110.5t-6.5 72.5t-14 49.5t-23 37.5q-51 63 -139 63q-49 0 -84 -25.5t-57.5 -63.5t-32.5 -82t-12 -80q-25 0 -60.5 4t-52.5 12q3 35 3 77q0 21 -1 43q-2 67 -12 115q86 45 181 72t198 27q74 0 126 -22.5 t93 -61.5q29 -29 46 -61.5t27.5 -76.5t14.5 -100.5t4 -136.5v-231q0 -104 22.5 -139t100.5 -35q0 -25 -3 -53.5t-11 -49.5q-57 -8 -121 -26.5t-111 -40.5q-20 10 -36.5 33.5t-16.5 72.5q0 33 2 55.5t2 36.5q-8 -29 -24.5 -56.5t-55.5 -62.5q-37 -33 -90 -53t-127 -20 q-141 0 -211.5 60t-70.5 169zM319 258q0 -80 39 -117t88 -37q35 0 73 17.5t71 54.5t53.5 94.5t20.5 139.5v84q-55 -8 -117 -19.5t-111 -36t-83 -66.5t-34 -114zM301 1333q0 86 66 144.5t162 58.5q39 0 78 -10t67.5 -34t47 -59.5t18.5 -84.5q0 -88 -64.5 -146.5t-163.5 -58.5 q-41 0 -78.5 12t-67.5 38t-47.5 61.5t-17.5 78.5zM422 1341q0 -49 29 -83.5t84 -34.5q35 0 61.5 26.5t26.5 77.5q0 45 -26.5 90t-84.5 45q-41 0 -65.5 -32t-24.5 -89z" />
<glyph unicode="&#xe6;" horiz-adv-x="1484" d="M82 211q0 106 56.5 175t141.5 109t183 58q88 18 164 29v114q0 111 -55.5 165t-127.5 54q-51 0 -83.5 -23.5t-54 -59t-32 -81.5t-16.5 -87q-25 0 -61.5 4t-51.5 12q3 35 3 77q0 21 -1 43q-2 67 -12 115q90 45 179 72t200 27q88 0 154 -41q53 -33 92 -96q51 68 117 98 q88 39 176 39q84 0 148.5 -37t108.5 -94.5t67.5 -128t27.5 -140.5q-4 -23 -12.5 -44t-22.5 -38q-160 -4 -301 -12q-125 -6 -240 -16v-4q0 -66 13.5 -136.5t44.5 -128t80 -95.5t120 -38q106 0 168 41t99 90q16 -10 33.5 -28.5t21.5 -34.5q-72 -98 -164 -140t-205 -42 q-109 0 -186.5 45t-128.5 117q-25 35 -43 71q-2 -10 -6 -20q-18 -55 -39 -86q-86 -127 -266 -127q-143 0 -216 57t-73 166zM285 252q0 -45 14 -73.5t34.5 -46t45 -24t49.5 -6.5q86 0 143 86q55 88 56 285v10q-164 -16 -252 -61q-90 -51 -90 -170zM829 602q76 8 156 12 q96 6 209 11q0 47 -10 97t-33 94t-59.5 71.5t-92.5 27.5q-88 0 -129 -79.5t-41 -212.5v-21z" />
<glyph unicode="&#xe7;" horiz-adv-x="976" d="M86 494q0 96 29.5 189t87 168t141.5 119t195 44q205 0 327 -99q-10 -61 -12 -122.5t-2 -124.5q-18 -10 -48 -13.5t-52 -3.5q-14 125 -75 192.5t-157 67.5q-109 0 -170 -99t-61 -286q0 -84 20.5 -159.5t59.5 -134t96 -93.5t135 -35q145 0 240 125q18 -8 33.5 -24.5 t21.5 -34.5q-59 -94 -145 -141q-76 -41 -179 -49l-65 -89q86 -14 137 -66t51 -130q0 -55 -26.5 -96t-69.5 -69t-91 -42t-89 -14q-10 16 -13.5 34.5t-3.5 34.5q66 0 119 32t53 89q0 53 -39.5 85t-101.5 32q-18 12 -28.5 32.5t-10.5 49.5l76 125q-47 6 -96 24 q-80 33 -143.5 97.5t-103.5 160t-40 224.5z" />
<glyph unicode="&#xe8;" horiz-adv-x="1028" d="M86 498q0 104 32 197t89 165t141 113t189 41q106 0 180 -36t121 -96.5t72.5 -142.5t31.5 -174q-8 -45 -33 -73h-110q-74 0 -166 -2.5t-193 -6.5q-72 -2 -139 -6q2 -47 12 -92q14 -80 50 -142.5t96.5 -101.5t156.5 -39q72 0 141.5 32t123.5 93q18 -10 33.5 -29.5 t19.5 -37.5q-76 -96 -172 -138t-215 -42q-115 0 -202 41.5t-144.5 111.5t-86 164.5t-28.5 200.5zM299 588h418q0 143 -52.5 232t-148.5 89q-39 0 -78 -16t-70.5 -58t-50.5 -114q-14 -55 -18 -133zM213 1528q45 23 101 24q11 0 22 1q44 0 86 -7q29 -94 66 -188t88 -193 q-17 -9 -37 -9h-4q-23 1 -45 5q-76 117 -141.5 205t-135.5 162z" />
<glyph unicode="&#xe9;" horiz-adv-x="1028" d="M86 498q0 104 32 197t89 165t141 113t189 41q106 0 180 -36t121 -96.5t72.5 -142.5t31.5 -174q-8 -45 -33 -73h-110q-74 0 -166 -2.5t-193 -6.5q-72 -2 -139 -6q2 -47 12 -92q14 -80 50 -142.5t96.5 -101.5t156.5 -39q72 0 141.5 32t123.5 93q18 -10 33.5 -29.5 t19.5 -37.5q-76 -96 -172 -138t-215 -42q-115 0 -202 41.5t-144.5 111.5t-86 164.5t-28.5 200.5zM299 588h418q0 143 -52.5 232t-148.5 89q-39 0 -78 -16t-70.5 -58t-50.5 -114q-14 -55 -18 -133zM485 1165q53 109 87 200t55 175q49 16 89 22q29 4 53 3h19q18 -2 35 -6.5 t29 -8.5q-72 -82 -148.5 -189.5t-138.5 -207.5q-8 -1 -16 -1l-25 2q-21 3 -39 11z" />
<glyph unicode="&#xea;" horiz-adv-x="1028" d="M86 498q0 104 32 197t89 165t141 113t189 41q106 0 180 -36t121 -96.5t72.5 -142.5t31.5 -174q-8 -45 -33 -73h-110q-74 0 -166 -2.5t-193 -6.5q-72 -2 -139 -6q2 -47 12 -92q14 -80 50 -142.5t96.5 -101.5t156.5 -39q72 0 141.5 32t123.5 93q18 -10 33.5 -29.5 t19.5 -37.5q-76 -96 -172 -138t-215 -42q-115 0 -202 41.5t-144.5 111.5t-86 164.5t-28.5 200.5zM299 588h418q0 143 -52.5 232t-148.5 89q-39 0 -78 -16t-70.5 -58t-50.5 -114q-14 -55 -18 -133zM174 1204q82 63 174 150.5t166 175.5q16 4 35.5 7t33.5 3q57 -82 138.5 -175 t179.5 -191q-23 -27 -66 -39l-73 53l-78 55q-39 29 -79 54.5t-75 43.5q-25 -12 -69 -41l-96 -61l-96 -64q-46 -32 -73 -53q-14 14 -18 41t-4 41z" />
<glyph unicode="&#xeb;" horiz-adv-x="1028" d="M86 498q0 104 32 197t89 165t141 113t189 41q106 0 180 -36t121 -96.5t72.5 -142.5t31.5 -174q-8 -45 -33 -73h-110q-74 0 -166 -2.5t-193 -6.5q-72 -2 -139 -6q2 -47 12 -92q14 -80 50 -142.5t96.5 -101.5t156.5 -39q72 0 141.5 32t123.5 93q18 -10 33.5 -29.5 t19.5 -37.5q-76 -96 -172 -138t-215 -42q-115 0 -202 41.5t-144.5 111.5t-86 164.5t-28.5 200.5zM299 588h418q0 143 -52.5 232t-148.5 89q-39 0 -78 -16t-70.5 -58t-50.5 -114q-14 -55 -18 -133zM209 1266q0 47 28 85t91 38q66 0 94.5 -35t28.5 -84t-35 -82t-84 -33 q-55 0 -89 32t-34 79zM629 1278q0 53 34 82t89 29q53 0 88 -30t35 -81q0 -45 -25.5 -83t-91.5 -38q-63 0 -96 34t-33 87z" />
<glyph unicode="&#xec;" horiz-adv-x="694" d="M-25 1528q45 23 101 24q11 0 22 1q44 0 86 -7q29 -94 66 -188t88 -193q-17 -9 -37 -9h-4q-23 1 -45 5q-76 117 -141.5 205t-135.5 162zM78 860q0 23 4 42.5t16 37.5q23 0 65 6t85 16.5t82 24.5t59 27q18 -6 32.5 -25.5t14.5 -60.5v-652q0 -109 30 -149.5t99 -40.5 q6 -23 8 -50.5t2 -41.5q-57 4 -119.5 5t-125.5 1t-129 -1t-121 -5q0 20 2 46t10 46q86 0 118 41t32 149v429q0 41 -5.5 68.5t-22.5 47t-49 29.5t-87 10z" />
<glyph unicode="&#xed;" horiz-adv-x="702" d="M270 1165q53 109 87 200t55 175q49 16 89 22q29 4 53 3h19q18 -2 35 -6.5t29 -8.5q-72 -82 -148.5 -189.5t-138.5 -207.5q-8 -1 -16 -1l-25 2q-21 3 -39 11zM78 860q0 23 4 42.5t16 37.5q23 0 65 6t85 16.5t82 24.5t59 27q18 -6 32.5 -25.5t14.5 -60.5v-652 q0 -109 30 -149.5t99 -40.5q6 -23 8 -50.5t2 -41.5q-57 4 -119.5 5t-125.5 1t-129 -1t-121 -5q0 20 2 46t10 46q86 0 118 41t32 149v429q0 41 -5.5 68.5t-22.5 47t-49 29.5t-87 10z" />
<glyph unicode="&#xee;" horiz-adv-x="677" d="M-29 1204q82 63 174 150.5t166 175.5q16 4 35.5 7t33.5 3q57 -82 138.5 -175t179.5 -191q-23 -27 -66 -39l-73 53l-78 55q-39 29 -79 54.5t-75 43.5q-25 -12 -69 -41l-96 -61l-96 -64q-46 -32 -73 -53q-14 14 -18 41t-4 41zM78 860q0 23 4 42.5t16 37.5q23 0 65 6 t85 16.5t82 24.5t59 27q18 -6 32.5 -25.5t14.5 -60.5v-652q0 -109 30 -149.5t99 -40.5q6 -23 8 -50.5t2 -41.5q-57 4 -119.5 5t-125.5 1t-129 -1t-121 -5q0 20 2 46t10 46q86 0 118 41t32 149v429q0 41 -5.5 68.5t-22.5 47t-49 29.5t-87 10z" />
<glyph unicode="&#xef;" horiz-adv-x="645" d="M-15 1266q0 47 28 85t91 38q66 0 94.5 -35t28.5 -84t-35 -82t-84 -33q-55 0 -89 32t-34 79zM405 1278q0 53 34 82t89 29q53 0 88 -30t35 -81q0 -45 -25.5 -83t-91.5 -38q-63 0 -96 34t-33 87zM78 860q0 23 4 42.5t16 37.5q23 0 65 6t85 16.5t82 24.5t59 27 q18 -6 32.5 -25.5t14.5 -60.5v-652q0 -109 30 -149.5t99 -40.5q6 -23 8 -50.5t2 -41.5q-57 4 -119.5 5t-125.5 1t-129 -1t-121 -5q0 20 2 46t10 46q86 0 118 41t32 149v429q0 41 -5.5 68.5t-22.5 47t-49 29.5t-87 10z" />
<glyph unicode="&#xf0;" horiz-adv-x="1153" d="M94 463q0 135 46 227t118 149.5t161 83t173 25.5q68 0 131 -26q37 -14 68 -37q-41 104 -111 188q-61 72 -143 129l-82 -49l-156 -90q-12 25 -23.5 58.5t-9.5 49.5l168 95q-109 61 -246 112q0 18 3.5 36t21.5 38q164 -29 319 -100q14 -6 31 -15l244 138q16 -31 24.5 -55.5 t6.5 -53.5l-144 -76q-10 -8 -22 -14q72 -47 131 -105q119 -111 189.5 -259t70.5 -332q0 -158 -38 -271.5t-105.5 -186.5t-160.5 -105.5t-202 -32.5q-252 0 -357.5 124t-105.5 355zM301 494q0 -199 79 -294.5t202 -95.5q37 0 83 21.5t86 74t66.5 139.5t26.5 216 q0 106 -17 197q-33 31 -73 55q-72 41 -181 41q-57 0 -105 -19.5t-85 -61.5t-59.5 -109.5t-22.5 -163.5z" />
<glyph unicode="&#xf1;" horiz-adv-x="1292" d="M295 1163q66 115 124.5 157t113.5 42q39 0 74.5 -14.5t71.5 -31t71 -30.5t72 -14q33 0 64.5 15.5t66.5 51.5q10 0 21 -3t22 -13q-57 -123 -109.5 -166t-101.5 -43q-37 0 -73 14.5t-73 33t-74.5 31.5t-80.5 13q-39 0 -80 -18.5t-86 -65.5q-23 12 -23 41zM78 860 q0 23 4 42.5t16 37.5q33 2 73 9t80 17.5t75.5 22.5t62.5 25q18 -6 32.5 -26.5t14.5 -69.5q0 -25 -2 -58t-12 -69q6 10 12 24t21 31q16 27 46.5 54.5t70.5 50t89.5 38t106.5 15.5q61 0 117.5 -18.5t99.5 -60.5t68.5 -108.5t25.5 -167.5v-373q0 -113 32 -151.5t95 -38.5 q8 -18 10.5 -39.5t2.5 -52.5q-49 4 -109.5 5t-128.5 1t-138.5 -2t-119.5 -4q0 63 10 92q78 0 114 41t36 149v330q0 76 -14.5 127t-42 81t-64.5 43t-80 13t-87 -19.5t-79 -62.5t-57.5 -111.5t-22.5 -168.5v-232q0 -109 33 -149.5t117 -40.5q6 -18 9 -39.5t3 -52.5 q-47 2 -119.5 4t-140.5 2t-138.5 -1t-119.5 -5q0 63 12 92q84 0 117 41t33 149v429q0 41 -6.5 68.5t-23.5 46t-48 28.5t-86 12z" />
<glyph unicode="&#xf2;" horiz-adv-x="1153" d="M86 498q0 111 36 205t101.5 163.5t155.5 108.5t199 39q115 0 205.5 -37t154 -105.5t97.5 -164t34 -209.5q0 -111 -36 -207t-100.5 -164t-154.5 -107.5t-200 -39.5q-111 0 -202 36.5t-155.5 104t-99.5 164t-35 213.5zM305 543q0 -221 79 -340t210 -119t194.5 107.5 t63.5 279.5q0 100 -24.5 181t-64.5 138.5t-93.5 88t-114.5 30.5q-125 0 -187.5 -102t-62.5 -264zM254 1528q45 23 101 24q11 0 22 1q44 0 86 -7q29 -94 66 -188t88 -193q-17 -9 -37 -9h-4q-23 1 -45 5q-76 117 -141.5 205t-135.5 162z" />
<glyph unicode="&#xf3;" horiz-adv-x="1153" d="M86 498q0 111 36 205t101.5 163.5t155.5 108.5t199 39q115 0 205.5 -37t154 -105.5t97.5 -164t34 -209.5q0 -111 -36 -207t-100.5 -164t-154.5 -107.5t-200 -39.5q-111 0 -202 36.5t-155.5 104t-99.5 164t-35 213.5zM305 543q0 -221 79 -340t210 -119t194.5 107.5 t63.5 279.5q0 100 -24.5 181t-64.5 138.5t-93.5 88t-114.5 30.5q-125 0 -187.5 -102t-62.5 -264zM524 1165q53 109 87 200t55 175q49 16 89 22q29 4 53 3h19q18 -2 35 -6.5t29 -8.5q-72 -82 -148.5 -189.5t-138.5 -207.5q-8 -1 -16 -1l-25 2q-21 3 -39 11z" />
<glyph unicode="&#xf4;" horiz-adv-x="1153" d="M86 498q0 111 36 205t101.5 163.5t155.5 108.5t199 39q115 0 205.5 -37t154 -105.5t97.5 -164t34 -209.5q0 -111 -36 -207t-100.5 -164t-154.5 -107.5t-200 -39.5q-111 0 -202 36.5t-155.5 104t-99.5 164t-35 213.5zM305 543q0 -221 79 -340t210 -119t194.5 107.5 t63.5 279.5q0 100 -24.5 181t-64.5 138.5t-93.5 88t-114.5 30.5q-125 0 -187.5 -102t-62.5 -264zM221 1204q82 63 174 150.5t166 175.5q16 4 35.5 7t33.5 3q57 -82 138.5 -175t179.5 -191q-23 -27 -66 -39l-73 53l-78 55q-39 29 -79 54.5t-75 43.5q-25 -12 -69 -41l-96 -61 l-96 -64q-46 -32 -73 -53q-14 14 -18 41t-4 41z" />
<glyph unicode="&#xf5;" horiz-adv-x="1153" d="M86 498q0 111 36 205t101.5 163.5t155.5 108.5t199 39q115 0 205.5 -37t154 -105.5t97.5 -164t34 -209.5q0 -111 -36 -207t-100.5 -164t-154.5 -107.5t-200 -39.5q-111 0 -202 36.5t-155.5 104t-99.5 164t-35 213.5zM305 543q0 -221 79 -340t210 -119t194.5 107.5 t63.5 279.5q0 100 -24.5 181t-64.5 138.5t-93.5 88t-114.5 30.5q-125 0 -187.5 -102t-62.5 -264zM241 1163q66 115 124.5 157t113.5 42q39 0 74.5 -14.5t71.5 -31t71 -30.5t72 -14q33 0 64.5 15.5t66.5 51.5q10 0 21 -3t22 -13q-57 -123 -109.5 -166t-101.5 -43 q-37 0 -73 14.5t-73 33t-74.5 31.5t-80.5 13q-39 0 -80 -18.5t-86 -65.5q-23 12 -23 41z" />
<glyph unicode="&#xf6;" horiz-adv-x="1153" d="M86 498q0 111 36 205t101.5 163.5t155.5 108.5t199 39q115 0 205.5 -37t154 -105.5t97.5 -164t34 -209.5q0 -111 -36 -207t-100.5 -164t-154.5 -107.5t-200 -39.5q-111 0 -202 36.5t-155.5 104t-99.5 164t-35 213.5zM305 543q0 -221 79 -340t210 -119t194.5 107.5 t63.5 279.5q0 100 -24.5 181t-64.5 138.5t-93.5 88t-114.5 30.5q-125 0 -187.5 -102t-62.5 -264zM227 1266q0 47 28 85t91 38q66 0 94.5 -35t28.5 -84t-35 -82t-84 -33q-55 0 -89 32t-34 79zM647 1278q0 53 34 82t89 29q53 0 88 -30t35 -81q0 -45 -25.5 -83t-91.5 -38 q-63 0 -96 34t-33 87z" />
<glyph unicode="&#xf7;" horiz-adv-x="1140" d="M43 512q0 25 5 60.5t18 50.5h1030q0 -33 -3 -58.5t-18 -50.5q-92 0 -151.5 1t-108.5 1h-223q-143 0 -272.5 -1t-276.5 -3zM461 918q0 49 33.5 71.5t78.5 22.5t78 -24.5t33 -69.5q0 -49 -22.5 -84t-81.5 -35q-63 0 -91 33t-28 86zM471 238q0 43 24.5 73.5t84.5 30.5 q61 0 86.5 -27.5t25.5 -76.5t-32.5 -77t-75.5 -28q-49 0 -81 30t-32 75z" />
<glyph unicode="&#xf8;" horiz-adv-x="1163" d="M86 -37l135 166q-57 63 -90 156q-35 96 -35 213q0 111 36 205t100.5 163.5t154.5 108.5t199 39q115 0 207 -37q35 -14 65 -33l80 103q35 -4 54.5 -15.5t41.5 -38.5l-92 -119l4 -4q63 -68 97 -163t34 -209q0 -111 -35.5 -207t-100 -164t-155 -107.5t-200.5 -39.5 q-111 0 -201 36q-49 18 -88 45l-115 -145q-31 0 -57.5 13.5t-38.5 33.5zM315 543q0 -150 35 -252l404 524q-33 41 -76 64q-53 31 -113 30q-127 0 -188.5 -102t-61.5 -264zM401 188q76 -104 203 -104q129 0 192.5 107.5t63.5 279.5q0 100 -24 180q-10 35 -25 66z" />
<glyph unicode="&#xf9;" horiz-adv-x="1263" d="M317 1528q45 23 101 24q11 0 22 1q44 0 86 -7q29 -94 66 -188t88 -193q-17 -9 -37 -9h-4q-23 1 -45 5q-76 117 -141.5 205t-135.5 162zM76 860q0 23 2 41.5t12 38.5q33 2 71 9t74.5 17.5t70.5 22.5t61 25q18 -6 32.5 -26.5t14.5 -69.5v-492q0 -166 44 -234.5t152 -68.5 q43 0 86 22.5t77 67.5t54.5 115.5t20.5 167.5v221q0 39 -5 66.5t-22.5 46t-49.5 28.5t-85 12q0 25 2 43.5t12 36.5q86 4 166 21.5t129 42.5q20 -6 34.5 -26.5t14.5 -69.5v-623q0 -39 4.5 -66.5t19.5 -46t43 -29t79 -12.5q0 -25 -2 -47t-12 -47q-23 0 -60 -5t-74.5 -13.5 t-71.5 -21.5t-55 -27q-18 8 -35.5 29.5t-17.5 76.5q0 45 4 88v19q-23 -47 -65 -91q-111 -111 -262 -110q-76 0 -136.5 19.5t-101.5 63.5t-61.5 117.5t-20.5 184.5v328q0 41 -3 68.5t-18.5 46t-44 28.5t-77.5 12z" />
<glyph unicode="&#xfa;" horiz-adv-x="1263" d="M544 1165q53 109 87 200t55 175q49 16 89 22q29 4 53 3h19q18 -2 35 -6.5t29 -8.5q-72 -82 -148.5 -189.5t-138.5 -207.5q-8 -1 -16 -1l-25 2q-21 3 -39 11zM76 860q0 23 2 41.5t12 38.5q33 2 71 9t74.5 17.5t70.5 22.5t61 25q18 -6 32.5 -26.5t14.5 -69.5v-492 q0 -166 44 -234.5t152 -68.5q43 0 86 22.5t77 67.5t54.5 115.5t20.5 167.5v221q0 39 -5 66.5t-22.5 46t-49.5 28.5t-85 12q0 25 2 43.5t12 36.5q86 4 166 21.5t129 42.5q20 -6 34.5 -26.5t14.5 -69.5v-623q0 -39 4.5 -66.5t19.5 -46t43 -29t79 -12.5q0 -25 -2 -47t-12 -47 q-23 0 -60 -5t-74.5 -13.5t-71.5 -21.5t-55 -27q-18 8 -35.5 29.5t-17.5 76.5q0 45 4 88v19q-23 -47 -65 -91q-111 -111 -262 -110q-76 0 -136.5 19.5t-101.5 63.5t-61.5 117.5t-20.5 184.5v328q0 41 -3 68.5t-18.5 46t-44 28.5t-77.5 12z" />
<glyph unicode="&#xfb;" horiz-adv-x="1263" d="M242 1204q82 63 174 150.5t166 175.5q16 4 35.5 7t33.5 3q57 -82 138.5 -175t179.5 -191q-23 -27 -66 -39l-73 53l-78 55q-39 29 -79 54.5t-75 43.5q-25 -12 -69 -41l-96 -61l-96 -64q-46 -32 -73 -53q-14 14 -18 41t-4 41zM76 860q0 23 2 41.5t12 38.5q33 2 71 9 t74.5 17.5t70.5 22.5t61 25q18 -6 32.5 -26.5t14.5 -69.5v-492q0 -166 44 -234.5t152 -68.5q43 0 86 22.5t77 67.5t54.5 115.5t20.5 167.5v221q0 39 -5 66.5t-22.5 46t-49.5 28.5t-85 12q0 25 2 43.5t12 36.5q86 4 166 21.5t129 42.5q20 -6 34.5 -26.5t14.5 -69.5v-623 q0 -39 4.5 -66.5t19.5 -46t43 -29t79 -12.5q0 -25 -2 -47t-12 -47q-23 0 -60 -5t-74.5 -13.5t-71.5 -21.5t-55 -27q-18 8 -35.5 29.5t-17.5 76.5q0 45 4 88v19q-23 -47 -65 -91q-111 -111 -262 -110q-76 0 -136.5 19.5t-101.5 63.5t-61.5 117.5t-20.5 184.5v328 q0 41 -3 68.5t-18.5 46t-44 28.5t-77.5 12z" />
<glyph unicode="&#xfc;" horiz-adv-x="1220" d="M235 1266q0 47 28 85t91 38q66 0 94.5 -35t28.5 -84t-35 -82t-84 -33q-55 0 -89 32t-34 79zM655 1278q0 53 34 82t89 29q53 0 88 -30t35 -81q0 -45 -25.5 -83t-91.5 -38q-63 0 -96 34t-33 87zM33 860q0 23 2 41.5t12 38.5q33 2 71 9t74.5 17.5t70.5 22.5t61 25 q18 -6 32.5 -26.5t14.5 -69.5v-492q0 -166 44 -234.5t152 -68.5q43 0 86 22.5t77 67.5t54.5 115.5t20.5 167.5v221q0 39 -5 66.5t-22.5 46t-49.5 28.5t-85 12q0 25 2 43.5t12 36.5q86 4 166 21.5t129 42.5q20 -6 34.5 -26.5t14.5 -69.5v-623q0 -39 4.5 -66.5t19.5 -46 t43 -29t79 -12.5q0 -25 -2 -47t-12 -47q-23 0 -60 -5t-74.5 -13.5t-71.5 -21.5t-55 -27q-18 8 -35.5 29.5t-17.5 76.5q0 45 4 88v19q-23 -47 -65 -91q-111 -111 -262 -110q-76 0 -136.5 19.5t-101.5 63.5t-61.5 117.5t-20.5 184.5v328q0 41 -3 68.5t-18.5 46t-44 28.5 t-77.5 12z" />
<glyph unicode="&#xfd;" horiz-adv-x="1245" d="M104 999l126 -4q62 -2 120 -2h139l78 4q39 2 72 2q0 -57 -15 -94q-59 -10 -92 -25.5t-43 -42.5q-5 -14 -5 -31.5t5 -37.5q10 -41 41 -102l50 -109l58 -128q30 -67 54 -132q18 -41 31 -78q12 25 22 49l150 379q29 70 33 115q1 13 2 24q0 29 -10 51q-13 30 -44 45t-80 23 q-14 43 -14 94q49 -6 102 -6h226q53 0 104 6q0 -23 -1 -46t-13 -48q-29 -6 -51.5 -19.5t-41 -38t-38 -66.5t-43.5 -101l-320 -760q-63 -147 -111.5 -238.5t-90.5 -140.5t-84 -65.5t-93 -16.5q-63 0 -102 16.5t-60 32.5q-7 26 -6 63v19q2 49 8 78q74 -14 140 -14 q63 0 119.5 29.5t99.5 99.5q14 23 37.5 69t50.5 111q6 10 12 23l-67 149l-83 186l-80 174l-67 144l-65.5 130t-50 77.5t-46 40t-49.5 18.5q-14 39 -14 94zM669 1165q53 109 87 200t55 175q49 16 89 22q29 4 53 3h19q18 -2 35 -6.5t29 -8.5q-72 -82 -148.5 -189.5 t-138.5 -207.5q-8 -1 -16 -1l-25 2q-21 3 -39 11z" />
<glyph unicode="&#xfe;" horiz-adv-x="1257" d="M94 1403q0 23 4 43t15 37q25 0 65.5 6t83.5 16.5t83 24.5t58 26q20 -6 34 -25.5t14 -60.5v-548q0 -16 -2 -37q10 10 18 20q29 29 67.5 52.5t86 40t102.5 16.5q190 0 297.5 -115t107.5 -367q0 -115 -38.5 -215t-109.5 -174.5t-170 -118.5t-222 -44q-61 0 -109 12l-28 6 v-248q0 -55 8 -93t26.5 -58.5t52 -28.5t85.5 -8q6 -20 9 -42t3 -52q-53 4 -130 5t-140 1t-137 -1t-132 -5q0 63 10 94q86 0 118 40t32 148v1499q0 39 -5 66.5t-22.5 47t-49.5 30t-85 10.5zM436 674l15 -10v-543q12 -4 20 -10q51 -31 129 -31q45 0 99.5 17.5t101.5 65.5 t79.5 129t32.5 212q0 104 -24.5 176t-60 115t-79.5 62.5t-77 19.5q-49 0 -95.5 -21.5t-84.5 -71.5q-33 -44 -56 -110z" />
<glyph unicode="&#xff;" horiz-adv-x="1245" d="M96 999l126 -4q62 -2 120 -2h139l78 4q39 2 72 2q0 -57 -15 -94q-59 -10 -92 -25.5t-43 -42.5q-5 -14 -5 -31.5t5 -37.5q10 -41 41 -102l50 -109l58 -128q30 -67 54 -132q18 -41 31 -78q12 25 22 49l150 379q29 70 33 115q1 13 2 24q0 29 -10 51q-13 30 -44 45t-80 23 q-14 43 -14 94q49 -6 102 -6h226q53 0 104 6q0 -23 -1 -46t-13 -48q-29 -6 -51.5 -19.5t-41 -38t-38 -66.5t-43.5 -101l-320 -760q-63 -147 -111.5 -238.5t-90.5 -140.5t-84 -65.5t-93 -16.5q-63 0 -102 16.5t-60 32.5q-7 26 -6 63v19q2 49 8 78q74 -14 140 -14 q63 0 119.5 29.5t99.5 99.5q14 23 37.5 69t50.5 111q6 10 12 23l-67 149l-83 186l-80 174l-67 144l-65.5 130t-50 77.5t-46 40t-49.5 18.5q-14 39 -14 94zM344 1266q0 47 28 85t91 38q66 0 94.5 -35t28.5 -84t-35 -82t-84 -33q-55 0 -89 32t-34 79zM764 1278q0 53 34 82 t89 29q53 0 88 -30t35 -81q0 -45 -25.5 -83t-91.5 -38q-63 0 -96 34t-33 87z" />
<glyph unicode="&#x131;" horiz-adv-x="694" d="M78 860q0 23 4 42.5t16 37.5q23 0 65 6t85 16.5t82 24.5t59 27q18 -6 32.5 -25.5t14.5 -60.5v-652q0 -109 30 -149.5t99 -40.5q6 -23 8 -50.5t2 -41.5q-57 4 -119.5 5t-125.5 1t-129 -1t-121 -5q0 20 2 46t10 46q86 0 118 41t32 149v429q0 41 -5.5 68.5t-22.5 47 t-49 29.5t-87 10z" />
<glyph unicode="&#x152;" horiz-adv-x="2852" d="M1710 -6q0 63 12 92q43 2 73 12.5t46 34t24.5 64.5t8.5 102v893q0 109 -32 146.5t-118 41.5q-6 18 -9 43t-3 52q33 -2 83 -4l103 -2q53 -1 101 -1h80q223 0 366 2.5t197 4.5q2 -37 8 -82t11 -91.5t11.5 -91.5t14.5 -80q-16 -14 -41 -19t-55 -5q-4 49 -20.5 99t-57.5 89 t-107.5 62.5t-171.5 23.5h-155v-594h90q68 0 112.5 7.5t73.5 27t42 54t13 88.5q29 8 51.5 11t53.5 3q-6 -57 -6 -119v-244q0 -70 6 -127q-31 0 -53.5 3.5t-47.5 9.5q-4 55 -18 92t-43 60.5t-73 31.5t-111 8h-90v-393q0 -59 7 -99t28.5 -62.5t59.5 -31t99 -8.5h12 q100 0 164 17.5t104 52.5t64.5 85t48.5 118q33 -10 54.5 -21.5t40.5 -30.5q-23 -76 -39.5 -161.5t-26.5 -161.5q-33 0 -80 1t-103.5 2t-117.5 1h-262q-80 0 -160 -1t-149.5 -2t-112.5 -3zM76 737q0 166 55 304.5t152.5 237.5t228.5 153.5t281 54.5q156 0 286.5 -54.5 t227 -152.5t150.5 -236.5t54 -306.5q0 -160 -53 -298t-148.5 -239.5t-227.5 -160.5t-289 -59q-162 0 -294 58t-226.5 159.5t-145.5 239.5t-51 300zM299 797q0 -137 35 -265.5t103.5 -226.5t168 -158.5t230.5 -60.5q106 0 190 47t142.5 127t89 188.5t30.5 233.5 q0 145 -42 273t-113.5 223.5t-170 149.5t-214.5 54q-96 0 -179.5 -42t-142.5 -118.5t-93 -184t-34 -240.5z" />
<glyph unicode="&#x153;" horiz-adv-x="2183" d="M1241 498q0 104 32 197t89 165t141 113t189 41q106 0 180 -36t121 -96.5t72.5 -142.5t31.5 -174q-8 -45 -33 -73h-110q-74 0 -166 -2.5t-193 -6.5q-72 -2 -139 -6q2 -47 12 -92q14 -80 50 -142.5t96.5 -101.5t156.5 -39q72 0 141.5 32t123.5 93q18 -10 33.5 -29.5 t19.5 -37.5q-76 -96 -172 -138t-215 -42q-115 0 -202 41.5t-144.5 111.5t-86 164.5t-28.5 200.5zM1454 588h418q0 143 -52.5 232t-148.5 89q-39 0 -78 -16t-70.5 -58t-50.5 -114q-14 -55 -18 -133zM86 498q0 111 36 205t101.5 163.5t155.5 108.5t199 39q115 0 205.5 -37 t154 -105.5t97.5 -164t34 -209.5q0 -111 -36 -207t-100.5 -164t-154.5 -107.5t-200 -39.5q-111 0 -202 36.5t-155.5 104t-99.5 164t-35 213.5zM305 543q0 -221 79 -340t210 -119t194.5 107.5t63.5 279.5q0 100 -24.5 181t-64.5 138.5t-93.5 88t-114.5 30.5 q-125 0 -187.5 -102t-62.5 -264z" />
<glyph unicode="&#x178;" horiz-adv-x="1366" d="M350 1729q0 47 28 85t91 38q66 0 94.5 -35t28.5 -84t-35 -82t-84 -33q-55 0 -89 32t-34 79zM770 1741q0 53 34 82t89 29q53 0 88 -30t35 -81q0 -45 -25.5 -83t-91.5 -38q-63 0 -96 34t-33 87zM53 1473q47 -2 105.5 -3.5t122.5 -1.5h149q41 0 78 1t63 4q0 -25 -2 -43.5 t-10 -43.5q-84 -8 -96 -43q-2 -7 -3 -15q0 -36 42 -103l139 -246l117 -221q51 102 108 205l121 219q49 84 49 127q0 12 -4 20q-16 41 -102 53q-8 25 -12.5 45.5t-4.5 45.5q39 -4 101 -5h112q51 0 100.5 1t86.5 4q0 -45 -8 -87q-31 -8 -54.5 -22t-50 -40t-54.5 -66.5 t-63 -104.5l-288 -512v-287q0 -88 5 -137t22.5 -75.5t50 -37t90.5 -18.5q12 -39 12 -92l-144 4q-72 2 -133 2h-77q-41 0 -82 -1t-77 -2t-59 -1q0 25 3.5 48.5t11.5 41.5q57 6 91 15.5t52.5 33t23.5 69.5t5 122v313l-363 616q-20 35 -36.5 58.5t-34 39t-38 21.5t-50.5 8 q-8 25 -11.5 45.5t-3.5 45.5z" />
<glyph unicode="&#x2c6;" d="M164 1204q82 63 174 150.5t166 175.5q16 4 35.5 7t33.5 3q57 -82 138.5 -175t179.5 -191q-23 -27 -66 -39l-73 53l-78 55q-39 29 -79 54.5t-75 43.5q-25 -12 -69 -41l-96 -61l-96 -64q-46 -32 -73 -53q-14 14 -18 41t-4 41z" />
<glyph unicode="&#x2da;" d="M446 1333q0 86 66 144.5t162 58.5q39 0 78 -10t67.5 -34t47 -59.5t18.5 -84.5q0 -88 -64.5 -146.5t-163.5 -58.5q-41 0 -78.5 12t-67.5 38t-47.5 61.5t-17.5 78.5zM567 1341q0 -49 29 -83.5t84 -34.5q35 0 61.5 26.5t26.5 77.5q0 45 -26.5 90t-84.5 45q-41 0 -65.5 -32 t-24.5 -89z" />
<glyph unicode="&#x2dc;" d="M225 1163q66 115 124.5 157t113.5 42q39 0 74.5 -14.5t71.5 -31t71 -30.5t72 -14q33 0 64.5 15.5t66.5 51.5q10 0 21 -3t22 -13q-57 -123 -109.5 -166t-101.5 -43q-37 0 -73 14.5t-73 33t-74.5 31.5t-80.5 13q-39 0 -80 -18.5t-86 -65.5q-23 12 -23 41z" />
<glyph unicode="&#x2000;" horiz-adv-x="1015" />
<glyph unicode="&#x2001;" horiz-adv-x="2031" />
<glyph unicode="&#x2002;" horiz-adv-x="1015" />
<glyph unicode="&#x2003;" horiz-adv-x="2031" />
<glyph unicode="&#x2004;" horiz-adv-x="675" />
<glyph unicode="&#x2005;" horiz-adv-x="507" />
<glyph unicode="&#x2006;" horiz-adv-x="337" />
<glyph unicode="&#x2007;" horiz-adv-x="337" />
<glyph unicode="&#x2008;" horiz-adv-x="253" />
<glyph unicode="&#x2009;" horiz-adv-x="405" />
<glyph unicode="&#x200a;" horiz-adv-x="112" />
<glyph unicode="&#x2010;" horiz-adv-x="909" d="M131 500q0 37 9.5 79t25.5 70h614q0 -35 -7 -72.5t-21 -68.5q-59 0 -143 -1l-170 -2l-169 -2q-82 -1 -139 -3z" />
<glyph unicode="&#x2011;" horiz-adv-x="909" d="M131 500q0 37 9.5 79t25.5 70h614q0 -35 -7 -72.5t-21 -68.5q-59 0 -143 -1l-170 -2l-169 -2q-82 -1 -139 -3z" />
<glyph unicode="&#x2012;" horiz-adv-x="909" d="M131 500q0 37 9.5 79t25.5 70h614q0 -35 -7 -72.5t-21 -68.5q-59 0 -143 -1l-170 -2l-169 -2q-82 -1 -139 -3z" />
<glyph unicode="&#x2013;" horiz-adv-x="1226" d="M131 510q0 31 6 65.5t17 55.5h944q0 -31 -4 -60.5t-19 -54.5h-217q-100 0 -206.5 -1t-231.5 -2t-289 -3z" />
<glyph unicode="&#x2014;" horiz-adv-x="2222" d="M131 510q0 12 2 29.5t5 35t7.5 33t8.5 21.5h1939q0 -31 -4 -59.5t-21 -53.5q-647 0 -1124 -1t-813 -5z" />
<glyph unicode="&#x2018;" horiz-adv-x="524" d="M131 1169q0 121 41 209t119 178q25 0 49.5 -7t36.5 -21q-27 -39 -43.5 -65.5t-25.5 -50t-12 -46.5t-3 -49q0 -94 102 -109q0 -20 -3 -60t-15 -69q-49 -10 -92 -25.5t-80 -39.5q-74 28 -74 155z" />
<glyph unicode="&#x2019;" horiz-adv-x="524" d="M350.008 1397.07q0 -120.992 -40.9971 -208.987q-40.998 -87.9941 -118.993 -177.989q-24.998 0 -49.4971 7q-24.498 6.99902 -36.4971 20.999q26.998 38.9971 43.4971 65.4951q16.499 26.499 25.498 49.9971q9 23.499 11.999 46.4971q3 22.999 3 48.9971 q0 93.9941 -101.993 108.994q0 19.998 2.99902 59.9961q3 39.9971 15 68.9951q48.9961 10 91.9941 25.499q42.9971 15.499 79.9951 39.4971q73.9951 -27.998 73.9951 -154.99z" />
<glyph unicode="&#x201a;" horiz-adv-x="524" d="M350.008 58.0713q0 -120.992 -40.9971 -208.987q-40.998 -87.9941 -118.993 -177.989q-24.998 0 -49.4971 7q-24.498 6.99902 -36.4971 20.999q26.998 38.9971 43.4971 65.4951q16.499 26.499 25.498 49.9971q9 23.499 11.999 46.4971q3 22.999 3 48.9971 q0 93.9941 -101.993 108.994q0 19.998 2.99902 59.9961q3 39.9971 15 68.9951q48.9961 10 91.9941 25.499q42.9971 15.499 79.9951 39.4971q73.9951 -27.998 73.9951 -154.99z" />
<glyph unicode="&#x201c;" horiz-adv-x="839" d="M131 1180q0 94 43 192t115 180q4 1 9 1q14 0 34 -5q27 -6 41 -18q-35 -47 -59.5 -107.5t-24.5 -105.5q0 -43 19.5 -71.5t76.5 -35.5q1 -8 1 -17q0 -23 -4 -52q-5 -41 -15 -64q-90 -16 -162 -63q-33 23 -53.5 61.5t-20.5 104.5zM451 1186q0 94 44 187t113 175q4 0 9 1 q16 0 35 -6q26 -7 40 -17q-33 -47 -58.5 -105.5t-25.5 -103.5q0 -43 21.5 -71.5t79.5 -35.5q1 -8 0 -17q0 -22 -3 -48q-5 -37 -16 -62q-45 -8 -89 -23.5t-75 -39.5q-35 23 -55 61.5t-20 104.5z" />
<glyph unicode="&#x201d;" horiz-adv-x="839" d="M666.008 1390.07q0 -93.9941 -42.9971 -191.988t-114.993 -179.989q-4 -1 -8.99902 -1q-13.999 0 -33.998 5q-26.999 5.99902 -40.998 17.999q34.998 46.9971 59.4971 107.493q24.498 60.4961 24.498 105.493q0 42.998 -19.499 71.4961t-76.4951 35.498 q-1 7.99902 -1 16.999q0 22.998 4 51.9961q5 40.998 14.999 63.9961q89.9941 15.999 161.99 62.9961q32.998 -22.998 53.4961 -61.4961q20.499 -38.4971 20.499 -104.493zM346.027 1384.07q0 -93.9941 -43.9971 -186.988t-112.993 -174.989q-4 0 -8.99902 -1 q-15.999 0 -34.998 5.99902q-25.999 7 -39.998 16.999q32.998 46.9971 58.4971 105.494q25.498 58.4961 25.498 103.493q0 42.998 -21.499 71.4961q-21.498 28.498 -79.4951 35.498q-1 7.99902 0 16.999q0 21.998 3 47.9971q5 36.9971 15.999 61.9961 q44.9971 7.99902 88.9951 23.498q43.9971 15.499 74.9951 39.498q34.998 -22.999 54.9961 -61.4961q19.999 -38.498 19.999 -104.494z" />
<glyph unicode="&#x201e;" horiz-adv-x="839" d="M666.008 49.0723q0 -93.9941 -42.9971 -191.988t-114.993 -179.989q-4 -1 -8.99902 -1q-13.999 0 -33.998 5q-26.999 5.99902 -40.998 17.999q34.998 46.9971 59.4971 107.493q24.498 60.4961 24.498 105.493q0 42.998 -19.499 71.4961t-76.4951 35.498 q-1 7.99902 -1 16.999q0 22.998 4 51.9961q5 40.998 14.999 63.9961q89.9941 15.999 161.99 62.9961q32.998 -22.998 53.4961 -61.4961q20.499 -38.4971 20.499 -104.493zM346.027 43.0723q0 -93.9941 -43.9971 -186.988t-112.993 -174.989q-4 0 -8.99902 -1 q-15.999 0 -34.998 5.99902q-25.999 7 -39.998 16.999q32.998 46.9971 58.4971 105.494q25.498 58.4961 25.498 103.493q0 42.998 -21.499 71.4961q-21.498 28.498 -79.4951 35.498q-1 7.99902 0 16.999q0 21.998 3 47.9971q5 36.9971 15.999 61.9961 q44.9971 7.99902 88.9951 23.498q43.9971 15.499 74.9951 39.498q34.998 -22.999 54.9961 -61.4961q19.999 -38.498 19.999 -104.494z" />
<glyph unicode="&#x2022;" horiz-adv-x="733" d="M131 655q0 96 65.5 157.5t174.5 61.5q57 0 100 -18t72.5 -49t45 -71t15.5 -83q0 -102 -61.5 -167.5t-171.5 -65.5q-61 0 -106.5 19.5t-76 53t-44 75.5t-13.5 87z" />
<glyph unicode="&#x2026;" horiz-adv-x="1865" d="M131 98q0 49 37 86t94 37t89 -38t32 -74q0 -66 -40 -95.5t-89 -29.5q-59 0 -91 31.5t-32 82.5zM825 98q0 49 37 86t94 37t89 -38t32 -74q0 -66 -40 -95.5t-89 -29.5q-59 0 -91 31.5t-32 82.5zM1485 98q0 49 37 86t94 37t89 -38t32 -74q0 -66 -40 -95.5t-89 -29.5 q-59 0 -91 31.5t-32 82.5z" />
<glyph unicode="&#x202f;" horiz-adv-x="405" />
<glyph unicode="&#x2039;" horiz-adv-x="651" d="M117 520q0 35 14 74q88 74 169 154.5t151 158.5q47 -4 75 -33q-25 -27 -56 -66l-62 -82q-31 -42 -55.5 -81t-37.5 -65q18 -35 43 -77l52 -86l55 -86l51 -77q0 -25 -10 -44.5t-25 -29.5l-190 189q-94 90 -174 151z" />
<glyph unicode="&#x203a;" horiz-adv-x="655" d="M113 877q37 31 80 30q78 -76 158 -146l167 -143q10 -16 12 -32.5t2 -36.5q-90 -88 -173 -178l-166 -183q-35 23 -50 64l104 140l101 149l-51 73l-59 89l-64 91z" />
<glyph unicode="&#x2044;" horiz-adv-x="1341" d="M72 39l1112 1511q23 -6 47 -22.5t39 -34.5l-1112 -1509q-29 10 -52.5 25.5t-33.5 29.5z" />
<glyph unicode="&#x205f;" horiz-adv-x="507" />
<glyph unicode="&#x20ac;" horiz-adv-x="1617" d="M98 498q0 31 6.5 65.5t16.5 54.5h117q-8 61 -9 127v17h-131q0 31 6.5 65.5t16.5 55.5h119q14 102 51 188q63 137 163.5 231.5t231.5 139.5t268 45t249 -27.5t235 -85.5q-18 -76 -21.5 -161t-3.5 -175q-29 -12 -54.5 -16t-60.5 -4q-4 115 -28.5 188.5t-66.5 116.5 t-100.5 59.5t-129.5 16.5q-137 0 -234.5 -50.5t-160 -134.5t-93.5 -192q-16 -68 -24 -139h604q0 -31 -4 -60.5t-19 -54.5h-217q-100 0 -207 -2q-76 0 -159 -2q2 -76 14 -146h592q0 -33 -4 -61.5t-19 -52.5h-217q-100 0 -207 -2q-53 0 -112 -2q37 -106 98 -187 q72 -94 174.5 -147t233.5 -53q104 0 212.5 34.5t198.5 94.5q14 -12 25.5 -33t13.5 -35q-63 -51 -125.5 -87t-127 -59.5t-135 -35.5t-154.5 -12q-152 0 -279 56t-218 156.5t-142 241.5q-12 31 -21 64h-162z" />
<glyph unicode="&#x2122;" horiz-adv-x="3299" d="M1356 -6q0 14 3 41.5t9 50.5q43 6 73 18.5t49.5 45t31.5 93t22 158.5l68 773q3 32 3 59q0 72 -23 103q-33 44 -125 44q-6 23 -8.5 48.5t-2.5 46.5q33 -4 79 -5.5t87 -1.5q80 0 164 7l543 -1201l473 1201q37 -4 82 -5.5t88 -1.5t82 1t84 6q0 -25 -3 -47.5t-10 -47.5 q-39 0 -68.5 -9t-50 -34.5t-27.5 -67.5q-4 -23 -4 -52q0 -25 3 -56l78 -796q10 -80 20.5 -132.5t28.5 -83t45 -44t66 -17.5q6 -23 8 -48.5t2 -45.5q-27 2 -59 3l-66 2q-35 1 -72 1h-63q-59 0 -134 -1t-130 -5q0 18 3 45t9 47q51 6 81.5 18.5t44 40t13.5 73.5t-6 118l-80 745 l-448 -1085q-37 -16 -88 -16l-506 1099l-70 -696q-7 -63 -7 -109q0 -18 1 -34q4 -55 19.5 -88t47 -46.5t80.5 -19.5q6 -23 8.5 -50.5t2.5 -41.5q-53 4 -119 5t-115 1q-47 0 -109.5 -1t-107.5 -5zM53 1149q18 76 26.5 163t8.5 163q92 -4 240.5 -5.5t314.5 -1.5h162 q80 0 153.5 1t135 2.5t106.5 3.5q0 -147 14 -326q-25 -12 -52 -16.5t-52 -4.5q-4 117 -64.5 185.5t-197.5 68.5h-103v-1106q0 -55 6.5 -90.5t25 -56t52 -31t84.5 -12.5q12 -29 13 -92q-70 4 -142.5 5t-142.5 1t-146.5 -1t-138.5 -5q0 63 11 92q53 2 85.5 12.5t53 31t28 56 t7.5 90.5v1106h-111q-84 0 -133 -19.5t-78 -54t-41 -79.5t-24 -101q-23 0 -52 4.5t-49 16.5z" />
<glyph unicode="&#xe000;" horiz-adv-x="1000" d="M0 1000h1000v-1000h-1000v1000z" />
<glyph horiz-adv-x="620" d="M57 1417q0 20 3 46t14 48q80 10 153.5 29t132.5 43q25 -10 34 -28.5t9 -67.5v-561q0 -70 8.5 -115t24 -69.5t41 -35t58.5 -12.5q4 -16 6 -40.5t2 -49.5q-25 2 -92.5 4t-145.5 2q-82 0 -141.5 -2t-93.5 -4q0 55 8 90q35 2 62.5 11.5t46 32t26.5 63.5t8 108v357 q0 88 -33 119.5t-131 31.5z" />
<glyph horiz-adv-x="835" d="M80 666q-2 23 7 45t24 41q27 -18 78 -36t126 -18q102 0 168 46.5t66 144.5q0 39 -16.5 68.5t-44 50t-62.5 32t-72 11.5q-20 0 -37.5 -2t-33.5 -9q-16 12 -27.5 37t-13.5 41l142 158q73 80 124 143h-162q-55 0 -87 -28.5t-62 -110.5q-23 0 -49.5 8t-43.5 19q12 57 17 135 q3 52 3 94q0 21 -1 41q45 -4 120.5 -5t178.5 -1q104 0 168.5 3t95.5 3q29 -33 29 -80q-63 -63 -132 -139l-145 -158q57 0 113.5 -15.5t101.5 -47t74 -82.5t29 -121q0 -78 -32 -142.5t-87 -107.5t-133 -67.5t-172 -24.5q-104 0 -165.5 27t-86.5 47z" />
<glyph horiz-adv-x="919" d="M82 348l117 145l126 161l126 169l118 168q55 0 105 -22v-555h100q51 0 70 -21q-14 -31 -24.5 -61.5t-14.5 -73.5h-131v-16q0 -51 5 -80t18.5 -44.5t34 -19.5t50.5 -6q4 -14 7.5 -45t3.5 -53q-20 0 -47 1t-58 3l-61 2h-115l-66 -2q-33 -2 -59.5 -3t-40.5 -1q0 23 2 54.5 t6 43.5q37 2 63.5 7t44 21.5t26 44.5t8.5 77v14q-70 -2 -127 -2q-80 -2 -139.5 -5t-108.5 -7q-39 43 -39 106zM260 414h236v319z" />
<glyph horiz-adv-x="872" d="M92 61q31 37 73 82l73 78l196 205q59 61 86 126.5t27 158.5q0 76 -38 129t-120 53q-76 0 -108.5 -48t-49.5 -151q-61 0 -106 17q8 43 8 89t-10 105q133 70 305 70q63 0 118.5 -13.5t97.5 -41t66.5 -71.5t24.5 -104q0 -92 -49 -165.5t-133 -149.5q-70 -66 -126 -124 l-126 -136h268q51 0 83 20.5t32 77.5q27 2 51.5 0t44.5 -10q-2 -31 -2 -61t2 -60q4 -59 15 -104q-10 -20 -35 -27.5t-74 -7.5q-25 0 -85 1t-118 1q-96 0 -186 -1t-186 -1q-10 10 -14.5 27.5t-4.5 35.5z" />
</font>
</defs>
</svg>
