<?xml version="1.0" standalone="no"?>
<!DOCTYPE svg PUBLIC "-//W3C//DTD SVG 1.1//EN" "http://www.w3.org/Graphics/SVG/1.1/DTD/svg11.dtd" >
<svg xmlns="http://www.w3.org/2000/svg">
<metadata>
This is a custom SVG webfont generated by Font Squirrel.
Copyright   : Copyright c 2010 Friedrich Althausen httpfriedrichalthausende All rights reservedThis Font Software is licensed under the SIL Open Font License Version 11This license is available with a FAQ at httpscriptssilorgOFL
Designer    : Friedrich Althausen
Foundry     : Friedrich Althausen
Foundry URL : httpfriedrichalthausende
</metadata>
<defs>
<font id="VollkornItalic" horiz-adv-x="520" >
<font-face units-per-em="2048" ascent="1536" descent="-512" />
<missing-glyph horiz-adv-x="378" />
<glyph unicode=" "  horiz-adv-x="378" />
<glyph unicode="&#x09;" horiz-adv-x="378" />
<glyph unicode="&#xa0;" horiz-adv-x="378" />
<glyph unicode="!" horiz-adv-x="577" d="M125 119q8 41 41 69.5t76 28.5q49 0 80 -37q23 -28 23 -67q0 -13 -3 -27q-10 -47 -39 -74.5t-76 -27.5q-57 0 -86 36q-20 26 -20 64q0 17 4 35zM260 487q18 147 31 275l23 240q11 114 18 221l12 213q49 12 111.5 31.5t99.5 37.5q29 -10 35 -34q2 -7 2 -16q0 -22 -10 -58 l-53 -192l-60 -231l-61 -251q-31 -129 -56 -248q-14 -2 -26 -1q-38 -1 -66 13z" />
<glyph unicode="&#x22;" horiz-adv-x="704" d="M272 1028q16 111 28.5 219.5t18.5 214.5q27 4 62 16.5t57 26.5q25 -10 34 -33.5t-1 -60.5q-25 -74 -51.5 -170t-61.5 -235q-25 0 -46.5 4t-39.5 18zM559 1028q16 111 29.5 219.5t17.5 214.5q27 4 61.5 16.5t57.5 26.5q25 -10 34 -34q4 -11 4 -25q0 -16 -5 -35 q-25 -74 -51.5 -170t-61.5 -235q-25 0 -46.5 4t-39.5 18z" />
<glyph unicode="#" horiz-adv-x="1191" d="M82 444q0 55 27 111h237l80 377q-68 0 -126 -1t-105 -3q0 25 5 53.5t19 56.5h230l100 467q63 -8 90 -45l-88 -422h338l98 467q61 -12 90 -41l-90 -426h217q0 -63 -24 -104h-213l-80 -379h229q0 -59 -24 -104h-228l-98 -467q-55 8 -92 45l90 422h-338l-98 -467 q-68 10 -92 55l88 410q-68 -2 -127.5 -2.5t-114.5 -2.5zM446 555h338l80 379h-336z" />
<glyph unicode="$" horiz-adv-x="968" d="M4 133q23 74 40 147.5t22 145.5q25 10 56.5 11t57.5 -7q-3 -38 -3 -71q0 -100 28 -161q37 -81 139 -106l105 553l-112 85q-56 44 -96 101.5t-60 129.5q-10 37 -10 80q0 41 9 87q23 141 132.5 225.5t289.5 92.5l25 131q31 0 56.5 -8t43.5 -31l-20 -98q82 -10 145 -34 t106 -60q-12 -72 -18 -136.5t-6 -136.5q-34 -14 -74 -14q-20 0 -41 4q-4 131 -37.5 193.5t-95.5 80.5q-31 -139 -56 -268l-50 -254l127 -91q63 -46 110 -104.5t72 -130.5q15 -43 15 -94q0 -34 -7 -71q-12 -80 -54 -142.5t-102.5 -107.5t-141.5 -68.5t-173 -23.5l-31 -179 q-31 2 -57.5 10.5t-42.5 30.5l29 144q-109 14 -184 52t-136 93zM365 1141q-3 -21 -3 -40q0 -59 28 -106q38 -61 104 -114l88 465q-88 -6 -144.5 -54.5t-72.5 -150.5zM444 82q96 0 164 56.5t84 148.5q4 26 4 49t-4 44q-8 42 -30.5 78t-55.5 66.5t-69 59.5z" />
<glyph unicode="%" horiz-adv-x="1443" d="M197 63l1093 1383q61 -33 72 -88l-292 -356l-262 -324l-260 -328l-286 -368q-27 12 -44 33t-21 48zM198 985q-5 29 -5 61q0 46 10 97q25 129 115 206.5t212 77.5q145 0 215 -104q46 -70 47 -169q0 -50 -12 -107q-27 -131 -112.5 -210t-198.5 -79q-76 0 -133 27.5 t-92 77.5t-46 122zM350 1149q-10 -57 -10 -104q0 -67 20 -116q35 -83 119 -83q53 0 95 52t59 140q12 59 11 109q0 64 -19 110q-35 82 -117 82q-55 0 -98.5 -51t-59.5 -139zM745 209q-5 29 -4 60q0 46 11 98q25 129 114.5 206.5t210.5 77.5q145 0 215 -104q47 -71 48 -173 q0 -48 -11 -104q-27 -131 -113 -209.5t-200 -78.5q-76 0 -132.5 27.5t-91.5 77.5t-47 122zM899 373q-12 -59 -11 -109q0 -64 19 -111q35 -83 121 -83q51 0 94 51t60 141q12 59 11 109q0 64 -19 110q-35 82 -117 82q-55 0 -98.5 -51t-59.5 -139z" />
<glyph unicode="&#x26;" horiz-adv-x="1495" d="M60 260q-5 35 -5 71q0 45 8 91q14 84 49 149.5t82.5 115.5t104.5 90t119 73q-51 119 -60 210q-3 33 -3 66q0 58 10 115q8 49 34.5 98.5t73.5 87t115.5 62t163.5 24.5q82 0 141 -22.5t95 -60t48 -87.5q7 -27 7 -54q0 -23 -5 -46q-16 -88 -56 -146.5t-93 -102.5t-119 -76 l-133 -66q33 -59 76 -128l98 -153q61 -96 112 -165l87 -119q49 55 83.5 118.5t49.5 137.5q11 61 11 105q0 13 -1 24q-4 51 -22.5 82.5t-52.5 46t-79 16.5q-13 28 -13 61q0 8 1 17q27 4 58.5 13.5t62.5 21.5t58.5 27.5t43.5 29.5q88 -33 111 -117q11 -40 11 -91 q0 -56 -13 -124q-25 -127 -90.5 -237.5t-161.5 -196.5q51 -55 82 -70.5t55 -15.5q25 0 48.5 10.5t50.5 40.5q37 -23 57 -63q-37 -66 -91.5 -103.5t-127.5 -37.5q-27 0 -52.5 4t-52 16t-56.5 36.5t-69 63.5q-100 -57 -207.5 -88.5t-214.5 -31.5q-139 0 -229 37.5t-139.5 99 t-60.5 141.5zM242 434q-6 -34 -6 -67q0 -35 7 -68q13 -63 49 -110.5t94 -75t142 -27.5q88 0 170 21.5t156 60.5l-93 124l-120 169q-59 86 -103 159.5t-77 137.5q-82 -53 -139 -128t-80 -196zM532 1119q10 -69 60 -177q98 53 172 119.5t94 173.5q5 29 5 53q0 55 -25 86 q-37 45 -115 45q-80 0 -128 -49t-60 -125q-7 -31 -7 -66q-1 -29 4 -60z" />
<glyph unicode="'" horiz-adv-x="415" d="M272 1028q16 111 28.5 219.5t18.5 214.5q27 4 62 16.5t57 26.5q25 -10 34 -34q4 -11 4 -25q0 -16 -5 -35q-25 -74 -51.5 -170t-61.5 -235q-25 0 -46.5 4t-39.5 18z" />
<glyph unicode="(" horiz-adv-x="626" d="M117 -31q-24 140 -24 279q0 151 28 301q25 141 65.5 267t107 248t159 244t219.5 255q8 1 16 1q38 0 60 -26q-94 -100 -164 -201.5t-123 -217t-91 -246t-65 -283.5q-45 -264 -45 -492q0 -377 123 -655q-19 -16 -51 -16q-10 0 -21 2q-145 249 -194 540z" />
<glyph unicode=")" horiz-adv-x="620" d="M-125 -555q98 121 172 236.5t129 241.5t94 263.5t68 298.5q40 230 40 428q0 77 -6 149q-22 257 -122 478q26 23 63 23h6q147 -289 197 -551q25 -131 25 -263t-25 -264q-27 -156 -72 -292t-112.5 -263t-161.5 -249.5t-219 -251.5q-13 -3 -25 -3q-30 0 -51 19z" />
<glyph unicode="*" horiz-adv-x="960" d="M266 1194q16 84 70 123q47 -43 109 -91l126 -96q10 76 15.5 146t9.5 151q12 2 26 2q21 0 46 -4q41 -6 69 -24q-29 -61 -55.5 -133t-50.5 -152q76 12 145.5 27.5t149.5 40.5q12 -29 18 -69q3 -17 3 -33q0 -21 -5 -40q-68 4 -147.5 7.5t-157.5 5.5q37 -70 73 -130l81 -130 q-23 -23 -58 -37.5t-71 -20.5q-14 63 -36 140t-46 151q-55 -55 -100.5 -107.5t-96.5 -117.5q-74 39 -94 106q55 33 122 78l130 90q-68 35 -133 62z" />
<glyph unicode="+" horiz-adv-x="1122" d="M76 504q0 8 -1 15q0 57 27 95h430l84 445q29 11 56 11t53 -11l-45 -224q-23 -110 -43 -221h440q1 -8 1 -16q0 -51 -23 -88h-439q-25 -125 -45 -246l-43 -248q-21 -6 -42 -6q-8 0 -16 1q-30 3 -50 20l90 477q-115 0 -227.5 -1t-206.5 -3z" />
<glyph unicode="," horiz-adv-x="444" d="M-74 -338q57 53 102.5 111.5t63.5 108.5q10 27 10 50q0 21 -8 38q-16 38 -82 55q0 33 8.5 71.5t24.5 61.5q43 4 97.5 21.5t84.5 37.5q37 -20 48 -70q5 -20 5 -45q0 -37 -10 -86q-18 -100 -93 -206.5t-179 -190.5q-25 0 -43.5 12.5t-28.5 30.5z" />
<glyph unicode="-" horiz-adv-x="722" d="M70 487q4 49 11 82t25 62h576q-2 -47 -9 -78t-20 -59q-104 0 -251.5 -1.5t-331.5 -5.5z" />
<glyph unicode="." horiz-adv-x="393" d="M14 119q8 41 41 69.5t78 28.5q49 0 79 -37q22 -27 22 -66q0 -13 -3 -28q-10 -47 -38.5 -74.5t-73.5 -27.5q-57 0 -87 36q-21 26 -21 65q-1 16 3 34z" />
<glyph unicode="/" horiz-adv-x="606" d="M-74 45l774 1468q31 -12 50.5 -26t33.5 -37l-395 -731l-379 -737q-31 8 -50.5 21t-33.5 42z" />
<glyph unicode="0" horiz-adv-x="1247" d="M93 338q-12 54 -11 114q0 63 12 132q23 111 78 199.5t136 153t180.5 100.5t213.5 36q129 0 229.5 -42t162 -118.5t84.5 -183.5q11 -51 10 -107q0 -61 -12 -128q-25 -115 -78.5 -208t-131 -162t-176 -105.5t-208.5 -36.5q-133 0 -235.5 44t-166 122.5t-87.5 189.5z M287 397q12 -98 53 -168.5t109.5 -109.5t162.5 -39q123 0 219.5 92t137.5 287q13 73 13 138q0 36 -4 70q-11 95 -51 163.5t-107.5 105.5t-157.5 37q-143 0 -238.5 -97.5t-126.5 -261.5q-15 -77 -15 -145q1 -37 5 -72z" />
<glyph unicode="1" horiz-adv-x="667" d="M12 -6q0 53 17 90q43 4 70.5 14.5t45 29.5t29.5 52t23 88l98 518q8 43 8 75q0 45 -17 66q-30 34 -118 44q-4 20 -5 42.5t3 47.5q117 -6 250 -6q131 0 258 6q-2 -25 -6 -47.5t-15 -42.5q-39 -6 -66.5 -17.5t-46 -31t-30.5 -52t-21 -84.5l-98 -518q-11 -51 -11 -83 q0 -36 15 -57q14 -19 44 -28.5t75 -15.5q6 -26 6 -54q0 -17 -2 -36q-125 6 -254 6q-61 0 -129 -1t-123 -5z" />
<glyph unicode="2" horiz-adv-x="894" d="M-45 82l117 91l127 97l120 94l103 76q90 68 148.5 151t74.5 167q6 31 6 58q0 61 -28 106q-41 63 -129 63q-82 0 -150 -74.5t-117 -232.5q-53 0 -92 18q43 133 49 275q88 53 176.5 77.5t188.5 24.5q164 0 249 -73q65 -55 64 -145q0 -28 -6 -60q-10 -49 -32.5 -92.5 t-57.5 -84t-84 -81.5l-113 -91l-65 -50l-89 -67l-96 -74l-86 -69q43 4 81 4h81q55 0 98.5 -3t77.5 -3q37 0 68 26t51 109q27 2 52.5 -3t41.5 -13q-12 -70 -19 -137.5t-7 -120.5q-10 -25 -30.5 -38t-55.5 -13q-61 0 -136 3t-186 3q-96 0 -184 -1t-195 -5q-18 28 -18 63 q0 12 2 25z" />
<glyph unicode="3" horiz-adv-x="888" d="M-66 -301q2 53 46 78q29 -16 73.5 -26.5t112.5 -10.5q150 0 257 77t136 216q7 37 7 71q0 25 -4 49q-9 54 -46 93t-99.5 61.5t-152.5 22.5q-14 12 -21 35.5t-1 48.5q334 104 381 352q6 31 6 58q0 57 -27 98q-39 59 -125 59q-82 0 -141.5 -68.5t-114.5 -234.5 q-29 -4 -58.5 0t-51.5 14q23 61 33 134t14 141q70 51 160 78.5t184 27.5q86 0 153.5 -19.5t111.5 -58.5t60 -95q9 -30 9 -64q0 -30 -7 -62q-16 -84 -94 -165t-203 -148q61 -12 113.5 -44t84.5 -83t41 -123q3 -24 3 -50q0 -52 -12 -112q-20 -94 -74.5 -169t-133.5 -128 t-180.5 -82.5t-217.5 -29.5q-70 0 -127.5 14t-94.5 45z" />
<glyph unicode="4" horiz-adv-x="966" d="M-47 76l404 490l393 501q27 0 52 -5t42 -13l-158 -869h117q43 0 67 -33q-16 -31 -28.5 -68.5t-18.5 -78.5h-170l-59 -324q-90 -6 -166 -36q-22 14 -22 51q0 10 2 22l53 285q-176 -2 -290 -4t-189 -6q-18 18 -23.5 38.5t-5.5 49.5zM160 180h332l51 273q18 106 31.5 171.5 t31.5 120.5l-96 -127l-145 -188l-101 -126q-49 -63 -104 -124z" />
<glyph unicode="5" horiz-adv-x="851" d="M-98 -301q6 49 41 78q39 -16 84 -26.5t112 -10.5q72 0 137.5 23.5t117.5 66.5t88 102.5t53 130.5q8 42 8 80q0 118 -82 197q-109 104 -336 127q-37 18 -39 57l172 537q88 -4 175 -5t190 -1q72 0 103.5 34.5t39.5 77.5l22 2q40 0 74 -18q-16 -53 -24.5 -117.5 t-12.5 -130.5q-25 -39 -75 -39q-121 0 -235 -1t-224 -9l-66 -215q129 -14 232.5 -60.5t172 -118t97.5 -164.5q16 -52 16 -109q0 -45 -10 -93q-18 -100 -71.5 -184t-134.5 -144.5t-185 -93t-223 -32.5q-59 0 -117.5 14t-99.5 45z" />
<glyph unicode="6" horiz-adv-x="1005" d="M72 339q-4 36 -4 75q0 84 18 182q33 166 117 300t208 230.5t277.5 153.5t321.5 66q12 -17 12 -42q0 -14 -4 -30q-295 -55 -464 -187.5t-239 -332.5q68 45 129.5 62.5t133.5 17.5q98 0 171.5 -33t117.5 -91.5t59 -141.5q6 -36 6 -76q0 -51 -10 -109q-16 -90 -58.5 -165 t-103 -127t-137 -80.5t-162.5 -28.5q-115 0 -197 43t-131 121.5t-61 192.5zM261 391q3 -98 32 -167.5t78 -107.5t116 -38q86 0 152 73.5t88 196.5q10 56 11 104q0 93 -40 158q-59 98 -182 99q-72 0 -123 -13.5t-104 -44.5l-8 -41q-20 -106 -20 -195v-24z" />
<glyph unicode="7" horiz-adv-x="851" d="M109 -231q0 78 25.5 166t94 212.5t187.5 297.5l299 421h-299q-47 0 -79 -5t-56.5 -18.5t-46 -41t-41.5 -72.5q-57 0 -84 27q25 70 44 150.5t31 154.5q43 -2 96 -3l102 -2q50 -1 96 -1h85h71q32 0 66.5 1t78.5 2t102 3q25 -18 28 -68l-191 -276l-129 -194 q-52 -81 -84 -135l-59 -101q-29 -55 -48 -108.5t-32.5 -114t-21.5 -132t-14 -159.5q-43 -23 -90 -61t-74 -70q-18 4 -37.5 29.5t-19.5 97.5z" />
<glyph unicode="8" horiz-adv-x="950" d="M29 356q25 117 109.5 200t238.5 159q-111 88 -147 175q-22 53 -22 114q0 38 9 79q10 51 43 98.5t86 84.5t124 57t159 20q184 0 263 -85q58 -62 58 -153q0 -33 -8 -71q-10 -53 -37.5 -96t-65.5 -79t-84 -64.5t-96 -53.5q141 -119 184 -229q25 -66 25 -139q0 -50 -12 -105 q-12 -66 -50 -119t-96.5 -91t-133 -57t-160.5 -19q-217 0 -320 95q-76 71 -76 192q0 40 9 87zM208 229q9 -55 38.5 -91t76 -52t107.5 -16q88 0 151.5 42t80.5 144q9 40 9 77q0 12 -1 24q-4 48 -26.5 95.5t-69 97.5t-121.5 107q-113 -57 -168.5 -126.5t-71.5 -168.5 q-9 -47 -9 -86q0 -25 4 -47zM410 1030q0 -35 17 -70.5t54 -75.5t103 -87q74 43 116.5 93t59.5 126q7 36 7 66q0 21 -3 39q-8 46 -30.5 75t-57.5 44t-74 15q-61 0 -115.5 -38.5t-70.5 -112.5q-6 -39 -6 -74z" />
<glyph unicode="9" horiz-adv-x="999" d="M-27 -287q289 51 461 192.5t250 348.5q-63 -43 -122.5 -58.5t-127.5 -15.5q-203 0 -289 133q-58 90 -58 223q0 63 13 136q18 90 59.5 164.5t100.5 127t135 81t162 28.5q117 0 200 -43t130 -123t59 -193q4 -34 4 -71q0 -85 -20 -184q-33 -174 -119 -319.5t-210 -253 t-281.5 -172t-331.5 -72.5q-15 22 -15 71zM285 538q8 -71 35.5 -124.5t72.5 -82t103 -28.5q68 0 119 12.5t102 40.5q12 45 18 88q19 102 19 189v31q-4 98 -31 167.5t-77 107.5t-116 38q-88 0 -151.5 -75t-85.5 -208q-11 -57 -11 -108q0 -24 3 -48z" />
<glyph unicode=":" horiz-adv-x="395" d="M27 186q10 41 41.5 70t76.5 29q49 0 80 -37q22 -26 22 -63q0 -15 -3 -31q-10 -47 -38 -75t-75 -28q-57 0 -87 37q-21 26 -21 65q0 15 4 33zM152 811q8 41 40.5 69.5t77.5 28.5q49 0 79 -37q22 -27 22 -66q0 -13 -2 -28q-10 -49 -39 -75.5t-74 -26.5q-57 0 -87 37 q-21 26 -21 64q0 16 4 34z" />
<glyph unicode=";" horiz-adv-x="444" d="M-74 -338q57 53 102.5 111.5t63.5 108.5q10 27 10 50q0 21 -8 38q-16 38 -82 55q0 33 8.5 71.5t24.5 61.5q43 4 97.5 21.5t84.5 37.5q37 -20 48 -70q5 -20 5 -45q0 -37 -10 -86q-18 -100 -93 -206.5t-179 -190.5q-25 0 -43.5 12.5t-28.5 30.5zM182 811q8 41 41 69.5 t76 28.5q49 0 80 -37q23 -28 23 -66q0 -13 -3 -28q-10 -49 -38.5 -75.5t-75.5 -26.5q-57 0 -87 37q-20 25 -20 61q-1 17 4 37z" />
<glyph unicode="&#x3c;" horiz-adv-x="917" d="M78 506q-2 11 -2 22q0 14 3 30q5 28 30 56l827 574q31 -6 52.5 -22.5t33.5 -39.5l-840 -577l621 -520q2 -29 -7.5 -62t-25.5 -47l-180 159l-169 145l-168 140z" />
<glyph unicode="=" horiz-adv-x="1064" d="M47 299v17q0 60 27 100h911q-4 -63 -33 -111h-216q-114 0 -230 -1l-235 -2q-118 -1 -224 -3zM106 647q-1 11 0 22q0 57 27 95h911q-4 -63 -34 -111h-214q-114 0 -232 -1l-234 -2q-118 -1 -224 -3z" />
<glyph unicode="&#x3e;" horiz-adv-x="948" d="M-10 43l805 498l-645 600q16 23 43.5 35t56.5 16l627 -596q15 -29 15 -67q0 -30 -9 -56l-234 -137l-208 -126l-205 -130l-226 -146q-25 30 -24 73q0 17 4 36z" />
<glyph unicode="?" horiz-adv-x="946" d="M268 119q8 41 41 69.5t76 28.5q49 0 80 -37q23 -28 23 -67q0 -13 -3 -27q-10 -47 -38.5 -74.5t-75.5 -27.5q-57 0 -86 36q-20 26 -20 64q-1 17 3 35zM293 1169l19 68q9 31 14.5 58.5t8.5 56t5 63.5q35 33 118 61.5t181 28.5q158 0 238 -83q59 -61 58 -152q0 -33 -7 -70 q-14 -68 -47 -120t-75 -98t-91 -89t-91 -90t-76 -104.5t-46 -131.5q-6 -25 -9 -69q-1 -19 -2 -36q0 -22 3 -38q-18 -10 -35 -13t-35 -3q-27 23 -42 94q-7 35 -7 73q0 42 8 89q23 106 74 177.5t107.5 130t104.5 114t60 128.5q7 34 7 65q0 47 -17 82q-29 58 -111 58 q-72 0 -125 -62.5t-98 -209.5q-33 0 -53.5 4t-38.5 18z" />
<glyph unicode="@" horiz-adv-x="1703" d="M74 151q-15 84 -16 177q0 105 20 221q33 188 117 344t205.5 266.5t278.5 172t333 61.5q180 0 316 -54.5t222 -155t117 -244.5q15 -72 15 -153t-15 -172q-25 -135 -77 -249.5t-126.5 -200.5t-166 -134t-191.5 -48q-72 0 -104.5 34.5t-38.5 84.5q-2 17 -2 35q0 35 8 73 q12 57 30 100h-2q-29 -57 -70.5 -115.5t-92 -105.5t-105.5 -76.5t-115 -29.5q-106 0 -150 105q-21 51 -21 132q0 86 24 207q25 123 77 225.5t128 176t167 115.5t195 42q29 0 61.5 -5t55.5 -13q33 0 66.5 4t54.5 14q8 -4 15 -12t9 -29.5t-2 -59.5t-18 -102l-105 -473 q-14 -59 -17 -94t1 -53.5t16.5 -22.5t28.5 -4q63 0 120.5 34t105 95.5t82 148.5t51.5 193q16 86 16 163q0 69 -13 131q-28 130 -104 220t-196.5 138.5t-276.5 48.5q-145 0 -273 -53.5t-229.5 -149.5t-172 -232.5t-97.5 -300.5q-20 -115 -20 -218q0 -79 12 -150 q27 -166 109.5 -286t216 -184.5t311.5 -64.5q180 0 329.5 60.5t272.5 158.5q45 -8 53 -51q-119 -119 -288 -190.5t-398 -71.5q-203 0 -358.5 69.5t-250.5 199t-128 308.5zM651 248q18 -96 80 -96q29 0 74 37.5t93 109.5t96 175.5t79 234.5l37 147q-55 20 -129 21 q-66 0 -116 -26t-89 -73t-64.5 -111.5t-39.5 -144.5q-26 -121 -27 -204q0 -39 6 -70z" />
<glyph unicode="A" horiz-adv-x="1447" d="M-57 -6q0 23 3 46t13 44q31 8 54.5 23.5t46 41t50 67.5t62.5 103l320 550l311 556q20 8 42.5 10.5t41.5 2.5l157 -578l146 -581q14 -59 26.5 -94t26.5 -54.5t30.5 -30t41.5 -16.5q6 -23 7 -45v-15q0 -15 -1 -30q-53 4 -119.5 5t-116.5 1q-53 0 -114.5 -1t-124.5 -5 q0 23 3 46t13 44q47 6 76 16.5t41 28.5t12 49t-12 80l-49 205q-133 0 -284.5 -2t-278.5 -8l-88 -152q-37 -61 -53 -100q-12 -29 -11 -50q0 -7 1 -13q5 -24 28.5 -36t64.5 -18q7 -31 8 -64q0 -13 -2 -26q-49 4 -97 5t-95 1q-55 0 -94 -1t-86 -5zM428 559h477 q-23 96 -48.5 192.5t-53.5 190.5q-16 61 -27.5 109.5t-21.5 113.5l-61 -117l-62 -120l-100 -185z" />
<glyph unicode="B" horiz-adv-x="1245" d="M53 -6q2 53 17 90q49 6 78.5 18.5t48 36t29 62.5t22.5 100l151 868q7 41 7 71v13q-2 33 -18.5 51.5t-45.5 25.5t-68 11q-4 23 -6 44.5t2 46.5q74 -4 124 -5.5t108 -1.5q76 0 151.5 3.5t147.5 3.5q223 0 327 -81q78 -61 79 -183q0 -41 -9 -89q-23 -117 -121 -202.5 t-239 -104.5q203 -10 291 -112q62 -71 62 -189q0 -52 -11 -113q-35 -162 -180.5 -260t-381.5 -98h-133q-72 0 -147 -1l-149 -2q-73 -1 -136 -3zM451 119q18 -20 54 -25.5t91 -5.5q137 0 233.5 71.5t120.5 188.5q11 56 11 103q0 111 -62 167q-88 80 -332 80h-53l-72 -417 q-11 -60 -11 -98q0 -42 20 -64zM532 793h60q172 0 268 72.5t119 193.5q7 39 7 72q0 90 -52 141q-72 70 -213 69q-20 0 -44 -2t-52 -10z" />
<glyph unicode="C" horiz-adv-x="1296" d="M109 692q25 199 106.5 341.5t197 233.5t252 135t271.5 44q133 0 237.5 -31t210.5 -94q-29 -72 -44 -149.5t-25 -170.5q-30 -11 -62 -11q-26 0 -53 7q8 63 8 113q0 39 -5 71q-11 71 -45 109.5t-87 53t-119 14.5q-135 0 -243.5 -51.5t-187.5 -140.5t-127 -208.5t-62 -255.5 q-5 -49 -5 -96q0 -67 10 -130q17 -108 69.5 -188.5t138.5 -128.5t211 -48q115 0 220 31.5t202 88.5q29 -29 32 -79q-125 -88 -250.5 -129t-261.5 -41q-162 0 -282.5 54t-195.5 151.5t-103 226.5q-17 75 -17 157q0 59 9 121z" />
<glyph unicode="D" horiz-adv-x="1527" d="M53 -6q4 53 17 90q47 6 77.5 18.5t49 35t30 62.5t23.5 101l151 868q6 37 6 65v19q-3 33 -19.5 51.5t-45.5 26.5t-68 12q-6 23 -7 45.5t3 43.5q68 -4 147 -5.5t144 -1.5q68 0 135.5 3.5t130.5 3.5q94 0 189.5 -12.5t179.5 -44.5t153.5 -86t113.5 -138t58 -200q4 -35 4 -73 q0 -89 -22 -196q-31 -176 -109.5 -303t-198.5 -212t-272.5 -126t-334.5 -41h-6h-124q-67 0 -136 -1l-139 -2q-69 -1 -130 -3zM434 185.5q0 -35.5 16.5 -55t51.5 -28t94 -8.5q129 0 242.5 32t201.5 100.5t151.5 176t92.5 261.5q22 113 22 204q0 67 -12 122 q-29 130 -102.5 208t-183 110.5t-234.5 32.5q-43 0 -79 -4t-70 -12l-181 -1044q-10 -60 -10 -95.5z" />
<glyph unicode="E" horiz-adv-x="1157" d="M41 -6q0 49 14 90q47 6 77 18.5t49.5 35t29.5 62.5t20 101l152 868q9 47 9 77q0 36 -14 57q-13 18 -40 25t-66 13q-4 20 -5 43t3 48q109 -4 202 -5.5t151 -1.5q123 0 256 1t299 6q-10 -80 -16 -175q-2 -43 -2 -81q0 -47 3 -89q-36 -15 -92 -14h-14q-2 68 -11.5 117 t-39 81t-89 46t-159.5 14h-152l-96 -563h86q66 0 113 7t78.5 26.5t49 53.5t25.5 85q29 4 50.5 5t52.5 -3l-24 -101q-11 -50 -21 -132q-10 -76 -15.5 -133.5t-9.5 -108.5q-31 4 -54.5 9t-43.5 18q1 17 1 31q0 81 -37 112q-44 37 -173 37h-94l-64 -373q-10 -68 -10 -107.5 t16.5 -61t52 -30t95.5 -8.5h8q98 0 161.5 18.5t106.5 52.5t75 84t62 113q31 -4 53.5 -14t43.5 -33q-37 -66 -67 -147.5t-48 -173.5q-94 4 -191.5 5t-216.5 1q-154 0 -279.5 -1t-250.5 -5z" />
<glyph unicode="F" horiz-adv-x="1087" d="M53 -6q2 53 17 90q47 8 75.5 20.5t47 33t27.5 54t20 87.5l155 890q8 47 8 78t-13 50.5t-40.5 28.5t-75.5 15q-6 28 -6 57q0 17 2 34q68 -4 153 -5.5t210 -1.5q123 0 257 1t298 6q-10 -80 -14 -175q-2 -47 -2.5 -89.5t2.5 -80.5q-36 -15 -93 -14h-14q-2 68 -11 117t-39 81 t-89.5 46t-159.5 14h-152l-104 -610h102q66 0 112 8t78 28.5t49 54.5t28 87q27 4 49 5t51 -3l-24 -102q-11 -49 -21 -133q-10 -76 -15.5 -132.5t-9.5 -109.5q-29 4 -53 9t-43 18q1 16 1 31q0 81 -38 112q-45 37 -172 37h-108l-58 -332q-10 -61 -12 -99t12.5 -59.5t51 -35 t98.5 -21.5q6 -20 8 -40.5t-2 -49.5q-80 4 -137.5 5t-128.5 1q-78 0 -141.5 -1t-135.5 -5z" />
<glyph unicode="G" horiz-adv-x="1400" d="M109 692q25 201 106.5 343.5t199 233.5t258 134t283.5 43q164 0 278 -31t216 -94q-29 -74 -44 -148.5t-26 -168.5q-27 -11 -59 -12q-26 0 -55 7q6 54 5 98q0 51 -7 90q-14 71 -53.5 108.5t-99.5 50t-138 12.5q-139 0 -251 -47t-194 -135.5t-131 -208t-63 -265.5 q-6 -58 -6 -115t6 -112q12 -111 58 -198t131 -140t212 -53q63 0 114.5 6t106.5 29q23 8 38.5 19.5t26.5 33t19.5 56t18.5 91.5q16 92 20 146q1 13 1 24q0 36 -10 58q-13 29 -46 38t-92 15q-5 25 -5 51q0 19 3 39q70 -4 132 -5t128 -1h58q28 0 56.5 1t60.5 2t71 3 q-2 -53 -19 -90q-33 -6 -55.5 -14t-37.5 -35t-29.5 -77t-28.5 -134q-16 -84 -19 -127v-12q0 -35 10 -62q-102 -68 -251.5 -112.5t-327.5 -44.5q-158 0 -273.5 52t-188.5 147t-101 226q-16 73 -16 153q0 64 10 132z" />
<glyph unicode="H" horiz-adv-x="1593" d="M61 -6q0 53 17 90q43 4 71.5 14.5t46 29.5t27.5 53t21 87l155 889q7 43 7 73v14q-2 34 -17.5 53.5t-44.5 28.5t-72 15q-4 20 -5 43t3 48q115 -6 252 -7q131 0 258 7q-2 -25 -5 -47.5t-13 -43.5q-41 -6 -68.5 -16t-45 -30.5t-30 -53.5t-22.5 -84l-64 -381h644l65 381 q7 43 7 73q0 8 -1 14q-2 34 -17.5 53.5t-44 28.5t-71.5 15q-4 20 -5 43t3 48q115 -6 252 -7q131 0 258 7q-2 -25 -5 -47.5t-13 -43.5q-41 -6 -69 -16t-45 -30.5t-29.5 -53.5t-22.5 -84l-154 -889q-9 -48 -9 -80q0 -39 16 -59q15 -18 43 -28.5t75 -16.5q6 -26 6 -54 q0 -17 -2 -36q-127 6 -256 6q-59 0 -129 -1t-125 -5q0 53 17 90q43 4 70.5 14.5t46 29.5t28.5 53t20 87l72 418h-149q-86 0 -174.5 -1t-173.5 -3t-148 -6l-70 -408q-9 -48 -9 -80q0 -39 17 -59q15 -18 42.5 -28.5t74.5 -16.5q6 -26 7 -54q0 -17 -3 -36q-127 6 -256 6 q-59 0 -129 -1t-125 -5z" />
<glyph unicode="I" horiz-adv-x="751" d="M61 -6q0 53 17 90q43 4 71.5 14.5t46 29.5t27.5 53t21 87l155 889q7 43 7 73v14q-2 34 -17.5 53.5t-44.5 28.5t-72 15q-4 20 -5 43t3 48q115 -6 252 -7q131 0 258 7q-2 -25 -5 -47.5t-13 -43.5q-41 -6 -68.5 -16t-45 -30.5t-30 -53.5t-22.5 -84l-154 -889q-9 -48 -9 -80 q0 -39 17 -59q15 -18 42.5 -28.5t74.5 -16.5q6 -26 7 -54q0 -17 -3 -36q-127 6 -256 6q-59 0 -129 -1t-125 -5z" />
<glyph unicode="J" horiz-adv-x="708" d="M-111 -453q66 45 122.5 97.5t99.5 115t73.5 142.5t46.5 180l191 1087q7 38 7 67q0 36 -14 58q-13 20 -42 30.5t-78 16.5q-6 23 -6 53q0 18 2 38q45 -4 111.5 -5.5t134.5 -1.5h76q34 0 64 1l59 2q30 1 67 4q-2 -51 -17 -91q-41 -6 -69.5 -17t-48 -32.5t-31.5 -56.5 t-21 -88l-155 -893q-27 -147 -58.5 -261t-89 -204t-150.5 -166t-239 -147q-16 10 -25.5 28t-9.5 43z" />
<glyph unicode="K" horiz-adv-x="1349" d="M61 -6q0 53 17 90q43 4 71.5 14.5t46 29.5t27.5 53t21 87l155 889q7 43 7 73v14q-2 34 -17.5 53.5t-44.5 28.5t-72 15q-4 20 -5 43t3 48q115 -6 252 -7q131 0 258 7q-2 -25 -5 -47.5t-13 -43.5q-41 -6 -68.5 -16t-45 -30.5t-30 -53.5t-22.5 -84l-68 -403l418 397 q55 53 82 87t32 56.5t-9.5 32.5t-44.5 14l-9 45q-4 23 0 46q63 -4 112.5 -5.5t117.5 -1.5q59 0 102 1t105 6q0 -18 -1 -45t-10 -46q-43 -6 -78.5 -15t-72.5 -30.5t-81 -55.5t-99 -87l-396 -371q88 -94 163 -212.5t153 -288.5q35 -74 62.5 -99.5t58.5 -25.5q20 0 34.5 6 t36.5 28q41 -23 64 -67q-55 -68 -110.5 -104.5t-133.5 -36.5q-66 4 -110 45t-78 135q-74 190 -149 321t-167 232l-78 -447q-10 -53 -10 -87t11.5 -53t37 -29.5t66.5 -14.5q6 -26 6 -54q0 -17 -2 -36q-63 4 -118.5 5t-117.5 1q-59 0 -129 -1t-125 -5z" />
<glyph unicode="L" horiz-adv-x="1148" d="M53 -6l4 45q2 23 11 45q47 4 76.5 16.5t49 36t29.5 63.5t21 101l153 868q6 35 6 62q0 48 -19 68q-30 32 -110 42q-4 20 -5 44t1 47q59 -4 121 -5.5t127 -1.5h138q73 0 135 5q0 -49 -17 -89q-49 -6 -79.5 -16t-50 -32.5t-32 -59.5t-22.5 -92l-150 -860q-10 -59 -10 -95 t17.5 -55.5t52.5 -28t92 -8.5h14q88 0 148.5 14.5t105.5 46t80 83t72 124.5q31 -4 52 -14t42 -33q-70 -133 -113 -321q-29 2 -76 3t-100 2t-112 1h-117h-127q-68 0 -137 -1l-139 -2q-69 -1 -132 -3z" />
<glyph unicode="M" horiz-adv-x="1861" d="M-57 -6q0 20 3 43.5t13 46.5q43 10 72.5 28.5t52 53.5t43 90t45.5 145q55 184 105.5 372t93.5 378q12 57 13 92t-11.5 55.5t-39 29.5t-67.5 13q-4 25 -5 46.5t3 44.5q47 -4 87 -5.5t75 -1.5q43 0 78 1t74 6q94 -297 173.5 -590t151.5 -588l334 582l322 596 q47 -4 76.5 -5.5t60.5 -1.5q33 0 73.5 1t79.5 6q0 -47 -14 -91q-41 -4 -68.5 -15t-45 -36.5t-26.5 -66.5t-14 -105q-25 -455 -57 -774q-7 -62 -6 -105v-21q2 -48 14.5 -73.5t37 -39t61.5 -21.5q4 -20 5 -44t-1 -46q-49 4 -119 5t-139 1q-76 0 -138.5 -1t-115.5 -5 q0 47 18 90q49 8 82 22.5t53.5 43t29.5 73.5t15 115q16 170 30.5 353t25.5 382l-305 -547l-318 -534q-20 -8 -41.5 -9t-44.5 -1q-68 279 -143.5 555t-163.5 559l-91 -364l-85 -314q-27 -98 -36 -159q-4 -29 -5 -51q0 -25 6 -44q10 -35 41 -52.5t82 -27.5q4 -23 5 -45.5 t-1 -44.5q-66 4 -120 5t-97 1q-47 0 -95 -1t-122 -5z" />
<glyph unicode="N" horiz-adv-x="1505" d="M51 -6q2 51 15 90q41 6 68.5 22.5t49 48t37 82t31.5 125.5l80 448l78 447l-7 11q-25 41 -51 55t-78 18q-6 24 -6 54q0 17 2 37q31 -4 60.5 -5.5t66.5 -1.5q90 0 146 7l333 -553l318 -560l127 734q12 82 14 135q0 7 1 14q0 44 -12 71q-13 32 -42 46t-76 22q-4 20 -5 43 t3 48q47 -4 98.5 -5.5t94.5 -1.5q49 0 105.5 1t99.5 6q0 -18 -4.5 -44t-12.5 -47q-37 -10 -61.5 -28.5t-42 -53t-31.5 -89t-27 -138.5q-41 -264 -86 -521l-92 -519q-18 -6 -40.5 -8t-47.5 -2l-326 572l-337 566q-29 -186 -62 -368.5t-70 -368.5q-16 -84 -18 -137v-15 q0 -43 10 -72q12 -34 43 -50.5t80 -24.5q6 -22 7 -52q0 -18 -3 -38q-63 4 -125.5 5t-103.5 1q-49 0 -90 -1t-111 -5z" />
<glyph unicode="O" horiz-adv-x="1519" d="M117 461q-13 65 -13 136q0 92 21 194q25 137 95.5 256.5t173 207.5t231.5 139.5t274 51.5q152 0 278 -54.5t206.5 -158t110.5 -256.5q13 -66 13 -142q0 -98 -22 -210q-25 -133 -92.5 -250t-168 -205t-231.5 -138t-282 -50q-158 0 -283 58t-203.5 164.5t-107.5 256.5z M328 523q14 -132 65 -232.5t141.5 -158.5t215.5 -58q102 0 189 41t152.5 114.5t111.5 173t67 218.5q17 97 17 185q0 57 -7 109q-18 135 -75.5 232.5t-145.5 151t-201 53.5q-94 0 -179 -43t-151.5 -118t-114.5 -174t-69 -212q-21 -102 -21 -196q0 -44 5 -86z" />
<glyph unicode="P" horiz-adv-x="1185" d="M53 -6q2 53 17 90q47 8 75.5 20.5t47 33t27.5 54t20 87.5l155 890q8 47 8 78t-13 50.5t-40.5 28.5t-75.5 15q-6 28 -6 57q0 17 2 34q29 -2 68 -4l80 -2q41 -1 79 -1h64q20 0 54 1t73 2.5t82 2.5t80 1q229 0 329 -124q70 -88 70 -226q0 -57 -12 -121 q-20 -100 -68.5 -179.5t-120 -135.5t-164.5 -86t-198 -30q-92 0 -137 25q-2 16 4 44t14 40q20 -6 48 -10t61 -4q143 0 234 81.5t124 247.5q12 63 12 117q0 102 -44 168q-67 100 -250 100q-35 0 -67 -2t-69 -12l-176 -1026q-10 -61 -12 -99t12.5 -59.5t51 -35t98.5 -21.5 q6 -20 8 -40.5t-2 -49.5q-80 4 -137.5 5t-128.5 1q-78 0 -141.5 -1t-135.5 -5z" />
<glyph unicode="Q" horiz-adv-x="1517" d="M117 461q-13 65 -13 136q0 92 21 194q25 137 95.5 256.5t173 207.5t231.5 139.5t274 51.5q152 0 278 -54.5t206.5 -158t110.5 -256.5q13 -66 13 -142q0 -98 -22 -210q-18 -106 -65.5 -201.5t-117 -175.5t-159.5 -139.5t-197 -92.5q92 -29 177 -86t163 -127 q68 -61 102 -77q27 -13 56 -14q7 0 14 1q18 2 34.5 11.5t29.5 21.5q20 -8 35.5 -26.5t21.5 -43.5q-12 -20 -34.5 -44.5t-54.5 -45t-71 -35t-84 -14.5q-86 0 -152.5 37t-131.5 143q-63 102 -138 174t-202 91q-158 0 -283 58t-203.5 164.5t-107.5 256.5zM328 523 q14 -132 65 -232.5t141.5 -158.5t215.5 -58q102 0 189 41t152.5 114.5t111.5 173t67 218.5q17 97 17 185q0 57 -7 109q-18 135 -75.5 232.5t-145.5 151t-201 53.5q-94 0 -179 -43t-151.5 -118t-114.5 -174t-69 -212q-21 -102 -21 -196q0 -44 5 -86z" />
<glyph unicode="R" horiz-adv-x="1370" d="M61 -6q0 23 3.5 46t13.5 44q47 4 75.5 16.5t46 34t27 56t21.5 88.5l153 890q5 30 5 54q0 48 -19 72q-29 36 -115 46q-5 23 -4 50q0 20 2 41q78 -4 137.5 -5.5t133.5 -1.5q88 0 174 3.5t174 3.5q227 0 332 -102q77 -75 77 -195q0 -42 -10 -91q-27 -141 -151.5 -235 t-321.5 -129l47 -69q23 -34 44.5 -74.5t45 -93t49.5 -121.5q37 -90 70 -128t62 -38q20 0 34.5 6t36.5 28q41 -23 64 -67q-55 -68 -110.5 -104.5t-133.5 -36.5q-90 0 -133 68.5t-78 193.5q-41 131 -84 224t-98 177q-28 -3 -53 -3h-13q-31 1 -57 3l-68 -387q-9 -48 -9 -79 q0 -36 12 -55q11 -17 37 -25.5t65 -14.5q4 -23 5 -45.5t-1 -44.5q-41 2 -72 3t-57.5 2t-53.5 1h-63q-74 0 -127.5 -1t-114.5 -5zM524 745q25 -4 44 -4h42q88 0 167 19.5t142.5 57.5t105.5 96.5t56 134.5q8 41 8 75q0 90 -53 144q-74 74 -239 73q-100 0 -172 -18z" />
<glyph unicode="S" horiz-adv-x="968" d="M4 133q23 74 40 147.5t22 145.5q25 10 56.5 11t57.5 -7q-2 -32 -2 -62q0 -139 48 -205q58 -81 218 -81q96 0 164 56.5t84 148.5q5 28 5 53q0 57 -25 100q-37 63 -101.5 116.5t-141.5 103t-140.5 113t-97.5 148.5q-20 51 -20 115q0 43 9 92q25 145 140.5 231.5t308.5 86.5 q109 0 192.5 -28.5t136.5 -71.5q-12 -72 -18 -136.5t-6 -136.5q-34 -14 -74 -14q-20 0 -41 4q-4 164 -58 224.5t-147 60.5q-104 0 -168.5 -47.5t-80.5 -159.5q-3 -20 -3 -39q0 -60 29 -108q39 -62 105.5 -115.5t143.5 -105.5t141.5 -115.5t99.5 -143.5q23 -52 22 -118 q0 -35 -6 -72q-12 -76 -54 -139.5t-102.5 -109.5t-138.5 -69.5t-162 -23.5q-80 0 -144.5 10t-115.5 30.5t-94 48t-82 62.5z" />
<glyph unicode="T" horiz-adv-x="1148" d="M133 1106l21.5 74t21.5 85t18.5 87t14.5 80q88 -4 229.5 -5.5t298.5 -1.5q166 0 312.5 1t234.5 6q-12 -74 -19.5 -159t-7.5 -173q-23 -14 -47 -17.5t-55 -1.5q0 72 -9 123t-34 82t-66.5 44t-107.5 13h-104l-191 -1085q-8 -45 -8 -75.5t14.5 -49t46 -31t88.5 -18.5 q6 -27 7 -55q0 -17 -3 -35q-68 4 -137 5t-133 1q-70 0 -144.5 -1t-131.5 -5q0 53 16 92q49 6 83 17.5t54.5 32t31.5 55t22 88.5l186 1064h-125q-57 0 -99 -14t-75 -47t-56.5 -84t-48.5 -123q-31 0 -56.5 5.5t-41.5 25.5z" />
<glyph unicode="U" horiz-adv-x="1339" d="M209 541l106 628q10 47 11.5 79t-9 51.5t-32 28.5t-56.5 13q-5 21 -4 48q0 20 2 43q74 -4 124 -5.5t112 -1.5q68 0 121 1t131 6q-2 -25 -5 -46.5t-14 -44.5q-49 -4 -80.5 -13t-51 -30.5t-32 -57.5t-22.5 -93l-102 -598q-15 -83 -16 -150q0 -30 3 -57q10 -86 47 -142.5 t97.5 -82t138.5 -25.5q156 0 258 110.5t137 315.5l101 565q12 68 12 112t-13.5 70.5t-41 44t-72.5 31.5q-5 23 -5 50q0 20 3 41q68 -4 116 -5.5t93 -1.5h47q23 0 47 1t52 2.5l65 3.5q0 -45 -19 -91q-45 -14 -74.5 -31.5t-48 -46t-33 -76.5t-26.5 -124l-92 -524 q-51 -287 -185.5 -422t-363.5 -135q-268 0 -371 147q-70 101 -70 257q0 72 15 155z" />
<glyph unicode="V" horiz-adv-x="1380" d="M217 1432q72 -4 126 -5.5t118 -1.5q70 0 129 1t133 6q0 -18 -4 -44t-14 -49q-57 -6 -91 -15t-49 -34q-11 -19 -11 -50q0 -9 1 -18q4 -44 23 -118q53 -193 101 -391.5t95 -415.5q119 201 224.5 397.5t205.5 407.5q31 63 45 103q10 28 10 49q0 9 -2 17q-6 26 -33.5 42 t-82.5 28q-5 23 -5 50q0 20 3 41q45 -4 88 -5.5t104 -1.5q53 0 95 1t104 6q0 -45 -21 -91q-25 -12 -43 -27.5t-40.5 -43t-49 -74.5t-63.5 -121l-281 -532q-143 -264 -309 -543q-16 -10 -40 -13l-20 -2q-13 0 -26 3l-71 307l-71 300l-70 277l-65 244q-18 68 -32.5 110 t-29.5 65.5t-32.5 34.5t-46.5 17q-5 22 -5 48q0 20 3 41z" />
<glyph unicode="W" horiz-adv-x="2029" d="M217 1432q82 -4 135.5 -5.5t98.5 -1.5q53 0 119.5 1t123.5 6q0 -23 -2 -46.5t-12 -46.5q-59 -10 -93 -22t-48 -38q-13 -22 -13 -56q0 -35 13 -115l30 -185l33 -202l32 -207l30 -203l275 553l267 566q26 13 59 12q15 0 31 -2q35 -125 68 -263.5t62.5 -280.5t55.5 -285 l48 -277q92 180 173 358t155 361q35 82 48 133q9 33 8 57q0 13 -2 24q-7 30 -37 46t-85 28q-5 25 -5 51q0 19 3 40q43 -4 89 -5.5t101 -1.5q53 0 105.5 1t95.5 6q0 -45 -18 -91q-27 -10 -48.5 -28.5t-45 -53t-51 -90t-64.5 -143.5l-230 -513q-117 -255 -249 -513 q-18 -10 -42 -12t-45 2l-44 272q-24 143 -52 288.5t-61 289.5l-66 274q-129 -283 -270 -563l-287 -551q-18 -10 -43 -13q-11 -1 -21 -2l-28 3q-47 332 -94 613l-88 515q-12 72 -22.5 114t-22 64.5t-25.5 31.5t-39 17q-8 27 -8 58q0 15 2 31z" />
<glyph unicode="X" horiz-adv-x="1300" d="M-23 -6q0 47 19 90q27 8 53.5 21.5t57 36t68.5 60.5t91 97l168 197q82 98 162 204l-93 200l-100 206l-61 120q-23 44 -41 67.5t-35.5 32.5t-46.5 17q-5 25 -5 50q0 19 3 39q84 -4 136.5 -5.5t109.5 -1.5q61 0 120.5 1t139.5 6q0 -47 -18 -93q-55 -8 -85 -22t-39 -40 q-4 -12 -5 -26q0 -18 7 -41q11 -41 42 -102l139 -297q55 66 110 140l103 143q47 66 65 110q17 41 17 67q0 32 -24 48q-22 14 -58 22q-5 26 -5 52q0 19 3 39q51 -4 93 -5.5t85 -1.5q51 0 104.5 1t106.5 6q0 -18 -4 -43t-14 -48q-29 -4 -52.5 -14t-51.5 -37.5t-61 -75.5 l-85 -122l-140 -195l-149 -190l84 -194l84 -200q29 -74 51.5 -114.5t45 -63t45 -34t54.5 -19.5q5 -20 5 -46q0 -19 -2 -42q-47 2 -81 3t-63 2t-53 1h-57q-68 0 -137.5 -1t-116.5 -5q0 45 20 92q49 6 77 18.5t36 36.5q3 10 3 24q0 19 -6 44q-11 43 -38 113l-58 139 q-29 70 -59 135l-115 -150l-116 -145q-72 -91 -73 -140q0 -56 79 -77q4 -23 4 -45.5t-2 -44.5q-68 4 -117 5t-104 1q-61 0 -111 -1t-109 -5z" />
<glyph unicode="Y" horiz-adv-x="1228" d="M214 1395q0 17 3 37q59 -4 118.5 -5.5t115.5 -1.5q63 0 124.5 1t141.5 6q0 -25 -5 -47.5t-14 -45.5q-104 -14 -131 -49q-12 -15 -11 -39q0 -31 19 -77q43 -96 88 -211l85 -232l80 113l76 104l65 89q29 40 47 69q75 108 75 160v7q-5 52 -102 68q-5 23 -4 50q0 20 2 41 q53 -4 97 -5.5t106 -1.5q51 0 94 1t94 6q0 -45 -20 -91q-18 -6 -33.5 -17t-41.5 -37.5t-64 -78.5l-101 -137l-155 -212l-179 -234l-65 -367q-8 -45 -8 -74.5t15 -48t46 -31t88 -20.5q6 -27 7 -55q0 -17 -3 -35q-68 4 -137.5 5t-132.5 1q-70 0 -144.5 -1t-130.5 -5 q0 53 15 92q51 8 84 20.5t53.5 32t31.5 53t21 87.5l60 339l-115 293q-55 137 -98 230q-27 59 -46.5 96t-35 58.5t-31.5 30.5t-39 17q-5 30 -5 52z" />
<glyph unicode="Z" horiz-adv-x="1138" d="M-47 80l499 621l474 632h-279q-70 0 -121 -10t-92 -40t-74.5 -83t-68.5 -139q-70 6 -109 41q27 61 52.5 151t37.5 179q63 -2 120 -4l114 -2q57 -1 120 -1h136h102q49 0 99 1l102 2q53 1 117 4q27 -31 26 -86l-476 -633l-492 -619h307q96 0 160.5 9.5t109.5 37t79 80.5 t73 141q66 -12 104 -51q-27 -63 -52.5 -148t-39.5 -169q-76 2 -143 3l-133 2q-66 1 -131 1h-136h-132q-58 0 -111 -1l-106 -2q-52 -1 -116 -3q-22 35 -20 86z" />
<glyph unicode="[" horiz-adv-x="632" d="M-80 -567l375 2132q37 -2 89 -3t109.5 -1t111.5 1t93 3q14 -22 14 -50q0 -14 -3 -30q-86 -6 -142.5 -15.5t-91.5 -30t-52 -56t-28 -97.5l-280 -1595q-5 -32 -5 -56q0 -15 2 -27q5 -32 30.5 -51.5t74.5 -28.5t125 -11q8 -16 9 -39t-9 -45q-31 2 -87 3t-119.5 1t-123 -1 t-92.5 -3z" />
<glyph unicode="\" horiz-adv-x="614" d="M199 1495q35 16 70 16q17 0 34 -4l217 -1507q-20 -10 -48 -14q-18 -3 -36 -3q-9 0 -18 1q-49 381 -103.5 756.5t-115.5 754.5z" />
<glyph unicode="]" horiz-adv-x="628" d="M-78 -567q-1 6 0 12q0 15 3 32q5 24 18 40q80 2 133 10t86 24.5t49 45t25 71.5l284 1618q9 43 9 74q0 13 -2 23q-5 36 -31.5 56.5t-78.5 30t-134 15.5q0 23 7 45t19 35q39 -2 94.5 -3t112.5 -1t111.5 1t89.5 3l-375 -2132q-43 2 -99.5 3t-115.5 1t-113.5 -1t-91.5 -3z " />
<glyph unicode="^" horiz-adv-x="1005" d="M229 907l494 539q31 18 57 20q9 1 18 1q17 0 33 -3q25 -66 59 -144l71 -162l72 -162l69 -144q-16 -10 -41 -17.5t-49 -3.5l-238 543l-134 -144l-135 -149l-129 -144l-114 -130q-33 39 -33 100z" />
<glyph unicode="_" horiz-adv-x="1054" d="M-82 -309v16q0 60 27 98h911q-4 -63 -33 -108h-216q-114 0 -230 -1l-235 -2q-118 -1 -224 -3z" />
<glyph unicode="`" horiz-adv-x="559" d="M287 1485q43 16 96 18h12q47 0 90 -14q14 -88 36 -176t57 -183q-12 -5 -30 -5h-6q-22 1 -38 10q-39 80 -98.5 178t-118.5 172z" />
<glyph unicode="a" horiz-adv-x="1017" d="M61 87q-22 52 -22 134q0 86 24 205q25 123 78.5 225.5t128 176t166.5 115.5t195 42q29 0 61.5 -5t57.5 -13q31 0 64.5 4t53.5 14q8 -4 16.5 -12t10.5 -29.5t-2 -59.5t-21 -102l-104 -473q-12 -59 -18.5 -95t-4 -55.5t11.5 -25.5t25 -6q23 0 48.5 13.5t68.5 49.5 q14 -16 22.5 -31.5t14.5 -33.5q-49 -59 -113.5 -101t-120.5 -42q-72 0 -104.5 34.5t-38.5 84.5q-2 17 -2 35q0 35 8 73q12 57 31 100h-2q-29 -57 -71 -115.5t-92 -105.5t-105.5 -76.5t-114.5 -29.5q-105 0 -150 105zM248 248q18 -96 82 -96q27 0 71.5 37.5t94 109.5 t96.5 175.5t80 234.5l35 147q-55 20 -129 21q-66 0 -116 -26t-88 -73t-64.5 -111.5t-41.5 -144.5q-26 -121 -26 -204q0 -39 6 -70z" />
<glyph unicode="b" horiz-adv-x="944" d="M18 86q14 23 29.5 61.5t30 88t29 106.5t24.5 117l119 667q12 74 16 115t-7 61.5t-38.5 24.5t-79.5 4q-1 10 -1 19q0 36 14 61q74 10 148.5 33.5t135.5 52.5q50 -16 50 -86q0 -22 -5 -49l-82 -461q-16 -80 -35.5 -150.5t-52.5 -160.5h6q25 63 68 132t98.5 128t117 97 t128.5 38q106 0 151 -105q22 -52 21 -136q0 -85 -22 -203q-27 -123 -79 -225.5t-127 -177.5t-168 -115.5t-198 -40.5q-102 0 -170 24.5t-121 79.5zM238 115q31 -18 61.5 -22.5t65.5 -4.5q66 0 116.5 26.5t88.5 72.5t62.5 112t43.5 143q25 122 25 206q0 40 -6 71 q-17 96 -81 96q-29 0 -73.5 -39t-94 -110.5t-96.5 -174t-78 -233.5z" />
<glyph unicode="c" horiz-adv-x="788" d="M55 301q4 90 21 180q18 96 62 187.5t106.5 162t144.5 112.5t178 42q61 0 97 -10t69 -35q-47 -111 -57 -233q-18 -8 -42 -12.5t-50 -4.5q0 100 -28 141t-89 41q-33 0 -61.5 -21.5t-53 -60t-44 -91t-29.5 -109.5q-16 -84 -23 -165q-3 -35 -3 -66q0 -42 5 -78 q8 -63 37 -102.5t80 -39.5q61 0 119.5 33t97.5 78q29 -20 45 -60q-37 -49 -83 -86.5t-93 -65.5t-93 -42t-87 -14q-90 0 -140.5 44t-69.5 114q-16 58 -16 130q-1 15 0 31z" />
<glyph unicode="d" horiz-adv-x="1032" d="M61 87q-22 52 -22 134q0 86 24 205q25 123 78.5 225.5t128 176t166.5 115.5t195 42q41 0 88 -10q2 33 7 71l11 80q14 74 18.5 115t-7 61.5t-39 24.5t-78.5 4q0 23 1 43.5t11 36.5q27 2 66 11.5t79 22.5l79 26q38 13 61 26q49 -16 49 -88q0 -21 -4 -47l-174 -989 q-14 -84 -21.5 -133.5t-7.5 -75t8 -31.5t23 -6q25 0 49 13.5t68 49.5q14 -16 23 -31.5t15 -33.5q-51 -59 -117.5 -101t-121.5 -42q-76 0 -109 35.5t-38 87.5q-1 15 -1 30q0 40 10 84q13 61 29 113h-2q-31 -61 -72.5 -124t-92 -113t-110 -81.5t-120.5 -31.5q-105 0 -150 105z M248 248q18 -96 82 -96q27 0 71.5 37.5t95 109.5t97.5 175.5t78 234.5l35 147q-55 20 -129 21q-66 0 -116 -26t-88 -73t-64.5 -111.5t-41.5 -144.5q-26 -121 -26 -204q0 -39 6 -70z" />
<glyph unicode="e" horiz-adv-x="757" d="M52 293q3 86 20 174q23 121 74 218t115.5 163.5t138 101.5t143.5 35q63 0 105 -20.5t63.5 -52t27.5 -74.5q2 -16 3 -33q0 -27 -7 -53q-12 -66 -64.5 -121.5t-122 -95t-147 -63t-143.5 -26.5q-5 -46 -5 -92v-16q1 -55 13.5 -99t40 -72t74.5 -28t106.5 29t104.5 84 q33 -25 45 -62q-29 -39 -71 -76.5t-89 -67.5t-97 -47t-101 -17q-88 0 -138.5 43t-70.5 112q-18 61 -18 134v22zM266 524q53 4 103.5 17.5t91.5 39t68.5 61.5t35.5 81q3 18 3 35q0 8 -1 16q-2 25 -13 47.5t-31.5 35.5t-49.5 13q-61 0 -117.5 -79.5t-81.5 -219.5z" />
<glyph unicode="f" horiz-adv-x="614" d="M-303 -382q4 32 14 60q49 -16 107.5 -24t126.5 -8q37 0 62.5 11t47 59t43 143.5t45.5 265.5q23 156 44.5 331t56.5 394q-35 4 -74 8t-76 4q0 49 25 82h141l2 14q23 141 72 245t114.5 170.5t145.5 99t164 32.5q80 0 136 -15t83 -36q-23 -49 -37 -108.5t-18 -118.5 q-29 -17 -71 -17h-17q-4 109 -39 154t-101 45q-39 0 -68.5 -18.5t-54 -70.5t-50 -143.5t-52.5 -232.5h209q0 -23 -3 -43t-13 -39q-57 0 -113.5 -5t-99.5 -11l-60 -359l-39 -237q-29 -170 -73 -312.5t-102 -245t-131 -158.5t-161 -56q-98 0 -186 76q-2 16 -2 32t2 32z" />
<glyph unicode="g" horiz-adv-x="944" d="M-61 -463q23 49 36 115.5t17 126.5q31 17 74 17q9 0 18 -1q4 -123 37 -175t127 -52q98 0 167.5 87t104.5 284l31 174q8 47 29.5 119.5t48.5 142.5h-2q-27 -66 -71 -135.5t-98.5 -127t-118 -94t-128.5 -36.5q-104 0 -150 105q-22 52 -22 134q0 86 24 205 q25 123 78.5 225.5t128 176t166.5 115.5t195 42q29 0 62.5 -5t58.5 -13q29 2 58.5 6t45.5 12q18 -8 26 -32q3 -9 2 -22q0 -24 -7 -65l-158 -891q-47 -270 -176 -386.5t-330 -116.5q-86 0 -160.5 18t-113.5 47zM248 248q18 -96 82 -96q27 0 71.5 37.5t95 109.5t97.5 175.5 t78 234.5l35 147q-55 20 -129 21q-66 0 -116 -26t-88 -73t-64.5 -111.5t-41.5 -144.5q-26 -121 -26 -204q0 -39 6 -70z" />
<glyph unicode="h" horiz-adv-x="1062" d="M51 0l199 1126q12 74 16 115t-6 61.5t-38.5 24.5t-80.5 4q0 23 1 43.5t12 36.5q27 2 65.5 11.5t79.5 22.5l79 26q38 13 60 26q49 -16 49 -88q0 -21 -4 -47l-53 -289q-20 -115 -39.5 -201t-40 -159.5t-51.5 -167.5h2l53 110q25 51 72 109.5t104.5 108t120 81t117.5 31.5 q33 0 67.5 -16.5t58.5 -61.5t27 -124v-15q0 -75 -26 -188l-61 -256l-26 -113q-9 -41 -10 -59.5t7 -22.5t20 -4q23 0 58 19.5t59 45.5q31 -31 39 -67q-70 -72 -128 -106.5t-116 -34.5q-61 0 -91 22.5t-37 67.5q-3 19 -3 40q0 31 6 67q10 62 27 143l57 249q18 80 22 132 q1 16 1 30q0 32 -5 52q-7 30 -24.5 41.5t-42.5 11.5q-31 0 -83 -41t-105 -116t-100.5 -178.5t-67.5 -228.5l-49 -274h-191z" />
<glyph unicode="i" d="M69 65q-9 32 -10 72q0 64 23 148l86 303q25 82 34 127q5 24 5 41q0 16 -4 26q-8 23 -37 30t-82 7v11q0 38 12 69q27 2 60.5 11.5t68.5 21.5t66 26.5t49 26.5q66 -27 79 -91q4 -18 3 -41q0 -60 -25 -155l-116 -407q-14 -51 -20.5 -84t-4.5 -49.5t11 -22.5t24 -6 q20 0 49 14.5t61 46.5q31 -23 37 -67q-61 -68 -120.5 -104.5t-118.5 -36.5q-106 0 -130 83zM303 1341q12 59 51 94t86 35q53 0 79 -34q17 -24 17 -59q0 -17 -4 -36q-12 -55 -50 -89.5t-89 -34.5t-76 34q-17 25 -17 60q0 14 3 30z" />
<glyph unicode="j" horiz-adv-x="489" d="M-252 -455q154 106 237 244.5t115 319.5l105 553q8 49 9 79.5t-10 47t-39 23.5t-77 7q-2 20 0 41t12 39q27 2 62 11.5t71.5 21.5t68.5 26.5t50 26.5q27 -12 44.5 -28.5t23.5 -49.5q3 -18 3 -42q0 -20 -2 -46q-5 -55 -22 -145l-98 -518q-25 -131 -65.5 -234.5t-104 -185.5 t-150.5 -146.5t-200 -113.5q-31 24 -33 69zM293 1341q12 59 50 94t87 35q53 0 79 -34q16 -22 16 -55q0 -18 -5 -40q-10 -55 -48 -89.5t-91 -34.5q-49 0 -74 34q-17 25 -17 60q0 14 3 30z" />
<glyph unicode="k" horiz-adv-x="919" d="M51 0l199 1126q12 74 16 115t-6 61.5t-38.5 24.5t-80.5 4q-1 10 -1 19q0 36 14 61q27 2 65.5 11.5t79.5 22.5l79 26q38 13 60 26q50 -16 50 -86q0 -22 -5 -49l-47 -255q-18 -103 -35.5 -180t-35 -140.5t-39.5 -135.5h2q61 147 149 240.5t213 93.5q100 0 150 -66 q36 -48 35 -111q0 -23 -5 -48q-10 -57 -47 -106.5t-90 -87.5t-119.5 -63.5t-136.5 -33.5q68 -57 156 -244q29 -61 49 -77.5t49 -16.5q23 0 43.5 13.5t52.5 48.5q25 -29 37 -68q-49 -61 -111.5 -102t-107.5 -41q-41 0 -68.5 9t-50 31.5t-40.5 60.5l-40 91q-29 78 -57.5 133 t-69.5 119q-6 -14 -8 -28l-4 -27l-65 -371h-191zM350 528q129 12 220.5 59.5t107.5 133.5q3 16 3 29q0 34 -18 56q-26 30 -69 30q-27 0 -58.5 -22.5t-65.5 -63.5t-64.5 -98.5t-55.5 -123.5z" />
<glyph unicode="l" horiz-adv-x="534" d="M76 152q0 27 2 53t8 70t18 108l31 164l46 241l69 338q14 72 17 113t-7 62.5t-38.5 25.5t-80.5 4q0 23 1 43.5t12 36.5q27 2 65.5 11.5t79.5 22.5l79 26q38 13 60 26q49 -16 49 -88q0 -21 -4 -47l-86 -461l-86 -428q-23 -113 -30 -181q-7 -61 -8 -96q0 -43 12 -56 q10 -11 26 -11q23 0 47.5 13.5t61.5 47.5q27 -27 39 -63q-51 -61 -115.5 -103t-124.5 -42q-144 0 -143 156v14z" />
<glyph unicode="m" horiz-adv-x="1640" d="M78 0l117 614q12 74 16 115t-7 61.5t-40 24.5t-80 4q0 8 1 36t11 44q27 2 66 11.5t80 21.5t77.5 26.5t59.5 26.5q49 -16 49 -89q0 -21 -4 -48q-16 -90 -34.5 -149.5t-41.5 -112.5h2l31 69q25 53 72 111.5t105 107t122.5 80t120.5 31.5q29 0 58.5 -11t52 -40t33.5 -75 q5 -20 5 -45q0 -32 -8 -71q-8 -43 -18.5 -79.5t-26.5 -77.5h2l31 69q25 51 72 107.5t106 103.5t122.5 78t119.5 31q57 0 91 -30t47 -82q10 -38 9 -87q0 -19 -1 -41q-5 -76 -28 -166l-63 -245q-16 -66 -24.5 -105t-8.5 -59.5t9.5 -26.5t25.5 -6q23 0 50.5 13.5t66.5 49.5 q29 -29 35 -67q-49 -57 -113 -99t-125 -42q-59 0 -91 16t-41 55q-5 22 -5 52q0 24 3 53q7 66 27 164l56 239q18 80 22 132q2 21 2 38q0 26 -4 43q-6 29 -21.5 41t-39.5 12q-31 0 -81 -34.5t-104.5 -104.5t-101.5 -173t-76 -241l-51 -274h-190l96 475q27 117 32 189 q2 30 2 54q0 34 -4 56q-7 39 -26.5 51.5t-42.5 12.5q-33 0 -83 -38t-103.5 -111t-100.5 -177t-71 -238l-54 -274h-192z" />
<glyph unicode="n" horiz-adv-x="1091" d="M76 0l117 614q12 74 16 115t-6 61.5t-39 24.5t-80 4q0 23 1 43.5t11 36.5q27 2 66 11.5t81 21.5t79.5 26.5t60.5 26.5q49 -16 49 -89q0 -21 -4 -48q-16 -90 -36.5 -150.5t-43.5 -113.5h2l33 71q27 51 73 109.5t104 108t120.5 81t116.5 31.5q35 0 69.5 -16.5t57 -61.5 t26.5 -124q0 -9 1 -19q0 -74 -27 -184l-62 -256l-24.5 -113t-9.5 -59.5t6.5 -22.5t19.5 -4q23 0 57.5 19.5t61.5 45.5q29 -31 37 -67q-70 -72 -127.5 -106.5t-114.5 -34.5q-63 0 -93 22.5t-37 67.5q-3 19 -3 40q0 31 6 67q10 62 29 143l55 249q20 80 24 132q1 14 0 27 q0 34 -6 55q-8 30 -25.5 41.5t-39.5 11.5q-33 0 -84 -41t-104.5 -116t-99.5 -178.5t-68 -228.5l-54 -274h-192z" />
<glyph unicode="o" horiz-adv-x="958" d="M60 260q-4 31 -4 65q0 61 14 128q23 121 70.5 219t114.5 167.5t147.5 107.5t170.5 38t159 -35t111 -100.5t53 -155.5q4 -32 4 -66q0 -63 -13 -134q-23 -117 -70 -210.5t-113.5 -161t-149.5 -104t-177 -36.5q-90 0 -156.5 33.5t-108 95t-52.5 149.5zM261 189 q36 -110 132 -109q47 0 93 28.5t84 80t67 123t47 161.5q15 86 15 156q0 79 -19 140q-37 114 -133 114q-49 0 -92 -29t-81 -82t-66.5 -127t-45.5 -164q-19 -92 -19 -166q0 -72 18 -126z" />
<glyph unicode="p" horiz-adv-x="980" d="M-6 -516l199 1126q12 74 16 115t-6 60.5t-39 24.5t-80 5q0 23 1 42.5t11 37.5q27 2 66 11t80 21.5t78.5 27t60.5 26.5q49 -16 49 -88q0 -21 -4 -47q-10 -63 -26.5 -122.5t-41.5 -119.5h4q27 61 69 129t95.5 124t116 93t129.5 37q104 0 150 -105q22 -52 22 -134 q0 -86 -24 -205q-25 -123 -78.5 -225.5t-128 -177t-166.5 -115.5t-195 -41q-23 0 -48 4l-48 8q2 -19 2 -40q0 -26 -3 -55q-5 -52 -22 -141l-47 -276h-192zM276 113q55 -23 130 -23q66 0 115.5 26.5t87.5 73t63.5 112t42.5 142.5q26 122 26 206q0 40 -6 71q-18 96 -82 96 q-27 0 -71.5 -38t-95 -110.5t-97.5 -175t-78 -233.5z" />
<glyph unicode="q" horiz-adv-x="972" d="M61 87q-22 52 -22 134q0 86 24 205q25 123 78.5 225.5t128 176t166.5 115.5t195 42q104 0 171.5 -25.5t121.5 -78.5q-14 -25 -28.5 -63t-30 -87t-29 -106.5t-23.5 -116.5l-180 -1018h-193l111 623q8 47 29.5 119.5t48.5 142.5h-4q-25 -66 -69 -135.5t-98.5 -127t-118 -94 t-128.5 -36.5q-105 0 -150 105zM248 248q18 -96 82 -96q27 0 71.5 37.5t95 109.5t96.5 175.5t79 234.5l35 147q-55 20 -129 21q-66 0 -116 -26t-88 -73t-64.5 -111.5t-41.5 -144.5q-26 -121 -26 -204q0 -39 6 -70z" />
<glyph unicode="r" horiz-adv-x="770" d="M68 0l118 614q14 74 18.5 115t-6 61.5t-38 24.5t-78.5 4q0 23 2 43.5t12 36.5q27 2 66 11.5t80 21.5t78.5 26.5t60.5 26.5q48 -15 48 -85q0 -22 -5 -50q-20 -113 -92 -279h4l35 78q33 70 73.5 130.5t83.5 106.5t88.5 72.5t88.5 26.5q41 0 67.5 -9t50.5 -30 q-25 -47 -39 -115.5t-18 -128.5q-31 -17 -71 -17q-8 0 -17 1q-2 45 -7 73.5t-11.5 44t-14.5 19.5t-20 4q-31 0 -70 -45t-82 -125q-68 -121 -107.5 -228t-68.5 -241l-35 -188h-194z" />
<glyph unicode="s" horiz-adv-x="761" d="M10 100q23 49 33 103.5t14 111.5q29 19 72 19h16v-13q0 -46 13 -88q14 -47 40.5 -82.5t62.5 -57t81 -21.5q43 0 81 22.5t46 65.5q2 12 2 24q0 34 -17 64q-24 41 -64 81l-87 83q-47 43 -85 95t-59 115q-13 37 -13 81q0 29 6 61q18 106 99 163.5t214 57.5q68 0 142.5 -22.5 t119.5 -65.5q-23 -49 -32 -98t-13 -109q-31 -17 -73 -17q-8 0 -17 1q-4 100 -50 159.5t-130 59.5q-51 0 -81 -24.5t-36 -61.5q-3 -13 -3 -27q0 -32 18 -61q26 -41 68 -80l91 -82q49 -43 88 -93t60 -113q13 -37 13 -81q0 -29 -5 -61q-20 -111 -103.5 -169t-222.5 -58 q-88 0 -165 32.5t-124 85.5z" />
<glyph unicode="t" horiz-adv-x="665" d="M88 862q0 49 25 82h155l4 23q23 96 37.5 170.5t18.5 119.5q41 6 89 19.5t77 32.5q12 -6 19 -19.5t7 -40t-8 -75t-27 -125.5l-22 -105h194q0 -23 -3 -43t-11 -39q-57 0 -109.5 -4t-95.5 -10l-98 -420q-18 -86 -25 -146q-3 -26 -2 -48q0 -29 4 -51q8 -38 26.5 -54t45.5 -16 q35 0 78 25.5t78 68.5q16 -10 27.5 -29.5t15.5 -38.5q-20 -27 -51 -55.5t-68 -51t-78 -36.5t-84 -14q-133 0 -174 102q-18 45 -18 113q0 89 30 217l99 436q-35 4 -76 8t-80 4z" />
<glyph unicode="u" horiz-adv-x="1071" d="M84 860q2 23 12 39q25 2 64 11.5t81 21.5t78.5 26.5t57.5 26.5q25 -14 36 -32q9 -14 9 -47q0 -9 -1 -20q-3 -50 -26 -150l-63 -275q-33 -133 -33 -211q0 -112 68 -113q31 0 79 35t101 106.5t100 179t74 253.5l49 256h193l-105 -525q-23 -111 -33 -174t-12 -95t6 -39 t27 -7q23 0 45 14.5t59 51.5q14 -12 23.5 -31t15.5 -37q-51 -59 -114.5 -101t-120.5 -42q-98 0 -126 65q-16 38 -16 88q0 37 9 82q10 55 32 102h-4q-25 -53 -65.5 -112.5t-94 -109.5t-112 -82.5t-119.5 -32.5q-74 0 -107.5 45t-41.5 116q-3 27 -4 57q0 48 9 103 q13 88 33 172q33 127 47 197q9 48 9 77q0 14 -2 24q-6 32 -34 39t-81 7q-3 12 -3 27q0 6 1 14z" />
<glyph unicode="v" horiz-adv-x="1003" d="M72 819q0 8 2 36t8 44q53 6 115.5 34t95.5 52q31 -10 48 -24.5t28.5 -40t20.5 -65.5t22 -103q14 -76 26 -157l24 -158q11 -77 18 -148.5t12 -128.5q135 160 200.5 286.5t65.5 204.5q0 82 -30 118t-99 48q-13 28 -13 61v17q27 8 59 19.5t60 24.5l53 26q25 12 37 22 q59 -23 90 -74t31 -143q0 -61 -23.5 -136t-84 -170t-160.5 -213t-252 -269q-9 -1 -18 -1q-48 0 -82 19q-14 199 -42 378t-61 310q-10 37 -19 63.5t-25.5 43t-41.5 21.5q-18 4 -43 4q-10 0 -22 -1z" />
<glyph unicode="w" horiz-adv-x="1484" d="M72 819q0 8 2 36t8 44q53 6 115.5 34t95.5 52q31 -10 48 -24.5t28.5 -40t20.5 -65.5t22 -103q14 -74 26 -154l24 -157q11 -77 18 -147.5t12 -127.5q78 92 129 175t72 172q17 72 18 149q0 18 -1 37q-5 97 -36 219q35 10 66.5 28.5t47.5 38.5q27 -6 41.5 -16.5t26.5 -35 t23.5 -66.5t25.5 -113l31 -154q16 -80 28.5 -156.5t21.5 -147.5t15 -128q127 160 182.5 280.5t55.5 198.5q0 82 -32.5 121t-102.5 49q-14 26 -14 57q0 10 2 21l58 18q32 10 60.5 23.5t52 26t35.5 22.5q59 -23 93 -74t34 -145q0 -61 -19.5 -133t-73.5 -166t-149.5 -213 t-244.5 -272q-9 -1 -17 -1q-47 0 -83 19q-10 137 -26.5 256t-33.5 217q-23 -63 -51.5 -119.5t-69.5 -113t-98 -120t-133 -138.5q-9 -1 -18 -1q-48 0 -82 19q-14 199 -42 378t-61 310q-10 37 -19 63.5t-25.5 43t-41.5 21.5q-18 4 -43 4q-10 0 -22 -1z" />
<glyph unicode="x" horiz-adv-x="976" d="M-47 10q18 49 28.5 116t10.5 128q16 10 41.5 15t50.5 3q4 -74 16.5 -93t32.5 -19t48 22.5t57.5 60.5t58.5 88t53 107l-39 134q-18 67 -30 124q-16 74 -55 101q-33 23 -97 23q-10 0 -20 -1q-3 13 -3 26q0 28 13 54q25 2 58.5 11.5t67.5 21.5t62.5 26.5t44.5 26.5 q31 -6 47.5 -28.5t30.5 -84.5l30 -115q15 -58 32 -114q29 59 65.5 120.5t80.5 110t91 80t98 31.5q39 0 67 -9t50 -30q-23 -47 -37 -115.5t-18 -128.5q-31 -17 -73 -17q-8 0 -17 1q-2 45 -6.5 73.5t-10.5 44t-14 19.5t-20 4q-25 0 -53.5 -26.5t-56.5 -70.5t-56.5 -100.5 t-51.5 -115.5q29 -94 55.5 -171t51.5 -134q23 -53 42 -67.5t42 -14.5q25 0 49.5 14.5t67.5 51.5q25 -29 36 -68q-49 -59 -113.5 -101t-125.5 -42q-68 0 -101.5 23.5t-56.5 78.5q-25 55 -45 115l-41 120q-31 -59 -67.5 -119.5t-79.5 -108.5t-90.5 -78.5t-96.5 -30.5 q-39 0 -60 6t-44 22z" />
<glyph unicode="y" horiz-adv-x="942" d="M-262 -382q4 32 14 60q49 -16 106.5 -24t108.5 -8q31 0 63.5 9t69.5 34.5t81 73t104 122.5q-12 248 -41 459t-64 344l-21 64q-9 27 -24.5 43t-41.5 21q-18 4 -44 4q-10 0 -22 -1q-1 9 -1 18q0 35 13 62q51 6 113.5 34t97.5 52q25 -8 41 -19.5t28.5 -33t21.5 -56t19 -92.5 q37 -184 56.5 -344.5t25.5 -333.5q139 209 199.5 358.5t60.5 237.5q0 45 -24.5 74t-93.5 41q-13 28 -13 61v17q29 8 60 19.5t59 24.5l53 26q25 12 37 22q59 -23 87 -68t28 -98q0 -133 -98.5 -321.5t-290.5 -462.5q-127 -184 -213 -295t-149.5 -169t-112.5 -76.5t-105 -18.5 q-98 0 -188 76q-2 16 -2 32t2 32z" />
<glyph unicode="z" horiz-adv-x="837" d="M-25 80q219 193 383 373t254 327q-31 8 -66.5 12.5t-90.5 4.5q-53 0 -91 -6.5t-67 -19.5t-50.5 -35.5t-43.5 -55.5q-29 2 -45.5 10t-32.5 25q31 57 54.5 121.5t33.5 121.5q55 14 116.5 20.5t153.5 6.5q102 0 164 -6t111 -14q27 -29 33 -74q-47 -88 -111 -179 t-137.5 -184.5t-156.5 -182.5l-169 -173q31 6 64.5 8t87.5 2q59 0 99 -6t64 -6q31 0 57.5 19.5t61.5 95.5q25 2 49.5 -4.5t42.5 -20.5q-25 -53 -40 -116.5t-21 -123.5q-20 -31 -64 -30q-31 0 -59.5 2t-64 3t-84 3t-113.5 2q-113 0 -192.5 -2t-110.5 -6q-10 18 -16 40 q-4 15 -3 33q-1 7 0 15z" />
<glyph unicode="{" horiz-adv-x="667" d="M74 514q0 43 22 68q90 33 135 85t64.5 117.5t25.5 141.5l10 152q5 77 21.5 153t62.5 140.5t130 114.5t223 79q7 -17 7 -43q0 -16 -3 -29q-96 -16 -149.5 -60t-80 -106.5t-32.5 -136.5t-9 -150.5t-12.5 -154.5t-39 -142.5t-91 -117t-165.5 -78.5q96 -31 140 -84t56 -124 q6 -33 6 -68q0 -41 -8 -86q-14 -83 -34 -166l-39 -163q-19 -81 -19 -152t29.5 -125t105.5 -81q0 -18 -5 -37.5t-15 -31.5q-115 39 -171.5 101t-76.5 137q-15 53 -15 112q0 23 3 47q8 84 25 168l33 165q13 67 13 126q0 12 -1 23q-3 69 -34.5 123t-111.5 83z" />
<glyph unicode="|" horiz-adv-x="385" d="M-47 -479l383 1980q31 0 56.5 -8t43.5 -31l-199 -986l-184 -994q-31 2 -56.5 10.5t-43.5 28.5z" />
<glyph unicode="}" horiz-adv-x="677" d="M-86 -536q-1 6 -1 12q0 11 3 22q88 16 136 63.5t73 116t31 152.5l12 171q6 87 19.5 174t48 160t100 128t176.5 84q-100 27 -145 76t-56 109q-4 23 -4 48q0 40 10 83q16 71 38 145l41 145q15 57 16 109q0 14 -1 27q-5 65 -42 118t-129 86q4 23 10 41t16 29 q123 -41 185.5 -98.5t87.5 -124.5q20 -53 19 -110q0 -14 -1 -29q-6 -73 -23 -146l-34 -145q-15 -63 -15 -118v-14q2 -61 33 -110.5t109 -81.5q2 -10 2 -22q0 -20 -6 -46q-90 -25 -140.5 -80t-77 -127.5t-36.5 -157.5l-22 -175q-11 -89 -31.5 -175t-65.5 -159.5t-123 -131 t-205 -83.5q-6 18 -8 35z" />
<glyph unicode="~" horiz-adv-x="1153" d="M70 504q86 117 163.5 160t151.5 43q59 0 116.5 -18.5t114 -41t112.5 -42t114 -19.5q53 0 106 21.5t111 74.5q43 0 63 -35q-84 -109 -159.5 -150.5t-143.5 -41.5q-57 0 -111.5 20.5t-107.5 46t-108.5 45t-114.5 19.5q-61 0 -125 -29t-137 -108q-39 18 -45 55z" />
<glyph unicode="&#xa1;" horiz-adv-x="577" d="M-12 -504q-2 7 -2 17q0 23 10 59l52 191l61 232l61 250q31 128 55 249q14 2 27 1q38 0 67 -14q-20 -150 -32 -276l-23 -241q-10 -114 -17 -219l-14 -214q-47 -10 -110.5 -29.5t-99.5 -40.5q-29 10 -35 35zM236 883q12 47 39.5 74.5t74.5 27.5q57 0 87 -37q20 -25 20 -61 q0 -17 -4 -37q-8 -43 -41 -70.5t-76 -27.5q-49 0 -80 36q-23 28 -23 67q0 14 3 28z" />
<glyph unicode="&#xa2;" horiz-adv-x="788" d="M55 306q4 87 21 175q14 82 48 160t83 143.5t111.5 112.5t136.5 72l63 327q33 0 58.5 -8t44.5 -31l-32 -139l-30 -133h8q61 0 97 -10t69 -35q-47 -111 -57 -233q-18 -8 -42 -12.5t-50 -4.5q0 133 -52 166q-43 -186 -75 -359l-66 -358q55 4 110.5 36t90.5 75q29 -20 45 -60 q-55 -72 -129 -123t-143 -71l-22 -138l-24 -145q-31 2 -57 10.5t-43 28.5l45 230q-84 4 -131 50t-64 116q-14 57 -14 126q-1 15 0 32zM253 343q1 -56 12 -101t34 -72l135 696q-53 -20 -95 -97t-60 -179q-12 -66 -20 -128q-6 -55 -6 -105v-14z" />
<glyph unicode="&#xa3;" horiz-adv-x="991" d="M-82 61q68 53 123 104.5t99 107t72 116t42 133.5q6 39 6 72q-61 0 -117.5 -1t-103.5 -3q-1 11 -1 22q0 57 28 95h176l-21 74q-10 38 -16 80q-7 50 -7 100q0 46 9 102q12 72 49 141.5t96.5 122.5t138 86t175.5 33q98 0 170.5 -22.5t134.5 -69.5q-14 -63 -23.5 -130 t-13.5 -147q-31 -6 -59.5 -3t-51.5 13q2 27 2 51q0 105 -37 151q-45 56 -155 57q-88 0 -154.5 -59.5t-83.5 -158.5q-9 -46 -9 -83q0 -22 3 -41q8 -53 23 -102l28 -93q14 -45 19 -102h268q0 -68 -29 -111h-254q-20 -94 -72.5 -184t-150.5 -195q92 47 191 47q59 0 104 -17.5 t82 -37l66.5 -36.5t56.5 -17q59 0 96 57q23 -4 41.5 -22.5t26.5 -34.5q-37 -80 -100.5 -127t-137.5 -47q-55 0 -91 18t-73 43t-83 44t-121 19q-68 0 -142 -28.5t-153 -95.5q-25 14 -40.5 34t-25.5 45z" />
<glyph unicode="&#xa4;" horiz-adv-x="1138" d="M20 166l148 129q-35 55 -47 128q-5 31 -5 65q0 45 9 96q18 113 94 194l-100 107q16 14 43.5 23.5t54.5 11.5l72 -82q104 72 250 71q76 0 137 -21.5t106 -58.5l111 95q25 -6 48.5 -18.5t33.5 -31.5l-135 -112q29 -49 39 -110q4 -25 4 -52q0 -38 -9 -80q-12 -72 -42.5 -131 t-73.5 -106l116 -129q-14 -14 -41.5 -22.5t-52.5 -10.5l-92 104q-98 -68 -227 -67q-145 0 -236 73l-114 -108q-25 2 -49 13.5t-42 29.5zM242 582q-8 -44 -8 -83q0 -94 46 -161q65 -94 201 -94q51 0 96.5 20.5t82 55t62.5 82t36 102.5q7 39 6 73q0 92 -47 157q-66 89 -201 89 q-104 0 -179 -66t-95 -175z" />
<glyph unicode="&#xa5;" horiz-adv-x="1228" d="M190 408q-2 14 -1 27q0 17 2 34q5 31 20 53h356l17 96l-19 52h-98q-43 0 -82 -2t-78 -3t-86 -3v15q0 61 29 101h272q-41 109 -81 202l-70 161q-27 59 -46.5 96t-35 58.5t-31.5 30.5t-39 17q-4 23 -5 43.5t3 45.5q59 -4 118.5 -5.5t115.5 -1.5q63 0 124.5 1t141.5 6 q0 -25 -5 -47.5t-14 -45.5q-104 -14 -131 -49q-12 -15 -11 -39q0 -31 19 -77q43 -96 88 -211l85 -232l80 113l76 104l65 89q29 40 47 69q75 108 75 160q0 58 -102 75q-5 23 -4 50q0 20 2 41q53 -4 97 -5.5t106 -1.5q51 0 94 1t94 6q0 -45 -20 -91q-18 -6 -33.5 -17 t-41.5 -37.5t-64 -78.5l-101 -137l-102 -140l-115 -153h250q1 -8 0 -15q0 -52 -25 -93h-307l-35 -45l-18 -103h356q-4 -61 -35 -108h-339l-29 -156q-8 -45 -8 -74.5t15 -48t46 -31t88 -20.5q6 -27 7 -55q0 -17 -3 -35q-68 4 -137.5 5t-132.5 1q-70 0 -144.5 -1t-130.5 -5 q0 53 15 92q51 8 84 20.5t53.5 32t31.5 53t21 87.5l25 133q-94 0 -183.5 -1t-175.5 -3z" />
<glyph unicode="&#xa6;" horiz-adv-x="385" d="M-47 -479l164 839q31 0 56.5 -8t43.5 -30l-86 -419q-41 -208 -78 -421q-31 2 -56.5 10.5t-43.5 28.5zM190 731l146 770q31 0 56.5 -8t43.5 -31l-76 -383l-71 -387q-29 2 -56 10.5t-43 28.5z" />
<glyph unicode="&#xa7;" horiz-adv-x="1079" d="M88 555q27 117 119 204t246 134q-37 33 -70 70.5t-55.5 83t-29.5 97.5q-3 19 -3 40q0 36 8 76q23 106 122 176.5t265 70.5q180 0 299 -98q-10 -72 -16 -136.5t-6 -135.5q-35 -14 -76 -14q-20 0 -41 3q-2 88 -14.5 144.5t-37 87.5t-59 42t-82.5 11q-68 0 -110.5 -36 t-54.5 -97q-5 -24 -5 -46q0 -52 26 -94q38 -60 102.5 -113.5t141.5 -108t138 -121t92 -153.5q17 -48 17 -108q0 -48 -11 -102q-23 -117 -116 -204t-248 -134q37 -33 70.5 -70.5t55 -81.5t28.5 -98q3 -20 3 -40q0 -36 -8 -76q-20 -106 -120.5 -177t-264.5 -71q-182 0 -301 98 q10 72 17.5 136.5t7.5 135.5q34 14 73 14q20 0 41 -3q2 -88 15.5 -144.5t37 -87t58.5 -42t82 -11.5q68 0 111 36t55 97q6 26 6 50q0 49 -26 90q-38 60 -102.5 113.5t-141 108t-138 121t-93.5 153.5q-18 49 -18 110q0 46 11 100zM295 575q-7 -35 -7 -66q0 -36 9 -68 q16 -58 54 -105t88 -89l104 -83q90 35 158.5 100.5t84.5 147.5q7 35 7 67q0 36 -9 67q-16 58 -52 105t-87 88l-102 84q-92 -35 -162 -100.5t-86 -147.5z" />
<glyph unicode="&#xa8;" horiz-adv-x="974" d="M367 1257q16 92 116 93q55 0 79 -35q16 -24 17 -59q0 -15 -4 -31q-27 -102 -116 -103q-53 0 -79 37q-17 25 -17 61q0 17 4 37zM692 1251q16 98 123 99q49 0 75 -32q18 -23 18 -56q0 -13 -3 -29q-10 -53 -40.5 -81t-80.5 -28q-53 0 -77 35q-17 25 -18 61q0 14 3 31z" />
<glyph unicode="&#xa9;" horiz-adv-x="1509" d="M72 227q-12 64 -12 136q0 88 18 186q29 147 96.5 268t166.5 207t225 133t268 47q170 0 298 -55t206.5 -158.5t105.5 -247.5q12 -62 11 -130q0 -90 -19 -191q-27 -147 -94.5 -269t-167 -207t-224.5 -132t-266 -47q-170 0 -298 55t-207.5 158.5t-106.5 246.5zM161 266 q19 -127 84.5 -218t180.5 -140t274 -49q123 0 229.5 40t190.5 114.5t142.5 178t80.5 230.5q18 93 19 177q0 56 -8 107q-20 128 -87 218t-179.5 140t-270.5 50q-123 0 -229.5 -40t-192.5 -114.5t-143 -179t-82 -231.5q-17 -93 -17 -175q0 -57 8 -108zM403 301q4 90 21 180 q18 96 62 187.5t106.5 162t144.5 112.5t178 42q61 0 97.5 -10t68.5 -35q-47 -111 -57 -233q-18 -8 -42 -12.5t-50 -4.5q0 100 -29 141t-88 41q-33 0 -61.5 -21.5t-53 -60t-44 -91t-29.5 -109.5q-16 -84 -24 -165q-3 -35 -3 -67q0 -41 5 -77q9 -63 38 -102.5t80 -39.5 q61 0 119.5 33t97.5 78q29 -20 45 -60q-39 -49 -84 -86.5t-92 -65.5t-93 -42t-87 -14q-90 0 -140.5 44t-69.5 114q-16 58 -16 130q-1 15 0 31z" />
<glyph unicode="&#xaa;" horiz-adv-x="954" d="M244 840q-15 37 -16 95q0 66 20 159q18 90 57 167.5t94.5 133t125 87t147.5 31.5q47 0 88 -16q20 -2 47 2t43 14q18 -12 22 -36q1 -4 1 -11q0 -30 -15 -102l-82 -360q-13 -66 -12 -88q0 -23 22 -23q12 0 33 9t43 32q14 -10 25.5 -30.5t15.5 -39.5q-41 -43 -89 -72.5 t-87 -29.5q-53 0 -78.5 26.5t-30.5 63.5q-1 11 -1 23q0 27 7 56q9 42 23 73h-4q-23 -41 -53.5 -85.5t-67.5 -79t-80 -56t-88 -21.5q-77 0 -110 78zM390 975q9 -61 50 -62q20 0 51 24t66 72t71 121.5t64 176.5l29 104q-41 12 -90 12q-90 0 -143.5 -69.5t-77.5 -184.5 q-22 -101 -22 -160q0 -19 2 -34z" />
<glyph unicode="&#xab;" horiz-adv-x="880" d="M72 506q0 51 26 82l172 145q78 68 158 150q23 -2 43.5 -14.5t28.5 -26.5q-27 -27 -62 -67l-70 -80l-68 -78.5t-50 -65.5q10 -31 27.5 -73t38.5 -85l41 -82q19 -39 36 -63q-4 -25 -18.5 -43.5t-30.5 -30.5q-70 98 -140.5 182t-131.5 150zM430 506q0 51 29 82l84 74l75 67 l73 68l75 71q23 -2 43 -13t29 -26l-59 -67l-62 -75l-60 -74l-49 -62q10 -31 24.5 -70t32.5 -79l33 -78q16 -39 31 -66q-4 -25 -17.5 -43t-29.5 -29q-135 185 -252 320z" />
<glyph unicode="&#xac;" horiz-adv-x="1134" d="M98 625q-2 66 29 106h911l-82 -491q-25 -12 -57 -16q-11 -1 -21 -1q-21 0 -40 4l67 404q-193 0 -403.5 -1t-403.5 -5z" />
<glyph unicode="&#xad;" horiz-adv-x="722" d="M70 487q4 49 11 82t25 62h576q-2 -47 -9 -78t-20 -59q-104 0 -251.5 -1.5t-331.5 -5.5z" />
<glyph unicode="&#xae;" horiz-adv-x="1044" d="M242 1067q37 168 153.5 263t286.5 95q92 0 162.5 -33.5t116 -92t61.5 -137.5q7 -35 7 -72q0 -46 -11 -95q-33 -172 -148.5 -266t-287.5 -94q-90 0 -161 35t-116 94t-62 137q-9 40 -9 83q0 40 8 83zM316 931q13 -67 49 -116t93.5 -78.5t131.5 -29.5q135 0 232.5 77.5 t121.5 206.5q9 44 9 86q0 31 -5 60q-12 68 -48 118t-92 77.5t-132 27.5q-137 0 -234.5 -79t-122.5 -210q-9 -41 -9 -79q0 -31 6 -61zM422 811q0 10 2 22.5t6 20.5q31 4 41 18.5t18 61.5l39 221q4 31 -5 40t-36 13q-4 27 2 45q23 -2 46 -2h45q29 0 59.5 1t54.5 1 q70 0 103 -31q25 -24 25 -64q0 -12 -3 -25q-8 -41 -46 -73t-91 -46q12 -18 23.5 -40t27.5 -63q18 -43 41 -43q14 0 27 15q18 -14 18 -37q-33 -41 -84 -41q-49 0 -76 84q-10 37 -22 64.5t-27 50.5l-32 2l-15 -80q-8 -43 -3 -55.5t28 -16.5q12 -18 6 -43q-25 2 -44 2h-42h-45 q-23 0 -41 -2zM584 1049h26q53 0 86 18t41 61q3 12 3 23q0 22 -12 37q-17 23 -62 22q-29 0 -54 -6z" />
<glyph unicode="&#xaf;" horiz-adv-x="1138" d="M184 1235q0 12 4.5 45t14.5 51h733q0 -45 -18 -90q-215 0 -398.5 -1t-335.5 -5z" />
<glyph unicode="&#xb0;" horiz-adv-x="811" d="M279 1255q16 100 98 161t198 61q135 0 204 -75q52 -56 52 -142q0 -28 -6 -60q-20 -109 -101 -175.5t-196 -66.5q-137 0 -204 81q-51 61 -51 152q0 30 6 64zM426 1260q-6 -34 -6 -64q0 -57 21 -95q32 -58 100 -59q47 0 85 43t52 113q6 30 5 56q0 51 -20 87q-32 55 -100 56 q-51 0 -89 -38t-48 -99z" />
<glyph unicode="&#xb1;" horiz-adv-x="956" d="M27 160q0 8 -1 15q0 61 29 101h797q-4 -63 -33 -110q-203 0 -390 -1t-402 -5zM109 662q-1 11 -1 20q0 54 27 90h334l61 315q28 12 55 12.5t54 -12.5q-16 -63 -33.5 -145t-34.5 -170h349q1 -8 0 -16q0 -51 -23 -86h-344l-29 -161q-14 -79 -24 -153q-19 -6 -41 -6 q-8 0 -16 1q-30 3 -50 20l56 295q-88 0 -174 -1t-166 -3z" />
<glyph unicode="&#xb2;" horiz-adv-x="667" d="M98 823l77 62l84 67l79 61q37 28 61 44q68 49 107 102t51 123q4 24 4 44q0 36 -14 59q-23 36 -72 36q-51 0 -84 -49t-65 -160q-27 -2 -55.5 1.5t-45.5 13.5q16 45 26.5 104.5t12.5 108.5q127 74 254 73q119 0 178 -54q42 -38 42 -104q0 -27 -7 -59q-10 -53 -50 -106 t-128 -121l-43 -32l-56 -41l-62 -47l-58 -46q20 2 41 2h41q43 0 63.5 -2t50.5 -2q35 0 68 30t47 91q18 4 39 2t37 -12q-6 -23 -10 -54l-9 -60q-4 -30 -5 -56.5t-1 -46.5q-20 -39 -90 -39q-45 0 -98 2t-131 2h-140q-73 0 -131 -4q-11 18 -10 42q-1 11 2 25z" />
<glyph unicode="&#x2072;" horiz-adv-x="667" d="M98 823l77 62l84 67l79 61q37 28 61 44q68 49 107 102t51 123q4 24 4 44q0 36 -14 59q-23 36 -72 36q-51 0 -84 -49t-65 -160q-27 -2 -55.5 1.5t-45.5 13.5q16 45 26.5 104.5t12.5 108.5q127 74 254 73q119 0 178 -54q42 -38 42 -104q0 -27 -7 -59q-10 -53 -50 -106 t-128 -121l-43 -32l-56 -41l-62 -47l-58 -46q20 2 41 2h41q43 0 63.5 -2t50.5 -2q35 0 68 30t47 91q18 4 39 2t37 -12q-6 -23 -10 -54l-9 -60q-4 -30 -5 -56.5t-1 -46.5q-20 -39 -90 -39q-45 0 -98 2t-131 2h-140q-73 0 -131 -4q-11 18 -10 42q-1 11 2 25z" />
<glyph unicode="&#xb3;" horiz-adv-x="657" d="M66 563q0 18 12 38t28 28q16 -10 53.5 -18.5t84.5 -8.5q106 0 179 54.5t91 150.5q7 29 7 54q0 57 -35 100q-50 61 -179 61q-10 8 -14 23.5t0 31.5q117 39 169 92.5t70 126.5q3 18 4 34q0 32 -14 56q-20 37 -73 37q-63 0 -100.5 -47t-69.5 -166q-25 -4 -52.5 0t-44.5 15 q14 47 24.5 106.5t12.5 106.5q49 37 115.5 56t134.5 19q121 0 186 -55q51 -43 52 -114q0 -20 -5 -41q-10 -57 -53 -103.5t-129 -87.5q96 -20 146 -95q33 -50 32 -121q0 -36 -8 -77q-14 -66 -55 -122t-99.5 -96t-134 -62.5t-163.5 -22.5q-49 0 -98 13.5t-74 33.5z" />
<glyph unicode="&#x2073;" horiz-adv-x="657" d="M66 563q0 18 12 38t28 28q16 -10 53.5 -18.5t84.5 -8.5q106 0 179 54.5t91 150.5q7 29 7 54q0 57 -35 100q-50 61 -179 61q-10 8 -14 23.5t0 31.5q117 39 169 92.5t70 126.5q3 18 4 34q0 32 -14 56q-20 37 -73 37q-63 0 -100.5 -47t-69.5 -166q-25 -4 -52.5 0t-44.5 15 q14 47 24.5 106.5t12.5 106.5q49 37 115.5 56t134.5 19q121 0 186 -55q51 -43 52 -114q0 -20 -5 -41q-10 -57 -53 -103.5t-129 -87.5q96 -20 146 -95q33 -50 32 -121q0 -36 -8 -77q-14 -66 -55 -122t-99.5 -96t-134 -62.5t-163.5 -22.5q-49 0 -98 13.5t-74 33.5z" />
<glyph unicode="&#xb4;" horiz-adv-x="569" d="M281 1141q70 111 120 207t76 161q52 15 99 15h21q56 -4 97 -33q-80 -76 -169 -174t-169 -205q-46 4 -75 29z" />
<glyph unicode="&#xb5;" horiz-adv-x="1038" d="M-80 -422q4 23 11.5 44.5t16.5 53.5l22 82q13 49 28 129l207 1080h192l-84 -422q-22 -113 -22 -194q0 -62 13 -104q30 -99 91 -100q31 0 71 33t79 96.5t73.5 157.5t59.5 213l59 320h193l-103 -525q-25 -111 -35 -174t-12 -95t6.5 -39t28.5 -7q23 0 45.5 14.5t57.5 51.5 q14 -12 24 -31t16 -37q-51 -59 -115.5 -101t-121.5 -42q-86 0 -111 55q-14 32 -14 72q0 30 8 65q8 43 14.5 65.5t12.5 36.5h-2q-23 -66 -56.5 -120t-73.5 -92.5t-82 -60t-81 -21.5q-68 0 -100.5 34.5t-45.5 89.5h-2q1 -14 1 -28q0 -43 -5 -88q-6 -61 -18 -117 q-12 -61 -18 -130q-2 -26 -1 -50q0 -37 5 -66q-45 -20 -105.5 -59t-103.5 -78q-26 17 -26 57q0 14 3 31z" />
<glyph unicode="&#x3bc;" horiz-adv-x="1038" d="M-80 -422q4 23 11.5 44.5t16.5 53.5l22 82q13 49 28 129l207 1080h192l-84 -422q-22 -113 -22 -194q0 -62 13 -104q30 -99 91 -100q31 0 71 33t79 96.5t73.5 157.5t59.5 213l59 320h193l-103 -525q-25 -111 -35 -174t-12 -95t6.5 -39t28.5 -7q23 0 45.5 14.5t57.5 51.5 q14 -12 24 -31t16 -37q-51 -59 -115.5 -101t-121.5 -42q-86 0 -111 55q-14 32 -14 72q0 30 8 65q8 43 14.5 65.5t12.5 36.5h-2q-23 -66 -56.5 -120t-73.5 -92.5t-82 -60t-81 -21.5q-68 0 -100.5 34.5t-45.5 89.5h-2q1 -14 1 -28q0 -43 -5 -88q-6 -61 -18 -117 q-12 -61 -18 -130q-2 -26 -1 -50q0 -37 5 -66q-45 -20 -105.5 -59t-103.5 -78q-26 17 -26 57q0 14 3 31z" />
<glyph unicode="&#xb6;" horiz-adv-x="1169" d="M201 1077q12 76 54 140.5t114.5 112.5t179 74t250.5 26q98 0 169.5 -2.5t145.5 -2.5q37 0 71 1t81 6q-4 -49 -19 -91q-49 -6 -76.5 -15t-44 -28.5t-24.5 -50t-19 -76.5l-57 -308l-50 -273l-46 -258l-45 -261l-45 -279l-49 -310q-25 -5 -49 -5q-30 0 -56 9l322 1849 q-29 2 -58.5 3t-62.5 1l-89 -469l-82 -455l-80 -459q-40 -232 -77 -478q-17 -4 -34 -4q-11 0 -21 2q-27 4 -49 16l204 1180q-20 -6 -43 -6h-36q-215 0 -316 104q-73 76 -73 205q0 48 10 102zM392 929q15 -65 53 -105t97.5 -57t133.5 -17l102 591q-98 0 -165.5 -13 t-112.5 -43t-68.5 -79t-36.5 -119q-10 -51 -10 -93q0 -36 7 -65z" />
<glyph unicode="&#xb7;" horiz-adv-x="352" d="M86 596q8 43 41 71.5t78 28.5q49 0 79 -37q22 -27 22 -66q0 -13 -3 -28q-10 -49 -38.5 -75.5t-74.5 -26.5q-57 0 -87 37q-21 26 -21 63q0 16 4 33z" />
<glyph unicode="&#xb8;" horiz-adv-x="1138" d="M389 -442q78 0 127 24.5t59 79.5q2 15 3 28q0 41 -25 65q-33 32 -90 32q-16 12 -22.5 32.5t-0.5 47.5l138 166h116l-123 -150q78 -16 113 -67q23 -33 23 -87q0 -28 -7 -63q-18 -90 -104 -135q-79 -41 -185 -41h-20q-6 15 -6 34q0 16 4 34z" />
<glyph unicode="&#xb9;" horiz-adv-x="538" d="M127 754q0 53 16 86q39 4 62.5 13t39 30.5t25 55.5t19.5 89l39 197q10 55 13 90t-4 57.5t-30.5 32.5t-64.5 14q-4 18 -5 37t3 43q43 -4 91 -5t115 -1q68 0 119 1t97 5q0 -39 -19 -80q-37 -6 -60.5 -18t-39 -35t-25.5 -56.5t-18 -84.5l-37 -197q-12 -55 -15.5 -89t6 -54.5 t31 -29.5t60.5 -15q6 -26 6 -53q0 -16 -2 -33q-49 4 -99.5 5t-111.5 1t-117.5 -1t-93.5 -5z" />
<glyph unicode="&#x2071;" horiz-adv-x="538" d="M127 754q0 53 16 86q39 4 62.5 13t39 30.5t25 55.5t19.5 89l39 197q10 55 13 90t-4 57.5t-30.5 32.5t-64.5 14q-4 18 -5 37t3 43q43 -4 91 -5t115 -1q68 0 119 1t97 5q0 -39 -19 -80q-37 -6 -60.5 -18t-39 -35t-25.5 -56.5t-18 -84.5l-37 -197q-12 -55 -15.5 -89t6 -54.5 t31 -29.5t60.5 -15q6 -26 6 -53q0 -16 -2 -33q-49 4 -99.5 5t-111.5 1t-117.5 -1t-93.5 -5z" />
<glyph unicode="&#xba;" horiz-adv-x="870" d="M250 1110q16 92 53 167t87 127t113.5 80.5t133.5 28.5q139 0 202 -100q42 -67 42 -167q0 -49 -11 -105q-16 -88 -52 -160t-87 -123t-115.5 -76.5t-134.5 -25.5q-139 0 -199 95q-41 65 -41 161q0 45 9 98zM426 921q18 -77 70 -77q61 0 112 70.5t78 215.5q12 63 13 116 q0 6 1 12q0 45 -8 81q-8 41 -26.5 62.5t-44.5 21.5q-63 0 -112.5 -70.5t-76.5 -213.5q-14 -81 -14 -141q0 -44 8 -77z" />
<glyph unicode="&#xbb;" horiz-adv-x="899" d="M92 281l115.5 121.5t103.5 119.5q-23 68 -59.5 157t-73.5 169q25 20 60 20q9 0 18 -2q53 -80 100 -141t109 -133q10 -22 10 -45q0 -18 -6 -37l-173 -149l-171 -160q-33 31 -33 80zM442 270l126 126q69 71 118 126q-12 33 -30.5 77t-41.5 90l-44 91q-22 45 -40 78 q23 20 57 20q10 0 21 -1q53 -76 109.5 -145.5t120.5 -139.5q10 -22 10 -45q0 -18 -6 -37l-184 -156l-183 -164q-33 31 -33 80z" />
<glyph unicode="&#xbc;" horiz-adv-x="1585" d="M127 588q0 23 4 48.5t10 41.5q39 4 60.5 12t37 25.5t23.5 45t17 73.5l69 358q10 51 11 82t-10 48t-39.5 22.5t-78.5 5.5q-3 14 -2 26q0 33 19 58q84 12 148.5 29.5t131.5 49.5q29 -12 44 -43q9 -18 10 -44q0 -17 -4 -37l-107 -551q-8 -45 -10 -74t6 -46.5t27.5 -25.5 t54.5 -12q6 -25 7 -46.5t-3 -45.5q-74 4 -117 5t-98 1t-100 -1t-111 -5zM295 63l1147 1446q61 -31 72 -86l-300 -364l-281 -347l-278 -352l-294 -378q-27 12 -44.5 33t-21.5 48zM796 276q166 162 321 329l312 341q12 2 24 2q17 0 30 -4q24 -6 40 -14l-108 -580h67 q31 0 52 -20q-6 -14 -12.5 -35t-12.5 -44.5t-10 -45t-8 -37.5h-109l-33 -168h-194l30 166q-125 -2 -209.5 -4t-138.5 -4q-18 14 -31 53q-10 30 -11 52q0 7 1 13zM981 350h239l19 105q10 61 23.5 120.5t33.5 114.5h-2q-18 -27 -55 -72t-111 -124q-39 -45 -77.5 -82t-69.5 -62 z" />
<glyph unicode="&#xbd;" horiz-adv-x="1796" d="M127 588q0 23 4 48.5t10 41.5q39 4 60.5 12t37 25.5t23.5 45t17 73.5l69 358q10 51 11 82t-10 48t-39.5 22.5t-78.5 5.5q-3 14 -2 26q0 33 19 58q84 12 148.5 29.5t131.5 49.5q29 -12 44 -43q9 -18 10 -44q0 -17 -4 -37l-107 -551q-8 -45 -10 -74t6 -46.5t27.5 -25.5 t54.5 -12q6 -25 7 -46.5t-3 -45.5q-74 4 -117 5t-98 1t-100 -1t-111 -5zM295 63l1147 1446q61 -31 72 -86l-300 -364l-281 -347l-278 -352l-294 -378q-27 12 -44.5 33t-21.5 48zM973 94l93 86l96 82l90 73l73 60q92 70 135 132.5t60 142.5q7 39 7 71q0 38 -11 65 q-19 50 -82 50q-78 0 -118 -59.5t-75 -200.5q-25 -2 -56.5 3t-47.5 15q37 115 43 242q80 51 147.5 70.5t147.5 19.5q139 0 208 -63q53 -48 53 -127q0 -25 -5 -54q-16 -88 -77 -155.5t-179 -151.5l-56 -42l-69 -52l-75 -60l-71 -59q29 4 55 4h58q51 0 84 -4t61 -4 q33 0 62.5 24.5t48.5 98.5q23 2 53.5 -2t42.5 -12q-12 -59 -17 -127q-4 -48 -4 -86q0 -15 1 -29q-10 -25 -32 -38t-59 -13q-51 0 -113.5 3t-160.5 3h-76q-33 0 -65 -1l-69 -2q-36 -1 -81 -3q-14 18 -19 48q-3 16 -3 31q0 11 2 21z" />
<glyph unicode="&#xbe;" horiz-adv-x="1611" d="M321 63l1147 1446q61 -31 72 -86l-300 -364l-281 -347l-278 -352l-294 -378q-27 12 -44.5 33t-21.5 48zM821 276q166 162 321 329l312 341q12 2 24 2q17 0 30 -4q24 -6 40 -14l-108 -580h67q31 0 52 -20q-6 -14 -12.5 -35t-12.5 -44.5t-10 -45t-8 -37.5h-109l-33 -168 h-194l30 166q-125 -2 -209.5 -4t-138.5 -4q-18 14 -31 53q-10 30 -11 52q0 7 1 13zM1006 350h239l19 105q10 61 23.5 120.5t33.5 114.5h-2q-18 -27 -55 -72t-111 -124q-39 -45 -77.5 -82t-69.5 -62zM61 633q0 23 12.5 49.5t28.5 36.5q27 -16 66 -28.5t100 -12.5 q84 0 144.5 37t74.5 112q5 23 5 43q0 52 -31 85q-43 46 -158 46q-10 25 -8 45.5t10 45.5q98 14 143.5 60t61.5 124q5 25 5 47q0 34 -12 57q-19 39 -73 39q-51 0 -87 -49t-69 -176q-25 -4 -56.5 0t-51.5 14q6 20 14 51t14.5 63t10.5 62.5t4 53.5q49 33 119.5 54t132.5 21 q143 0 215 -53q53 -40 53 -117q0 -26 -6 -57q-12 -61 -64.5 -116.5t-126.5 -82.5q90 -18 143 -80q36 -44 36 -112q0 -29 -6 -64q-14 -63 -52.5 -111t-94.5 -80t-126 -48.5t-145 -16.5q-96 0 -146.5 17.5t-79.5 40.5z" />
<glyph unicode="&#xbf;" horiz-adv-x="946" d="M18 -233q12 68 46 120t77 97t91.5 89t90.5 91t74.5 104.5t46.5 130.5q6 25 11 69q2 18 1 33q0 23 -3 42q20 10 35.5 13t33.5 3q29 -23 43 -94q7 -33 7 -71q0 -43 -9 -93q-20 -104 -72.5 -176t-107.5 -130l-104 -114q-49 -55 -62 -131q-6 -31 -6 -59q0 -48 18 -85 q29 -58 111 -59q72 0 124 61.5t97 209.5q33 0 53.5 -4t38.5 -17l-18 -67q-8 -31 -13.5 -58.5t-8.5 -56.5t-5 -64q-37 -33 -118.5 -62.5t-182.5 -29.5q-158 0 -236 84q-59 63 -59 157q-1 32 6 67zM463 881q10 47 38.5 74.5t73.5 27.5q57 0 88 -37q21 -26 21 -64q0 -16 -4 -34 q-8 -43 -41 -70.5t-78 -27.5q-49 0 -80 36q-22 26 -22 64q0 15 4 31z" />
<glyph unicode="&#xc0;" horiz-adv-x="1447" d="M-57 -6q0 23 3 46t13 44q31 8 54.5 23.5t46 41t50 67.5t62.5 103l320 550l311 556q20 8 42.5 10.5t41.5 2.5l157 -578l146 -581q14 -59 26.5 -94t26.5 -54.5t30.5 -30t41.5 -16.5q6 -23 7 -45v-15q0 -15 -1 -30q-53 4 -119.5 5t-116.5 1q-53 0 -114.5 -1t-124.5 -5 q0 23 3 46t13 44q47 6 76 16.5t41 28.5t12 49t-12 80l-49 205q-133 0 -284.5 -2t-278.5 -8l-88 -152q-37 -61 -53 -100q-12 -29 -11 -50q0 -7 1 -13q5 -24 28.5 -36t64.5 -18q7 -31 8 -64q0 -13 -2 -26q-49 4 -97 5t-95 1q-55 0 -94 -1t-86 -5zM428 559h477 q-23 96 -48.5 192.5t-53.5 190.5q-16 61 -27.5 109.5t-21.5 113.5l-61 -117l-62 -120l-100 -185zM613 1946q43 16 96 18h12q47 0 90 -14q14 -88 36 -176t57 -183q-12 -5 -30 -5h-6q-22 1 -38 10q-39 80 -98.5 178t-118.5 172z" />
<glyph unicode="&#xc1;" horiz-adv-x="1447" d="M-57 -6q0 23 3 46t13 44q31 8 54.5 23.5t46 41t50 67.5t62.5 103l320 550l311 556q20 8 42.5 10.5t41.5 2.5l157 -578l146 -581q14 -59 26.5 -94t26.5 -54.5t30.5 -30t41.5 -16.5q6 -23 7 -45v-15q0 -15 -1 -30q-53 4 -119.5 5t-116.5 1q-53 0 -114.5 -1t-124.5 -5 q0 23 3 46t13 44q47 6 76 16.5t41 28.5t12 49t-12 80l-49 205q-133 0 -284.5 -2t-278.5 -8l-88 -152q-37 -61 -53 -100q-12 -29 -11 -50q0 -7 1 -13q5 -24 28.5 -36t64.5 -18q7 -31 8 -64q0 -13 -2 -26q-49 4 -97 5t-95 1q-55 0 -94 -1t-86 -5zM428 559h477 q-23 96 -48.5 192.5t-53.5 190.5q-16 61 -27.5 109.5t-21.5 113.5l-61 -117l-62 -120l-100 -185zM787 1602q70 111 120 207t76 161q52 15 99 15h21q56 -4 97 -33q-80 -76 -169 -174t-169 -205q-46 4 -75 29z" />
<glyph unicode="&#xc2;" horiz-adv-x="1447" d="M-57 -6q0 23 3 46t13 44q31 8 54.5 23.5t46 41t50 67.5t62.5 103l320 550l311 556q20 8 42.5 10.5t41.5 2.5l157 -578l146 -581q14 -59 26.5 -94t26.5 -54.5t30.5 -30t41.5 -16.5q6 -23 7 -45v-15q0 -15 -1 -30q-53 4 -119.5 5t-116.5 1q-53 0 -114.5 -1t-124.5 -5 q0 23 3 46t13 44q47 6 76 16.5t41 28.5t12 49t-12 80l-49 205q-133 0 -284.5 -2t-278.5 -8l-88 -152q-37 -61 -53 -100q-12 -29 -11 -50q0 -7 1 -13q5 -24 28.5 -36t64.5 -18q7 -31 8 -64q0 -13 -2 -26q-49 4 -97 5t-95 1q-55 0 -94 -1t-86 -5zM428 559h477 q-23 96 -48.5 192.5t-53.5 190.5q-16 61 -27.5 109.5t-21.5 113.5l-61 -117l-62 -120l-100 -185zM592 1673q88 63 170 132t160 143q9 1 18 1q30 0 62 -15q47 -76 100 -148t111 -141q-6 -20 -24.5 -38t-39.5 -24q-59 49 -121.5 92t-128.5 78q-76 -37 -147.5 -80t-140.5 -94 q-12 18 -18 45q-3 15 -3 29q0 10 2 20z" />
<glyph unicode="&#xc3;" horiz-adv-x="1447" d="M-57 -6q0 23 3 46t13 44q31 8 54.5 23.5t46 41t50 67.5t62.5 103l320 550l311 556q20 8 42.5 10.5t41.5 2.5l157 -578l146 -581q14 -59 26.5 -94t26.5 -54.5t30.5 -30t41.5 -16.5q6 -23 7 -45v-15q0 -15 -1 -30q-53 4 -119.5 5t-116.5 1q-53 0 -114.5 -1t-124.5 -5 q0 23 3 46t13 44q47 6 76 16.5t41 28.5t12 49t-12 80l-49 205q-133 0 -284.5 -2t-278.5 -8l-88 -152q-37 -61 -53 -100q-12 -29 -11 -50q0 -7 1 -13q5 -24 28.5 -36t64.5 -18q7 -31 8 -64q0 -13 -2 -26q-49 4 -97 5t-95 1q-55 0 -94 -1t-86 -5zM428 559h477 q-23 96 -48.5 192.5t-53.5 190.5q-16 61 -27.5 109.5t-21.5 113.5l-61 -117l-62 -120l-100 -185zM522 1606q80 104 144.5 141t111.5 37q39 0 73 -14.5t66 -30.5l59 -30q28 -13 58 -13q41 0 80 19.5t74 56.5q25 -12 39 -43q-37 -55 -69 -91t-59.5 -56.5t-52 -29t-49.5 -8.5 q-35 0 -68.5 14.5t-65 32t-64.5 32t-66 14.5q-49 0 -92 -17.5t-98 -62.5q-25 16 -21 49z" />
<glyph unicode="&#xc4;" horiz-adv-x="1447" d="M-57 -6q0 23 3 46t13 44q31 8 54.5 23.5t46 41t50 67.5t62.5 103l320 550l311 556q20 8 42.5 10.5t41.5 2.5l157 -578l146 -581q14 -59 26.5 -94t26.5 -54.5t30.5 -30t41.5 -16.5q6 -23 7 -45v-15q0 -15 -1 -30q-53 4 -119.5 5t-116.5 1q-53 0 -114.5 -1t-124.5 -5 q0 23 3 46t13 44q47 6 76 16.5t41 28.5t12 49t-12 80l-49 205q-133 0 -284.5 -2t-278.5 -8l-88 -152q-37 -61 -53 -100q-12 -29 -11 -50q0 -7 1 -13q5 -24 28.5 -36t64.5 -18q7 -31 8 -64q0 -13 -2 -26q-49 4 -97 5t-95 1q-55 0 -94 -1t-86 -5zM428 559h477 q-23 96 -48.5 192.5t-53.5 190.5q-16 61 -27.5 109.5t-21.5 113.5l-61 -117l-62 -120l-100 -185zM633 1718q16 92 116 93q55 0 79 -35q16 -24 17 -59q0 -15 -4 -31q-27 -102 -116 -103q-53 0 -79 37q-17 25 -17 61q0 17 4 37zM958 1712q16 98 123 99q49 0 75 -32 q18 -23 18 -56q0 -13 -3 -29q-10 -53 -40.5 -81t-80.5 -28q-53 0 -77 35q-17 25 -18 61q0 14 3 31z" />
<glyph unicode="&#xc5;" horiz-adv-x="1447" d="M-57 -6q0 23 3 46t13 44q31 8 54.5 23.5t46 41t50 67.5t62.5 103l320 550l311 556q20 8 42.5 10.5t41.5 2.5l157 -578l146 -581q14 -59 26.5 -94t26.5 -54.5t30.5 -30t41.5 -16.5q6 -23 7 -45v-15q0 -15 -1 -30q-53 4 -119.5 5t-116.5 1q-53 0 -114.5 -1t-124.5 -5 q0 23 3 46t13 44q47 6 76 16.5t41 28.5t12 49t-12 80l-49 205q-133 0 -284.5 -2t-278.5 -8l-88 -152q-37 -61 -53 -100q-12 -29 -11 -50q0 -7 1 -13q5 -24 28.5 -36t64.5 -18q7 -31 8 -64q0 -13 -2 -26q-49 4 -97 5t-95 1q-55 0 -94 -1t-86 -5zM428 559h477 q-23 96 -48.5 192.5t-53.5 190.5q-16 61 -27.5 109.5t-21.5 113.5l-61 -117l-62 -120l-100 -185zM700 1780q12 80 74 127t162 47q98 0 149 -58q39 -44 39 -113q0 -22 -4 -46q-10 -74 -71.5 -120t-163.5 -46q-100 0 -152 56q-38 41 -37 105q-1 23 4 48zM811 1770 q-3 -16 -3 -30q0 -35 18 -58q26 -33 75 -33q39 0 66.5 24.5t34.5 65.5q4 23 4 43q0 36 -15 61q-23 39 -73 39q-39 0 -68 -31.5t-39 -80.5z" />
<glyph unicode="&#xc6;" horiz-adv-x="1783" d="M-57 -6q0 23 3 46t13 44q31 8 56.5 20.5t51 34t58.5 57t78 93.5l325 432l306 414q54 75 54 123q0 72 -122 83q-5 23 -5 50q0 20 3 41q66 -2 121 -4l111 -2q56 -1 118 -1h135q123 0 256 1t299 6q-10 -80 -15 -175q-3 -52 -3 -99q0 -37 2 -71q-35 -15 -90 -14h-15 q-2 68 -11 117t-38.5 81t-89 46t-160.5 14h-151l-105 -612h89q66 0 112.5 7t77.5 27.5t49.5 54.5t26.5 87q27 4 49 5t53 -3q-14 -53 -24.5 -102.5t-20.5 -132.5q-10 -76 -15 -132.5t-9 -109.5q-31 4 -55.5 9t-43.5 17q1 17 2 32q0 81 -38 113q-44 38 -173 38h-96l-55 -328 q-9 -61 -10 -101q0 -47 18 -70q16 -22 54 -29t100 -7q98 0 161.5 18.5t106.5 52.5t74.5 84t62.5 113q31 -4 53.5 -14t40.5 -33q-35 -66 -64.5 -147.5t-47.5 -173.5q-96 4 -192.5 5t-215.5 1q-154 0 -279.5 -1t-252.5 -5q0 49 16 90q47 6 76.5 18.5t49 35t30 62.5t20.5 101 l57 328q-88 0 -176 -1t-168 -5l-266 -365q-55 -78 -55 -118t59 -56q7 -31 8 -64q0 -13 -2 -26q-49 4 -97 5t-95 1q-55 0 -94 -1t-86 -5zM641 719h291l63 364q10 61 22.5 115.5t24.5 95.5h-2l-156 -233z" />
<glyph unicode="&#xc7;" horiz-adv-x="1296" d="M109 692q25 199 106.5 341.5t197 233.5t252 135t271.5 44q133 0 237.5 -31t210.5 -94q-29 -72 -44 -149.5t-25 -170.5q-30 -11 -62 -11q-26 0 -53 7q8 63 8 113q0 39 -5 71q-11 71 -45 109.5t-87 53t-119 14.5q-135 0 -243.5 -51.5t-187.5 -140.5t-127 -208.5t-62 -255.5 q-5 -49 -5 -96q0 -67 10 -130q17 -108 69.5 -188.5t138.5 -128.5t211 -48q115 0 220 31.5t202 88.5q29 -29 32 -79q-119 -86 -241.5 -126t-251.5 -44l-80 -99q78 -16 113 -67q23 -33 22 -87q0 -28 -6 -63q-18 -90 -104 -135q-79 -41 -187 -41h-20q-5 15 -5 35q0 15 3 33 q80 0 129 24.5t59 79.5q2 15 2 28q0 41 -25 65q-33 32 -90 32q-16 12 -22 32.5t0 47.5l98 119q-139 16 -240.5 77.5t-164 154.5t-85.5 215q-13 68 -14 142q1 57 9 117z" />
<glyph unicode="&#xc8;" horiz-adv-x="1157" d="M488 1946q43 16 96 18h12q47 0 90 -14q14 -88 36 -176t57 -183q-12 -5 -30 -5h-6q-22 1 -38 10q-39 80 -98.5 178t-118.5 172zM41 -6q0 49 14 90q47 6 77 18.5t49.5 35t29.5 62.5t20 101l152 868q9 47 9 77q0 36 -14 57q-13 18 -40 25t-66 13q-4 20 -5 43t3 48 q109 -4 202 -5.5t151 -1.5q123 0 256 1t299 6q-10 -80 -16 -175q-2 -43 -2 -81q0 -47 3 -89q-36 -15 -92 -14h-14q-2 68 -11.5 117t-39 81t-89 46t-159.5 14h-152l-96 -563h86q66 0 113 7t78.5 26.5t49 53.5t25.5 85q29 4 50.5 5t52.5 -3l-24 -101q-11 -50 -21 -132 q-10 -76 -15.5 -133.5t-9.5 -108.5q-31 4 -54.5 9t-43.5 18q1 17 1 31q0 81 -37 112q-44 37 -173 37h-94l-64 -373q-10 -68 -10 -107.5t16.5 -61t52 -30t95.5 -8.5h8q98 0 161.5 18.5t106.5 52.5t75 84t62 113q31 -4 53.5 -14t43.5 -33q-37 -66 -67 -147.5t-48 -173.5 q-94 4 -191.5 5t-216.5 1q-154 0 -279.5 -1t-250.5 -5z" />
<glyph unicode="&#xc9;" horiz-adv-x="1157" d="M41 -6q0 49 14 90q47 6 77 18.5t49.5 35t29.5 62.5t20 101l152 868q9 47 9 77q0 36 -14 57q-13 18 -40 25t-66 13q-4 20 -5 43t3 48q109 -4 202 -5.5t151 -1.5q123 0 256 1t299 6q-10 -80 -16 -175q-2 -43 -2 -81q0 -47 3 -89q-36 -15 -92 -14h-14q-2 68 -11.5 117 t-39 81t-89 46t-159.5 14h-152l-96 -563h86q66 0 113 7t78.5 26.5t49 53.5t25.5 85q29 4 50.5 5t52.5 -3l-24 -101q-11 -50 -21 -132q-10 -76 -15.5 -133.5t-9.5 -108.5q-31 4 -54.5 9t-43.5 18q1 17 1 31q0 81 -37 112q-44 37 -173 37h-94l-64 -373q-10 -68 -10 -107.5 t16.5 -61t52 -30t95.5 -8.5h8q98 0 161.5 18.5t106.5 52.5t75 84t62 113q31 -4 53.5 -14t43.5 -33q-37 -66 -67 -147.5t-48 -173.5q-94 4 -191.5 5t-216.5 1q-154 0 -279.5 -1t-250.5 -5zM662 1602q70 111 120 207t76 161q52 15 99 15h21q56 -4 97 -33q-80 -76 -169 -174 t-169 -205q-46 4 -75 29z" />
<glyph unicode="&#xca;" horiz-adv-x="1157" d="M467 1673q88 63 170 132t160 143q9 1 18 1q30 0 62 -15q47 -76 100 -148t111 -141q-6 -20 -24.5 -38t-39.5 -24q-59 49 -121.5 92t-128.5 78q-76 -37 -147.5 -80t-140.5 -94q-12 18 -18 45q-3 15 -3 29q0 10 2 20zM41 -6q0 49 14 90q47 6 77 18.5t49.5 35t29.5 62.5 t20 101l152 868q9 47 9 77q0 36 -14 57q-13 18 -40 25t-66 13q-4 20 -5 43t3 48q109 -4 202 -5.5t151 -1.5q123 0 256 1t299 6q-10 -80 -16 -175q-2 -43 -2 -81q0 -47 3 -89q-36 -15 -92 -14h-14q-2 68 -11.5 117t-39 81t-89 46t-159.5 14h-152l-96 -563h86q66 0 113 7 t78.5 26.5t49 53.5t25.5 85q29 4 50.5 5t52.5 -3l-24 -101q-11 -50 -21 -132q-10 -76 -15.5 -133.5t-9.5 -108.5q-31 4 -54.5 9t-43.5 18q1 17 1 31q0 81 -37 112q-44 37 -173 37h-94l-64 -373q-10 -68 -10 -107.5t16.5 -61t52 -30t95.5 -8.5h8q98 0 161.5 18.5t106.5 52.5 t75 84t62 113q31 -4 53.5 -14t43.5 -33q-37 -66 -67 -147.5t-48 -173.5q-94 4 -191.5 5t-216.5 1q-154 0 -279.5 -1t-250.5 -5z" />
<glyph unicode="&#xcb;" horiz-adv-x="1157" d="M508 1718q16 92 116 93q55 0 79 -35q16 -24 17 -59q0 -15 -4 -31q-27 -102 -116 -103q-53 0 -79 37q-17 25 -17 61q0 17 4 37zM833 1712q16 98 123 99q49 0 75 -32q18 -23 18 -56q0 -13 -3 -29q-10 -53 -40.5 -81t-80.5 -28q-53 0 -77 35q-17 25 -18 61q0 14 3 31zM41 -6 q0 49 14 90q47 6 77 18.5t49.5 35t29.5 62.5t20 101l152 868q9 47 9 77q0 36 -14 57q-13 18 -40 25t-66 13q-4 20 -5 43t3 48q109 -4 202 -5.5t151 -1.5q123 0 256 1t299 6q-10 -80 -16 -175q-2 -43 -2 -81q0 -47 3 -89q-36 -15 -92 -14h-14q-2 68 -11.5 117t-39 81t-89 46 t-159.5 14h-152l-96 -563h86q66 0 113 7t78.5 26.5t49 53.5t25.5 85q29 4 50.5 5t52.5 -3l-24 -101q-11 -50 -21 -132q-10 -76 -15.5 -133.5t-9.5 -108.5q-31 4 -54.5 9t-43.5 18q1 17 1 31q0 81 -37 112q-44 37 -173 37h-94l-64 -373q-10 -68 -10 -107.5t16.5 -61t52 -30 t95.5 -8.5h8q98 0 161.5 18.5t106.5 52.5t75 84t62 113q31 -4 53.5 -14t43.5 -33q-37 -66 -67 -147.5t-48 -173.5q-94 4 -191.5 5t-216.5 1q-154 0 -279.5 -1t-250.5 -5z" />
<glyph unicode="&#xcc;" horiz-adv-x="751" d="M289 1946q43 16 96 18h12q47 0 90 -14q14 -88 36 -176t57 -183q-12 -5 -30 -5h-6q-22 1 -38 10q-39 80 -98.5 178t-118.5 172zM61 -6q0 53 17 90q43 4 71.5 14.5t46 29.5t27.5 53t21 87l155 889q7 43 7 73v14q-2 34 -17.5 53.5t-44.5 28.5t-72 15q-4 20 -5 43t3 48 q115 -6 252 -7q131 0 258 7q-2 -25 -5 -47.5t-13 -43.5q-41 -6 -68.5 -16t-45 -30.5t-30 -53.5t-22.5 -84l-154 -889q-9 -48 -9 -80q0 -39 17 -59q15 -18 42.5 -28.5t74.5 -16.5q6 -26 7 -54q0 -17 -3 -36q-127 6 -256 6q-59 0 -129 -1t-125 -5z" />
<glyph unicode="&#xcd;" horiz-adv-x="751" d="M465 1602q70 111 120 207t76 161q52 15 99 15h21q56 -4 97 -33q-80 -76 -169 -174t-169 -205q-46 4 -75 29zM61 -6q0 53 17 90q43 4 71.5 14.5t46 29.5t27.5 53t21 87l155 889q7 43 7 73v14q-2 34 -17.5 53.5t-44.5 28.5t-72 15q-4 20 -5 43t3 48q115 -6 252 -7 q131 0 258 7q-2 -25 -5 -47.5t-13 -43.5q-41 -6 -68.5 -16t-45 -30.5t-30 -53.5t-22.5 -84l-154 -889q-9 -48 -9 -80q0 -39 17 -59q15 -18 42.5 -28.5t74.5 -16.5q6 -26 7 -54q0 -17 -3 -36q-127 6 -256 6q-59 0 -129 -1t-125 -5z" />
<glyph unicode="&#xce;" horiz-adv-x="751" d="M268 1673q88 63 170 132t160 143q9 1 18 1q30 0 62 -15q47 -76 100 -148t111 -141q-6 -20 -24.5 -38t-39.5 -24q-59 49 -121.5 92t-128.5 78q-76 -37 -147.5 -80t-140.5 -94q-12 18 -18 45q-3 15 -3 29q0 10 2 20zM61 -6q0 53 17 90q43 4 71.5 14.5t46 29.5t27.5 53 t21 87l155 889q7 43 7 73v14q-2 34 -17.5 53.5t-44.5 28.5t-72 15q-4 20 -5 43t3 48q115 -6 252 -7q131 0 258 7q-2 -25 -5 -47.5t-13 -43.5q-41 -6 -68.5 -16t-45 -30.5t-30 -53.5t-22.5 -84l-154 -889q-9 -48 -9 -80q0 -39 17 -59q15 -18 42.5 -28.5t74.5 -16.5 q6 -26 7 -54q0 -17 -3 -36q-127 6 -256 6q-59 0 -129 -1t-125 -5z" />
<glyph unicode="&#xcf;" horiz-adv-x="751" d="M312 1718q16 92 116 93q55 0 79 -35q16 -24 17 -59q0 -15 -4 -31q-27 -102 -116 -103q-53 0 -79 37q-17 25 -17 61q0 17 4 37zM637 1712q16 98 123 99q49 0 75 -32q18 -23 18 -56q0 -13 -3 -29q-10 -53 -40.5 -81t-80.5 -28q-53 0 -77 35q-17 25 -18 61q0 14 3 31zM61 -6 q0 53 17 90q43 4 71.5 14.5t46 29.5t27.5 53t21 87l155 889q7 43 7 73v14q-2 34 -17.5 53.5t-44.5 28.5t-72 15q-4 20 -5 43t3 48q115 -6 252 -7q131 0 258 7q-2 -25 -5 -47.5t-13 -43.5q-41 -6 -68.5 -16t-45 -30.5t-30 -53.5t-22.5 -84l-154 -889q-9 -48 -9 -80 q0 -39 17 -59q15 -18 42.5 -28.5t74.5 -16.5q6 -26 7 -54q0 -17 -3 -36q-127 6 -256 6q-59 0 -129 -1t-125 -5z" />
<glyph unicode="&#xd0;" horiz-adv-x="1527" d="M53 -6q4 53 17 90q47 6 77.5 18.5t49 35t30 62.5t23.5 101l59 344q-41 0 -75.5 -1t-65.5 -3q2 57 25 94h133l75 434q6 37 6 65v19q-3 33 -19.5 51.5t-45.5 26.5t-68 12q-6 23 -7 45.5t3 43.5q68 -4 147 -5.5t144 -1.5q68 0 135.5 3.5t130.5 3.5q94 0 189.5 -12.5 t179.5 -44.5t153.5 -86t113.5 -138t58 -200q4 -35 4 -73q0 -89 -22 -196q-31 -176 -109.5 -303t-198.5 -212t-272.5 -126t-334.5 -41h-6h-124q-67 0 -136 -1l-139 -2q-69 -1 -130 -3zM434 185.5q0 -35.5 16.5 -55t51.5 -28t94 -8.5q129 0 242.5 32t201.5 100.5t151.5 176 t92.5 261.5q22 113 22 204q0 67 -12 122q-29 130 -102.5 208t-183 110.5t-234.5 32.5q-43 0 -79 -4t-70 -12l-103 -590h140q1 -9 0 -17q0 -38 -15 -71h-139l-64 -366q-10 -60 -10 -95.5z" />
<glyph unicode="&#xd1;" horiz-adv-x="1505" d="M51 -6q2 51 15 90q41 6 68.5 22.5t49 48t37 82t31.5 125.5l80 448l78 447l-7 11q-25 41 -51 55t-78 18q-6 24 -6 54q0 17 2 37q31 -4 60.5 -5.5t66.5 -1.5q90 0 146 7l333 -553l318 -560l127 734q12 82 14 135q0 7 1 14q0 44 -12 71q-13 32 -42 46t-76 22q-4 20 -5 43 t3 48q47 -4 98.5 -5.5t94.5 -1.5q49 0 105.5 1t99.5 6q0 -18 -4.5 -44t-12.5 -47q-37 -10 -61.5 -28.5t-42 -53t-31.5 -89t-27 -138.5q-41 -264 -86 -521l-92 -519q-18 -6 -40.5 -8t-47.5 -2l-326 572l-337 566q-29 -186 -62 -368.5t-70 -368.5q-16 -84 -18 -137v-15 q0 -43 10 -72q12 -34 43 -50.5t80 -24.5q6 -22 7 -52q0 -18 -3 -38q-63 4 -125.5 5t-103.5 1q-49 0 -90 -1t-111 -5zM577 1606q80 104 144.5 141t111.5 37q39 0 73 -14.5t66 -30.5l59 -30q28 -13 58 -13q41 0 80 19.5t74 56.5q25 -12 39 -43q-37 -55 -69 -91t-59.5 -56.5 t-52 -29t-49.5 -8.5q-35 0 -68.5 14.5t-65 32t-64.5 32t-66 14.5q-49 0 -92 -17.5t-98 -62.5q-25 16 -21 49z" />
<glyph unicode="&#xd2;" horiz-adv-x="1519" d="M656 1946q43 16 96 18h12q47 0 90 -14q14 -88 36 -176t57 -183q-12 -5 -30 -5h-6q-22 1 -38 10q-39 80 -98.5 178t-118.5 172zM117 461q-13 65 -13 136q0 92 21 194q25 137 95.5 256.5t173 207.5t231.5 139.5t274 51.5q152 0 278 -54.5t206.5 -158t110.5 -256.5 q13 -66 13 -142q0 -98 -22 -210q-25 -133 -92.5 -250t-168 -205t-231.5 -138t-282 -50q-158 0 -283 58t-203.5 164.5t-107.5 256.5zM328 523q14 -132 65 -232.5t141.5 -158.5t215.5 -58q102 0 189 41t152.5 114.5t111.5 173t67 218.5q17 97 17 185q0 57 -7 109 q-18 135 -75.5 232.5t-145.5 151t-201 53.5q-94 0 -179 -43t-151.5 -118t-114.5 -174t-69 -212q-21 -102 -21 -196q0 -44 5 -86z" />
<glyph unicode="&#xd3;" horiz-adv-x="1519" d="M117 461q-13 65 -13 136q0 92 21 194q25 137 95.5 256.5t173 207.5t231.5 139.5t274 51.5q152 0 278 -54.5t206.5 -158t110.5 -256.5q13 -66 13 -142q0 -98 -22 -210q-25 -133 -92.5 -250t-168 -205t-231.5 -138t-282 -50q-158 0 -283 58t-203.5 164.5t-107.5 256.5z M328 523q14 -132 65 -232.5t141.5 -158.5t215.5 -58q102 0 189 41t152.5 114.5t111.5 173t67 218.5q17 97 17 185q0 57 -7 109q-18 135 -75.5 232.5t-145.5 151t-201 53.5q-94 0 -179 -43t-151.5 -118t-114.5 -174t-69 -212q-21 -102 -21 -196q0 -44 5 -86zM832 1602 q70 111 120 207t76 161q52 15 99 15h21q56 -4 97 -33q-80 -76 -169 -174t-169 -205q-46 4 -75 29z" />
<glyph unicode="&#xd4;" horiz-adv-x="1519" d="M117 461q-13 65 -13 136q0 92 21 194q25 137 95.5 256.5t173 207.5t231.5 139.5t274 51.5q152 0 278 -54.5t206.5 -158t110.5 -256.5q13 -66 13 -142q0 -98 -22 -210q-25 -133 -92.5 -250t-168 -205t-231.5 -138t-282 -50q-158 0 -283 58t-203.5 164.5t-107.5 256.5z M328 523q14 -132 65 -232.5t141.5 -158.5t215.5 -58q102 0 189 41t152.5 114.5t111.5 173t67 218.5q17 97 17 185q0 57 -7 109q-18 135 -75.5 232.5t-145.5 151t-201 53.5q-94 0 -179 -43t-151.5 -118t-114.5 -174t-69 -212q-21 -102 -21 -196q0 -44 5 -86zM635 1673 q88 63 170 132t160 143q9 1 18 1q30 0 62 -15q47 -76 100 -148t111 -141q-6 -20 -24.5 -38t-39.5 -24q-59 49 -121.5 92t-128.5 78q-76 -37 -147.5 -80t-140.5 -94q-12 18 -18 45q-3 15 -3 29q0 10 2 20z" />
<glyph unicode="&#xd5;" horiz-adv-x="1519" d="M565 1606q80 104 144.5 141t111.5 37q39 0 73 -14.5t66 -30.5l59 -30q28 -13 58 -13q41 0 80 19.5t74 56.5q25 -12 39 -43q-37 -55 -69 -91t-59.5 -56.5t-52 -29t-49.5 -8.5q-35 0 -68.5 14.5t-65 32t-64.5 32t-66 14.5q-49 0 -92 -17.5t-98 -62.5q-25 16 -21 49z M117 461q-13 65 -13 136q0 92 21 194q25 137 95.5 256.5t173 207.5t231.5 139.5t274 51.5q152 0 278 -54.5t206.5 -158t110.5 -256.5q13 -66 13 -142q0 -98 -22 -210q-25 -133 -92.5 -250t-168 -205t-231.5 -138t-282 -50q-158 0 -283 58t-203.5 164.5t-107.5 256.5z M328 523q14 -132 65 -232.5t141.5 -158.5t215.5 -58q102 0 189 41t152.5 114.5t111.5 173t67 218.5q17 97 17 185q0 57 -7 109q-18 135 -75.5 232.5t-145.5 151t-201 53.5q-94 0 -179 -43t-151.5 -118t-114.5 -174t-69 -212q-21 -102 -21 -196q0 -44 5 -86z" />
<glyph unicode="&#xd6;" horiz-adv-x="1519" d="M117 461q-13 65 -13 136q0 92 21 194q25 137 95.5 256.5t173 207.5t231.5 139.5t274 51.5q152 0 278 -54.5t206.5 -158t110.5 -256.5q13 -66 13 -142q0 -98 -22 -210q-25 -133 -92.5 -250t-168 -205t-231.5 -138t-282 -50q-158 0 -283 58t-203.5 164.5t-107.5 256.5z M328 523q14 -132 65 -232.5t141.5 -158.5t215.5 -58q102 0 189 41t152.5 114.5t111.5 173t67 218.5q17 97 17 185q0 57 -7 109q-18 135 -75.5 232.5t-145.5 151t-201 53.5q-94 0 -179 -43t-151.5 -118t-114.5 -174t-69 -212q-21 -102 -21 -196q0 -44 5 -86zM676 1718 q16 92 116 93q55 0 79 -35q16 -24 17 -59q0 -15 -4 -31q-27 -102 -116 -103q-53 0 -79 37q-17 25 -17 61q0 17 4 37zM1001 1712q16 98 123 99q49 0 75 -32q18 -23 18 -56q0 -13 -3 -29q-10 -53 -40.5 -81t-80.5 -28q-53 0 -77 35q-17 25 -18 61q0 14 3 31z" />
<glyph unicode="&#xd7;" horiz-adv-x="1302" d="M-45 29l530 471l-202 228l-207 228q41 35 108 35l377 -424l502 447q33 -8 53.5 -23.5t36.5 -46.5l-233 -202l-287 -255l414 -464q-23 -23 -53.5 -30t-63.5 -3l-373 430l-261 -234l-233 -211q-35 4 -63.5 20t-44.5 34z" />
<glyph unicode="&#xd8;" horiz-adv-x="1519" d="M100 31l140 153q-88 106 -120 261q-15 72 -15 151q0 92 20 195q25 137 95.5 256.5t173 207.5t231.5 139.5t274 51.5q236 0 393 -123l113 123q33 0 60.5 -13.5t41.5 -31.5l-141 -148q92 -104 127 -261q16 -70 16 -151q0 -100 -24 -216q-25 -133 -92.5 -250t-168 -205 t-231.5 -138t-282 -50q-121 0 -220.5 33.5t-179.5 97.5l-114 -131q-35 0 -60 13t-37 36zM327 548q7 -122 48 -218l799 864q-57 76 -137.5 117t-178.5 41q-94 0 -179 -43t-151.5 -118t-114.5 -174t-69 -212q-19 -105 -19 -201q0 -28 2 -56zM426 238q55 -78 135 -121t189 -43 q102 0 189 41t152.5 114.5t111.5 173t67 218.5q18 97 18 183q0 43 -5 84q-13 122 -58 218l-403 -433z" />
<glyph unicode="&#xd9;" horiz-adv-x="1339" d="M209 541l106 628q10 47 11.5 79t-9 51.5t-32 28.5t-56.5 13q-5 21 -4 48q0 20 2 43q74 -4 124 -5.5t112 -1.5q68 0 121 1t131 6q-2 -25 -5 -46.5t-14 -44.5q-49 -4 -80.5 -13t-51 -30.5t-32 -57.5t-22.5 -93l-102 -598q-15 -83 -16 -150q0 -30 3 -57q10 -86 47 -142.5 t97.5 -82t138.5 -25.5q156 0 258 110.5t137 315.5l101 565q12 68 12 112t-13.5 70.5t-41 44t-72.5 31.5q-5 23 -5 50q0 20 3 41q68 -4 116 -5.5t93 -1.5h47q23 0 47 1t52 2.5l65 3.5q0 -45 -19 -91q-45 -14 -74.5 -31.5t-48 -46t-33 -76.5t-26.5 -124l-92 -524 q-51 -287 -185.5 -422t-363.5 -135q-268 0 -371 147q-70 101 -70 257q0 72 15 155zM649 1946q43 16 96 18h12q47 0 90 -14q14 -88 36 -176t57 -183q-12 -5 -30 -5h-6q-22 1 -38 10q-39 80 -98.5 178t-118.5 172z" />
<glyph unicode="&#xda;" horiz-adv-x="1339" d="M209 541l106 628q10 47 11.5 79t-9 51.5t-32 28.5t-56.5 13q-5 21 -4 48q0 20 2 43q74 -4 124 -5.5t112 -1.5q68 0 121 1t131 6q-2 -25 -5 -46.5t-14 -44.5q-49 -4 -80.5 -13t-51 -30.5t-32 -57.5t-22.5 -93l-102 -598q-15 -83 -16 -150q0 -30 3 -57q10 -86 47 -142.5 t97.5 -82t138.5 -25.5q156 0 258 110.5t137 315.5l101 565q12 68 12 112t-13.5 70.5t-41 44t-72.5 31.5q-5 23 -5 50q0 20 3 41q68 -4 116 -5.5t93 -1.5h47q23 0 47 1t52 2.5l65 3.5q0 -45 -19 -91q-45 -14 -74.5 -31.5t-48 -46t-33 -76.5t-26.5 -124l-92 -524 q-51 -287 -185.5 -422t-363.5 -135q-268 0 -371 147q-70 101 -70 257q0 72 15 155zM826 1602q70 111 120 207t76 161q52 15 99 15h21q56 -4 97 -33q-80 -76 -169 -174t-169 -205q-46 4 -75 29z" />
<glyph unicode="&#xdb;" horiz-adv-x="1339" d="M209 541l106 628q10 47 11.5 79t-9 51.5t-32 28.5t-56.5 13q-5 21 -4 48q0 20 2 43q74 -4 124 -5.5t112 -1.5q68 0 121 1t131 6q-2 -25 -5 -46.5t-14 -44.5q-49 -4 -80.5 -13t-51 -30.5t-32 -57.5t-22.5 -93l-102 -598q-15 -83 -16 -150q0 -30 3 -57q10 -86 47 -142.5 t97.5 -82t138.5 -25.5q156 0 258 110.5t137 315.5l101 565q12 68 12 112t-13.5 70.5t-41 44t-72.5 31.5q-5 23 -5 50q0 20 3 41q68 -4 116 -5.5t93 -1.5h47q23 0 47 1t52 2.5l65 3.5q0 -45 -19 -91q-45 -14 -74.5 -31.5t-48 -46t-33 -76.5t-26.5 -124l-92 -524 q-51 -287 -185.5 -422t-363.5 -135q-268 0 -371 147q-70 101 -70 257q0 72 15 155zM629 1673q88 63 170 132t160 143q9 1 18 1q30 0 62 -15q47 -76 100 -148t111 -141q-6 -20 -24.5 -38t-39.5 -24q-59 49 -121.5 92t-128.5 78q-76 -37 -147.5 -80t-140.5 -94q-12 18 -18 45 q-3 15 -3 29q0 10 2 20z" />
<glyph unicode="&#xdc;" horiz-adv-x="1339" d="M670 1718q16 92 116 93q55 0 79 -35q16 -24 17 -59q0 -15 -4 -31q-27 -102 -116 -103q-53 0 -79 37q-17 25 -17 61q0 17 4 37zM995 1712q16 98 123 99q49 0 75 -32q18 -23 18 -56q0 -13 -3 -29q-10 -53 -40.5 -81t-80.5 -28q-53 0 -77 35q-17 25 -18 61q0 14 3 31z M209 541l106 628q10 47 11.5 79t-9 51.5t-32 28.5t-56.5 13q-5 21 -4 48q0 20 2 43q74 -4 124 -5.5t112 -1.5q68 0 121 1t131 6q-2 -25 -5 -46.5t-14 -44.5q-49 -4 -80.5 -13t-51 -30.5t-32 -57.5t-22.5 -93l-102 -598q-15 -83 -16 -150q0 -30 3 -57q10 -86 47 -142.5 t97.5 -82t138.5 -25.5q156 0 258 110.5t137 315.5l101 565q12 68 12 112t-13.5 70.5t-41 44t-72.5 31.5q-5 23 -5 50q0 20 3 41q68 -4 116 -5.5t93 -1.5h47q23 0 47 1t52 2.5l65 3.5q0 -45 -19 -91q-45 -14 -74.5 -31.5t-48 -46t-33 -76.5t-26.5 -124l-92 -524 q-51 -287 -185.5 -422t-363.5 -135q-268 0 -371 147q-70 101 -70 257q0 72 15 155z" />
<glyph unicode="&#xdd;" horiz-adv-x="1228" d="M214 1395q0 17 3 37q59 -4 118.5 -5.5t115.5 -1.5q63 0 124.5 1t141.5 6q0 -25 -5 -47.5t-14 -45.5q-104 -14 -131 -49q-12 -15 -11 -39q0 -31 19 -77q43 -96 88 -211l85 -232l80 113l76 104l65 89q29 40 47 69q75 108 75 160v7q-5 52 -102 68q-5 23 -4 50q0 20 2 41 q53 -4 97 -5.5t106 -1.5q51 0 94 1t94 6q0 -45 -20 -91q-18 -6 -33.5 -17t-41.5 -37.5t-64 -78.5l-101 -137l-155 -212l-179 -234l-65 -367q-8 -45 -8 -74.5t15 -48t46 -31t88 -20.5q6 -27 7 -55q0 -17 -3 -35q-68 4 -137.5 5t-132.5 1q-70 0 -144.5 -1t-130.5 -5 q0 53 15 92q51 8 84 20.5t53.5 32t31.5 53t21 87.5l60 339l-115 293q-55 137 -98 230q-27 59 -46.5 96t-35 58.5t-31.5 30.5t-39 17q-5 30 -5 52zM791 1602q70 111 120 207t76 161q52 15 99 15h21q56 -4 97 -33q-80 -76 -169 -174t-169 -205q-46 4 -75 29z" />
<glyph unicode="&#xde;" horiz-adv-x="1214" d="M61 -6q0 53 17 90q43 4 71.5 14.5t46 29.5t27.5 53t21 87l155 889q7 43 7 73v14q-2 34 -17.5 53.5t-44.5 28.5t-72 15q-4 20 -5 43t3 48q115 -6 252 -7q131 0 258 7q-2 -25 -5 -47.5t-13 -43.5q-43 -6 -70.5 -16t-45 -31.5t-29 -58.5t-25.5 -98q55 2 114 2h109 q117 0 198 -33t126 -89t59 -131q7 -37 7 -77.5t-7 -83.5q-12 -72 -54 -144.5t-110.5 -130t-164 -94.5t-214.5 -37q-47 0 -83.5 7.5t-59.5 23.5q-5 15 -5 30q0 18 7 38q33 -18 111 -19q59 0 118.5 14.5t110.5 51.5t89 100.5t54 157.5q7 42 7 81q0 29 -4 55q-9 62 -44.5 106.5 t-98 69t-155.5 24.5q-33 0 -58.5 -2t-65.5 -13l-136 -776q-9 -48 -9 -80q0 -39 17 -59q15 -18 42.5 -28.5t74.5 -16.5q6 -26 7 -54q0 -17 -3 -36q-127 6 -256 6q-59 0 -129 -1t-125 -5z" />
<glyph unicode="&#xdf;" horiz-adv-x="1105" d="M-305 -446q-1 11 -1 21q0 22 3 44q4 33 12 59q70 -18 123 -25t113 -7q41 0 68.5 16t48 68.5t40 146.5t41.5 248l22.5 148t25 181.5l26.5 198t31 197.5q-78 12 -156 12q0 49 25 82h145v10q18 111 56 211.5t101.5 176t155 119.5t218.5 44q94 0 148 -25.5t82 -66.5t32 -92 q1 -17 1 -34q0 -33 -5 -64q-14 -68 -42 -119t-63 -90t-72 -69l-69 -55q-33 -26 -55.5 -49.5t-28.5 -52.5q-3 -16 -4 -30q0 -30 14 -57q20 -40 55 -75.5l76 -73.5t74 -84t49 -106q9 -34 9 -74q0 -30 -5 -65q-20 -121 -105 -179t-208 -58q-92 0 -149.5 25.5t-100.5 62.5 q45 113 55 233l45.5 11.5t42.5 3.5q-2 -25 -1 -49q0 -91 26 -140q33 -61 117 -61q55 0 90 27.5t45 86.5q2 14 2 28q0 34 -14 66q-20 44 -56.5 82.5t-79.5 78.5t-76.5 87t-51.5 104q-10 31 -9 66q0 29 6 62q8 45 35 77.5t60.5 60.5t72.5 53.5t74 56t62.5 69.5t37.5 97 q5 25 5 49q0 19 -3 38q-6 44 -29.5 77.5t-64.5 53t-100 19.5q-86 0 -144.5 -107.5t-105.5 -361.5q-20 -100 -38 -202l-33 -190q-15 -89 -26 -163l-18 -117q-27 -176 -73 -321.5t-105 -250t-133 -162.5t-164 -58q-41 0 -89 18.5t-93 57.5z" />
<glyph unicode="&#xe0;" horiz-adv-x="1017" d="M61 87q-22 52 -22 134q0 86 24 205q25 123 78.5 225.5t128 176t166.5 115.5t195 42q29 0 61.5 -5t57.5 -13q31 0 64.5 4t53.5 14q8 -4 16.5 -12t10.5 -29.5t-2 -59.5t-21 -102l-104 -473q-12 -59 -18.5 -95t-4 -55.5t11.5 -25.5t25 -6q23 0 48.5 13.5t68.5 49.5 q14 -16 22.5 -31.5t14.5 -33.5q-49 -59 -113.5 -101t-120.5 -42q-72 0 -104.5 34.5t-38.5 84.5q-2 17 -2 35q0 35 8 73q12 57 31 100h-2q-29 -57 -71 -115.5t-92 -105.5t-105.5 -76.5t-114.5 -29.5q-105 0 -150 105zM248 248q18 -96 82 -96q27 0 71.5 37.5t94 109.5 t96.5 175.5t80 234.5l35 147q-55 20 -129 21q-66 0 -116 -26t-88 -73t-64.5 -111.5t-41.5 -144.5q-26 -121 -26 -204q0 -39 6 -70zM375 1485q43 16 96 18h12q47 0 90 -14q14 -88 36 -176t57 -183q-12 -5 -30 -5h-6q-22 1 -38 10q-39 80 -98.5 178t-118.5 172z" />
<glyph unicode="&#xe1;" horiz-adv-x="1017" d="M61 87q-22 52 -22 134q0 86 24 205q25 123 78.5 225.5t128 176t166.5 115.5t195 42q29 0 61.5 -5t57.5 -13q31 0 64.5 4t53.5 14q8 -4 16.5 -12t10.5 -29.5t-2 -59.5t-21 -102l-104 -473q-12 -59 -18.5 -95t-4 -55.5t11.5 -25.5t25 -6q23 0 48.5 13.5t68.5 49.5 q14 -16 22.5 -31.5t14.5 -33.5q-49 -59 -113.5 -101t-120.5 -42q-72 0 -104.5 34.5t-38.5 84.5q-2 17 -2 35q0 35 8 73q12 57 31 100h-2q-29 -57 -71 -115.5t-92 -105.5t-105.5 -76.5t-114.5 -29.5q-105 0 -150 105zM248 248q18 -96 82 -96q27 0 71.5 37.5t94 109.5 t96.5 175.5t80 234.5l35 147q-55 20 -129 21q-66 0 -116 -26t-88 -73t-64.5 -111.5t-41.5 -144.5q-26 -121 -26 -204q0 -39 6 -70zM551 1141q70 111 120 207t76 161q52 15 99 15h21q56 -4 97 -33q-80 -76 -169 -174t-169 -205q-46 4 -75 29z" />
<glyph unicode="&#xe2;" horiz-adv-x="1017" d="M61 87q-22 52 -22 134q0 86 24 205q25 123 78.5 225.5t128 176t166.5 115.5t195 42q29 0 61.5 -5t57.5 -13q31 0 64.5 4t53.5 14q8 -4 16.5 -12t10.5 -29.5t-2 -59.5t-21 -102l-104 -473q-12 -59 -18.5 -95t-4 -55.5t11.5 -25.5t25 -6q23 0 48.5 13.5t68.5 49.5 q14 -16 22.5 -31.5t14.5 -33.5q-49 -59 -113.5 -101t-120.5 -42q-72 0 -104.5 34.5t-38.5 84.5q-2 17 -2 35q0 35 8 73q12 57 31 100h-2q-29 -57 -71 -115.5t-92 -105.5t-105.5 -76.5t-114.5 -29.5q-105 0 -150 105zM248 248q18 -96 82 -96q27 0 71.5 37.5t94 109.5 t96.5 175.5t80 234.5l35 147q-55 20 -129 21q-66 0 -116 -26t-88 -73t-64.5 -111.5t-41.5 -144.5q-26 -121 -26 -204q0 -39 6 -70zM354 1212q88 63 170 132t160 143q9 1 18 1q30 0 62 -15q47 -76 100 -148t111 -141q-6 -20 -24.5 -38t-39.5 -24q-59 49 -121.5 92t-128.5 78 q-76 -37 -147.5 -80t-140.5 -94q-12 18 -18 45q-3 15 -3 29q0 10 2 20z" />
<glyph unicode="&#xe3;" horiz-adv-x="1017" d="M61 87q-22 52 -22 134q0 86 24 205q25 123 78.5 225.5t128 176t166.5 115.5t195 42q29 0 61.5 -5t57.5 -13q31 0 64.5 4t53.5 14q8 -4 16.5 -12t10.5 -29.5t-2 -59.5t-21 -102l-104 -473q-12 -59 -18.5 -95t-4 -55.5t11.5 -25.5t25 -6q23 0 48.5 13.5t68.5 49.5 q14 -16 22.5 -31.5t14.5 -33.5q-49 -59 -113.5 -101t-120.5 -42q-72 0 -104.5 34.5t-38.5 84.5q-2 17 -2 35q0 35 8 73q12 57 31 100h-2q-29 -57 -71 -115.5t-92 -105.5t-105.5 -76.5t-114.5 -29.5q-105 0 -150 105zM248 248q18 -96 82 -96q27 0 71.5 37.5t94 109.5 t96.5 175.5t80 234.5l35 147q-55 20 -129 21q-66 0 -116 -26t-88 -73t-64.5 -111.5t-41.5 -144.5q-26 -121 -26 -204q0 -39 6 -70zM284 1145q80 104 144.5 141t111.5 37q39 0 73 -14.5t66 -30.5l59 -30q28 -13 58 -13q41 0 80 19.5t74 56.5q25 -12 39 -43q-37 -55 -69 -91 t-59.5 -56.5t-52 -29t-49.5 -8.5q-35 0 -68.5 14.5t-65 32t-64.5 32t-66 14.5q-49 0 -92 -17.5t-98 -62.5q-25 16 -21 49z" />
<glyph unicode="&#xe4;" horiz-adv-x="1017" d="M61 87q-22 52 -22 134q0 86 24 205q25 123 78.5 225.5t128 176t166.5 115.5t195 42q29 0 61.5 -5t57.5 -13q31 0 64.5 4t53.5 14q8 -4 16.5 -12t10.5 -29.5t-2 -59.5t-21 -102l-104 -473q-12 -59 -18.5 -95t-4 -55.5t11.5 -25.5t25 -6q23 0 48.5 13.5t68.5 49.5 q14 -16 22.5 -31.5t14.5 -33.5q-49 -59 -113.5 -101t-120.5 -42q-72 0 -104.5 34.5t-38.5 84.5q-2 17 -2 35q0 35 8 73q12 57 31 100h-2q-29 -57 -71 -115.5t-92 -105.5t-105.5 -76.5t-114.5 -29.5q-105 0 -150 105zM248 248q18 -96 82 -96q27 0 71.5 37.5t94 109.5 t96.5 175.5t80 234.5l35 147q-55 20 -129 21q-66 0 -116 -26t-88 -73t-64.5 -111.5t-41.5 -144.5q-26 -121 -26 -204q0 -39 6 -70zM396 1257q16 92 116 93q55 0 79 -35q16 -24 17 -59q0 -15 -4 -31q-27 -102 -116 -103q-53 0 -79 37q-17 25 -17 61q0 17 4 37zM721 1251 q16 98 123 99q49 0 75 -32q18 -23 18 -56q0 -13 -3 -29q-10 -53 -40.5 -81t-80.5 -28q-53 0 -77 35q-17 25 -18 61q0 14 3 31z" />
<glyph unicode="&#xe5;" horiz-adv-x="1017" d="M61 87q-22 52 -22 134q0 86 24 205q25 123 78.5 225.5t128 176t166.5 115.5t195 42q29 0 61.5 -5t57.5 -13q31 0 64.5 4t53.5 14q8 -4 16.5 -12t10.5 -29.5t-2 -59.5t-21 -102l-104 -473q-12 -59 -18.5 -95t-4 -55.5t11.5 -25.5t25 -6q23 0 48.5 13.5t68.5 49.5 q14 -16 22.5 -31.5t14.5 -33.5q-49 -59 -113.5 -101t-120.5 -42q-72 0 -104.5 34.5t-38.5 84.5q-2 17 -2 35q0 35 8 73q12 57 31 100h-2q-29 -57 -71 -115.5t-92 -105.5t-105.5 -76.5t-114.5 -29.5q-105 0 -150 105zM248 248q18 -96 82 -96q27 0 71.5 37.5t94 109.5 t96.5 175.5t80 234.5l35 147q-55 20 -129 21q-66 0 -116 -26t-88 -73t-64.5 -111.5t-41.5 -144.5q-26 -121 -26 -204q0 -39 6 -70zM464 1319q12 80 74 127t162 47q98 0 149 -58q39 -44 39 -113q0 -22 -4 -46q-10 -74 -71.5 -120t-163.5 -46q-100 0 -152 56q-38 41 -37 105 q-1 23 4 48zM575 1309q-3 -16 -3 -30q0 -35 18 -58q26 -33 75 -33q39 0 66.5 24.5t34.5 65.5q4 23 4 43q0 36 -15 61q-23 39 -73 39q-39 0 -68 -31.5t-39 -80.5z" />
<glyph unicode="&#xe6;" horiz-adv-x="1300" d="M61 87q-22 52 -22 134q0 86 24 205q25 123 78.5 225.5t128 176t166.5 115.5t195 42q29 0 61.5 -5t57.5 -13q31 0 64.5 4t53.5 14q14 -4 20.5 -16.5t4.5 -46.5q98 63 190 63q63 0 106.5 -20.5t65 -52t26.5 -74.5q2 -17 2 -33q0 -26 -5 -53q-12 -63 -60.5 -117.5 t-117 -94.5t-148.5 -64.5t-151 -29.5q-5 -49 -5 -97v-16q1 -56 14 -98t40 -69t74 -27t105 29t106 84q33 -25 45 -62q-31 -39 -72 -76.5t-88 -67.5t-98.5 -47t-100.5 -17q-68 0 -113.5 27.5t-72.5 72.5t-36 105q-6 36 -5 74q0 25 2 50h-2q-23 -49 -62.5 -108.5t-90 -107.5 t-110 -80.5t-120.5 -32.5q-105 0 -150 105zM248 248q18 -96 82 -96q27 0 71.5 37.5t94 110.5t96.5 175.5t80 233.5l35 147q-55 20 -129 21q-66 0 -116 -26t-88 -73t-64.5 -111.5t-41.5 -144.5q-26 -121 -26 -204q0 -39 6 -70zM811 524q117 10 199 60.5t98 138.5q3 18 3 35 q0 8 -1 16q-2 25 -14.5 47.5t-32 35.5t-49.5 13q-59 0 -114.5 -79.5t-82.5 -219.5z" />
<glyph unicode="&#xe7;" horiz-adv-x="788" d="M55 317q4 82 21 164q18 96 62 187.5t106.5 162t144.5 112.5t178 42q61 0 97 -10t69 -35q-47 -111 -57 -233q-18 -8 -42 -12.5t-50 -4.5q0 100 -28 141t-89 41q-33 0 -61.5 -21.5t-53 -60t-44 -91t-29.5 -109.5q-16 -84 -23 -165q-3 -35 -3 -66q0 -42 5 -78 q8 -63 37 -102.5t80 -39.5q61 0 119.5 33t97.5 78q29 -20 45 -60q-61 -80 -144 -133t-157 -69l-84 -105q78 -16 113 -67q22 -32 21 -83q0 -30 -7 -67q-18 -90 -104 -135q-78 -41 -185 -41h-20q-5 15 -5 35q0 15 3 33q78 0 127 24.5t61 79.5q2 15 2 28q0 41 -25 65 q-33 32 -92 32q-14 12 -20 32.5t0 47.5l98 121q-68 14 -104.5 63t-49.5 117q-10 52 -11 112q0 18 1 37z" />
<glyph unicode="&#xe8;" horiz-adv-x="757" d="M52 293q3 86 20 174q23 121 74 218t115.5 163.5t138 101.5t143.5 35q63 0 105 -20.5t63.5 -52t27.5 -74.5q2 -16 3 -33q0 -27 -7 -53q-12 -66 -64.5 -121.5t-122 -95t-147 -63t-143.5 -26.5q-5 -46 -5 -92v-16q1 -55 13.5 -99t40 -72t74.5 -28t106.5 29t104.5 84 q33 -25 45 -62q-29 -39 -71 -76.5t-89 -67.5t-97 -47t-101 -17q-88 0 -138.5 43t-70.5 112q-18 61 -18 134v22zM266 524q53 4 103.5 17.5t91.5 39t68.5 61.5t35.5 81q3 18 3 35q0 8 -1 16q-2 25 -13 47.5t-31.5 35.5t-49.5 13q-61 0 -117.5 -79.5t-81.5 -219.5zM287 1485 q43 16 96 18h12q47 0 90 -14q14 -88 36 -176t57 -183q-12 -5 -30 -5h-6q-22 1 -38 10q-39 80 -98.5 178t-118.5 172z" />
<glyph unicode="&#xe9;" horiz-adv-x="757" d="M52 293q3 86 20 174q23 121 74 218t115.5 163.5t138 101.5t143.5 35q63 0 105 -20.5t63.5 -52t27.5 -74.5q2 -16 3 -33q0 -27 -7 -53q-12 -66 -64.5 -121.5t-122 -95t-147 -63t-143.5 -26.5q-5 -46 -5 -92v-16q1 -55 13.5 -99t40 -72t74.5 -28t106.5 29t104.5 84 q33 -25 45 -62q-29 -39 -71 -76.5t-89 -67.5t-97 -47t-101 -17q-88 0 -138.5 43t-70.5 112q-18 61 -18 134v22zM266 524q53 4 103.5 17.5t91.5 39t68.5 61.5t35.5 81q3 18 3 35q0 8 -1 16q-2 25 -13 47.5t-31.5 35.5t-49.5 13q-61 0 -117.5 -79.5t-81.5 -219.5zM461 1141 q70 111 120 207t76 161q52 15 99 15h21q56 -4 97 -33q-80 -76 -169 -174t-169 -205q-46 4 -75 29z" />
<glyph unicode="&#xea;" horiz-adv-x="757" d="M52 293q3 86 20 174q23 121 74 218t115.5 163.5t138 101.5t143.5 35q63 0 105 -20.5t63.5 -52t27.5 -74.5q2 -16 3 -33q0 -27 -7 -53q-12 -66 -64.5 -121.5t-122 -95t-147 -63t-143.5 -26.5q-5 -46 -5 -92v-16q1 -55 13.5 -99t40 -72t74.5 -28t106.5 29t104.5 84 q33 -25 45 -62q-29 -39 -71 -76.5t-89 -67.5t-97 -47t-101 -17q-88 0 -138.5 43t-70.5 112q-18 61 -18 134v22zM266 524q53 4 103.5 17.5t91.5 39t68.5 61.5t35.5 81q3 18 3 35q0 8 -1 16q-2 25 -13 47.5t-31.5 35.5t-49.5 13q-61 0 -117.5 -79.5t-81.5 -219.5zM264 1212 q88 63 170 132t160 143q9 1 18 1q30 0 62 -15q47 -76 100 -148t111 -141q-6 -20 -24.5 -38t-39.5 -24q-59 49 -121.5 92t-128.5 78q-76 -37 -147.5 -80t-140.5 -94q-12 18 -18 45q-3 15 -3 29q0 10 2 20z" />
<glyph unicode="&#xeb;" horiz-adv-x="757" d="M52 293q3 86 20 174q23 121 74 218t115.5 163.5t138 101.5t143.5 35q63 0 105 -20.5t63.5 -52t27.5 -74.5q2 -16 3 -33q0 -27 -7 -53q-12 -66 -64.5 -121.5t-122 -95t-147 -63t-143.5 -26.5q-5 -46 -5 -92v-16q1 -55 13.5 -99t40 -72t74.5 -28t106.5 29t104.5 84 q33 -25 45 -62q-29 -39 -71 -76.5t-89 -67.5t-97 -47t-101 -17q-88 0 -138.5 43t-70.5 112q-18 61 -18 134v22zM266 524q53 4 103.5 17.5t91.5 39t68.5 61.5t35.5 81q3 18 3 35q0 8 -1 16q-2 25 -13 47.5t-31.5 35.5t-49.5 13q-61 0 -117.5 -79.5t-81.5 -219.5zM308 1257 q16 92 116 93q55 0 79 -35q16 -24 17 -59q0 -15 -4 -31q-27 -102 -116 -103q-53 0 -79 37q-17 25 -17 61q0 17 4 37zM633 1251q16 98 123 99q49 0 75 -32q18 -23 18 -56q0 -13 -3 -29q-10 -53 -40.5 -81t-80.5 -28q-53 0 -77 35q-17 25 -18 61q0 14 3 31z" />
<glyph unicode="&#xec;" d="M69 65q-9 32 -10 72q0 64 23 148l86 303q25 82 34 127q5 24 5 41q0 16 -4 26q-8 23 -37 30t-82 7v11q0 38 12 69q27 2 60.5 11.5t68.5 21.5t66 26.5t49 26.5q66 -27 79 -91q4 -18 3 -41q0 -60 -25 -155l-116 -407q-14 -51 -20.5 -84t-4.5 -49.5t11 -22.5t24 -6 q20 0 49 14.5t61 46.5q31 -23 37 -67q-61 -68 -120.5 -104.5t-118.5 -36.5q-106 0 -130 83zM107 1485q43 16 96 18h12q47 0 90 -14q14 -88 36 -176t57 -183q-12 -5 -30 -5h-6q-22 1 -38 10q-39 80 -98.5 178t-118.5 172z" />
<glyph unicode="&#xed;" d="M69 65q-9 32 -10 72q0 64 23 148l86 303q25 82 34 127q5 24 5 41q0 16 -4 26q-8 23 -37 30t-82 7v11q0 38 12 69q27 2 60.5 11.5t68.5 21.5t66 26.5t49 26.5q66 -27 79 -91q4 -18 3 -41q0 -60 -25 -155l-116 -407q-14 -51 -20.5 -84t-4.5 -49.5t11 -22.5t24 -6 q20 0 49 14.5t61 46.5q31 -23 37 -67q-61 -68 -120.5 -104.5t-118.5 -36.5q-106 0 -130 83zM281 1141q70 111 120 207t76 161q52 15 99 15h21q56 -4 97 -33q-80 -76 -169 -174t-169 -205q-46 4 -75 29z" />
<glyph unicode="&#xee;" d="M69 65q-9 32 -10 72q0 64 23 148l86 303q25 82 34 127q5 24 5 41q0 16 -4 26q-8 23 -37 30t-82 7v11q0 38 12 69q27 2 60.5 11.5t68.5 21.5t66 26.5t49 26.5q66 -27 79 -91q4 -18 3 -41q0 -60 -25 -155l-116 -407q-14 -51 -20.5 -84t-4.5 -49.5t11 -22.5t24 -6 q20 0 49 14.5t61 46.5q31 -23 37 -67q-61 -68 -120.5 -104.5t-118.5 -36.5q-106 0 -130 83zM86 1212q88 63 170 132t160 143q9 1 18 1q30 0 62 -15q47 -76 100 -148t111 -141q-6 -20 -24.5 -38t-39.5 -24q-59 49 -121.5 92t-128.5 78q-76 -37 -147.5 -80t-140.5 -94 q-12 18 -18 45q-3 15 -3 29q0 10 2 20z" />
<glyph unicode="&#xef;" d="M69 65q-9 32 -10 72q0 64 23 148l86 303q25 82 34 127q5 24 5 41q0 16 -4 26q-8 23 -37 30t-82 7v11q0 38 12 69q27 2 60.5 11.5t68.5 21.5t66 26.5t49 26.5q66 -27 79 -91q4 -18 3 -41q0 -60 -25 -155l-116 -407q-14 -51 -20.5 -84t-4.5 -49.5t11 -22.5t24 -6 q20 0 49 14.5t61 46.5q31 -23 37 -67q-61 -68 -120.5 -104.5t-118.5 -36.5q-106 0 -130 83zM129 1257q16 92 116 93q55 0 79 -35q16 -24 17 -59q0 -15 -4 -31q-27 -102 -116 -103q-53 0 -79 37q-17 25 -17 61q0 17 4 37zM454 1251q16 98 123 99q49 0 75 -32q18 -23 18 -56 q0 -13 -3 -29q-10 -53 -40.5 -81t-80.5 -28q-53 0 -77 35q-17 25 -18 61q0 14 3 31z" />
<glyph unicode="&#xf0;" horiz-adv-x="921" d="M50 224q-2 24 -2 51q0 66 15 151q25 123 78.5 225.5t128 176t166.5 115.5t195 42q16 0 36.5 -2t39.5 -6q-4 84 -26 158.5t-67 144.5l-133 -69l-139 -74q-10 31 -12 58.5t2 47.5l223 111q-68 80 -188 159q8 16 25.5 32t33.5 22q133 -78 227 -162l260 131q8 -31 11 -59 q1 -10 0 -18q0 -17 -2 -29l-96 -45l-105 -52q70 -80 108.5 -165t55.5 -172q13 -70 13 -142q0 -18 -1 -36q-4 -91 -25 -185q-27 -139 -89 -259t-145 -207t-180.5 -136t-191.5 -49q-53 0 -100 24.5t-77 79.5t-39 138zM263 232q36 -105 126 -105q37 0 76 26.5t76 83t68.5 148.5 t56.5 225q16 68 24 128.5t12 117.5q-51 20 -124 21q-66 0 -116 -26t-88 -73t-64.5 -111.5t-41.5 -144.5q-22 -98 -22 -174q0 -67 17 -116z" />
<glyph unicode="&#xf1;" horiz-adv-x="1091" d="M76 0l117 614q12 74 16 115t-6 61.5t-39 24.5t-80 4q0 23 1 43.5t11 36.5q27 2 66 11.5t81 21.5t79.5 26.5t60.5 26.5q49 -16 49 -89q0 -21 -4 -48q-16 -90 -36.5 -150.5t-43.5 -113.5h2l33 71q27 51 73 109.5t104 108t120.5 81t116.5 31.5q35 0 69.5 -16.5t57 -61.5 t26.5 -124q0 -9 1 -19q0 -74 -27 -184l-62 -256l-24.5 -113t-9.5 -59.5t6.5 -22.5t19.5 -4q23 0 57.5 19.5t61.5 45.5q29 -31 37 -67q-70 -72 -127.5 -106.5t-114.5 -34.5q-63 0 -93 22.5t-37 67.5q-3 19 -3 40q0 31 6 67q10 62 29 143l55 249q20 80 24 132q1 14 0 27 q0 34 -6 55q-8 30 -25.5 41.5t-39.5 11.5q-33 0 -84 -41t-104.5 -116t-99.5 -178.5t-68 -228.5l-54 -274h-192zM307 1145q80 104 144.5 141t111.5 37q39 0 73 -14.5t66 -30.5l59 -30q28 -13 58 -13q41 0 80 19.5t74 56.5q25 -12 39 -43q-37 -55 -69 -91t-59.5 -56.5t-52 -29 t-49.5 -8.5q-35 0 -68.5 14.5t-65 32t-64.5 32t-66 14.5q-49 0 -92 -17.5t-98 -62.5q-25 16 -21 49z" />
<glyph unicode="&#xf2;" horiz-adv-x="958" d="M60 260q-4 31 -4 65q0 61 14 128q23 121 70.5 219t114.5 167.5t147.5 107.5t170.5 38t159 -35t111 -100.5t53 -155.5q4 -32 4 -66q0 -63 -13 -134q-23 -117 -70 -210.5t-113.5 -161t-149.5 -104t-177 -36.5q-90 0 -156.5 33.5t-108 95t-52.5 149.5zM261 189 q36 -110 132 -109q47 0 93 28.5t84 80t67 123t47 161.5q15 86 15 156q0 79 -19 140q-37 114 -133 114q-49 0 -92 -29t-81 -82t-66.5 -127t-45.5 -164q-19 -92 -19 -166q0 -72 18 -126zM338 1485q43 16 96 18h12q47 0 90 -14q14 -88 36 -176t57 -183q-12 -5 -30 -5h-6 q-22 1 -38 10q-39 80 -98.5 178t-118.5 172z" />
<glyph unicode="&#xf3;" horiz-adv-x="958" d="M60 260q-4 31 -4 65q0 61 14 128q23 121 70.5 219t114.5 167.5t147.5 107.5t170.5 38t159 -35t111 -100.5t53 -155.5q4 -32 4 -66q0 -63 -13 -134q-23 -117 -70 -210.5t-113.5 -161t-149.5 -104t-177 -36.5q-90 0 -156.5 33.5t-108 95t-52.5 149.5zM261 189 q36 -110 132 -109q47 0 93 28.5t84 80t67 123t47 161.5q15 86 15 156q0 79 -19 140q-37 114 -133 114q-49 0 -92 -29t-81 -82t-66.5 -127t-45.5 -164q-19 -92 -19 -166q0 -72 18 -126zM512 1141q70 111 120 207t76 161q52 15 99 15h21q56 -4 97 -33q-80 -76 -169 -174 t-169 -205q-46 4 -75 29z" />
<glyph unicode="&#xf4;" horiz-adv-x="958" d="M60 260q-4 31 -4 65q0 61 14 128q23 121 70.5 219t114.5 167.5t147.5 107.5t170.5 38t159 -35t111 -100.5t53 -155.5q4 -32 4 -66q0 -63 -13 -134q-23 -117 -70 -210.5t-113.5 -161t-149.5 -104t-177 -36.5q-90 0 -156.5 33.5t-108 95t-52.5 149.5zM261 189 q36 -110 132 -109q47 0 93 28.5t84 80t67 123t47 161.5q15 86 15 156q0 79 -19 140q-37 114 -133 114q-49 0 -92 -29t-81 -82t-66.5 -127t-45.5 -164q-19 -92 -19 -166q0 -72 18 -126zM317 1212q88 63 170 132t160 143q9 1 18 1q30 0 62 -15q47 -76 100 -148t111 -141 q-6 -20 -24.5 -38t-39.5 -24q-59 49 -121.5 92t-128.5 78q-76 -37 -147.5 -80t-140.5 -94q-12 18 -18 45q-3 15 -3 29q0 10 2 20z" />
<glyph unicode="&#xf5;" horiz-adv-x="958" d="M60 260q-4 31 -4 65q0 61 14 128q23 121 70.5 219t114.5 167.5t147.5 107.5t170.5 38t159 -35t111 -100.5t53 -155.5q4 -32 4 -66q0 -63 -13 -134q-23 -117 -70 -210.5t-113.5 -161t-149.5 -104t-177 -36.5q-90 0 -156.5 33.5t-108 95t-52.5 149.5zM261 189 q36 -110 132 -109q47 0 93 28.5t84 80t67 123t47 161.5q15 86 15 156q0 79 -19 140q-37 114 -133 114q-49 0 -92 -29t-81 -82t-66.5 -127t-45.5 -164q-19 -92 -19 -166q0 -72 18 -126zM247 1145q80 104 144.5 141t111.5 37q39 0 73 -14.5t66 -30.5l59 -30q28 -13 58 -13 q41 0 80 19.5t74 56.5q25 -12 39 -43q-37 -55 -69 -91t-59.5 -56.5t-52 -29t-49.5 -8.5q-35 0 -68.5 14.5t-65 32t-64.5 32t-66 14.5q-49 0 -92 -17.5t-98 -62.5q-25 16 -21 49z" />
<glyph unicode="&#xf6;" horiz-adv-x="958" d="M60 260q-4 31 -4 65q0 61 14 128q23 121 70.5 219t114.5 167.5t147.5 107.5t170.5 38t159 -35t111 -100.5t53 -155.5q4 -32 4 -66q0 -63 -13 -134q-23 -117 -70 -210.5t-113.5 -161t-149.5 -104t-177 -36.5q-90 0 -156.5 33.5t-108 95t-52.5 149.5zM261 189 q36 -110 132 -109q47 0 93 28.5t84 80t67 123t47 161.5q15 86 15 156q0 79 -19 140q-37 114 -133 114q-49 0 -92 -29t-81 -82t-66.5 -127t-45.5 -164q-19 -92 -19 -166q0 -72 18 -126zM361 1257q16 92 116 93q55 0 79 -35q16 -24 17 -59q0 -15 -4 -31q-27 -102 -116 -103 q-53 0 -79 37q-17 25 -17 61q0 17 4 37zM686 1251q16 98 123 99q49 0 75 -32q18 -23 18 -56q0 -13 -3 -29q-10 -53 -40.5 -81t-80.5 -28q-53 0 -77 35q-17 25 -18 61q0 14 3 31z" />
<glyph unicode="&#xf7;" horiz-adv-x="1054" d="M74 489q0 8 -1 17q0 60 27 100h912q-4 -63 -33 -110h-216q-114 0 -231 -1l-233 -2zM395 254q8 41 41 69.5t76 28.5q49 0 80 -37q23 -28 23 -66q0 -13 -3 -28q-10 -49 -38.5 -75.5t-75.5 -26.5q-57 0 -87 37q-20 25 -20 61q-1 17 4 37zM498 887q8 41 40.5 69.5t77.5 28.5 q47 0 78 -37q23 -28 23 -67q0 -13 -2 -27q-10 -49 -39 -75.5t-74 -26.5q-57 0 -87 36q-21 26 -21 65q0 16 4 34z" />
<glyph unicode="&#xf8;" horiz-adv-x="980" d="M-20 -14l126 141q-48 83 -48 197q0 60 14 129q23 121 70.5 219t114.5 167.5t147.5 107.5t170.5 38q70 0 126.5 -21.5t97.5 -58.5l106 117q9 1 18 1q49 0 83 -30l-72 -75.5l-80 -83.5q47 -87 47 -208q0 -62 -12 -132q-23 -117 -70 -210.5t-113.5 -161t-149.5 -104 t-177 -36.5q-135 0 -215 73l-94 -112q-25 0 -50.5 12.5t-39.5 30.5zM248 285l434 487q-37 111 -133 111q-49 0 -92 -29t-81 -82t-66.5 -127t-45.5 -164q-18 -86 -18 -153q0 -23 2 -43zM268 174q39 -94 127 -94q47 0 93.5 28.5t84 80t67.5 123t46 161.5q10 55 14 102 q2 24 2 46t-2 43l-220 -246z" />
<glyph unicode="&#xf9;" horiz-adv-x="1071" d="M84 860q2 23 12 39q25 2 64 11.5t81 21.5t78.5 26.5t57.5 26.5q25 -14 36 -32q9 -14 9 -47q0 -9 -1 -20q-3 -50 -26 -150l-63 -275q-33 -133 -33 -211q0 -112 68 -113q31 0 79 35t101 106.5t100 179t74 253.5l49 256h193l-105 -525q-23 -111 -33 -174t-12 -95t6 -39 t27 -7q23 0 45 14.5t59 51.5q14 -12 23.5 -31t15.5 -37q-51 -59 -114.5 -101t-120.5 -42q-98 0 -126 65q-16 38 -16 88q0 37 9 82q10 55 32 102h-4q-25 -53 -65.5 -112.5t-94 -109.5t-112 -82.5t-119.5 -32.5q-74 0 -107.5 45t-41.5 116q-3 27 -4 57q0 48 9 103 q13 88 33 172q33 127 47 197q9 48 9 77q0 14 -2 24q-6 32 -34 39t-81 7q-3 12 -3 27q0 6 1 14zM348 1485q43 16 96 18h12q47 0 90 -14q14 -88 36 -176t57 -183q-12 -5 -30 -5h-6q-22 1 -38 10q-39 80 -98.5 178t-118.5 172z" />
<glyph unicode="&#xfa;" horiz-adv-x="1071" d="M84 860q2 23 12 39q25 2 64 11.5t81 21.5t78.5 26.5t57.5 26.5q25 -14 36 -32q9 -14 9 -47q0 -9 -1 -20q-3 -50 -26 -150l-63 -275q-33 -133 -33 -211q0 -112 68 -113q31 0 79 35t101 106.5t100 179t74 253.5l49 256h193l-105 -525q-23 -111 -33 -174t-12 -95t6 -39 t27 -7q23 0 45 14.5t59 51.5q14 -12 23.5 -31t15.5 -37q-51 -59 -114.5 -101t-120.5 -42q-98 0 -126 65q-16 38 -16 88q0 37 9 82q10 55 32 102h-4q-25 -53 -65.5 -112.5t-94 -109.5t-112 -82.5t-119.5 -32.5q-74 0 -107.5 45t-41.5 116q-3 27 -4 57q0 48 9 103 q13 88 33 172q33 127 47 197q9 48 9 77q0 14 -2 24q-6 32 -34 39t-81 7q-3 12 -3 27q0 6 1 14zM523 1141q70 111 120 207t76 161q52 15 99 15h21q56 -4 97 -33q-80 -76 -169 -174t-169 -205q-46 4 -75 29z" />
<glyph unicode="&#xfb;" horiz-adv-x="1071" d="M84 860q2 23 12 39q25 2 64 11.5t81 21.5t78.5 26.5t57.5 26.5q25 -14 36 -32q9 -14 9 -47q0 -9 -1 -20q-3 -50 -26 -150l-63 -275q-33 -133 -33 -211q0 -112 68 -113q31 0 79 35t101 106.5t100 179t74 253.5l49 256h193l-105 -525q-23 -111 -33 -174t-12 -95t6 -39 t27 -7q23 0 45 14.5t59 51.5q14 -12 23.5 -31t15.5 -37q-51 -59 -114.5 -101t-120.5 -42q-98 0 -126 65q-16 38 -16 88q0 37 9 82q10 55 32 102h-4q-25 -53 -65.5 -112.5t-94 -109.5t-112 -82.5t-119.5 -32.5q-74 0 -107.5 45t-41.5 116q-3 27 -4 57q0 48 9 103 q13 88 33 172q33 127 47 197q9 48 9 77q0 14 -2 24q-6 32 -34 39t-81 7q-3 12 -3 27q0 6 1 14zM328 1212q88 63 170 132t160 143q9 1 18 1q30 0 62 -15q47 -76 100 -148t111 -141q-6 -20 -24.5 -38t-39.5 -24q-59 49 -121.5 92t-128.5 78q-76 -37 -147.5 -80t-140.5 -94 q-12 18 -18 45q-3 15 -3 29q0 10 2 20z" />
<glyph unicode="&#xfc;" horiz-adv-x="1071" d="M84 860q2 23 12 39q25 2 64 11.5t81 21.5t78.5 26.5t57.5 26.5q25 -14 36 -32q9 -14 9 -47q0 -9 -1 -20q-3 -50 -26 -150l-63 -275q-33 -133 -33 -211q0 -112 68 -113q31 0 79 35t101 106.5t100 179t74 253.5l49 256h193l-105 -525q-23 -111 -33 -174t-12 -95t6 -39 t27 -7q23 0 45 14.5t59 51.5q14 -12 23.5 -31t15.5 -37q-51 -59 -114.5 -101t-120.5 -42q-98 0 -126 65q-16 38 -16 88q0 37 9 82q10 55 32 102h-4q-25 -53 -65.5 -112.5t-94 -109.5t-112 -82.5t-119.5 -32.5q-74 0 -107.5 45t-41.5 116q-3 27 -4 57q0 48 9 103 q13 88 33 172q33 127 47 197q9 48 9 77q0 14 -2 24q-6 32 -34 39t-81 7q-3 12 -3 27q0 6 1 14zM369 1257q16 92 116 93q55 0 79 -35q16 -24 17 -59q0 -15 -4 -31q-27 -102 -116 -103q-53 0 -79 37q-17 25 -17 61q0 17 4 37zM694 1251q16 98 123 99q49 0 75 -32 q18 -23 18 -56q0 -13 -3 -29q-10 -53 -40.5 -81t-80.5 -28q-53 0 -77 35q-17 25 -18 61q0 14 3 31z" />
<glyph unicode="&#xfd;" horiz-adv-x="942" d="M418 1141q70 111 120 207t76 161q52 15 99 15h21q56 -4 97 -33q-80 -76 -169 -174t-169 -205q-46 4 -75 29zM-262 -382q4 32 14 60q49 -16 106.5 -24t108.5 -8q31 0 63.5 9t69.5 34.5t81 73t104 122.5q-12 248 -41 459t-64 344l-21 64q-9 27 -24.5 43t-41.5 21 q-18 4 -44 4q-10 0 -22 -1q-1 9 -1 18q0 35 13 62q51 6 113.5 34t97.5 52q25 -8 41 -19.5t28.5 -33t21.5 -56t19 -92.5q37 -184 56.5 -344.5t25.5 -333.5q139 209 199.5 358.5t60.5 237.5q0 45 -24.5 74t-93.5 41q-13 28 -13 61v17q29 8 60 19.5t59 24.5l53 26q25 12 37 22 q59 -23 87 -68t28 -98q0 -133 -98.5 -321.5t-290.5 -462.5q-127 -184 -213 -295t-149.5 -169t-112.5 -76.5t-105 -18.5q-98 0 -188 76q-2 16 -2 32t2 32z" />
<glyph unicode="&#xfe;" horiz-adv-x="950" d="M-41 -516l291 1642q12 74 16 115t-7 61.5t-38.5 24.5t-79.5 4q0 23 1 43.5t12 36.5q27 2 65.5 11.5t79.5 22.5l79 26q38 13 60 26q49 -16 49 -88q0 -21 -4 -47l-48 -261q-19 -110 -36.5 -195t-35 -155.5l-37.5 -146.5h4q25 61 67.5 129t97 124t117 93t125.5 37 q106 0 151 -105q22 -52 22 -136q0 -85 -23 -203q-27 -123 -79 -225.5t-127 -177t-167 -115.5t-195 -41q-43 0 -92 10q0 -9 1 -19q0 -65 -13 -137l-63 -354h-193zM242 113q55 -23 129 -23q66 0 117 26.5t88.5 73t62.5 112t43 142.5q25 122 25 207q0 40 -6 70q-17 96 -80 96 q-29 0 -74 -38t-94.5 -110.5t-97.5 -175t-76 -233.5z" />
<glyph unicode="&#xff;" horiz-adv-x="942" d="M267 1257q16 92 116 93q55 0 79 -35q16 -24 17 -59q0 -15 -4 -31q-27 -102 -116 -103q-53 0 -79 37q-17 25 -17 61q0 17 4 37zM592 1251q16 98 123 99q49 0 75 -32q18 -23 18 -56q0 -13 -3 -29q-10 -53 -40.5 -81t-80.5 -28q-53 0 -77 35q-17 25 -18 61q0 14 3 31z M-262 -382q4 32 14 60q49 -16 106.5 -24t108.5 -8q31 0 63.5 9t69.5 34.5t81 73t104 122.5q-12 248 -41 459t-64 344l-21 64q-9 27 -24.5 43t-41.5 21q-18 4 -44 4q-10 0 -22 -1q-1 9 -1 18q0 35 13 62q51 6 113.5 34t97.5 52q25 -8 41 -19.5t28.5 -33t21.5 -56t19 -92.5 q37 -184 56.5 -344.5t25.5 -333.5q139 209 199.5 358.5t60.5 237.5q0 45 -24.5 74t-93.5 41q-13 28 -13 61v17q29 8 60 19.5t59 24.5l53 26q25 12 37 22q59 -23 87 -68t28 -98q0 -133 -98.5 -321.5t-290.5 -462.5q-127 -184 -213 -295t-149.5 -169t-112.5 -76.5t-105 -18.5 q-98 0 -188 76q-2 16 -2 32t2 32z" />
<glyph unicode="&#x131;" d="M69 65q-9 32 -10 72q0 64 23 148l86 303q25 82 34 127q5 24 5 41q0 16 -4 26q-8 23 -37 30t-82 7v11q0 38 12 69q27 2 60.5 11.5t68.5 21.5t66 26.5t49 26.5q66 -27 79 -91q4 -18 3 -41q0 -60 -25 -155l-116 -407q-14 -51 -20.5 -84t-4.5 -49.5t11 -22.5t24 -6 q20 0 49 14.5t61 46.5q31 -23 37 -67q-61 -68 -120.5 -104.5t-118.5 -36.5q-106 0 -130 83z" />
<glyph unicode="&#x152;" horiz-adv-x="2678" d="M1563 -6q0 49 14 90q47 6 77 18.5t49.5 35t29.5 62.5t20 101l152 868q9 47 9 77q0 36 -14 57q-13 18 -40 25t-66 13q-4 20 -5 43t3 48q109 -4 202 -5.5t151 -1.5q123 0 256 1t299 6q-10 -80 -16 -175q-2 -43 -2 -81q0 -47 3 -89q-36 -15 -92 -14h-14q-2 68 -11.5 117 t-39 81t-89 46t-159.5 14h-152l-96 -563h86q66 0 113 7t78.5 26.5t49 53.5t25.5 85q29 4 50.5 5t52.5 -3l-24 -101q-11 -50 -21 -132q-10 -76 -15.5 -133.5t-9.5 -108.5q-31 4 -54.5 9t-43.5 18q1 17 1 31q0 81 -37 112q-44 37 -173 37h-94l-64 -373q-10 -68 -10 -107.5 t16.5 -61t52 -30t95.5 -8.5h8q98 0 161.5 18.5t106.5 52.5t75 84t62 113q31 -4 53.5 -14t43.5 -33q-37 -66 -67 -147.5t-48 -173.5q-94 4 -191.5 5t-216.5 1q-154 0 -279.5 -1t-250.5 -5zM117 461q-13 65 -13 136q0 92 21 194q25 137 95.5 256.5t173 207.5t231.5 139.5 t274 51.5q152 0 278 -54.5t206.5 -158t110.5 -256.5q13 -66 13 -142q0 -98 -22 -210q-25 -133 -92.5 -250t-168 -205t-231.5 -138t-282 -50q-158 0 -283 58t-203.5 164.5t-107.5 256.5zM328 523q14 -132 65 -232.5t141.5 -158.5t215.5 -58q102 0 189 41t152.5 114.5 t111.5 173t67 218.5q17 97 17 185q0 57 -7 109q-18 135 -75.5 232.5t-145.5 151t-201 53.5q-94 0 -179 -43t-151.5 -118t-114.5 -174t-69 -212q-21 -102 -21 -196q0 -44 5 -86z" />
<glyph unicode="&#x153;" horiz-adv-x="1718" d="M1013 293q3 86 20 174q23 121 74 218t115.5 163.5t138 101.5t143.5 35q63 0 105 -20.5t63.5 -52t27.5 -74.5q2 -16 3 -33q0 -27 -7 -53q-12 -66 -64.5 -121.5t-122 -95t-147 -63t-143.5 -26.5q-5 -46 -5 -92v-16q1 -55 13.5 -99t40 -72t74.5 -28t106.5 29t104.5 84 q33 -25 45 -62q-29 -39 -71 -76.5t-89 -67.5t-97 -47t-101 -17q-88 0 -138.5 43t-70.5 112q-18 61 -18 134v22zM1227 524q53 4 103.5 17.5t91.5 39t68.5 61.5t35.5 81q3 18 3 35q0 8 -1 16q-2 25 -13 47.5t-31.5 35.5t-49.5 13q-61 0 -117.5 -79.5t-81.5 -219.5zM60 260 q-4 31 -4 65q0 61 14 128q23 121 70.5 219t114.5 167.5t147.5 107.5t170.5 38t159 -35t111 -100.5t53 -155.5q4 -32 4 -66q0 -63 -13 -134q-23 -117 -70 -210.5t-113.5 -161t-149.5 -104t-177 -36.5q-90 0 -156.5 33.5t-108 95t-52.5 149.5zM261 189q36 -110 132 -109 q47 0 93 28.5t84 80t67 123t47 161.5q15 86 15 156q0 79 -19 140q-37 114 -133 114q-49 0 -92 -29t-81 -82t-66.5 -127t-45.5 -164q-19 -92 -19 -166q0 -72 18 -126z" />
<glyph unicode="&#x178;" horiz-adv-x="1228" d="M574 1706q16 92 116 93q55 0 79 -35q16 -24 17 -59q0 -15 -4 -31q-27 -102 -116 -103q-53 0 -79 37q-17 25 -17 61q0 17 4 37zM899 1700q16 98 123 99q49 0 75 -32q18 -23 18 -56q0 -13 -3 -29q-10 -53 -40.5 -81t-80.5 -28q-53 0 -77 35q-17 25 -18 61q0 14 3 31z M214 1395q0 17 3 37q59 -4 118.5 -5.5t115.5 -1.5q63 0 124.5 1t141.5 6q0 -25 -5 -47.5t-14 -45.5q-104 -14 -131 -49q-12 -15 -11 -39q0 -31 19 -77q43 -96 88 -211l85 -232l80 113l76 104l65 89q29 40 47 69q75 108 75 160v7q-5 52 -102 68q-5 23 -4 50q0 20 2 41 q53 -4 97 -5.5t106 -1.5q51 0 94 1t94 6q0 -45 -20 -91q-18 -6 -33.5 -17t-41.5 -37.5t-64 -78.5l-101 -137l-155 -212l-179 -234l-65 -367q-8 -45 -8 -74.5t15 -48t46 -31t88 -20.5q6 -27 7 -55q0 -17 -3 -35q-68 4 -137.5 5t-132.5 1q-70 0 -144.5 -1t-130.5 -5 q0 53 15 92q51 8 84 20.5t53.5 32t31.5 53t21 87.5l60 339l-115 293q-55 137 -98 230q-27 59 -46.5 96t-35 58.5t-31.5 30.5t-39 17q-5 30 -5 52z" />
<glyph unicode="&#x2c6;" horiz-adv-x="1138" d="M131 1212q88 63 170 132t160 143q9 1 18 1q30 0 62 -15q47 -76 100 -148t111 -141q-6 -20 -24.5 -38t-39.5 -24q-59 49 -121.5 92t-128.5 78q-76 -37 -147.5 -80t-140.5 -94q-12 18 -18 45q-3 15 -3 29q0 10 2 20z" />
<glyph unicode="&#x2da;" horiz-adv-x="1138" d="M403 1319q12 80 74 127t162 47q98 0 149 -58q39 -44 39 -113q0 -22 -4 -46q-10 -74 -71.5 -120t-163.5 -46q-100 0 -152 56q-38 41 -37 105q-1 23 4 48zM514 1309q-3 -16 -3 -30q0 -35 18 -58q26 -33 75 -33q39 0 66.5 24.5t34.5 65.5q4 23 4 43q0 36 -15 61 q-23 39 -73 39q-39 0 -68 -31.5t-39 -80.5z" />
<glyph unicode="&#x2dc;" horiz-adv-x="1138" d="M184 1145q80 104 144.5 141t111.5 37q39 0 73 -14.5t66 -30.5l59 -30q28 -13 58 -13q41 0 80 19.5t74 56.5q25 -12 39 -43q-37 -55 -69 -91t-59.5 -56.5t-52 -29t-49.5 -8.5q-35 0 -68.5 14.5t-65 32t-64.5 32t-66 14.5q-49 0 -92 -17.5t-98 -62.5q-25 16 -21 49z" />
<glyph unicode="&#x2000;" horiz-adv-x="991" />
<glyph unicode="&#x2001;" horiz-adv-x="1984" />
<glyph unicode="&#x2002;" horiz-adv-x="991" />
<glyph unicode="&#x2003;" horiz-adv-x="1984" />
<glyph unicode="&#x2004;" horiz-adv-x="661" />
<glyph unicode="&#x2005;" horiz-adv-x="495" />
<glyph unicode="&#x2006;" horiz-adv-x="329" />
<glyph unicode="&#x2007;" horiz-adv-x="329" />
<glyph unicode="&#x2008;" horiz-adv-x="247" />
<glyph unicode="&#x2009;" horiz-adv-x="395" />
<glyph unicode="&#x200a;" horiz-adv-x="108" />
<glyph unicode="&#x2010;" horiz-adv-x="722" d="M70 487q4 49 11 82t25 62h576q-2 -47 -9 -78t-20 -59q-104 0 -251.5 -1.5t-331.5 -5.5z" />
<glyph unicode="&#x2011;" horiz-adv-x="722" d="M70 487q4 49 11 82t25 62h576q-2 -47 -9 -78t-20 -59q-104 0 -251.5 -1.5t-331.5 -5.5z" />
<glyph unicode="&#x2012;" horiz-adv-x="722" d="M70 487q4 49 11 82t25 62h576q-2 -47 -9 -78t-20 -59q-104 0 -251.5 -1.5t-331.5 -5.5z" />
<glyph unicode="&#x2013;" horiz-adv-x="1054" d="M76 498q0 8 -1 16q0 60 27 100h912q-4 -63 -33 -110h-215q-115 0 -231 -1l-234 -2q-116 -1 -225 -3z" />
<glyph unicode="&#x2014;" horiz-adv-x="2029" d="M70 494q6 76 39 118h1882q-6 -68 -37 -112q-313 0 -777 -1t-1107 -5z" />
<glyph unicode="&#x2018;" horiz-adv-x="518" d="M254 1055q-1 15 -1 29q0 44 9 87q14 76 62.5 162t156.5 180q25 0 43.5 -13t28.5 -32q-119 -119 -129 -198q-1 -7 -1 -14q0 -68 95 -93q0 -33 -8 -71.5t-23 -61.5q-45 -4 -98 -21.5t-86 -37.5q-45 25 -49 84z" />
<glyph unicode="&#x2019;" d="M264 1014q117 119 128 198q1 8 1 15q0 68 -96 94q0 31 8 70t25 63q43 4 97 20.5t85 38.5q47 -27 51 -86q1 -15 1 -29q0 -44 -9 -85q-14 -76 -63.5 -163t-155.5 -179q-27 0 -44.5 12.5t-27.5 30.5z" />
<glyph unicode="&#x201a;" horiz-adv-x="399" d="M-20 -281q117 119 128 199q1 8 1 15q0 68 -97 92q0 33 8.5 71.5t24.5 61.5q43 4 97.5 21.5t84.5 37.5q47 -25 52 -84q1 -15 1 -29q0 -44 -10 -88q-14 -76 -63 -161.5t-156 -180.5q-27 0 -44 13.5t-27 31.5z" />
<glyph unicode="&#x201c;" horiz-adv-x="833" d="M254 1055q-1 15 -1 29q0 44 9 87q14 76 62.5 162t156.5 180q25 0 43.5 -13t28.5 -32q-111 -111 -124 -189q-2 -10 -2 -19q0 -65 85 -97q0 -33 -8 -71.5t-23 -61.5q-45 -4 -95 -21.5t-83 -37.5q-45 25 -49 84zM575 1055q-1 15 -1 29q0 44 10 87q18 80 60 162t144 170 q27 0 44.5 -12t27.5 -31q-121 -123 -121 -203q0 -71 97 -94q0 -33 -8.5 -71.5t-24.5 -61.5q-43 -4 -94.5 -21.5t-81.5 -37.5q-48 25 -52 84z" />
<glyph unicode="&#x201d;" horiz-adv-x="835" d="M272 1024q122 120 122 200q0 72 -97 97q0 31 8 70t25 63q43 4 94 20.5t82 38.5q47 -27 51 -86q1 -15 1 -29q0 -44 -9 -85q-16 -80 -59.5 -163t-145.5 -171q-25 0 -43.5 12.5t-28.5 32.5zM580 1014q111 111 123 189q2 10 2 19q0 65 -84 99q0 31 8 70t22 63q45 4 95.5 20.5 t82.5 38.5q45 -27 51 -86q1 -16 1 -31q0 -43 -11 -83q-14 -76 -62 -163t-157 -179q-25 0 -43 12.5t-28 30.5z" />
<glyph unicode="&#x201e;" horiz-adv-x="677" d="M-12 -272q121 123 121 203q0 71 -97 94q0 33 8.5 71.5t24.5 61.5q43 4 94 21.5t82 37.5q47 -25 51 -84q1 -15 1 -29q0 -44 -9 -88q-16 -80 -59 -161.5t-146 -169.5q-27 0 -44 12.5t-27 30.5zM295 -281q111 111 124 190q2 10 1 18q0 65 -84 98q0 33 8 71.5t23 61.5 q45 4 95 21.5t83 37.5q45 -25 50 -84q1 -16 1 -31q0 -43 -10 -86q-14 -76 -62.5 -161.5t-156.5 -180.5q-25 0 -43.5 13.5t-28.5 31.5z" />
<glyph unicode="&#x2022;" horiz-adv-x="589" d="M94 554q-4 21 -3 43q0 27 5 54q16 74 78 126t164 52q55 0 98 -21.5t69.5 -56t37.5 -78.5q6 -24 5 -51q0 -21 -3 -42q-16 -90 -77.5 -142.5t-160.5 -52.5q-59 0 -104 23.5t-73 60.5t-36 85z" />
<glyph unicode="&#x2026;" horiz-adv-x="1490" d="M14 119q8 41 41 69.5t78 28.5q49 0 79 -37q22 -27 22 -66q0 -13 -3 -28q-10 -47 -38.5 -74.5t-73.5 -27.5q-57 0 -87 36q-21 26 -21 65q-1 16 3 34zM563 119q8 41 41 69.5t78 28.5q47 0 78 -37q23 -28 23 -67q0 -13 -3 -27q-10 -47 -38.5 -74.5t-75.5 -27.5q-55 0 -85 36 q-21 26 -21 65q-1 16 3 34zM1112 119q8 41 41 69.5t76 28.5q49 0 80 -37q23 -28 23 -67q0 -13 -3 -27q-10 -47 -38.5 -74.5t-76.5 -27.5q-57 0 -86 36q-20 26 -20 64q0 17 4 35z" />
<glyph unicode="&#x202f;" horiz-adv-x="395" />
<glyph unicode="&#x2039;" horiz-adv-x="497" d="M72 506q0 51 26 82l172 145q78 68 158 150q23 -2 43.5 -14.5t28.5 -26.5q-27 -27 -62 -67l-70 -80l-68 -78.5t-50 -65.5q10 -31 27.5 -73t38.5 -85l41 -82q19 -39 36 -63q-4 -25 -18.5 -43.5t-30.5 -30.5q-70 98 -140.5 182t-131.5 150z" />
<glyph unicode="&#x203a;" d="M63 270l126 126q69 71 116 126l-30 77q-17 44 -39 90l-46 91l-40 78q25 20 57 20q10 0 20 -1q55 -76 111.5 -145.5t120.5 -139.5q10 -22 10 -45q0 -18 -6 -37q-90 -72 -184 -156l-185 -164q-31 31 -31 80z" />
<glyph unicode="&#x2044;" horiz-adv-x="952" d="M-82 63l1147 1446q61 -31 72 -86l-300 -364l-281 -347l-278 -352l-294 -378q-27 12 -44.5 33t-21.5 48z" />
<glyph unicode="&#x205f;" horiz-adv-x="495" />
<glyph unicode="&#x20ac;" horiz-adv-x="1433" d="M100 485q-2 13 -1 26q0 17 2 35q5 32 20 56h117q0 35 6 75l10 66h-131q0 8 -1 17q0 60 28 98h131q47 154 131 265.5t191.5 183t229 105.5t240.5 34q133 0 237.5 -31t211.5 -94q-29 -72 -44.5 -149.5t-25.5 -170.5q-30 -11 -62 -11q-26 0 -53 7q8 63 8 113q0 39 -5 71 q-11 71 -44.5 109.5t-87 53t-121.5 14.5q-113 0 -209 -38t-169.5 -104.5t-127 -157.5t-83.5 -200h563q-4 -63 -33 -108h-266q-141 0 -287 -2q-4 -31 -8 -69q-3 -25 -3 -51q0 -13 1 -26h557q-6 -63 -35 -110h-251q-130 0 -263 -3q12 -82 43 -151.5t82 -120.5t125 -78.5 t170 -27.5q115 0 220.5 31.5t201.5 88.5q29 -29 33 -79q-125 -88 -251 -129t-261 -41q-133 0 -238.5 37.5t-179.5 104t-118 159t-58 202.5h-142z" />
<glyph unicode="&#x2122;" horiz-adv-x="3010" d="M1092 -6q0 20 3 43.5t13 46.5q43 10 72.5 28.5t52 53.5t43 90t45.5 145q55 184 105.5 372t93.5 378q12 57 13 92t-11.5 55.5t-39 29.5t-67.5 13q-4 25 -5 46.5t3 44.5q47 -4 87 -5.5t75 -1.5q43 0 78 1t74 6q94 -297 173.5 -590t151.5 -588l334 582l322 596 q47 -4 76.5 -5.5t60.5 -1.5q33 0 73.5 1t79.5 6q0 -47 -14 -91q-41 -4 -68.5 -15t-45 -36.5t-26.5 -66.5t-14 -105q-25 -455 -57 -774q-7 -62 -6 -105v-21q2 -48 14.5 -73.5t37 -39t61.5 -21.5q4 -20 5 -44t-1 -46q-49 4 -119 5t-139 1q-76 0 -138.5 -1t-115.5 -5 q0 47 18 90q49 8 82 22.5t53.5 43t29.5 73.5t15 115q16 170 30.5 353t25.5 382l-305 -547l-318 -534q-20 -8 -41.5 -9t-44.5 -1q-68 279 -143.5 555t-163.5 559l-91 -364l-85 -314q-27 -98 -36 -159q-4 -29 -5 -51q0 -25 6 -44q10 -35 41 -52.5t82 -27.5q4 -23 5 -45.5 t-1 -44.5q-66 4 -120 5t-97 1q-47 0 -95 -1t-122 -5zM133 1106l21.5 74t21.5 85t18.5 87t14.5 80q88 -4 229.5 -5.5t298.5 -1.5q166 0 312.5 1t234.5 6q-12 -74 -19.5 -159t-7.5 -173q-23 -14 -47 -17.5t-55 -1.5q0 72 -9 123t-34 82t-66.5 44t-107.5 13h-104l-191 -1085 q-8 -45 -8 -75.5t14.5 -49t46 -31t88.5 -18.5q6 -27 7 -55q0 -17 -3 -35q-68 4 -137 5t-133 1q-70 0 -144.5 -1t-131.5 -5q0 53 16 92q49 6 83 17.5t54.5 32t31.5 55t22 88.5l186 1064h-125q-57 0 -99 -14t-75 -47t-56.5 -84t-48.5 -123q-31 0 -56.5 5.5t-41.5 25.5z" />
<glyph unicode="&#xe000;" horiz-adv-x="985" d="M0 985h985v-985h-985v985z" />
<glyph horiz-adv-x="770" d="M-53 94l93 86l96 82l90 73l73 60q92 70 135 132.5t60 142.5q7 39 7 71q0 38 -11 65q-19 50 -82 50q-78 0 -118 -59.5t-75 -200.5q-25 -2 -56.5 3t-47.5 15q37 115 43 242q80 51 147.5 70.5t147.5 19.5q139 0 208 -63q53 -48 53 -127q0 -25 -5 -54q-16 -88 -77 -155.5 t-179 -151.5l-56 -42l-69 -52l-75 -60l-71 -59q29 4 55 4h58q51 0 84 -4t61 -4q33 0 62.5 24.5t48.5 98.5q23 2 53.5 -2t42.5 -12q-12 -59 -17 -127q-4 -48 -4 -86q0 -15 1 -29q-10 -25 -32 -38t-59 -13q-51 0 -113.5 3t-160.5 3h-76q-33 0 -65 -1l-69 -2q-36 -1 -81 -3 q-14 18 -19 48q-3 16 -3 31q0 11 2 21z" />
<glyph horiz-adv-x="759" d="M-29 276q166 162 321 329l312 341q12 2 24 2q17 0 30 -4q24 -6 40 -14l-108 -580h67q31 0 52 -20q-6 -14 -12.5 -35t-12.5 -44.5t-10 -45t-8 -37.5h-109l-33 -168h-194l30 166q-125 -2 -209.5 -4t-138.5 -4q-18 14 -31 53q-10 30 -11 52q0 7 1 13zM156 350h239l19 105 q10 61 23.5 120.5t33.5 114.5h-2q-18 -27 -55 -72t-111 -124q-39 -45 -77.5 -82t-69.5 -62z" />
<glyph horiz-adv-x="585" d="M127 588q0 23 4 48.5t10 41.5q39 4 60.5 12t37 25.5t23.5 45t17 73.5l69 358q10 51 11 82t-10 48t-39.5 22.5t-78.5 5.5q-3 14 -2 26q0 33 19 58q84 12 148.5 29.5t131.5 49.5q29 -12 44 -43q9 -18 10 -44q0 -17 -4 -37l-107 -551q-8 -45 -10 -74t6 -46.5t27.5 -25.5 t54.5 -12q6 -25 7 -46.5t-3 -45.5q-74 4 -117 5t-98 1t-100 -1t-111 -5z" />
<glyph horiz-adv-x="657" d="M61 633q0 23 12.5 49.5t28.5 36.5q27 -16 66 -28.5t100 -12.5q84 0 144.5 37t74.5 112q5 23 5 43q0 52 -31 85q-43 46 -158 46q-10 25 -8 45.5t10 45.5q98 14 143.5 60t61.5 124q5 25 5 47q0 34 -12 57q-19 39 -73 39q-51 0 -87 -49t-69 -176q-25 -4 -56.5 0t-51.5 14 q6 20 14 51t14.5 63t10.5 62.5t4 53.5q49 33 119.5 54t132.5 21q143 0 215 -53q53 -40 53 -117q0 -26 -6 -57q-12 -61 -64.5 -116.5t-126.5 -82.5q90 -18 143 -80q36 -44 36 -112q0 -29 -6 -64q-14 -63 -52.5 -111t-94.5 -80t-126 -48.5t-145 -16.5q-96 0 -146.5 17.5 t-79.5 40.5z" />
</font>
</defs>
</svg>
